<svg width="47" height="48" viewBox="0 0 47 48" fill="none" xmlns="http://www.w3.org/2000/svg">
<path d="M24.164 47.4749C23.9589 48.1313 23.0563 48.0902 22.8512 47.4749V47.4338C22.8512 47.4338 22.0717 45.8749 16.7384 43.9877C11.8564 42.3056 10.7077 38.9415 10.4205 37.5877C9.06664 37.3005 5.66152 36.1518 3.97948 31.2698C2.13333 25.8954 0.533332 25.157 0.492306 25.1159C-0.164102 24.9108 -0.164102 24.0082 0.492306 23.8031H0.533332C0.533332 23.8031 1.10769 23.5159 1.96923 22.1621C2.66666 21.0544 3.32307 19.5775 3.97948 17.6903C5.66152 12.8493 9.06664 11.7006 10.4205 11.4134C10.7077 10.0596 11.8564 6.65444 16.6974 4.9724C22.0717 3.12625 22.8102 1.52625 22.8512 1.48523C23.0563 0.828818 23.9589 0.828818 24.164 1.48523V1.52625C24.164 1.52625 24.9435 3.12625 30.2768 4.9724C35.1589 6.65444 36.3076 10.0596 36.5948 11.4134C37.9486 11.7006 41.3537 12.8493 43.0358 17.6903C43.6922 19.5365 44.3486 21.0544 45.046 22.1621C45.9076 23.557 46.4819 23.8441 46.523 23.8441C47.1794 24.0493 47.1383 24.9518 46.523 25.157C46.3999 25.239 44.8409 26.1416 43.0768 31.2698C41.3948 36.1518 37.9896 37.3005 36.6358 37.5467C36.3486 38.9005 35.1999 42.3056 30.3589 43.9877C24.9025 45.8749 24.164 47.4749 24.164 47.4749ZM1.9282 24.5006C2.74871 25.3211 3.97948 27.0441 5.29229 30.8185C7.09742 35.9877 11.0359 36.2339 11.0769 36.2339L11.6923 36.2749L11.7333 36.8903C11.7333 37.0544 12.0615 40.8697 17.1487 42.6749C20.923 43.9877 22.6871 45.2184 23.4666 46.039C24.2871 45.2184 26.0102 43.9877 29.7845 42.6749C34.9538 40.8697 35.1999 36.9313 35.1999 36.8903L35.2409 36.2749L35.8563 36.2339C36.0204 36.2339 39.8358 35.9057 41.6409 30.8185C42.9537 27.0441 44.1845 25.28 45.005 24.5006C44.6768 24.1723 44.2665 23.68 43.7742 22.9006C43.0358 21.7108 42.2973 20.1108 41.6409 18.1416C39.8768 13.0134 36.0204 12.7262 35.8563 12.6852H35.323L35.282 12.0698C35.282 11.9057 34.9538 8.09034 29.8666 6.28521C26.0922 4.9724 24.3281 3.74163 23.5487 2.92112C22.7281 3.74163 21.0051 4.9724 17.2307 6.28521C12.1025 8.04931 11.8154 11.9057 11.8154 12.0698L11.7743 12.6852L11.1589 12.7262C10.9948 12.7262 7.17947 13.0544 5.37434 18.1826C4.67691 20.1518 3.97948 21.7518 3.24102 22.9416C2.70769 23.68 2.29743 24.1723 1.9282 24.5006Z" fill="#094A37"/>
<path d="M1.9282 24.5006C2.74871 25.3211 3.97948 27.0441 5.29229 30.8185C7.09742 35.9877 11.0359 36.2339 11.0769 36.2339L11.6923 36.2749L11.7333 36.8903C11.7333 37.0544 12.0615 40.8697 17.1487 42.6749C20.923 43.9877 22.6871 45.2184 23.4666 46.039C24.2871 45.2184 26.0102 43.9877 29.7845 42.6749C34.9538 40.8697 35.1999 36.9313 35.1999 36.8903L35.2409 36.2749L35.8563 36.2339C36.0204 36.2339 39.8358 35.9057 41.6409 30.8185C42.9537 27.0441 44.1845 25.28 45.005 24.5006C44.6768 24.1723 44.2665 23.68 43.7742 22.9006C43.0358 21.7108 42.2973 20.1108 41.6409 18.1416C39.8768 13.0134 36.0204 12.7262 35.8563 12.6852H35.323L35.282 12.0698C35.282 11.9057 34.9538 8.09034 29.8666 6.28521C26.0922 4.9724 24.3281 3.74163 23.5487 2.92112C22.7281 3.74163 21.0051 4.9724 17.2307 6.28521C12.1025 8.04931 11.8154 11.9057 11.8154 12.0698L11.7743 12.6852L11.1589 12.7262C10.9948 12.7262 7.17947 13.0544 5.37434 18.1826C4.67691 20.1518 3.97948 21.7518 3.24102 22.9416C2.70769 23.68 2.29743 24.1723 1.9282 24.5006Z" fill="#094A37"/>
<path fill-rule="evenodd" clip-rule="evenodd" d="M24.1358 46.5429C23.9394 47.1719 23.0752 47.1326 22.8788 46.5429V46.5035C22.8788 46.5035 22.1325 45.0096 17.0261 43.2012C12.3519 41.5893 11.252 38.3655 10.9771 37.0682C9.68083 36.793 6.42061 35.6922 4.81014 31.0138C3.04255 25.8636 1.51064 25.156 1.47136 25.1167C0.842881 24.9201 0.842881 24.0552 1.47136 23.8586H1.51064C1.51064 23.8586 2.06055 23.5834 2.88543 22.2861C3.55318 21.2246 4.18166 19.8093 4.81014 18.0008C6.42061 13.3618 9.68083 12.261 10.9771 11.9858C11.252 10.6884 12.3519 7.42534 16.9869 5.81347C22.1325 4.04433 22.8395 2.51108 22.8788 2.47177C23.0752 1.84274 23.9394 1.84274 24.1358 2.47177V2.51108C24.1358 2.51108 24.8821 4.04433 29.9885 5.81347C34.6628 7.42534 35.7626 10.6884 36.0375 11.9858C37.3338 12.261 40.594 13.3618 42.2045 18.0008C42.8329 19.77 43.4614 21.2246 44.1292 22.2861C44.9541 23.6227 45.504 23.8979 45.5433 23.8979C46.1717 24.0945 46.1325 24.9594 45.5433 25.156C45.4254 25.2346 43.9328 26.0995 42.2438 31.0138C40.6333 35.6922 37.3731 36.793 36.0768 37.0288C35.8019 38.3262 34.702 41.5893 30.067 43.2012C24.8428 45.0096 24.1358 46.5429 24.1358 46.5429ZM6.06709 30.5813C4.81014 26.9644 3.63174 25.3132 2.84615 24.527C3.19967 24.2125 3.59246 23.7407 4.1031 23.033C4.81014 21.8929 5.47789 20.3597 6.14565 18.4726C7.87396 13.5583 11.527 13.2438 11.6841 13.2438L12.2733 13.2045L12.3126 12.6148C12.3126 12.4575 12.5875 8.76202 17.4975 7.07152C21.1112 5.81347 22.761 4.63404 23.5466 3.84776C24.2929 4.63404 25.9819 5.81347 29.5957 7.07152C34.4664 8.80134 34.7806 12.4575 34.7806 12.6148L34.8199 13.2045H35.3305C35.4876 13.2438 39.1799 13.519 40.869 18.4333C41.4974 20.3204 42.2045 21.8536 42.9115 22.9937C43.3829 23.7407 43.7757 24.2125 44.0899 24.527C43.3043 25.2739 42.1259 26.9644 40.869 30.5813C39.1407 35.4563 35.4876 35.7708 35.3305 35.7708L34.7413 35.8101L34.702 36.3998C34.702 36.4391 34.4664 40.2133 29.5171 41.9431C25.9034 43.2012 24.2536 44.3806 23.468 45.1669C22.7217 44.3806 21.0327 43.2012 17.4189 41.9431C12.5483 40.2133 12.234 36.5571 12.234 36.3998L12.1947 35.8101L11.6055 35.7708C11.5663 35.7708 7.7954 35.5349 6.06709 30.5813Z" fill="#FFFDF3" stroke="#094A37" stroke-width="0.8"/>
<path d="M29.9555 19.063C30.2269 22.8398 30.3731 24.9472 30.3731 25.3854C30.3731 25.8653 30.3522 26.3035 30.3104 26.6582C30.2687 26.9295 30.2687 27.0964 30.2896 27.1799C30.3104 27.2633 30.3313 27.2425 30.4148 27.1381C30.4566 27.0547 30.5192 26.9503 30.5819 26.7834C30.9159 25.9696 31.0829 25.0307 31.0829 23.9665C31.0829 23.6118 30.9576 21.7547 30.7071 18.3953C30.4566 15.0151 30.3313 13.3249 30.3313 13.2832C30.3313 13.158 30.3522 13.1372 30.394 13.1997C30.7906 13.6379 30.9785 13.7631 30.9785 13.5753C30.9785 13.5127 30.9576 13.4084 30.9159 13.2832C30.8741 13.1163 30.7071 12.6572 30.4148 11.9269C30.1434 11.2175 29.9764 10.8002 29.8929 10.6333C29.8303 10.5081 29.7676 10.5081 29.705 10.6333C29.4545 11.2175 29.3083 11.5931 29.3083 11.7809C29.4545 12.073 29.5171 12.4277 29.5171 12.8659C29.538 13.2206 29.6841 15.2863 29.9555 19.063Z" fill="#FDFDFD"/>
<path d="M13.5879 25.0307C13.5253 25.6149 13.5253 25.9696 13.6088 26.1157C13.6297 26.1574 13.8384 26.1991 14.2768 26.2617C14.6944 26.3243 14.924 26.3452 14.9658 26.3243C14.9867 26.3035 15.0075 26.2826 15.0075 26.22V25.4271C15.1328 25.4688 15.3625 25.5106 15.7174 25.5732C16.0723 25.6149 16.2602 25.6358 16.3019 25.6149C16.3228 25.594 16.3437 25.5732 16.3437 25.5106V24.509C16.3437 24.4673 16.3228 24.4464 16.3019 24.4255C15.8635 24.3838 15.4251 24.3212 15.0075 24.2378C14.9658 24.2378 14.924 24.2586 14.924 24.3212C14.9032 24.5507 14.9032 24.8429 14.9032 25.1558C14.4439 25.0933 14.0263 25.0307 13.6505 24.9681C13.6088 24.9263 13.5879 24.9472 13.5879 25.0307Z" fill="#FDFDFD"/>
<path d="M17.2414 33.7108C17.2623 33.7108 17.3458 33.6691 17.4711 33.5856C17.7842 33.3561 18.0347 33.1057 18.2435 32.7927C18.4314 32.5006 18.5358 32.2294 18.5358 31.9998C18.5358 31.6869 18.4105 31.5199 18.16 31.5199C17.8468 31.5199 17.6589 31.7077 17.5754 32.1042C17.5546 32.1876 17.5546 32.2294 17.5546 32.2502C17.5754 32.2502 17.5754 32.2502 17.5963 32.2711C17.6172 32.2711 17.6381 32.2502 17.7007 32.2085C17.7842 32.1668 17.8677 32.125 17.9512 32.125C18.1182 32.125 18.2018 32.2085 18.2018 32.3963C18.2018 32.5841 17.9303 32.9597 17.4293 33.5231C17.304 33.6274 17.2414 33.69 17.2414 33.7108Z" fill="#FDFDFD"/>
<path d="M21.4794 15.2029C21.5003 15.2029 21.5838 15.1611 21.7091 15.0777C22.0222 14.8481 22.2728 14.5978 22.4815 14.2848C22.6694 13.9926 22.7738 13.7214 22.7738 13.4919C22.7738 13.1789 22.6485 13.012 22.398 13.012C22.0849 13.012 21.897 13.1997 21.8135 13.5962C21.7926 13.6797 21.7926 13.7214 21.7926 13.7423C21.8135 13.7423 21.8135 13.7423 21.8343 13.7631C21.8552 13.7631 21.8761 13.7423 21.9387 13.7005C22.0222 13.6588 22.1057 13.6171 22.1892 13.6171C22.3563 13.6171 22.4398 13.7005 22.4398 13.8883C22.4398 14.0761 22.1684 14.4517 21.6673 15.0151C21.5212 15.1194 21.4794 15.182 21.4794 15.2029Z" fill="#FDFDFD"/>
<path d="M22.6485 34.462C22.6277 34.4412 22.6485 34.4412 22.6485 34.462C22.6277 34.462 22.565 34.5455 22.4815 34.6707C22.2936 35.0045 22.1684 35.3384 22.1057 35.714C22.0431 36.0687 22.064 36.3399 22.1684 36.5695C22.2936 36.8616 22.4815 36.945 22.7112 36.8407C22.9826 36.7155 23.087 36.4651 23.0035 36.0687C22.9826 35.9852 22.9617 35.9435 22.9617 35.9226C22.9408 35.9226 22.9408 35.9226 22.92 35.9226C22.92 35.9226 22.8782 35.9644 22.8573 36.027C22.8156 36.1104 22.7529 36.1521 22.6485 36.1939C22.5024 36.2565 22.3771 36.2147 22.3145 36.0478C22.231 35.8809 22.3145 35.4218 22.565 34.7124C22.6277 34.5455 22.6485 34.462 22.6485 34.462Z" fill="#FDFDFD"/>
<path d="M24.6528 16.3713C24.6528 16.3922 24.6528 16.3922 24.6528 16.3713C24.6737 16.3713 24.7572 16.3296 24.8824 16.2462C25.1956 16.0166 25.4461 15.7662 25.6549 15.4532C25.8428 15.1611 25.9472 14.8899 25.9472 14.6603C25.9472 14.3474 25.8219 14.1804 25.5714 14.1804C25.2582 14.1804 25.0703 14.3682 24.9868 14.7647C24.9659 14.8481 24.9659 14.8899 24.9659 14.9107C24.9868 14.9107 24.9868 14.9107 25.0077 14.9316C25.0286 14.9316 25.0494 14.9107 25.1121 14.869C25.1956 14.8273 25.2791 14.7855 25.3626 14.7855C25.5296 14.7855 25.6131 14.869 25.6131 15.0568C25.6131 15.2446 25.3417 15.6202 24.8407 16.1836C24.7154 16.2879 24.6528 16.3713 24.6528 16.3713Z" fill="#FDFDFD"/>
<path d="M9.41245 19.5638C9.57947 19.5012 9.6421 19.376 9.60034 19.1465C9.60034 19.1048 9.57947 19.0839 9.57947 19.063H9.55859C9.55859 19.063 9.53771 19.0839 9.51684 19.1048C9.49596 19.1465 9.4542 19.1674 9.39157 19.1882C9.30806 19.2091 9.24543 19.1882 9.20368 19.1048C9.16192 19.0004 9.22456 18.7709 9.39157 18.3745C9.43333 18.291 9.43333 18.2493 9.43333 18.2493C9.41245 18.2493 9.39157 18.291 9.34982 18.3536C9.22456 18.5205 9.14105 18.7083 9.09929 18.917C9.05754 19.1048 9.05754 19.2717 9.09929 19.376C9.1828 19.5638 9.26631 19.6264 9.41245 19.5638Z" fill="#FDFDFD"/>
<path d="M10.2476 21.3791C10.2684 21.3791 10.3311 21.3583 10.4146 21.2748C10.6651 21.1079 10.853 20.8992 11.02 20.6488C11.1662 20.4193 11.2497 20.2106 11.2497 20.0229C11.2497 19.7725 11.1453 19.6473 10.9574 19.6473C10.7277 19.6473 10.5816 19.7933 10.4981 20.0855C10.4981 20.148 10.4772 20.1898 10.4772 20.1898C10.4981 20.1898 10.4981 20.1898 10.4981 20.2106C10.4981 20.2106 10.5398 20.1898 10.5816 20.1689C10.6442 20.1272 10.7069 20.1063 10.7695 20.1063C10.8948 20.1063 10.9574 20.1689 10.9574 20.315C10.9574 20.461 10.7486 20.7532 10.352 21.1913C10.2893 21.3165 10.2476 21.3791 10.2476 21.3791Z" fill="#FDFDFD"/>
<path d="M15.5712 33.1892C15.5921 33.1683 15.5921 33.1475 15.5921 33.1266C15.5921 33.1057 15.5712 33.1057 15.5503 33.1266C15.4251 33.2101 15.2789 33.3561 15.1328 33.5648C14.9658 33.7943 14.8823 34.003 14.8823 34.1908C14.8823 34.3785 14.9658 34.4829 15.1537 34.4829C15.2372 34.4829 15.3207 34.4411 15.3833 34.3785C15.4668 34.2951 15.5086 34.1908 15.5086 34.0864C15.5086 33.9612 15.4251 33.8778 15.2789 33.8778C15.2163 33.8778 15.1537 33.8986 15.1119 33.9404C15.1119 33.8569 15.1746 33.7317 15.2789 33.5856C15.3625 33.3979 15.4668 33.2727 15.5712 33.1892Z" fill="#FDFDFD"/>
<path d="M12.7737 15.1611C13.0868 14.9316 13.3373 14.6812 13.5461 14.3682C13.734 14.0761 13.8384 13.8049 13.8384 13.5753C13.8384 13.2623 13.7131 13.0954 13.4626 13.0954C13.1495 13.0954 12.9616 13.2832 12.8781 13.6797C12.8572 13.7631 12.8572 13.8049 12.8572 13.8257C12.8738 13.8466 12.8781 13.8466 12.8989 13.8466C12.9198 13.8466 12.9407 13.8257 13.0033 13.784C13.0868 13.7423 13.1703 13.7005 13.2538 13.7005C13.4209 13.7005 13.5044 13.784 13.5044 13.9718C13.5044 14.1596 13.233 14.5352 12.7319 15.0985C12.6275 15.2029 12.5649 15.2863 12.5649 15.3072C12.5858 15.2863 12.6484 15.2446 12.7737 15.1611Z" fill="#FDFDFD"/>
<path d="M16.8865 11.3636C17.0744 11.3427 17.2414 11.2801 17.3875 11.1758C17.5337 11.0923 17.638 10.988 17.6798 10.8836C17.7424 10.7376 17.7216 10.6541 17.6172 10.5915C17.4919 10.5289 17.3666 10.5707 17.2414 10.7167C17.2205 10.7584 17.1996 10.7793 17.1996 10.7793C17.1996 10.7793 17.1996 10.7793 17.2205 10.8002C17.2205 10.8002 17.2414 10.8002 17.2831 10.8002C17.3249 10.8002 17.3666 10.8002 17.4084 10.821C17.471 10.8628 17.4919 10.9045 17.471 10.988C17.4293 11.0714 17.2414 11.1758 16.8865 11.3218C16.8238 11.3427 16.7821 11.3636 16.7821 11.3844C16.7612 11.3636 16.803 11.3636 16.8865 11.3636Z" fill="#FDFDFD"/>
<path d="M20.0389 10.2577C20.1642 10.3203 20.2895 10.2785 20.4147 10.1325C20.4356 10.0907 20.4565 10.0907 20.4565 10.0699C20.4565 10.0699 20.4565 10.0699 20.4356 10.049C20.4356 10.049 20.4147 10.049 20.373 10.049C20.3312 10.049 20.2895 10.049 20.2477 10.0281C20.1642 9.98641 20.1642 9.94468 20.1851 9.86121C20.2268 9.77775 20.4147 9.67342 20.7696 9.52736C20.8323 9.50649 20.874 9.48563 20.874 9.46476C20.874 9.46476 20.8114 9.46476 20.7488 9.48563C20.5609 9.52736 20.3938 9.58996 20.2477 9.67342C20.1016 9.75688 19.9972 9.86121 19.9554 9.96554C19.8928 10.1116 19.9137 10.2159 20.0389 10.2577Z" fill="#FDFDFD"/>
<path d="M23.2749 25.1141C23.2958 25.0933 23.3166 25.0515 23.2958 25.0307C23.2958 25.0098 23.2749 25.0098 23.2331 25.0307C23.087 25.1141 22.9408 25.2811 22.7738 25.5106C22.5859 25.7818 22.5024 25.9905 22.5024 26.1992C22.5024 26.4078 22.6068 26.5121 22.7947 26.5121C22.8782 26.5121 22.9617 26.4704 23.0452 26.3869C23.1287 26.3035 23.1914 26.1992 23.1914 26.0531C23.1914 25.907 23.1079 25.8444 22.9408 25.8444C22.8782 25.8444 22.7947 25.8653 22.753 25.907C22.753 25.8236 22.8156 25.6984 22.9408 25.5106C23.0661 25.3437 23.1705 25.2185 23.2749 25.1141Z" fill="#FDFDFD"/>
<path d="M12.9407 27.2007C12.9616 27.1798 12.9616 27.159 12.9616 27.1381C12.9616 27.1173 12.9407 27.1173 12.9198 27.1381C12.7945 27.2216 12.6484 27.3676 12.5023 27.5763C12.3352 27.8058 12.2517 28.0145 12.2517 28.2023C12.2517 28.3901 12.3352 28.4944 12.5231 28.4944C12.6066 28.4944 12.6902 28.4527 12.7528 28.3901C12.8363 28.3066 12.8781 28.2023 12.8781 28.0979C12.8781 27.9727 12.7945 27.8893 12.6484 27.8893C12.5858 27.8893 12.5231 27.9102 12.4814 27.9519C12.4814 27.8684 12.544 27.7432 12.6484 27.5972C12.7319 27.4094 12.8363 27.305 12.9407 27.2007Z" fill="#FDFDFD"/>
<path d="M27.158 27.8475C27.1371 27.8475 27.0954 27.9101 27.0327 28.0145C26.7822 28.4735 26.657 28.9117 26.657 29.3499C26.657 29.6837 26.7613 29.8715 26.9701 29.8715C27.158 29.8715 27.3041 29.642 27.3877 29.183C27.3877 29.1621 27.3877 29.1412 27.3877 29.1412C27.3877 29.1412 27.3877 29.1412 27.3668 29.1412C27.3668 29.1621 27.3459 29.1621 27.3459 29.183C27.2415 29.3916 27.1371 29.4751 27.0536 29.4751C26.9075 29.4751 26.8449 29.3499 26.8449 29.0786C26.8449 28.8908 26.9284 28.557 27.0745 28.0771C27.1371 27.931 27.158 27.8684 27.158 27.8475Z" fill="#FDFDFD"/>
<path d="M9.997 29.2247C9.97612 29.2247 9.97612 29.2456 9.95524 29.2873C9.8091 29.5586 9.66296 29.7046 9.5377 29.7255C9.32893 29.7463 9.22454 29.5377 9.22454 29.1412C9.22454 29.0786 9.22454 29.016 9.24542 28.9534C9.30805 28.4318 9.49595 27.8684 9.76735 27.2633C9.8091 27.159 9.82998 27.0964 9.82998 27.0755C9.8091 27.0755 9.76735 27.1381 9.68384 27.2425C9.55858 27.4302 9.41244 27.7224 9.24542 28.1605C9.05753 28.6822 8.95314 29.0995 8.93226 29.4334C8.91139 29.7046 8.95314 29.9133 9.03665 30.0802C9.12016 30.2471 9.22454 30.3097 9.39156 30.3097C9.5377 30.3097 9.66296 30.2054 9.76735 29.9967C9.89261 29.7881 9.95524 29.5586 9.997 29.2873C10.0179 29.2664 10.0179 29.2456 9.997 29.2247C10.0179 29.2247 10.0179 29.2247 9.997 29.2247Z" fill="#FDFDFD"/>
<path d="M10.3519 16.9764C10.4563 17.0599 10.5189 17.1016 10.5816 17.1016C10.6233 17.1016 10.6651 17.0808 10.6859 17.0599C10.6859 17.039 10.7277 17.0182 10.7486 17.0182C10.7903 17.0182 10.8947 17.2477 11.0617 17.7068C11.2079 18.1449 11.2914 18.4162 11.2914 18.5414C11.2914 18.604 11.3123 18.6457 11.3331 18.6457C11.354 18.6457 11.3958 18.604 11.4375 18.5205C11.5002 18.3953 11.5628 18.2075 11.6045 17.9154C11.7716 17.0182 11.9177 16.58 12.043 16.58C12.1056 16.58 12.1682 16.6217 12.2309 16.6843C12.2935 16.7678 12.3352 16.7887 12.3352 16.7887C12.377 16.7887 12.4187 16.7469 12.4396 16.6426C12.4605 16.58 12.4814 16.5174 12.4814 16.4757C12.4814 16.4131 12.4396 16.3505 12.377 16.2461C12.2935 16.1418 12.21 16.0792 12.1265 16.0792C11.9803 16.0792 11.8342 16.2253 11.688 16.5383C11.5419 17.1016 11.4584 17.5398 11.4166 17.8945C11.3958 17.9363 11.3958 17.9571 11.3958 17.9571C11.3958 17.9571 11.3958 17.9571 11.3749 17.9571C11.3749 17.9571 11.3749 17.9363 11.3749 17.8945C11.3123 17.4981 11.187 17.1434 11.02 16.8304C10.8321 16.4757 10.6442 16.3087 10.4772 16.3087C10.4563 16.3087 10.4145 16.3713 10.331 16.4965C10.2475 16.6217 10.2058 16.7052 10.2058 16.7261C10.2058 16.8304 10.2475 16.893 10.3519 16.9764Z" fill="#FDFDFD"/>
<path d="M35.6341 17.8111C35.6341 17.7068 35.655 17.665 35.6967 17.7276C36.0934 18.1867 36.3022 18.3119 36.3022 18.1032C36.3022 18.0406 36.2813 17.9363 36.2395 17.8111C36.1978 17.6442 36.0308 17.1851 35.7385 16.4548C35.4671 15.7454 35.3001 15.3281 35.2166 15.1611C35.1539 15.0359 35.0913 15.0359 35.0287 15.1611C34.7573 15.7454 34.632 16.121 34.632 16.3087C34.7782 16.58 34.8408 16.9556 34.8408 17.3938C34.8408 17.7694 34.9869 20.1481 35.3001 24.5299C35.6132 28.8908 35.7594 31.2904 35.7594 31.7286C35.7594 32.2085 35.7385 32.6467 35.6967 33.0223C35.655 33.2935 35.655 33.4605 35.6759 33.5439C35.6967 33.6274 35.7385 33.6065 35.8011 33.5022C35.8429 33.4187 35.9055 33.3144 35.9681 33.1475C36.3022 32.3546 36.4692 31.3947 36.4692 30.3306C36.4692 29.9759 36.3231 27.8267 36.0308 23.8622C35.7803 19.8351 35.6341 17.8528 35.6341 17.8111Z" fill="#FDFDFD"/>
<path d="M33.1915 15.0777C33.1915 14.9525 33.2124 14.9316 33.2541 14.9942C33.6508 15.4532 33.8387 15.5576 33.8387 15.3698C33.8387 15.3072 33.8178 15.2029 33.7969 15.0777C33.7343 14.9107 33.5673 14.4517 33.2959 13.7214C33.0245 13.0328 32.8366 12.5946 32.7739 12.4277C32.7322 12.3442 32.7113 12.3234 32.6696 12.3234C32.6487 12.3234 32.6069 12.3651 32.5861 12.4277C32.3146 13.0328 32.1894 13.4084 32.1894 13.5753C32.3564 13.8674 32.419 14.2222 32.419 14.6603C32.419 15.1403 32.6278 18.2075 33.0453 23.8622C33.4629 29.5168 33.6717 32.5424 33.6717 32.9388C33.6717 33.5648 33.609 33.9404 33.4838 34.0447C33.0662 34.3786 32.6278 34.5455 32.1894 34.5455C31.6466 34.5455 31.2082 34.3577 30.8115 33.9612C31.3543 33.377 31.6257 32.6258 31.6257 31.7286C31.6257 31.3739 31.5004 30.9774 31.2708 30.5392C30.9994 30.0385 30.728 29.7881 30.4148 29.7881C30.0808 29.7881 29.8094 29.9967 29.6006 30.414C29.3919 30.8314 29.2875 31.3947 29.2875 32.0833C29.2875 32.5424 29.371 32.9805 29.538 33.4187L28.4106 33.8986C27.2833 34.3786 26.4691 34.7333 26.0098 34.9837C25.2164 35.401 24.5901 35.8809 24.1099 36.4234C23.7341 36.8616 23.3584 37.2998 23.0035 37.738C22.4189 38.3013 21.8343 38.5935 21.2706 38.5935C20.9575 38.5935 20.6861 38.4683 20.5191 38.2387C20.3521 38.0301 20.2685 37.738 20.2685 37.3624C20.2685 36.8825 20.4147 36.2565 20.7278 35.4427C20.9992 34.7124 21.1454 34.2534 21.1871 34.0656C21.5629 33.7526 21.897 33.4605 22.1684 33.1475C22.565 32.7093 22.7529 32.0624 22.7529 31.2069C22.7529 30.7688 22.6068 30.268 22.3145 29.6629C21.9387 28.9326 21.7508 28.5361 21.7299 28.4527C21.9805 28.5361 22.1475 28.557 22.2728 28.557C22.3771 28.557 22.4398 28.5361 22.4398 28.4527C22.4398 28.3901 22.398 28.3275 22.2936 28.2231C21.7091 27.6598 21.3333 27.2842 21.1454 27.0755C21.0828 27.0129 21.041 26.9921 20.9992 26.9921C20.9575 26.9921 20.9366 27.0546 20.9157 27.159C20.7905 27.7641 20.7278 28.1188 20.7278 28.1814C20.7278 28.2649 20.7696 28.3483 20.8531 28.4109C20.9366 28.4944 21.0201 28.6196 21.0828 28.8282C21.2498 29.4542 21.5003 30.1011 21.8552 30.7479C22.1475 31.3113 22.2936 31.6034 22.2936 31.6451C22.2936 31.8747 21.9387 32.2502 21.2498 32.7928C20.4773 33.3979 19.6214 33.8778 18.6401 34.2742C17.4501 34.775 16.3019 35.0254 15.2372 35.0254C14.0263 35.0254 13.0868 34.6289 12.4605 33.8569C11.9803 33.2727 11.7507 32.6258 11.7507 31.9373C11.7507 31.7286 11.7924 31.4156 11.8968 30.9983C11.9386 30.8314 11.9803 30.6853 12.0012 30.5184C12.1473 30.5601 12.2935 30.6018 12.4605 30.6018C13.0033 30.6018 13.5461 30.2889 14.0889 29.6629C15.0075 28.6196 15.6965 27.931 16.1766 27.5554C16.4272 27.3468 16.9073 27.0964 17.6172 26.7625C17.9721 26.5956 18.494 26.3661 19.2038 26.074C20.3521 25.594 21.0828 25.2185 21.4168 24.9263C21.8761 24.5299 22.1057 23.9456 22.1057 23.1736C22.1057 22.9649 22.0013 22.6102 21.7926 22.1303C21.7299 21.9843 21.7091 21.9217 21.7299 21.9217C21.7508 21.9217 21.7926 21.9634 21.8761 22.026C22.4606 22.5685 23.0452 23.0901 23.6298 23.6327C23.8177 23.7996 24.0056 23.9248 24.2143 24.0291C24.277 24.8637 24.3396 25.8862 24.4231 27.0546C24.6945 30.8314 24.8406 32.9388 24.8406 33.377C24.8406 33.8569 24.8198 34.2951 24.778 34.6498C24.7363 34.9211 24.7363 35.088 24.7571 35.1715C24.778 35.2549 24.7989 35.2341 24.8824 35.1297C24.9241 35.0463 24.9868 34.9419 25.0494 34.775C25.3834 33.9612 25.5505 33.0223 25.5505 31.9581C25.5505 31.6034 25.4252 29.7463 25.1747 26.3869C25.112 25.6358 25.0703 24.9681 25.0285 24.3838C25.2164 24.4256 25.3834 24.4464 25.5713 24.4464C25.7592 24.4673 25.9471 24.4673 26.1559 24.4464C26.6987 24.4464 27.1789 24.1126 27.5964 23.4866C28.0766 22.7354 28.3271 21.6713 28.3271 20.3567C28.3271 19.8977 28.2436 18.4788 28.0557 16.1001C27.8887 13.7214 27.7843 12.5112 27.7843 12.4903C27.7843 12.3651 27.8052 12.3442 27.8469 12.4068C28.2436 12.845 28.4315 12.9702 28.4315 12.7616C28.4315 12.699 28.4106 12.6155 28.3898 12.4694C28.3271 12.3025 28.1601 11.8643 27.8887 11.1132C27.6173 10.4037 27.4503 9.9864 27.3668 9.81947C27.325 9.73601 27.3041 9.69428 27.2624 9.69428C27.2415 9.69428 27.1998 9.73601 27.1789 9.79861C26.9075 10.4037 26.7822 10.7793 26.7822 10.9462C26.9283 11.2384 26.991 11.5931 26.991 12.0313C26.991 12.5112 27.0954 14.1178 27.2833 16.8304C27.492 19.5429 27.5755 21.087 27.5755 21.4835C27.5755 22.1094 27.5129 22.485 27.3876 22.5894C26.9701 22.9232 26.5317 23.0901 26.0933 23.0901C25.9054 23.1319 25.7175 23.1319 25.5087 23.0901C25.2999 23.0901 25.0912 23.0484 24.8615 22.9858C24.778 21.8799 24.7363 21.3165 24.7363 21.2957C24.7363 21.1705 24.7571 21.1496 24.7989 21.2122C25.1955 21.6504 25.3834 21.7756 25.3834 21.5669C25.3834 21.5043 25.3626 21.4 25.3208 21.2748C25.2791 21.1079 25.112 20.6488 24.8198 19.9185C24.5484 19.2091 24.3813 18.7918 24.2978 18.6249C24.2352 18.4997 24.1726 18.4997 24.1099 18.6249C23.8594 19.2091 23.7133 19.5847 23.7133 19.7725C23.8594 20.0646 23.922 20.4193 23.922 20.8575C23.922 21.0453 23.9429 21.6087 24.0056 22.5685C23.9638 22.5476 23.9429 22.5268 23.9012 22.5059C23.4627 22.1303 23.0243 21.7339 22.5859 21.3583C21.1245 20.1272 19.4543 18.8752 17.5754 17.6233C16.7821 17.1016 15.9887 16.6009 15.1745 16.1001C15.091 16.0584 15.091 16.0166 15.1536 15.9749C16.0722 15.2446 17.7633 14.3056 20.2477 13.158C22.732 12.0104 24.2978 11.447 24.9659 11.447C25.3834 11.447 25.5922 11.5305 25.5922 11.6765C25.5922 11.6974 25.5922 11.7391 25.5713 11.76C25.4252 12.0313 24.9868 12.5738 24.2352 13.4084C24.1517 13.5127 24.0264 13.7214 23.8385 14.0344C23.6506 14.3891 23.5463 14.6186 23.5045 14.7647C23.4627 15.0151 23.4419 15.1403 23.4627 15.1403C23.4836 15.1403 23.5463 15.0359 23.6298 14.8481C23.7759 14.556 24.0264 14.2013 24.4231 13.7423C24.6736 13.471 24.9241 13.1789 25.1747 12.9076C25.8219 12.0939 26.1559 11.4261 26.1559 10.8628C26.1559 10.6332 26.1141 10.4663 26.0098 10.362C25.9262 10.2577 25.7384 10.2159 25.4878 10.2159C24.6527 10.2159 22.9199 10.8002 20.2894 11.9895C17.7007 13.158 16.0096 14.097 15.2163 14.8064C15.091 14.9107 15.0075 15.1611 14.924 15.5784C14.8405 15.9332 14.8196 16.2879 14.8196 16.6217C14.8196 16.893 14.8405 17.0391 14.9031 17.0808C16.3019 18.2075 17.7215 19.3134 19.1203 20.4402C20.5817 21.6504 21.4168 22.6311 21.6256 23.3614C21.6673 23.5075 21.6256 23.6118 21.5212 23.6952C21.1454 23.9665 20.3521 24.363 19.1412 24.8637C18.0138 25.3228 17.2205 25.6984 16.7612 25.9279C15.9679 26.3452 15.3415 26.8251 14.8614 27.3676C14.4856 27.8058 14.1307 28.244 13.7549 28.6822C13.1703 29.2456 12.5858 29.5377 12.0221 29.5377C11.7089 29.5377 11.4375 29.4125 11.2705 29.183C11.1035 28.9743 11.02 28.6822 11.02 28.3066C11.02 27.8267 11.1661 27.2007 11.4793 26.3869C11.6045 26.0531 11.7089 25.761 11.7924 25.5523C12.3144 25.135 12.8154 24.7177 13.3373 24.3004C14.3186 23.5492 15.1745 23.0067 15.9261 22.7146C16.0722 23.0693 16.3019 23.424 16.615 23.737C17.0326 24.1543 17.4501 24.363 17.8886 24.363C18.2017 24.363 18.4731 24.2169 18.661 23.9248C18.8489 23.6327 18.9533 23.2779 18.9533 22.8189C18.9533 22.2764 18.828 21.8591 18.5984 21.5252C18.3687 21.1913 18.0556 21.0244 17.6589 21.0244C17.2622 21.0244 16.8029 21.1079 16.2601 21.2957L16.1349 21.3583C16.0305 20.9827 15.947 20.628 15.9052 20.3359C16.1558 20.5028 16.3228 20.5862 16.4272 20.5862C16.4898 20.5862 16.5107 20.5654 16.5107 20.5028C16.5107 20.4193 16.4689 20.2941 16.3436 20.1272L15.5503 18.8544C15.4668 18.7292 15.4251 18.6666 15.3833 18.6666C15.3415 18.6666 15.2998 18.7292 15.258 18.8544L14.9449 19.6055C15.0284 19.7307 15.091 19.8351 15.1328 19.9394C15.1536 19.9811 15.1537 20.0437 15.1745 20.1898C15.2372 20.6906 15.3415 21.1705 15.4459 21.6713C14.4856 22.1303 13.5044 22.7563 12.544 23.5701C11.9803 24.05 11.3958 24.5507 10.8321 25.0307C10.3728 25.3645 9.87174 25.5314 9.34981 25.5314C9.03665 25.5314 8.78613 25.4062 8.59823 25.1767C8.43121 24.9472 8.34771 24.6759 8.34771 24.3004C8.34771 23.8204 8.49385 23.1945 8.807 22.3598C9.12016 21.5461 9.2663 21.0662 9.2663 20.941C9.2663 20.9201 9.2663 20.8992 9.24542 20.8784C9.20367 20.8784 9.14104 20.941 9.07841 21.087C8.36858 22.4433 8.01367 23.5492 8.01367 24.4047C8.01367 25.0307 8.20157 25.5314 8.55648 25.9696C8.89051 26.3869 9.30805 26.5747 9.76735 26.5747C10.2058 26.5747 10.6859 26.3869 11.2079 25.9905L11.3958 25.8444C10.9365 26.8669 10.7068 27.7224 10.7068 28.3901C10.7068 29.016 10.8947 29.5168 11.2496 29.955C11.4166 30.1637 11.6045 30.3097 11.8133 30.414C11.7089 30.7479 11.6045 31.1235 11.5419 31.5617C11.4793 31.9164 11.4584 32.2502 11.4584 32.5841C11.4584 33.1057 11.521 33.5231 11.6463 33.8569C12.3144 35.547 13.5044 36.3817 15.258 36.3817C16.5524 36.3817 17.9512 35.9644 19.4543 35.1506C20.018 34.8376 20.4982 34.5246 20.9366 34.2116C20.2477 35.547 19.9136 36.6112 19.9136 37.4458C19.9136 38.0718 20.1015 38.5726 20.4564 39.0108C20.7905 39.4281 21.208 39.6159 21.6673 39.6159C22.2101 39.6159 22.7529 39.3029 23.2957 38.6769C24.2143 37.6336 24.9033 36.945 25.3834 36.5695C25.634 36.3608 26.1141 36.1104 26.824 35.7766C27.1789 35.6096 27.7008 35.3801 28.4315 35.0671L29.9555 34.4203C30.1226 34.6915 30.3522 34.9628 30.6236 35.1923C31.1664 35.6305 31.6883 35.86 32.2103 35.86C32.7739 35.86 33.2541 35.547 33.6508 34.9002C34.131 34.149 34.3815 33.0849 34.3815 31.7703C34.3815 31.3113 34.1936 28.4109 33.7969 23.0693C33.4003 17.7902 33.1915 15.0985 33.1915 15.0777ZM17.8677 22.4433C18.1182 22.5476 18.2435 22.6728 18.2435 22.8189C18.2435 22.9232 18.16 22.965 17.9721 22.965C17.5128 22.965 17.1579 22.798 16.9282 22.4433C17.3666 22.3598 17.6798 22.3598 17.8677 22.4433ZM30.1434 33.1266C30.0599 33.0223 29.9764 32.8345 29.8303 32.5424C29.6841 32.2085 29.6006 31.979 29.6006 31.8538C29.6006 31.6869 29.6633 31.5408 29.8094 31.353C29.9555 31.1861 30.0808 31.0818 30.2269 31.0818C30.4148 31.0818 30.6445 31.2487 30.895 31.5825C31.1247 31.8955 31.2499 32.125 31.2499 32.292C31.2499 32.3754 31.1038 32.5215 30.7906 32.7302C30.561 32.9179 30.3522 33.0431 30.1434 33.1266Z" fill="#FDFDFD"/>
<path d="M18.9742 30.1845C19.2873 29.6838 19.4335 29.3708 19.4335 29.2038C19.4335 29.1621 19.2665 29.016 18.9116 28.7865C18.5566 28.557 18.3479 28.4318 18.3061 28.4318C18.2852 28.4318 18.2435 28.4527 18.2226 28.5153L17.7842 29.4125C17.7633 29.4542 17.7633 29.4751 17.7842 29.496C18.16 29.7255 18.5149 29.9759 18.8698 30.2263C18.9116 30.268 18.9533 30.2471 18.9742 30.1845Z" fill="#FDFDFD"/>
<path d="M30.4775 27.785L30.1226 28.5153C30.039 28.4318 29.8303 28.2857 29.538 28.0771C29.2457 27.8893 29.0787 27.785 29.0369 27.785C29.0161 27.785 28.9743 27.8058 28.9534 27.8684L28.515 28.7657C28.4941 28.8074 28.4941 28.8283 28.515 28.8491C28.8908 29.0786 29.2457 29.329 29.6006 29.5794C29.6424 29.6003 29.6841 29.6003 29.7259 29.5377C29.8511 29.329 29.9764 29.0786 30.1017 28.8074C30.4775 29.0578 30.8324 29.2873 31.1455 29.5168C31.1873 29.5377 31.229 29.5377 31.2708 29.4751C31.5839 28.9743 31.7301 28.6613 31.7301 28.4944C31.7301 28.4527 31.5631 28.3066 31.2082 28.0771C30.8533 27.8476 30.6654 27.7224 30.6027 27.7224C30.5401 27.7015 30.4983 27.7224 30.4775 27.785Z" fill="#FDFDFD"/>
<path d="M28.8073 25.281C28.5151 25.594 28.0558 25.9279 27.4294 26.3035C26.9075 26.6165 26.4065 26.9086 25.8845 27.2007C25.7593 27.2842 25.6966 27.3259 25.6966 27.3468C25.6966 27.3468 25.6966 27.3676 25.7175 27.3676C25.7593 27.3676 25.8219 27.3468 25.9263 27.305C26.6152 27.0546 26.991 26.9086 27.0745 26.8668C27.4086 26.7208 27.7635 26.5121 28.1601 26.22C28.5151 25.9696 28.7865 25.6775 29.0161 25.3854C29.204 25.5106 29.3293 25.594 29.3919 25.6775C29.5798 25.4271 29.6633 25.2393 29.6633 25.135C29.6215 25.0515 29.4754 24.9472 29.2875 24.8429C29.3919 24.5507 29.4336 24.3003 29.4336 24.0708C29.4336 23.8204 29.371 23.6744 29.2249 23.6118C29.0579 23.5492 28.8491 23.6326 28.5777 23.8622C28.3272 24.0917 28.2019 24.3421 28.2019 24.6133C28.2019 24.8637 28.4107 25.0724 28.8073 25.281ZM28.7029 24.2169C28.7864 24.1752 28.849 24.1543 28.8908 24.1543C28.9952 24.1543 29.0578 24.2169 29.0787 24.363C29.0996 24.4882 29.0996 24.6134 29.0578 24.7386C28.7447 24.5925 28.5777 24.4673 28.5777 24.3629C28.5777 24.3212 28.6194 24.2795 28.7029 24.2169Z" fill="#FDFDFD"/>
<path d="M27.1371 32.6258C27.4294 32.6258 27.7008 32.4798 27.9305 32.1668C28.1392 31.8955 28.2436 31.6034 28.2436 31.2904C28.2436 31.0818 28.181 30.9148 28.0766 30.7896C27.9722 30.6644 27.8261 30.6019 27.6799 30.6019C27.5129 30.6019 27.2833 30.8105 27.0327 31.2278C26.7822 31.6451 26.657 31.9581 26.657 32.1877C26.6778 32.4798 26.824 32.6258 27.1371 32.6258ZM27.1163 31.4782C27.2415 31.3113 27.3459 31.207 27.3877 31.207C27.7843 31.207 27.9722 31.353 27.9722 31.6243C27.9722 31.8747 27.7634 31.979 27.3459 31.979C27.0954 31.979 26.9492 31.9373 26.9075 31.8329C26.9284 31.7912 26.991 31.666 27.1163 31.4782Z" fill="#FDFDFD"/>
<path d="M25.6757 17.0182C25.3417 17.1851 25.0494 17.3103 24.7989 17.3729C24.3813 17.4981 23.9429 17.5607 23.5045 17.5607C23.087 17.5607 22.6903 17.4564 22.3354 17.2894C22.2101 17.2268 22.1057 17.1434 21.9805 17.0599C21.8761 16.9764 21.8343 16.9556 21.8343 16.9556C21.7717 16.9556 21.7091 17.0599 21.6882 17.2686C21.897 17.5607 22.0013 17.7276 22.0013 17.7485C22.064 17.8945 22.1057 18.0615 22.1057 18.2701C22.1057 18.3745 22.1057 18.4371 22.1266 18.4371C22.1475 18.4371 22.1684 18.3953 22.1892 18.291C22.2728 18.0615 22.2936 17.8737 22.2519 17.7067C22.6068 17.8945 23.0035 17.978 23.421 17.978C24.2143 17.978 25.0285 17.7693 25.8845 17.3312C25.968 17.2894 26.0515 17.2686 26.0933 17.2686C26.1768 17.2686 26.2394 17.3103 26.2812 17.4146C26.1768 17.519 26.0724 17.6233 25.9889 17.7276C25.8219 17.9154 25.6966 18.1032 25.634 18.291C25.5922 18.3745 25.5922 18.4162 25.5922 18.4371C25.6131 18.4371 25.6757 18.3536 25.7801 18.2284C25.8427 18.1449 25.968 17.978 26.1768 17.7693C26.3229 17.6024 26.4064 17.4981 26.4273 17.4146C26.4691 17.3103 26.5108 17.206 26.5108 17.1225C26.5108 16.9347 26.4064 16.8512 26.2185 16.8512C26.1141 16.8304 25.9471 16.893 25.6757 17.0182Z" fill="#FDFDFD"/>
<path d="M16.2184 31.353C16.4272 31.04 16.5525 30.8522 16.5525 30.7688C16.5525 30.5601 16.0932 30.4558 15.1746 30.4558C14.8823 30.4558 14.6944 30.4558 14.6109 30.4766C14.3812 30.5184 14.2351 30.6018 14.1516 30.7479L13.8593 31.2069C13.8176 31.2695 13.7967 31.3113 13.7967 31.3321C13.7967 31.353 13.8593 31.3739 14.0054 31.353C14.3186 31.3321 14.4647 31.3321 14.4647 31.3321C15.2581 31.3321 15.6756 31.3739 15.6756 31.4991C15.6756 31.5199 15.6756 31.5199 15.6547 31.5408C15.5712 31.6034 15.3207 31.7495 14.8614 31.9999C14.4021 32.2502 14.1098 32.3963 14.0054 32.4798C13.9219 32.5424 13.8593 32.5841 13.8593 32.605C13.8593 32.605 13.9219 32.605 14.0681 32.5632C14.8823 32.3546 15.3416 32.1876 15.4877 32.1042C15.7383 31.9373 15.9679 31.6869 16.2184 31.353Z" fill="#FDFDFD"/>
<path d="M23.922 9.29782C23.9429 9.25609 23.9429 9.21436 23.922 9.21436C23.922 9.21436 23.8803 9.21436 23.8177 9.23522C20.9575 10.2994 18.1391 11.3635 15.3833 12.386C15.2998 12.5529 15.2372 12.6989 15.2163 12.845C18.2852 11.6348 21.1454 10.5498 23.7968 9.56907C23.8177 9.52734 23.8594 9.44388 23.922 9.29782Z" fill="#FDFDFD"/>
<path d="M19.2039 15.3281C19.3917 15.2655 19.6214 15.2237 19.9346 15.2029C20.206 15.182 20.3939 15.2029 20.4565 15.2237C20.54 15.3281 20.6026 15.4115 20.6026 15.4533C20.6444 15.4741 20.7279 15.4115 20.8531 15.2863C20.8949 15.2446 20.9158 15.2029 20.9158 15.1403C20.9158 15.0777 20.874 15.0151 20.7696 14.9525C20.6653 14.8899 20.5191 14.869 20.3312 14.869C19.8719 14.869 19.4335 14.9942 19.016 15.2655C18.8489 15.3698 18.7446 15.4741 18.7446 15.5785C18.7446 15.7036 18.8698 15.8288 19.1412 15.9749C19.5588 16.1627 19.8719 16.2879 20.1016 16.3714C20.4356 16.5591 20.5817 16.7469 20.54 16.893C20.4356 16.8721 20.1433 16.7678 19.6632 16.6009C19.1412 16.4131 18.8072 16.2879 18.6819 16.2253C18.3688 16.0584 18.1809 15.8914 18.0974 15.7454C18.0765 15.7871 18.0765 15.8497 18.0765 15.9123C18.0765 16.2253 18.2226 16.4548 18.5149 16.6217C18.8698 16.8095 19.4544 17.0182 20.3103 17.2269C20.373 17.2477 20.4565 17.1851 20.6026 17.0599C20.7488 16.9347 20.8531 16.7887 20.8531 16.6635C20.874 16.4548 20.7488 16.2462 20.4565 16.0792C20.3939 16.0584 20.2686 15.9958 20.0181 15.9123C19.7884 15.8288 19.5796 15.7454 19.4335 15.6619C19.2456 15.5576 19.1412 15.4741 19.1412 15.4115C19.1203 15.3698 19.1412 15.3489 19.2039 15.3281Z" fill="#FDFDFD"/>
<path d="M21.5212 26.1574C21.5421 26.1157 21.5421 26.074 21.5212 26.074C21.5212 26.074 21.4794 26.074 21.4168 26.0948C19.6422 26.7417 17.9303 27.3676 16.281 27.9936C16.1975 28.1605 16.1349 28.3066 16.114 28.4527C16.3019 28.3483 17.2414 27.9727 18.8907 27.3676C20.5191 26.7625 21.3333 26.4495 21.3542 26.4287C21.4168 26.3869 21.4586 26.3035 21.5212 26.1574Z" fill="#FDFDFD"/>
<path d="M13.4 17.4564C13.233 17.4146 13.0868 17.4564 13.0033 17.519L12.6693 17.7902C12.6067 17.832 12.5858 17.8528 12.5858 17.8528C12.5858 17.8737 12.6275 17.8946 12.7319 17.9363C12.9616 18.0197 13.0659 18.0406 13.0659 18.0406C13.6505 18.2493 13.9219 18.3953 13.901 18.4788L13.8802 18.4997C13.7966 18.5205 13.567 18.5623 13.1703 18.6249C12.7528 18.6875 12.5023 18.7083 12.3979 18.7501C12.3144 18.7709 12.2726 18.7918 12.2517 18.7918C12.2517 18.7918 12.3144 18.8126 12.4188 18.8126C13.0659 18.8752 13.4626 18.8961 13.5879 18.8544C13.7966 18.7918 14.0472 18.6875 14.3186 18.4997C14.5691 18.3327 14.6944 18.2284 14.7152 18.1658C14.7779 18.0197 14.4647 17.8111 13.7966 17.5607C13.6088 17.4981 13.4626 17.4564 13.4 17.4564Z" fill="#FDFDFD"/>
<path d="M9.97614 23.8205C10.2058 23.6953 10.4354 23.5701 10.6233 23.4031C11.2914 22.8606 11.876 22.2138 12.3561 21.4418C12.5023 21.4418 12.711 21.5252 12.9407 21.6713C13.1077 21.7965 13.2956 21.9217 13.4626 22.0469C13.4835 22.0677 13.567 22.0469 13.734 22.0051C13.8802 21.9634 13.9637 21.9425 14.0054 21.9008C14.0889 21.7965 14.1307 21.6087 14.1307 21.3166C14.1307 21.0244 14.0889 20.8366 14.0054 20.7323C13.8384 20.5237 13.5253 20.5654 13.0451 20.8784C12.9616 20.941 12.9407 20.9618 12.9407 20.9827C12.9407 20.9827 13.0242 21.0036 13.1703 20.9827C13.3165 20.9827 13.4 21.0036 13.4209 21.0244C13.4835 21.1079 13.5044 21.2122 13.4835 21.3583C13.2539 21.2122 13.0868 21.1288 12.9616 21.087C12.711 21.0453 12.4605 21.1288 12.1891 21.3374C12.1056 21.4 11.8342 21.713 11.3958 22.2555C10.9365 22.798 10.5398 23.2362 10.1432 23.5492C9.91351 23.737 9.80913 23.8413 9.80913 23.8622C9.85088 23.8831 9.89263 23.8622 9.97614 23.8205Z" fill="#FDFDFD"/>
<path d="M37.6383 20.5862C37.868 20.2315 37.9932 19.9185 37.9932 19.6264C37.9932 19.2508 37.8471 19.063 37.5339 19.063C37.1581 19.063 36.9285 19.2926 36.8241 19.7516C36.8032 19.8351 36.8032 19.8977 36.7824 19.9185C36.8032 19.9185 36.8032 19.9394 36.8241 19.9394C36.845 19.9394 36.8867 19.9185 36.9494 19.8559C37.0329 19.7933 37.1373 19.7725 37.2417 19.7725C37.4504 19.7725 37.5339 19.8768 37.5339 20.0855C37.5339 20.315 37.2208 20.7532 36.5945 21.4417C36.4692 21.5878 36.4066 21.6504 36.4066 21.6713C36.4274 21.6713 36.5318 21.6087 36.678 21.5043C37.0955 21.2957 37.4087 20.9618 37.6383 20.5862Z" fill="#FDFDFD"/>
<path d="M29.6633 36.0061C29.4545 36.0061 29.2666 36.2147 29.0787 36.6321C28.9117 37.2163 28.8073 37.6545 28.7655 37.9466C28.7447 37.9883 28.7447 38.0301 28.7238 38.0301C28.7238 38.0509 28.7238 38.0509 28.7029 38.0301C28.7029 38.0301 28.7029 37.9883 28.682 37.9466C28.5985 37.4458 28.4524 37.0494 28.2436 36.7573C28.0348 36.4443 27.8052 36.2982 27.5547 36.2982C27.5338 36.2982 27.4503 36.3817 27.3459 36.5695C27.2415 36.7364 27.1789 36.8407 27.1789 36.8824C27.1789 36.945 27.2415 37.0494 27.3668 37.1537C27.492 37.258 27.5964 37.3206 27.6799 37.3206C27.7426 37.3206 27.7843 37.2998 27.8052 37.2789C27.8261 37.2372 27.847 37.2372 27.9096 37.2372C27.9931 37.2372 28.0975 37.4458 28.2854 37.884C28.4524 38.3222 28.5568 38.6143 28.5568 38.7604C28.5568 38.8647 28.5777 38.9064 28.6194 38.9064C28.6612 38.9064 28.7029 38.8438 28.7655 38.7395C28.8491 38.5934 28.9326 38.3222 28.9952 37.9466C29.1413 37.0911 29.3292 36.6529 29.5171 36.6529C29.6006 36.6529 29.6841 36.6947 29.7676 36.799C29.8512 36.9033 29.8929 36.945 29.9138 36.945C29.9764 36.945 30.0182 36.8825 30.0599 36.7573C30.1017 36.6529 30.1017 36.5903 30.1017 36.5277C30.1017 36.4443 30.0599 36.3399 29.9555 36.2356C29.872 36.0687 29.7676 36.0061 29.6633 36.0061Z" fill="#FDFDFD"/>
<path d="M38.8284 23.4657C38.7448 23.3614 38.6822 23.3197 38.5987 23.3197C38.4526 23.3197 38.3064 23.4657 38.1812 23.7787C38.0559 24.3212 37.9515 24.7386 37.9098 25.0724C37.8889 25.1141 37.8889 25.135 37.8889 25.135H37.868C37.868 25.135 37.868 25.1141 37.868 25.0724C37.8054 24.6968 37.701 24.3421 37.534 24.05C37.367 23.7161 37.1791 23.5492 37.012 23.5492C36.9912 23.5492 36.9494 23.6118 36.8659 23.737C36.7824 23.8622 36.7615 23.9457 36.7615 23.9665C36.7615 24.0082 36.8033 24.0708 36.9077 24.1543C36.9912 24.2378 37.0747 24.2795 37.1373 24.2795C37.1791 24.2795 37.2208 24.2586 37.2208 24.2378C37.2417 24.2169 37.2626 24.196 37.2834 24.196C37.3252 24.196 37.4296 24.4047 37.5757 24.8429C37.7219 25.2602 37.7845 25.5315 37.7845 25.6566C37.7845 25.7192 37.8054 25.761 37.8263 25.761C37.8471 25.761 37.8889 25.7192 37.9306 25.6566C37.9933 25.5523 38.0559 25.3437 38.0977 25.0724C38.2438 24.2169 38.3899 23.7996 38.5152 23.7996C38.5778 23.7996 38.6405 23.8413 38.6822 23.9039C38.7448 23.9665 38.7657 24.0082 38.7866 24.0082C38.8284 24.0082 38.8701 23.9665 38.891 23.8622C38.9119 23.7996 38.9327 23.737 38.9327 23.6953C38.9327 23.6327 38.891 23.5492 38.8284 23.4657Z" fill="#FDFDFD"/>
<path d="M38.3899 26.8251C38.1394 26.9712 37.8889 27.2424 37.5966 27.6597C37.2834 28.1188 37.1164 28.5152 37.1164 28.8491C37.1164 29.2247 37.2834 29.4125 37.6175 29.4125C37.7636 29.4125 37.9306 29.3499 38.0559 29.2038C38.2229 29.0578 38.3064 28.8491 38.3064 28.6196C38.3064 28.3692 38.1603 28.244 37.868 28.244C37.7427 28.244 37.6175 28.2857 37.534 28.3692C37.534 28.2231 37.6383 27.9936 37.8471 27.6806C38.035 27.3885 38.2229 27.159 38.4108 26.992C38.4526 26.9503 38.4734 26.9086 38.4526 26.8668C38.4734 26.8043 38.4317 26.8043 38.3899 26.8251Z" fill="#FDFDFD"/>
<path d="M18.4314 36.4651C18.1182 36.4651 17.9303 36.6529 17.8468 37.0494C17.8259 37.1329 17.8259 37.1746 17.8259 37.1955C17.8468 37.1955 17.8468 37.1955 17.8677 37.2163C17.8886 37.2163 17.9095 37.1955 17.9721 37.1537C18.0556 37.112 18.1391 37.0703 18.2226 37.0703C18.3896 37.0703 18.4731 37.1537 18.4731 37.3415C18.4731 37.5293 18.2017 37.9049 17.7007 38.4683C17.5963 38.5726 17.5337 38.6561 17.5337 38.6769C17.5545 38.6769 17.638 38.6352 17.7633 38.5517C18.0765 38.3222 18.327 38.0718 18.5358 37.7588C18.7237 37.4667 18.828 37.1955 18.828 36.9659C18.8072 36.6321 18.6819 36.4651 18.4314 36.4651Z" fill="#FDFDFD"/>
<path d="M25.8845 37.4876C25.9054 37.425 25.9262 37.3832 25.9262 37.3624C25.9054 37.3624 25.8845 37.4041 25.8427 37.4667C25.7384 37.6336 25.6131 37.884 25.4878 38.2596C25.3208 38.6769 25.2373 39.0108 25.2373 39.2194C25.2373 39.4072 25.2582 39.5324 25.2999 39.6367C25.3417 39.7411 25.4252 39.8037 25.5296 39.7828C25.6131 39.7828 25.6966 39.7202 25.7801 39.5741C25.8636 39.4489 25.9054 39.282 25.9262 39.1151C25.9262 39.0942 25.9262 39.0734 25.9262 39.0734C25.9262 39.0734 25.9262 39.0525 25.9054 39.0734C25.9054 39.0734 25.8845 39.0942 25.8845 39.1151C25.801 39.282 25.6966 39.3863 25.6131 39.4072C25.5713 39.4072 25.5296 39.3863 25.4878 39.3446C25.4461 39.282 25.4043 39.1777 25.4043 39.0316C25.4043 38.9273 25.4252 38.823 25.4461 38.6978C25.5087 38.4057 25.6548 37.9883 25.8845 37.4876Z" fill="#FDFDFD"/>
</svg>
