<svg width="102" height="52" viewBox="0 0 102 52" fill="none" xmlns="http://www.w3.org/2000/svg">
    <path d="M102 25.6759C102 25.8471 101.915 26.0183 101.829 26.1895C101.829 26.1895 99.6964 29.0994 100.038 33.8066C100.55 40.9959 98.3313 45.2752 93.8094 45.7031C92.3589 45.7887 92.1883 46.3878 91.847 47.4148C91.1645 49.4689 90.1406 51.3518 84.7655 51.3518L17.2558 51.3518C11.8807 51.3518 10.8569 49.4689 10.1743 47.4148C9.83305 46.3022 9.66241 45.7887 8.21198 45.7031C3.69006 45.3608 1.38644 40.9959 1.98367 33.8066C2.32495 29.0994 0.191967 26.1895 0.191967 26.1895C-0.0639906 25.8471 -0.0639906 25.5048 0.191967 25.1624C0.191967 25.0768 2.32495 22.1669 1.98367 17.5453C1.47176 10.356 3.69006 6.0767 8.21198 5.64877C9.66241 5.56318 9.83305 4.96408 10.1743 3.93705C10.8569 1.88298 11.8807 8.72187e-05 17.2558 8.69838e-05L84.7655 8.78475e-05C90.1406 8.76126e-05 91.1644 1.88298 91.847 3.93705C92.1883 5.04967 92.3589 5.56319 93.8094 5.64877C98.3313 5.99112 100.635 10.356 100.038 17.5453C99.6964 22.2525 101.829 25.1624 101.829 25.1624C101.915 25.3336 102 25.5048 102 25.6759ZM98.246 32.694C98.246 29.185 99.4404 26.6174 100.038 25.6759C99.3551 24.5633 97.9047 21.6534 98.246 17.3741C98.5019 13.7795 98.246 7.70284 93.5534 7.3605C90.9085 7.18932 90.4819 5.64877 90.0553 4.45057C89.6287 3.08119 89.2021 1.71181 84.5949 1.71181L17.2558 1.71181C12.7339 1.71181 12.3073 3.08118 11.7954 4.45056C11.4541 5.64877 10.9422 7.18932 8.2973 7.3605C3.60474 7.78843 3.4341 13.7795 3.69006 17.3741C4.03134 21.5678 2.58091 24.5633 1.89835 25.676C2.58091 26.7886 4.03134 29.7841 3.69006 33.9778C3.4341 37.4868 3.60474 43.5635 8.38262 43.9914C11.0275 44.1626 11.4541 45.7031 11.8807 46.9013C12.3073 48.2707 12.7339 49.6401 17.3411 49.6401L84.8508 49.6401C89.2874 49.6401 89.714 48.2707 90.1406 46.9013C90.4819 45.7031 90.9938 44.1626 93.6387 43.9914C98.3313 43.649 98.5872 37.5724 98.3313 33.9778C98.246 33.5499 98.246 33.1219 98.246 32.694Z"
          fill="#094A37"/>
    <path d="M98.3313 25.6759L98.3313 25.7615C97.6487 27.2165 96.7955 29.6129 96.7955 32.694C96.7955 33.1219 96.7955 33.5499 96.8809 33.9778C96.9662 34.5769 96.9662 35.176 96.9662 35.7751C96.9662 39.9688 95.857 42.1941 93.6387 42.3653C89.97 42.622 89.2021 45.1896 88.7755 46.3878C88.4342 47.5004 88.093 48.0139 84.8508 48.0139L17.2558 48.0139C14.0137 48.0139 13.6724 47.4148 13.3311 46.3878C12.9899 45.1896 12.1367 42.7076 8.46794 42.3652C6.24964 42.2797 5.14049 40.0544 5.14049 35.8607C5.14049 35.2616 5.14049 34.6625 5.22581 34.0634C5.22581 33.6355 5.31113 33.2075 5.31113 32.7796C5.31113 29.6129 4.45793 27.3021 3.77538 25.8471C3.77538 25.7615 3.77538 25.676 3.77538 25.676C4.45793 24.221 5.31113 21.8246 5.31113 18.7435C5.31113 18.3155 5.31113 17.8876 5.22581 17.4597C5.14049 16.6894 5.14049 16.0903 5.14049 15.4912C5.14049 11.2975 6.24964 9.07222 8.46794 8.90105C12.1367 8.64429 12.9045 6.07671 13.3311 4.8785C13.6724 3.76588 14.0137 3.25236 17.2558 3.25236L84.7655 3.25236C88.0076 3.25236 88.3489 3.85147 88.6902 4.8785C89.0315 6.07671 89.8847 8.55871 93.5534 8.90105C95.7717 9.07222 96.8808 11.2975 96.8809 15.4912C96.8809 16.0903 96.8809 16.6894 96.7955 17.2885C96.7955 17.7164 96.7102 18.1444 96.7102 18.5723C96.7102 21.739 97.5634 24.0498 98.246 25.5048C98.3313 25.5904 98.3313 25.6759 98.3313 25.6759ZM96.2836 32.694C96.2836 29.5273 97.1368 27.1309 97.8194 25.5904C97.1368 24.0498 96.2836 21.6534 96.2836 18.4867C96.2836 18.0588 96.2836 17.5453 96.3689 17.1173C96.4542 16.5182 96.4543 15.9191 96.4543 15.4056C96.4543 11.4686 95.4304 9.41457 93.5534 9.24339C89.6573 8.90355 88.7881 6.28648 88.3583 4.99241C88.3552 4.98289 88.352 4.97345 88.3489 4.96408C88.093 4.10822 87.9223 3.5947 84.8508 3.5947L17.2558 3.5947C14.099 3.5947 14.0137 4.10822 13.7577 4.96408C13.3311 6.24788 12.4779 8.98664 8.55326 9.24339C6.59091 9.41457 5.6524 11.4686 5.6524 15.4056C5.6524 16.0047 5.6524 16.5182 5.73772 17.1173C5.73772 17.5453 5.82304 18.0588 5.82304 18.4867C5.82304 21.6534 4.96985 24.0498 4.28729 25.5904C4.96985 27.1309 5.82304 29.5273 5.82304 32.694C5.82304 33.1219 5.82304 33.6355 5.73772 34.0634C5.6524 34.6625 5.6524 35.2616 5.6524 35.7751C5.6524 39.7121 6.67624 41.7661 8.55326 41.9373C12.4493 42.2772 13.3185 44.8942 13.7483 46.1883C13.7515 46.1978 13.7546 46.2073 13.7577 46.2166C14.0137 47.0725 14.1843 47.586 17.2558 47.586L84.7655 47.586C87.9223 47.586 88.0076 47.0725 88.2636 46.2166C88.2696 46.1984 88.2758 46.1799 88.282 46.1612C88.715 44.8557 89.599 42.1904 93.4681 41.9373C95.4304 41.7661 96.3689 39.7121 96.3689 35.7751C96.3689 35.2616 96.3689 34.6625 96.2836 34.0634C96.2836 33.6355 96.2836 33.2075 96.2836 32.694Z"
          fill="#094A37"/>
    <path d="M96.2836 32.694C96.2836 29.5273 97.1368 27.1309 97.8194 25.5904C97.1368 24.0498 96.2836 21.6534 96.2836 18.4867C96.2836 18.0588 96.2836 17.5453 96.3689 17.1173C96.4542 16.5182 96.4543 15.9191 96.4543 15.4056C96.4543 11.4686 95.4304 9.41457 93.5534 9.24339C89.6573 8.90355 88.7881 6.28648 88.3583 4.99241L88.3489 4.96408C88.093 4.10822 87.9223 3.5947 84.8508 3.5947L17.2558 3.5947C14.099 3.5947 14.0137 4.10822 13.7577 4.96408C13.3311 6.24788 12.4779 8.98664 8.55326 9.24339C6.59091 9.41457 5.6524 11.4686 5.6524 15.4056C5.6524 16.0047 5.6524 16.5182 5.73772 17.1173C5.73772 17.5453 5.82304 18.0588 5.82304 18.4867C5.82304 21.6534 4.96985 24.0498 4.28729 25.5904C4.96985 27.1309 5.82304 29.5273 5.82304 32.694C5.82304 33.1219 5.82304 33.6355 5.73772 34.0634C5.6524 34.6625 5.6524 35.2616 5.6524 35.7751C5.6524 39.7121 6.67624 41.7661 8.55326 41.9373C12.4493 42.2772 13.3185 44.8942 13.7483 46.1883L13.7577 46.2166C14.0137 47.0725 14.1843 47.586 17.2558 47.586L84.7655 47.586C87.9223 47.586 88.0076 47.0725 88.2636 46.2166L88.282 46.1612C88.715 44.8557 89.599 42.1904 93.4681 41.9373C95.4304 41.7661 96.3689 39.7121 96.3689 35.7751C96.3689 35.2616 96.3689 34.6625 96.2836 34.0634L96.2836 32.694Z"
          fill="#094A37"/>
</svg>
