<?xml version="1.0" encoding="utf-8"?>
<!-- Generator: Adobe Illustrator 25.2.0, SVG Export Plug-In . SVG Version: 6.00 Build 0)  -->
<svg version="1.2" baseProfile="tiny" id="Layer_1" xmlns="http://www.w3.org/2000/svg"
     xmlns:xlink="http://www.w3.org/1999/xlink"
     x="0px" y="0px" viewBox="0 0 135 500" overflow="visible" xml:space="preserve">
<path fill-rule="evenodd" fill="#D9C7AB" d="M118,246.9c-0.1,0.1-0.2,0.1-0.3,0.2l0,0C117.8,247,117.9,246.9,118,246.9z"/>
    <path fill-rule="evenodd" fill="#D9C7AB" d="M133.1,28.1c-0.3,0.2-7.8,3.1-9.1,11.9c-4.1,0.6-6.9,2.6-8.6,4.4
	c-0.2,0.2-0.3,0.4-0.5,0.6c-1-1.4-2.2-2.7-3.5-4c-2.3-2.3-4.8-4.2-7.5-5.8c0.8-3,1.2-6.3,1.2-9.5c0-3.3-0.4-6.5-1.3-9.7
	c-0.3-1-1-1.8-2-2c-6.3-1.7-13-1.7-19.1,0c-1.6-2.8-3.6-5.3-5.8-7.6C74.6,4,71.9,2,69.2,0.4c-0.8-0.5-1.9-0.5-2.9,0
	C63.5,2,60.9,4,58.6,6.3c-2.3,2.3-4.2,4.8-5.8,7.5c-6.2-1.6-12.9-1.6-19.1,0h-0.1c-0.2,0.1-0.4,0.2-0.6,0.3c-0.1,0-0.1,0.1-0.2,0.1
	c-0.1,0.1-0.3,0.2-0.3,0.3l-0.2,0.2c-0.2,0.2-0.3,0.3-0.3,0.4c0,0.1-0.1,0.1-0.1,0.2c-0.1,0.2-0.2,0.4-0.3,0.7l-0.3,1V17
	c-0.7,2.7-0.9,5.6-0.9,8.4c0,3.2,0.4,6.4,1.2,9.5c-2.7,1.6-5.2,3.6-7.6,5.8c-1.4,1.4-2.7,3-3.8,4.6c-0.3-0.3-0.7-0.8-1-1.2
	c-2.4-2.4-5.3-3.8-8.6-4.3C9.2,30.9,1.8,28,1.4,27.9c-0.5-0.2-1-0.2-1.4-0.2v6.2c1.6,1,4.6,3.6,4.6,8.6c0,1.6,1.3,2.9,2.9,2.9
	c3,0,5.4,0.9,7.3,2.9c0.6,0.6,1.1,1.3,1.4,1.7c-0.3,0.5-0.8,1.1-1.4,1.7c-1.9,1.9-4.3,2.9-7.3,2.9c-1.6,0-2.9,1.3-2.9,2.9
	c0,3-0.9,5.4-2.9,7.3c-0.6,0.6-1.3,1.1-1.7,1.4l0,6.3l0.5,0.3c1.9,1.2,3.6,2.6,5.1,4.1c1.7,1.7,3.1,3.6,4.4,5.5
	c-3.5,1.5-6.7,3.5-9.5,6L0,88.8v7.1l0.6,0.6c0.2,0.2,0.3,0.4,0.5,0.6c0.5,0.7,1,1.4,1.4,2c0.7,1,1.4,2.1,1.9,3.3
	c0.6,1.3,2.1,1.9,3.5,1.4c2.3-0.8,4.6-1.3,6.9-1.4c-0.3,2.4-0.7,4.7-1.4,6.9c-0.4,1.4,0.2,2.8,1.4,3.5c2.1,1.1,4.1,2.4,5.9,3.9
	c-1.9,1.5-3.8,2.8-5.9,3.9c-1.3,0.6-1.9,2.1-1.4,3.5c0.8,2.3,1.3,4.6,1.4,6.9c-0.5-0.1-1.1-0.1-1.6-0.2c-0.5-0.1-1.1-0.2-1.6-0.3
	c-1.3-0.3-2.5-0.6-3.6-1c-1.4-0.4-2.8,0.2-3.5,1.4c-0.6,1.2-1.2,2.3-1.9,3.3c-0.5,0.8-0.9,1.4-1.4,2c-0.2,0.2-0.3,0.4-0.5,0.6
	L0,137.5v6.8l0.5,0.4c2.8,2.5,6,4.5,9.5,6c-1.3,1.9-2.7,3.8-4.4,5.5c-1.6,1.6-3.3,3-5.1,4.1L0,160.9v6.1l0.1,0.1
	c1.7,1.1,4.6,3.6,4.6,8.6c0,1.6,1.3,2.9,2.9,2.9c3,0,5.4,0.9,7.3,2.9c0.6,0.6,1,1.2,1.4,1.7c-0.3,0.4-0.8,1-1.4,1.7
	c-1.9,1.9-4.3,2.9-7.3,2.9c-1.6,0-2.9,1.3-2.9,2.9c0,3-0.9,5.4-2.9,7.3c-0.6,0.6-1.4,1.2-1.8,1.4v6l0.8,0.6c0.3,0.2,0.5,0.4,0.8,0.6
	l0.3,0.2c0.2,0.2,0.3,0.3,0.6,0.4c0.3,0.3,0.5,0.4,0.8,0.7l0.1,0.1c0.3,0.3,0.8,0.6,1.1,0.9c0.3,0.3,0.8,0.7,1.1,1.1
	c1.7,1.7,3.1,3.5,4.4,5.5c-3.5,1.5-6.7,3.6-9.5,6L0,221.9v7.2l0.4,0.5c0.2,0.2,0.3,0.4,0.5,0.6c0.3,0.3,0.6,0.8,0.8,1.1
	c0.3,0.3,0.4,0.6,0.7,0.9c0.7,1.1,1.4,2.2,1.9,3.3c0.6,1.3,2.1,1.9,3.5,1.4c2.3-0.8,4.6-1.3,6.9-1.4c-0.3,2.4-0.7,4.7-1.4,6.9
	c-0.4,1.4,0.2,2.8,1.4,3.5c2.1,1.1,4.1,2.4,5.9,3.9c-0.2,0.2-0.4,0.3-0.6,0.5c-0.6,0.4-1.1,0.8-1.6,1.2c-1.2,0.8-2.4,1.5-3.7,2.2
	c-1.3,0.5-1.9,2-1.4,3.4c0.8,2.3,1.3,4.6,1.4,6.9c-2.4-0.3-4.7-0.7-6.9-1.4c-1.4-0.4-2.8,0.2-3.5,1.4c-0.6,1.2-1.2,2.3-1.9,3.3
	c-0.5,0.7-0.9,1.4-1.4,2L0,270.2v7.2l0.5,0.5c2.8,2.5,6,4.5,9.5,6c-1.3,1.9-2.7,3.8-4.4,5.5c-1.6,1.6-3.3,3-5.1,4.1L0,293.9v6.2
	l0.1,0.1c1.7,1.1,4.6,3.6,4.6,8.6c0,1.6,1.3,2.9,2.9,2.9c5.1,0,7.6,3,8.6,4.6c-0.3,0.5-0.8,1.1-1.4,1.7c-1.9,1.9-4.3,2.9-7.3,2.9
	c-1.6,0-2.9,1.3-2.9,2.9c0,3-0.9,5.4-2.9,7.3c-0.6,0.6-1.3,1.1-1.7,1.4l-0.1,0v6.2l0.5,0.3c1.9,1.2,3.6,2.6,5.1,4.1
	c1.7,1.7,3.1,3.5,4.4,5.5c-3.4,1.5-6.6,3.6-9.5,6L0,354.9l0,7l0.4,0.5c0.2,0.2,0.3,0.4,0.5,0.6c0.3,0.3,0.6,0.8,0.8,1.1
	c0.3,0.3,0.4,0.6,0.7,0.9c0.7,1.1,1.4,2.2,1.9,3.3c0.6,1.3,2.1,1.9,3.5,1.4c2.3-0.8,4.6-1.3,6.9-1.4c-0.3,2.4-0.7,4.7-1.4,6.9
	c-0.4,1.4,0.2,2.8,1.4,3.5c2.1,1.1,4.1,2.4,5.9,3.9c-1.9,1.5-3.8,2.8-5.9,3.9c-1.3,0.7-1.9,2.1-1.4,3.5c0.8,2.3,1.3,4.6,1.4,6.9
	l-2-0.3c-0.9-0.2-1.7-0.3-2.5-0.5c-0.8-0.2-1.7-0.4-2.5-0.7c-1.4-0.4-2.8,0.2-3.5,1.4c-0.5,1.1-1.2,2.2-1.9,3.3
	c-0.5,0.8-1,1.4-1.5,2c-0.2,0.2-0.3,0.4-0.5,0.6L0,403.3v7.1l0.5,0.6c2.9,2.5,6,4.5,9.5,6c-1.3,1.9-2.7,3.8-4.4,5.5
	c-1.6,1.6-3.3,3-5.1,4.1L0,426.9v6.2l0.2,0.1c1.7,1.1,4.6,3.6,4.6,8.6c0,1.6,1.3,2.9,2.9,2.9c5.1,0,7.6,3,8.6,4.6
	c-0.4,0.5-0.8,1.1-1.4,1.7c-1.9,1.9-4.3,2.9-7.3,2.9c-1.6,0-2.8,1.3-2.8,2.9c0,3-0.9,5.4-2.9,7.3c-0.6,0.6-1.3,1.1-1.7,1.4
	c-0.1,0-0.2,0.1-0.2,0.1v6.4c0.2,0,0.3,0.1,0.5,0.1c0.3,0,0.7-0.1,1-0.2c0.3-0.1,2.5-1,4.7-3.2c1.7-1.7,3.7-4.6,4.4-8.7
	c4.1-0.6,6.9-2.6,8.6-4.4c0.3-0.4,0.7-0.8,1-1.1c1.2,1.6,2.5,3.1,3.9,4.6c2.3,2.3,4.8,4.2,7.5,5.8c-0.8,3-1.2,6.3-1.2,9.5
	c0,3.3,0.4,6.5,1.3,9.7c0.3,1,1,1.8,2,2c6.2,1.7,13,1.7,19.1,0.1c1.6,2.7,3.6,5.2,5.8,7.6c2.4,2.3,4.9,4.3,7.7,5.9
	c0.4,0.3,0.9,0.3,1.4,0.3c0.5,0,1-0.1,1.4-0.3c2.7-1.6,5.3-3.6,7.6-5.8c0.1,0,0.1-0.1,0.2-0.2c0.3-0.3,0.7-0.8,1-1.1
	c0-0.1,0.1-0.1,0.1-0.2c0.6-0.6,1.1-1.3,1.7-2l0.2-0.2c1-1.4,1.9-2.7,2.8-4.1c6.3,1.6,13,1.6,19.1-0.1c1-0.3,1.8-1,2-2
	c0.8-3.1,1.3-6.4,1.3-9.7c0-3.2-0.4-6.4-1.2-9.5c2.7-1.6,5.2-3.6,7.5-5.8c1.3-1.3,2.4-2.6,3.5-4c0.2,0.2,0.3,0.4,0.5,0.6
	c1.7,1.7,4.5,3.7,8.6,4.4c0.6,4.1,2.6,6.9,4.4,8.6c2.2,2.2,4.5,3.1,4.7,3.2c0.2,0,0.3,0.1,0.5,0.1v-6.5c-0.5-0.3-1.1-0.7-1.6-1.3
	c-1.9-1.9-2.9-4.3-2.9-7.3c0-1.6-1.3-2.9-2.9-2.9c-3,0-5.4-0.9-7.3-2.9c-0.6-0.6-1.1-1.3-1.4-1.7c0.3-0.5,0.8-1.1,1.4-1.7
	c1.9-1.9,4.3-2.9,7.3-2.9c1.6,0,2.9-1.3,2.9-2.9c0-5,2.9-7.5,4.5-8.6v-6.8c-1.7-1.1-3.3-2.5-4.7-3.9c-1.7-1.7-3.1-3.5-4.4-5.5
	c3.2-1.5,6.3-3.4,9.1-5.7v-8.9c-1.4-1.7-2.5-3.6-3.6-5.5c-0.5-1-1.5-1.6-2.5-1.6c-0.3,0-0.6,0.1-0.9,0.2c-2.3,0.8-4.6,1.3-6.9,1.4
	c0.3-2.4,0.7-4.7,1.4-6.9c0.4-1.4-0.2-2.8-1.4-3.5c-2.1-1.1-4.1-2.4-5.9-3.9c1.9-1.5,3.8-2.8,5.9-3.9c1.3-0.6,1.9-2.1,1.4-3.5
	c-0.8-2.3-1.3-4.6-1.4-6.9c2.4,0.3,4.7,0.7,6.9,1.4c1.4,0.4,2.8-0.2,3.5-1.4c1-2,2.2-3.9,3.6-5.5v-8.7c-2.8-2.3-5.8-4.2-9.1-5.7
	c1.3-1.9,2.7-3.8,4.4-5.5c1.4-1.4,3-2.7,4.7-3.9v-6.7c-0.5-0.3-1.1-0.8-1.7-1.4c-1.9-1.9-2.9-4.3-2.9-7.3c0-1.6-1.3-2.9-2.9-2.9
	c-3,0-5.4-0.9-7.3-2.9c-0.6-0.6-1-1.2-1.4-1.7c0.3-0.6,0.8-1.2,1.4-1.8c1.9-1.9,4.3-2.9,7.3-2.9c1.6,0,2.9-1.3,2.9-2.9
	c0-5.1,3-7.6,4.6-8.6v-6.8c-1.7-1.1-3.3-2.5-4.7-3.9c-1.7-1.7-3.1-3.5-4.4-5.5c3.2-1.5,6.3-3.4,9.1-5.7v-8.9
	c-1.4-1.7-2.5-3.6-3.6-5.5c-0.5-1-1.5-1.5-2.5-1.5c-0.3,0-0.6,0.1-0.9,0.2c-2.3,0.8-4.6,1.3-6.9,1.4c0.3-2.4,0.7-4.7,1.4-6.9
	c0.4-1.4-0.2-2.8-1.4-3.5c-1.4-0.7-2.8-1.5-4-2.4l-0.1-0.1c-0.1,0-0.1-0.1-0.2-0.1c0,0-0.1,0-0.1-0.1l-1-0.8
	c-0.2-0.2-0.4-0.3-0.6-0.5c0.8-0.6,1.5-1.2,2.4-1.8l0.1-0.1c0.1,0,0.1-0.1,0.2-0.1c0.3-0.2,0.6-0.4,0.9-0.6l0.1-0.1l0,0l0.3-0.2
	c0.7-0.4,1.3-0.7,1.9-1c1.3-0.6,1.9-2.1,1.4-3.5c-0.8-2.3-1.3-4.6-1.4-6.9c2.4,0.3,4.7,0.7,6.9,1.4c1.4,0.4,2.8-0.2,3.4-1.4
	c1.1-2,2.3-4,3.7-5.7V221c-2.8-2.3-5.8-4.2-9.1-5.7c1.3-1.9,2.7-3.8,4.4-5.5c0.9-0.9,2-1.9,3.1-2.7c0.5-0.4,1-0.7,1.5-1.1v-6.8
	c-0.5-0.3-1.1-0.8-1.7-1.4c-1.9-1.9-2.9-4.3-2.9-7.3c0-1.6-1.3-2.9-2.9-2.9c-5.1,0-7.6-3-8.6-4.6c0.3-0.5,0.8-1.1,1.4-1.7
	c1.9-1.9,4.3-2.9,7.3-2.9c1.6,0,2.9-1.3,2.9-2.9c0-5.1,3-7.6,4.6-8.6v-6.8c-1.7-1.1-3.2-2.5-4.7-3.9c-1.7-1.7-3.1-3.5-4.4-5.5
	c3.2-1.5,6.3-3.4,9.1-5.7V136c-1.4-1.7-2.5-3.6-3.6-5.5c-0.5-1-1.5-1.5-2.5-1.5c-0.3,0-0.6,0.1-0.9,0.2c-2.3,0.8-4.6,1.3-6.9,1.4
	c0.3-2.4,0.7-4.7,1.4-6.9c0.4-1.4-0.2-2.8-1.4-3.5c-2.1-1.1-4.1-2.4-5.9-3.9c1.9-1.5,3.8-2.8,5.9-3.9c1.4-0.3,2-1.8,1.6-3.1
	c-0.8-2.3-1.3-4.6-1.4-6.9c2.4,0.3,4.7,0.7,6.9,1.4c1.4,0.4,2.8-0.2,3.4-1.4c1-1.9,2.1-3.8,3.5-5.4V88c-2.8-2.3-5.8-4.2-9.1-5.7
	c1.3-1.9,2.7-3.8,4.4-5.5c1.4-1.4,3-2.7,4.7-3.9v-6.8l-0.1-0.1c-0.5-0.3-1.1-0.8-1.7-1.4c-1.9-1.9-2.9-4.3-2.9-7.3
	c0-1.6-1.3-2.9-2.9-2.9c-5.1,0-7.6-3-8.6-4.6c0.3-0.4,0.8-1,1.4-1.7c1.9-1.9,4.3-2.9,7.3-2.9c1.6,0,2.8-1.3,2.8-2.9
	c0-5.1,3-7.6,4.6-8.6l0.1-0.1v-6C133.7,27.9,133.4,28,133.1,28.1z M120.1,402.7c0.3,3.1,1,6.3,2.2,9.2c2.9-1.3,5.7-3,8.1-5
	c-1.4-1.7-2.7-3.5-3.8-5.3C124.4,402.2,122.3,402.5,120.1,402.7z M87.4,435c-0.2,2.1-0.5,4.3-1.1,6.4c1.9,1.2,3.6,2.5,5.3,3.9
	c2-2.5,3.7-5.2,5-8.1C93.8,436,90.7,435.2,87.4,435z M87.4,463.6c3.1-0.3,6.3-1,9.2-2.2c-1.3-3-3-5.7-5-8.1
	c-1.7,1.4-3.5,2.7-5.3,3.8C86.9,459.3,87.3,461.4,87.4,463.6z M85,418.4c1.4,3.5,2.2,7.2,2.5,10.9c3.7,0.3,7.4,1.1,10.9,2.5
	c0.5-2.3,0.8-4.6,0.8-6.9c0-2.3-0.3-4.5-0.7-6.6c-2.1-0.4-4.3-0.7-6.5-0.7C89.6,417.6,87.3,417.9,85,418.4z M47.5,435
	c-3.1,0.3-6.3,1-9.2,2.2c1.2,3,2.9,5.7,5,8c1.7-1.4,3.5-2.7,5.3-3.8C48,439.3,47.7,437.2,47.5,435z M47.5,463.5
	c0.2-2.1,0.5-4.3,1.1-6.4c-1.9-1.1-3.7-2.4-5.3-3.9c-2,2.5-3.7,5.2-5,8.1C41.1,462.5,44.3,463.3,47.5,463.5z M36.6,431.8
	c3.5-1.4,7.2-2.2,10.9-2.5c0.3-3.8,1.1-7.5,2.5-10.9c-4.4-0.9-9.1-1-13.5-0.1c-0.4,2.1-0.7,4.3-0.7,6.5
	C35.8,427.2,36.1,429.5,36.6,431.8z M8.2,401.5c-0.3,0.6-0.7,1.2-1.1,1.8c-0.1,0.2-0.3,0.4-0.4,0.6c-0.1,0.2-0.3,0.4-0.4,0.6
	c-0.2,0.3-0.5,0.7-0.7,1c-0.1,0.1-0.1,0.1-0.2,0.2c-0.2,0.3-0.4,0.5-0.6,0.8c-0.1,0.1-0.2,0.2-0.3,0.4c2.5,2,5.2,3.7,8,4.9
	c1.2-2.9,1.9-6,2.2-9.2c-1-0.1-2-0.2-3-0.3c-1-0.2-1.9-0.3-2.9-0.6c-0.1,0-0.2-0.1-0.3-0.1C8.4,401.6,8.3,401.6,8.2,401.5z
	 M14.8,96.6c-0.3-3.1-1-6.3-2.2-9.2c-3,1.3-5.7,3-8,4.9c0.2,0.2,0.3,0.4,0.5,0.6c0.1,0.2,0.3,0.4,0.5,0.6c0.6,0.8,1.2,1.6,1.8,2.5
	c0.2,0.3,0.4,0.6,0.6,0.9c0.2,0.3,0.4,0.6,0.6,0.9C10.5,97.1,12.6,96.7,14.8,96.6z M48.6,57.9c-1.9-1.1-3.6-2.4-5.3-3.8
	c-2.1,2.5-3.8,5.2-5,8c2.9,1.2,6,1.9,9.2,2.2C47.7,62.2,48,60,48.6,57.9z M38.3,37.9c1.3,3,3,5.7,5,8.1c1.6-1.4,3.4-2.7,5.3-3.9
	c-0.6-2.1-0.9-4.2-1.1-6.4C44.4,35.9,41.2,36.7,38.3,37.9z M49.9,81c-1.4-3.5-2.2-7.2-2.5-10.9c-3.8-0.3-7.5-1.1-11-2.5
	c-0.5,2.2-0.8,4.6-0.8,6.9c0,2.2,0.3,4.4,0.7,6.5C40.9,82,45.5,82,49.9,81z M87.4,64.4c3.1-0.3,6.3-1,9.2-2.2c-1.3-3-3-5.7-5-8
	c-1.7,1.4-3.5,2.7-5.3,3.8C86.9,60.1,87.3,62.2,87.4,64.4z M87.4,35.8c-0.2,2.1-0.5,4.3-1.1,6.4c1.9,1.1,3.6,2.5,5.3,3.9
	c2-2.5,3.7-5.2,5-8.1C93.8,36.8,90.7,36,87.4,35.8z M98.4,67.6c-3.5,1.4-7.2,2.2-10.9,2.5c-0.3,3.7-1.1,7.5-2.5,10.9
	c4.5,0.9,9.1,1,13.5,0.1c0.4-2.1,0.7-4.3,0.7-6.5C99.1,72.2,98.9,69.9,98.4,67.6z M126.5,97.7c1.1-1.9,2.4-3.6,3.8-5.3
	c-2.4-2-5.2-3.7-8.1-5c-1.2,2.9-1.9,6-2.2,9.2C122.2,96.7,124.4,97.1,126.5,97.7z M108.9,388.2L108.9,388.2
	c-0.1,0.2-0.1,0.3-0.2,0.4c-0.1,0.1-0.1,0.2-0.2,0.3c0,0,0,0,0,0c0,0,0,0,0,0c0,0,0,0,0,0.1c-0.1,0.2-0.3,0.3-0.4,0.5l-0.2,0.3
	c-1,1.6-1.9,3.3-2.7,5.1c2.9,1.2,6,1.9,9.2,2.2c0.2-2.2,0.5-4.4,1.1-6.5c-1.9-1.1-3.6-2.4-5.3-3.8v0.1c-0.1,0.1-0.2,0.2-0.3,0.3
	c-0.1,0.1-0.2,0.2-0.3,0.3c-0.1,0-0.1,0.1-0.1,0.1l-0.3,0.3l-0.2,0.2L108.9,388.2L108.9,388.2z M108,375.7l1,1.5
	c0,0,0.1,0.1,0.1,0.1c0,0,0,0,0,0.1c0,0.1,0.1,0.1,0.1,0.2c0.3,0.4,0.6,0.8,1,1.1c1.7-1.4,3.5-2.7,5.3-3.8c-0.6-2.1-0.9-4.2-1.1-6.4
	c-3.1,0.3-6.3,1-9.2,2.2C106.1,372.4,106.9,374.1,108,375.7z M103.4,365.2c3.5-1.4,7.2-2.2,10.9-2.5c0.3-3.8,1.2-7.5,2.5-10.9
	c-4.5-0.9-9.1-1-13.5-0.1c-0.4,2.1-0.7,4.3-0.7,6.5C102.7,360.6,102.9,362.9,103.4,365.2z M20.5,368.5c-0.2,2.1-0.5,4.3-1.1,6.4
	c1.9,1.1,3.6,2.4,5.3,3.9c2-2.5,3.7-5.2,5-8.1C26.8,369.5,23.7,368.8,20.5,368.5z M20.6,397c3.1-0.3,6.3-1,9.1-2.2
	c-1.3-3-3-5.7-5-8.1c-1.7,1.4-3.5,2.7-5.3,3.8C20,392.6,20.3,394.8,20.6,397L20.6,397z M18,351.8c1.4,3.5,2.2,7.2,2.5,10.9
	c3.7,0.3,7.4,1.1,11,2.5c0.5-2.3,0.8-4.6,0.8-6.9c0-2.3-0.3-4.5-0.7-6.6C27.1,350.8,22.4,350.8,18,351.8z M29.7,128.7
	c-1.3-3-3-5.7-5-8.1c-1.7,1.4-3.5,2.7-5.3,3.9c0.6,2.1,0.9,4.2,1.1,6.4C23.6,130.7,26.7,129.9,29.7,128.7z M19.4,108.8
	c1.9,1.1,3.6,2.4,5.3,3.8c2-2.5,3.7-5.2,5.1-8.1c-0.2-0.1-0.4-0.1-0.6-0.2c-0.2-0.1-0.4-0.1-0.6-0.2c-0.1,0-0.3-0.1-0.4-0.1
	c-0.1,0-0.3-0.1-0.4-0.1c-0.6-0.2-1.2-0.3-1.7-0.5l-0.3-0.1c-0.5-0.2-0.9-0.3-1.4-0.3h-0.2c-0.1-0.1-0.2-0.1-0.3-0.1
	c-0.6-0.1-1.1-0.2-1.6-0.3l0,0c-0.1,0-0.3,0-0.4,0c-0.1,0-0.3,0-0.4,0c-0.2,0-0.3,0-0.5,0c-0.2,0-0.3,0-0.5,0
	C20.3,104.4,20,106.6,19.4,108.8z M31.4,134.2c-3.5,1.4-7.2,2.2-10.9,2.5c-0.3,3.7-1.1,7.5-2.5,11c0.2,0.1,0.4,0.2,0.6,0.2
	c1.3,0.3,2.5,0.4,3.8,0.5c0.5,0.1,1,0.1,1.5,0.1h0.9h0.5c0.3,0,0.6,0,0.8,0c0.3,0,0.6,0,0.8,0c0.3-0.1,0.5-0.1,0.8-0.1
	c0.1,0,0.3,0,0.4,0c0.1,0,0.3,0,0.4,0c0.6-0.1,1.1-0.2,1.6-0.3c0.2,0,0.4-0.1,0.7-0.1h0l0,0c0.2,0,0.5-0.1,0.7-0.1
	c0.4-2.1,0.7-4.3,0.7-6.5C32.2,138.7,31.9,136.4,31.4,134.2z M113.4,102.4h-0.3c-0.7,0.1-1.4,0.3-2.1,0.5h-0.2h-0.2
	c-0.5,0.1-1,0.2-1.5,0.3h-0.1h-0.2h-0.1c-0.3,0.1-0.5,0.2-0.8,0.3c-0.3,0.1-0.5,0.2-0.8,0.3c-0.6,0.2-1.2,0.3-1.8,0.6
	c0,0-0.1,0-0.1,0c0,0-0.1,0-0.1,0c0.8,1.8,1.6,3.5,2.7,5.1c0.2,0.2,0.3,0.4,0.5,0.6c0.1,0.2,0.3,0.4,0.5,0.6c0,0,0.1,0.1,0.1,0.1
	c0,0,0,0.1,0.1,0.1c0,0.1,0.1,0.2,0.2,0.3c0.1,0.1,0.1,0.2,0.2,0.3c0.3,0.3,0.6,0.7,0.8,1c1.7-1.4,3.5-2.7,5.3-3.8
	c-0.6-2.1-0.9-4.2-1.1-6.4c-0.2,0-0.3,0-0.5,0C113.8,102.4,113.6,102.4,113.4,102.4z M115.5,124.4c-1.9-1.1-3.6-2.4-5.3-3.8
	c-0.3,0.3-0.5,0.6-0.8,0.9c-0.1,0.2-0.3,0.4-0.4,0.5c-0.4,0.5-0.8,1-1.1,1.6c-1,1.6-1.9,3.3-2.7,5.1c0.2,0.1,0.4,0.2,0.7,0.3
	c0.2,0.1,0.5,0.2,0.7,0.3c0.1,0,0.2,0.1,0.3,0.1c0.1,0,0.2,0,0.3,0.1c2.4,0.8,4.7,1.4,7.2,1.5h0.2
	C114.6,128.7,114.9,126.5,115.5,124.4z M113.8,136.5c-2.8-0.2-5.6-0.8-8.4-1.7c-0.2-0.1-0.4-0.2-0.8-0.3l-1.3-0.5
	c-0.5,2.2-0.8,4.6-0.8,6.9c0,2.2,0.3,4.4,0.7,6.5h0.2c0.3,0.1,0.8,0.2,1.2,0.3h0c0.4,0.1,0.7,0.1,1.1,0.2c0.2,0,0.4,0,0.5,0.1
	c0.1,0,0.3,0,0.4,0s0.3,0,0.4,0c0.3,0.1,0.4,0.1,0.7,0.1c0.7,0.1,1.3,0.1,1.9,0.1h0.4h0.9c0.3,0,0.5,0,0.8,0c0.3,0,0.5,0,0.8,0h0.4
	c1.1-0.1,2.3-0.3,3.4-0.5c0.1,0,0.2-0.1,0.3-0.1c0.1,0,0.2,0,0.3-0.1c-1.4-3.5-2.2-7.2-2.5-10.9
	C114.2,136.5,113.9,136.5,113.8,136.5z M76.9,350.5c-3.4-1.5-6.6-3.6-9.5-6c-2.9,2.5-6.1,4.5-9.5,5.9c1.3,1.9,2.7,3.8,4.4,5.5
	c1.5,1.6,3.2,3,5.1,4.1c1.8-1.2,3.5-2.5,5.1-4.1l0.9-0.9c0.6-0.6,1.2-1.3,1.7-1.9c0.4-0.5,0.8-1.1,1.2-1.7
	C76.5,351.1,76.7,350.8,76.9,350.5z M53.2,336.2c0.3,3.1,1,6.3,2.2,9.2c2.9-1.3,5.7-3,8-5c-1.4-1.7-2.7-3.5-3.8-5.3
	C57.5,335.7,55.4,336,53.2,336.2z M75.2,335.1c-1.1,1.9-2.4,3.6-3.8,5.3c2.5,2,5.2,3.7,8.1,5c1.2-3,1.9-6.1,2.2-9.2
	C79.6,336,77.4,335.7,75.2,335.1z M81.7,330.4c-0.2-2.4-0.7-4.7-1.4-6.9c-0.4-1.3,0.2-2.8,1.4-3.4c2.1-1.1,4.1-2.4,5.9-3.9
	c-1.8-1.5-3.8-2.8-5.9-3.9c-1.3-0.6-1.9-2-1.4-3.4c0.8-2.3,1.2-4.6,1.4-6.9c-2.4,0.2-4.7,0.7-6.9,1.4c-1.3,0.4-2.8-0.2-3.4-1.4
	c-1.1-2.1-2.4-4.1-3.9-5.9c-1.5,1.8-2.8,3.8-3.9,5.9c-0.7,1.3-2.1,1.9-3.5,1.4c-2.3-0.8-4.6-1.2-6.9-1.4c0.2,2.4,0.7,4.7,1.4,6.9
	c0.4,1.4-0.2,2.9-1.4,3.5c-2.1,1.1-4.1,2.4-5.9,3.9c1.8,1.5,3.8,2.8,5.9,3.9c1.3,0.6,1.9,2,1.4,3.4c-0.8,2.3-1.2,4.6-1.4,6.9
	c2.4-0.2,4.7-0.7,6.9-1.4c0.3-0.1,0.7-0.2,0.9-0.2c1,0,2,0.5,2.5,1.5c1.1,2.1,2.4,4.1,3.9,5.9c1.5-1.8,2.8-3.8,3.9-5.9
	c0.7-1.3,2.1-1.9,3.5-1.4C77,329.7,79.3,330.2,81.7,330.4z M14.8,269.5c-2.2-0.2-4.4-0.5-6.5-1.1c-0.2,0.3-0.4,0.6-0.6,0.9
	c-0.2,0.3-0.4,0.6-0.6,0.9l0,0c-0.6,0.8-1.2,1.7-1.8,2.5c-0.2,0.3-0.4,0.5-0.6,0.8l0,0c-0.1,0.1-0.2,0.2-0.3,0.4
	c2.5,2.1,5.2,3.8,8.1,4.9C13.8,275.9,14.6,272.8,14.8,269.5z M14.8,229.7c-0.3-3.1-1-6.3-2.2-9.2c-3,1.3-5.7,3-8,5
	c0.2,0.2,0.3,0.4,0.5,0.6l0,0h0c0.1,0.2,0.3,0.4,0.5,0.6c0.5,0.7,1.1,1.5,1.7,2.4c0.2,0.3,0.4,0.6,0.6,0.9c0.2,0.3,0.4,0.6,0.6,0.9
	C10.5,230.2,12.6,229.8,14.8,229.7z M29.7,261.7c-1.3-2.9-3-5.6-5-8c-0.2,0.2-0.4,0.3-0.6,0.5c-0.2,0.1-0.4,0.3-0.6,0.5
	c-0.4,0.4-0.9,0.7-1.3,1l-0.2,0.1h0l0,0l-0.1,0.1c-0.1,0.1-0.2,0.2-0.4,0.3c-0.7,0.4-1.4,0.9-2.2,1.4l0,0l0,0
	c0.6,2.1,0.9,4.2,1.1,6.4C23.6,263.7,26.7,262.9,29.7,261.7z M19.4,241.9c1.9,1.1,3.6,2.4,5.3,3.8c2-2.5,3.7-5.2,5-8
	c-2.9-1.2-6-1.9-9.2-2.2C20.3,237.5,20,239.7,19.4,241.9z M18,218.7c1.4,3.5,2.2,7.2,2.5,10.9c3.7,0.3,7.4,1.1,11,2.5
	c0.5-2.3,0.8-4.6,0.8-6.9c0-2.3-0.3-4.5-0.7-6.6C27.2,217.7,22.5,217.7,18,218.7z M15.5,213.5c4.8-1.3,10-1.5,14.9-0.8
	c-0.3-1.6-0.3-3.3-0.3-5c0-3.2,0.3-6.4,1.2-9.5c-2.7-1.6-5.2-3.6-7.5-5.8c-1.4-1.4-2.7-3-3.9-4.6c-0.2,0.2-0.3,0.4-0.5,0.6
	c-0.2,0.2-0.3,0.4-0.5,0.6c-2.3,2.4-5.2,3.9-8.6,4.4c-0.7,4.1-2.7,6.9-4.4,8.6c-0.1,0-0.1,0.1-0.2,0.2c-0.1,0.1-0.1,0.1-0.2,0.2
	c0.1,0,0.1,0.1,0.2,0.1c0.1,0,0.1,0.1,0.2,0.1c0,0,0.1,0,0.1,0c0,0,0,0,0.1,0c0.2,0.1,0.3,0.3,0.5,0.4c0.1,0.1,0.3,0.3,0.5,0.4
	l0.1,0.1l0,0l0.8,0.7l0.1,0.1c0.4,0.4,0.7,0.7,1,1c0.3,0.3,0.5,0.5,0.8,0.7C11.9,208.2,13.9,210.7,15.5,213.5z M5.4,297.1
	c2.3,2.1,4.1,5.2,4.7,9.1c4.8,0.7,7.9,3.3,9.6,5.6c1.1-1.6,2.4-3.1,3.8-4.6c2.4-2.3,4.9-4.2,7.6-5.8c-0.8-3-1.2-6.3-1.2-9.5
	c0-1.7,0.1-3.4,0.3-5.1c-4.9,0.7-10.1,0.4-14.9-0.8c-1.6,2.7-3.6,5.2-5.8,7.5C8.3,294.8,6.9,296,5.4,297.1z M20.5,269.7
	c-0.3,3.7-1.1,7.5-2.5,10.9c4.4,0.9,9.1,1,13.5,0.1c0.4-2.1,0.7-4.3,0.7-6.5c0-2.3-0.3-4.7-0.8-6.9
	C27.9,268.6,24.2,269.5,20.5,269.7z M34.8,240.2c-1.5,3.4-3.6,6.6-6,9.5c2.5,2.9,4.5,6.1,6.1,9.5c1.3-0.8,2.5-1.7,3.6-2.6
	c0.3-0.3,0.6-0.6,0.9-0.9c0.3-0.3,0.6-0.6,0.9-0.9c1.5-1.5,3-3.2,4.1-5.1c-1.2-1.8-2.5-3.5-4.1-5.1
	C38.6,242.9,36.7,241.4,34.8,240.2z M58,148.8c3.4,1.5,6.6,3.6,9.5,6c2.8-2.5,6-4.5,9.5-6c-1.3-2-2.7-3.8-4.4-5.5
	c-1.5-1.5-3.2-3-5.1-4.1c-1.8,1.2-3.5,2.5-5.1,4.1C60.7,145,59.3,146.9,58,148.8z M81.8,163.1c-0.3-3.1-1-6.3-2.2-9.2
	c-3,1.3-5.7,3-8,5c1.4,1.7,2.7,3.5,3.8,5.3C77.4,163.6,79.6,163.3,81.8,163.1z M59.6,164.2c1.1-1.9,2.4-3.6,3.8-5.3
	c-2.4-2-5.2-3.7-8-5c-1.2,2.9-1.9,6-2.2,9.2C55.3,163.3,57.5,163.6,59.6,164.2z M53.2,168.9c0.2,2.4,0.7,4.7,1.4,6.9
	c0.4,1.4-0.2,2.8-1.4,3.6c-2.1,1.1-4.1,2.4-5.9,3.9c1.8,1.5,3.8,2.8,5.9,3.9c1.3,0.7,1.9,2.1,1.4,3.5c-0.8,2.3-1.2,4.6-1.4,6.9
	c2.4-0.2,4.7-0.7,6.9-1.4c0.3-0.1,0.7-0.2,0.9-0.2c1,0,2,0.5,2.5,1.5c1.1,2.1,2.4,4.1,3.9,5.9c1.5-1.8,2.8-3.8,3.9-5.9
	c0.6-1.3,2-1.9,3.4-1.4c2.3,0.7,4.6,1.2,6.9,1.4c-0.2-2.4-0.7-4.7-1.4-6.9c-0.4-1.4,0.2-2.9,1.4-3.5c2.1-1.1,4.1-2.4,5.9-3.9
	c-1.8-1.5-3.8-2.8-5.9-3.9c-1.3-0.7-1.9-2.1-1.4-3.5c0.8-2.3,1.2-4.6,1.4-6.9c-2.4,0.2-4.7,0.7-6.9,1.4c-1.3,0.4-2.8-0.2-3.4-1.4
	c-1.1-2.1-2.4-4.1-3.9-5.9c-1.5,1.8-2.8,3.8-3.9,5.9c-0.7,1.3-2.1,1.9-3.5,1.4C57.9,169.5,55.6,169.1,53.2,168.9z M82.4,280
	c4.8-1.3,9.9-1.5,14.9-0.8c-0.3-1.7-0.3-3.4-0.3-5.2c0-3.2,0.3-6.4,1.2-9.5c-1.4-0.8-2.8-1.8-4.1-2.8l-0.1-0.1l-2-1.8
	c0,0-0.1,0-0.1,0c0,0,0,0-0.1,0c-0.3-0.3-0.8-0.7-1.1-1l0,0c0,0-0.1-0.1-0.1-0.1c0,0-0.1,0-0.1-0.1c-1.4-1.4-2.6-2.9-3.7-4.4
	c-0.3,0.3-0.7,0.7-1,1.1c-1.7,1.8-4.5,3.8-8.6,4.4c-0.6,3.9-2.5,6.9-4.7,9.1c1.5,1.1,2.9,2.3,4.2,3.6
	C78.9,274.7,80.8,277.2,82.4,280z M42,260.9c-1.7,1.4-3.5,2.6-5.3,3.7c0.8,3.1,1.3,6.3,1.2,9.4c0,1.7-0.1,3.4-0.3,5.1
	c5-0.8,10.1-0.5,14.9,0.8c1.6-2.7,3.6-5.2,5.8-7.5c1.3-1.2,2.5-2.3,3.8-3.3c-0.3-0.2-0.5-0.4-0.8-0.7c-1.8-1.7-3.8-4.5-4.4-8.6
	c-4.4-0.6-7.4-2.8-9.2-4.9c-1,1.4-2.1,2.7-3.3,3.9l-0.2,0.2C43.4,259.6,42.7,260.3,42,260.9z M52.4,219.2c-4.8,1.3-10,1.5-14.9,0.8
	c0.3,1.7,0.4,3.4,0.3,5.2c0,3.2-0.3,6.4-1.2,9.5c2.7,1.6,5.2,3.6,7.5,5.8c1.3,1.3,2.5,2.5,3.5,4l0.5-0.5c0.1,0,0.1-0.1,0.1-0.1
	c0.4-0.4,0.9-0.8,1.4-1.2c0,0,0.1-0.1,0.1-0.1c0,0,0-0.1,0.1-0.1c0,0,0.1-0.1,0.2-0.1c0.1,0,0.1-0.1,0.2-0.1
	c0.1-0.1,0.3-0.3,0.4-0.3c0.1-0.1,0.3-0.2,0.4-0.3c0.1-0.1,0.3-0.2,0.4-0.3c0.6-0.4,1.3-0.8,2-1c0.4-0.2,0.7-0.3,1-0.4
	c0.1,0,0.3-0.1,0.4-0.1h0.1c0.6-0.2,1.3-0.3,1.9-0.4c0.7-4.2,2.6-7,4.4-8.7c0.1-0.1,0.3-0.2,0.4-0.3c0.1-0.1,0.3-0.2,0.4-0.3
	c-1.3-1-2.5-2.1-3.7-3.3C56,224.5,54,222,52.4,219.2z M73.5,221.9c0.6-0.6,1.2-1.3,1.7-1.9c0.4-0.5,0.8-1.1,1.2-1.7
	c0.2-0.3,0.4-0.6,0.6-0.9c-3.5-1.5-6.7-3.6-9.5-6.1c-2.9,2.5-6,4.5-9.5,6c1.3,1.9,2.7,3.8,4.4,5.5c1.5,1.5,3.2,3,5.1,4.1
	c1.8-1.2,3.5-2.5,5.1-4.1c0.1-0.1,0.2-0.2,0.3-0.3C73.1,222.3,73.3,222.1,73.5,221.9z M75.2,202c-1.1,1.9-2.4,3.6-3.8,5.3
	c2.5,2.1,5.2,3.8,8,5c1.2-3,1.9-6.1,2.2-9.2C79.6,202.9,77.4,202.6,75.2,202z M74.5,245.1c-1.6,0-2.9-1.3-2.9-2.9
	c0-5-2.9-7.5-4.5-8.9c-0.5,0.3-1.1,0.8-1.7,1.4c-1.9,1.9-2.9,4.3-2.9,7.3c0,1.6-1.3,2.9-2.9,2.9c-1.1,0-2.1,0.2-3,0.4
	c-0.2,0-0.3,0.1-0.5,0.2c-0.2,0.1-0.3,0.1-0.5,0.2c-0.1,0-0.2,0-0.3,0.1c0,0-0.1,0-0.1,0.1c-0.3,0.1-0.6,0.3-0.8,0.4
	c-0.2,0.1-0.4,0.3-0.6,0.4c-0.1,0.1-0.2,0.1-0.3,0.2c0,0.1,0,0.1-0.1,0.1c0,0-0.1,0-0.1,0.1c-0.3,0.3-0.7,0.6-0.9,0.8
	c-0.6,0.7-1,1.3-1.4,1.8c1,1.6,3.6,4.6,8.6,4.6c1.6,0,2.9,1.3,2.9,2.9c0,3,0.9,5.4,2.9,7.3c0.6,0.6,1.2,1,1.7,1.4
	c1.7-1,4.6-3.6,4.6-8.6c0-1.6,1.3-2.9,2.9-2.9c3,0,5.4-0.9,7.3-2.9c0.6-0.6,1-1.2,1.4-1.7c-0.3-0.4-0.8-1.1-1.4-1.7
	c-0.1-0.1-0.3-0.2-0.4-0.3l0,0l0,0l0,0c-0.4-0.3-0.8-0.7-1.2-0.9c-0.3-0.2-0.6-0.3-0.8-0.5l-0.4-0.2c-0.2-0.1-0.4-0.1-0.6-0.2
	c-0.1,0-0.2-0.1-0.3-0.1C76.9,245.2,75.8,245.1,74.5,245.1z M53.2,203.1c0.3,3.1,1,6.3,2.2,9.2c2.9-1.2,5.7-2.9,8-5
	c-1.4-1.7-2.7-3.5-3.8-5.3C57.5,202.6,55.4,202.9,53.2,203.1z M63.5,292c-2.5-2-5.2-3.7-8.1-5c-1.2,3-1.9,6.1-2.1,9.2
	c2.1,0.2,4.3,0.5,6.4,1.1C60.8,295.4,62,293.7,63.5,292z M62.4,276.4c-1.7,1.7-3.1,3.6-4.4,5.5c3.4,1.5,6.6,3.6,9.5,6
	c2.9-2.5,6.1-4.5,9.5-6c-1.3-2-2.7-3.8-4.4-5.5c-1.5-1.5-3.2-3-5.1-4.1C65.7,273.4,64,274.8,62.4,276.4z M81.8,296.2
	c-0.3-3.1-1-6.3-2.2-9.2c-3,1.3-5.7,3-8,5c1.4,1.7,2.7,3.5,3.8,5.3C77.4,296.7,79.6,296.4,81.8,296.2z M83.2,241.9
	c0.9,0.6,1.8,1.3,2.5,2c0.4,0.4,0.8,0.8,0.8,1.3c1.2-1.6,2.5-3.1,3.9-4.6c2.4-2.3,4.9-4.2,7.6-5.8c-0.8-3-1.2-6.3-1.2-9.5
	c0-1.7,0.1-3.4,0.3-5.1c-4.9,0.7-10.1,0.4-14.9-0.8c-0.8,1.4-1.8,2.8-2.8,4.1c-0.1,0.1-0.3,0.3-0.3,0.4c-0.2,0.2-0.3,0.4-0.5,0.6
	l0,0l0,0c-0.3,0.4-0.6,0.7-0.9,1.1c0,0,0,0.1,0,0.1c0,0,0,0,0,0.1c-0.2,0.2-0.3,0.4-0.5,0.5c-0.2,0.2-0.3,0.4-0.5,0.6
	c0,0-0.1,0.1-0.1,0.1c0,0,0,0.1-0.1,0.1c-1.3,1.3-2.6,2.4-4.1,3.5c2.3,2.1,4.1,5.2,4.7,9.1c0.9,0.2,1.9,0.4,2.7,0.7
	c0,0,0.1,0.1,0.2,0.1c0.3,0.1,0.8,0.3,1.1,0.4c0,0.1,0.1,0.1,0.1,0.1h0.1l0.6,0.3c0,0,0.1,0,0.1,0c0,0,0,0,0.1,0
	c0,0,0.1,0.1,0.1,0.1c0,0,0.1,0,0.1,0.1c0.1,0,0.3,0.1,0.3,0.2C82.9,241.7,83,241.8,83.2,241.9z M87.4,203.2
	c-0.3,3.7-1.1,7.5-2.5,10.9c4.4,0.9,9.1,1,13.5,0.1c0.4-2.1,0.7-4.3,0.7-6.5c0-2.4-0.3-4.7-0.8-6.9
	C94.9,202.1,91.2,202.9,87.4,203.2z M86.3,190.9c0.6,2.2,0.9,4.3,1.1,6.5c3.2-0.3,6.3-1,9.2-2.2c-1.3-3-3-5.7-5-8.1
	C89.9,188.5,88.1,189.8,86.3,190.9z M87.4,168.9c-0.2,2.1-0.5,4.3-1.1,6.4c1.9,1.1,3.6,2.4,5.3,3.9c2-2.5,3.7-5.2,5-8.1
	C93.8,169.9,90.7,169.1,87.4,168.9z M38.3,171c1.3,3,3,5.7,5,8.1c1.6-1.4,3.4-2.7,5.3-3.9c-0.6-2.1-0.9-4.2-1.1-6.4
	C44.4,169,41.2,169.8,38.3,171z M48.6,191c-1.9-1.1-3.6-2.4-5.3-3.8c-2.1,2.4-3.8,5.2-5,8c2.9,1.2,6,1.9,9.2,2.2
	C47.7,195.3,48,193.1,48.6,191z M49.9,214c-1.4-3.5-2.2-7.2-2.5-10.9c-3.8-0.3-7.5-1.1-10.9-2.5c-0.5,2.2-0.8,4.6-0.8,6.9
	c0,2.2,0.3,4.4,0.7,6.5c2.1,0.4,4.3,0.7,6.5,0.7C45.4,214.8,47.7,214.5,49.9,214z M49.9,285.2c-4.4-0.9-9.1-1-13.5-0.1
	c-0.4,2.2-0.7,4.4-0.6,6.5c0,2.4,0.3,4.7,0.8,6.9c3.5-1.4,7.2-2.2,10.9-2.5C47.7,292.4,48.6,288.7,49.9,285.2z M48.6,308.3
	c-0.6-2.1-0.9-4.2-1.1-6.4c-3.2,0.3-6.3,1-9.2,2.1c1.3,3,3,5.7,5,8.1C44.9,310.7,46.7,309.4,48.6,308.3z M48.6,324
	c-1.9-1.1-3.6-2.4-5.3-3.8c-2.1,2.5-3.8,5.2-5,8c2.9,1.2,6,1.9,9.2,2.2C47.7,328.3,48,326.1,48.6,324z M96.7,328.3
	c-1.3-3-3-5.7-5-8.1c-1.7,1.4-3.5,2.7-5.3,3.8c0.6,2.2,0.9,4.3,1.1,6.5C90.6,330.2,93.7,329.5,96.7,328.3z M87.4,302
	c-0.2,2.1-0.5,4.3-1.1,6.4c1.9,1.1,3.6,2.4,5.3,3.9c2-2.5,3.7-5.2,5-8.1C93.8,303,90.7,302.2,87.4,302z M85,285.3
	c1.4,3.5,2.2,7.2,2.5,10.9c3.7,0.3,7.4,1.1,10.9,2.5c0.5-2.3,0.8-4.6,0.8-6.9c0-2.2-0.3-4.4-0.7-6.5c-2.1-0.4-4.3-0.7-6.5-0.7
	C89.6,284.5,87.3,284.8,85,285.3z M95.8,255.8c0.6,0.6,1.2,1.1,1.8,1.5c0.8,0.7,1.6,1.3,2.5,1.8c0.8-1.9,1.9-3.9,3-5.7l1.3-1.8
	c0.3-0.3,0.6-0.7,0.8-1c0.3-0.3,0.6-0.7,0.8-1c-0.6-0.7-1.2-1.4-1.7-2l-1.3-1.8c-1.2-1.8-2.2-3.7-3-5.7c-1.9,1.3-3.8,2.7-5.5,4.4
	c-1.5,1.5-3,3.2-4.1,5.1c1.2,1.8,2.5,3.5,4.1,5.1c0.1,0.1,0.2,0.2,0.3,0.3c0.2,0.2,0.4,0.4,0.6,0.6
	C95.6,255.7,95.7,255.7,95.8,255.8z M120.1,269.6c0.3,3.1,1,6.3,2.2,9.2c2.9-1.2,5.7-2.9,8.1-5c-1.4-1.7-2.7-3.5-3.8-5.3
	C124.4,269.1,122.3,269.5,120.1,269.6z M110.2,245.7c1-0.8,2-1.6,3.1-2.4c0.1-0.1,0.2-0.1,0.3-0.2c0.1-0.1,0.2-0.1,0.3-0.2l0.1-0.1
	c0.2-0.1,0.4-0.2,0.6-0.3c0.2-0.1,0.4-0.2,0.5-0.3c0.2-0.2,0.3-0.3,0.5-0.3c-0.6-2.1-0.9-4.2-1.1-6.4c-3.1,0.3-6.3,1-9.2,2.2
	c0.8,1.8,1.6,3.5,2.7,5.1c0.2,0.2,0.3,0.4,0.5,0.6c0.1,0.2,0.3,0.4,0.5,0.6c0,0,0.1,0.1,0.1,0.1c0,0,0,0.1,0.1,0.1
	c0,0.1,0.1,0.2,0.2,0.3c0.1,0.1,0.1,0.2,0.2,0.3C109.7,245,110,245.3,110.2,245.7z M109,255.1c-0.4,0.5-0.8,1-1.1,1.5
	c-1.1,1.6-1.9,3.3-2.8,5.2c2.9,1.2,6,1.9,9.2,2.2c0.2-2.2,0.5-4.4,1.1-6.5l-0.2-0.1l-0.1-0.1c-0.1-0.1-0.2-0.1-0.3-0.2l-0.2-0.1l0,0
	l0,0c-0.6-0.4-1.3-0.8-1.9-1.2c-0.1,0-0.2-0.1-0.3-0.2c0,0-0.1,0-0.1,0c0,0,0,0-0.1,0l-0.2-0.2c-0.1-0.1-0.3-0.2-0.4-0.3
	c-0.1-0.1-0.3-0.2-0.4-0.3c0-0.1-0.1-0.1-0.1-0.1l-0.1-0.1c-0.2-0.1-0.3-0.3-0.5-0.4c-0.2-0.1-0.3-0.3-0.5-0.4
	c-0.1,0.2-0.3,0.3-0.4,0.5C109.5,254.5,109.3,254.8,109,255.1z M122.3,220.5c-1.2,2.9-1.9,6-2.2,9.2c2.2,0.2,4.3,0.5,6.5,1.1
	c1.1-1.9,2.4-3.6,3.8-5.3C128,223.5,125.3,221.8,122.3,220.5z M128.2,201.9c-2.4-2.3-3.9-5.2-4.4-8.6c-4.4-0.7-7.4-2.9-9.2-5.1
	c-1.1,1.4-2.2,2.7-3.5,4c-2.3,2.3-4.8,4.2-7.5,5.8c0.8,3,1.2,6.3,1.2,9.5c0,1.7-0.1,3.4-0.3,5.1c4.9-0.7,10.1-0.4,14.9,0.8
	c1.6-2.7,3.6-5.2,5.8-7.5c1.1-1.1,2.4-2.2,3.7-3.2c0-0.1,0.1-0.1,0.1-0.1C128.7,202.4,128.5,202.1,128.2,201.9z M114.4,229.7
	c0.3-3.7,1.1-7.5,2.5-10.9c-4.5-1-9.1-1-13.5-0.1c-0.4,2.1-0.7,4.3-0.7,6.5c0,2.4,0.3,4.7,0.8,6.9
	C107,230.8,110.7,229.9,114.4,229.7z M114.4,269.6c-3.7-0.3-7.4-1.1-10.9-2.5c-0.5,2.3-0.8,4.7-0.8,6.9c0,2.2,0.3,4.4,0.7,6.5
	c4.5,0.9,9.1,0.9,13.5-0.1C115.5,277.1,114.6,273.3,114.4,269.6z M119.3,285.8c-4.8,1.3-9.9,1.6-14.9,0.8c0.3,1.7,0.3,3.4,0.3,5.1
	c0,3.2-0.3,6.4-1.2,9.5c2.7,1.6,5.2,3.6,7.5,5.8c1.3,1.3,2.5,2.5,3.5,4c0.1-0.1,0.2-0.2,0.3-0.3c0.1-0.1,0.2-0.2,0.3-0.3
	c1.7-1.8,4.5-3.8,8.6-4.4c0.7-4.6,3-7.5,5.2-9.4c-1.3-1-2.5-2.1-3.7-3.3C122.9,291.1,121,288.6,119.3,285.8z M120.1,136.6
	c0.3,3.1,1,6.3,2.2,9.2c2.9-1.3,5.7-3,8.1-5c-1.4-1.7-2.7-3.5-3.8-5.3C124.4,136.1,122.3,136.4,120.1,136.6z M129,163.6
	c-1.3-1-2.5-2.1-3.7-3.3c-2.3-2.2-4.2-4.8-5.8-7.5c-0.3,0.1-0.7,0.2-1,0.2c-0.3,0.1-0.6,0.1-0.9,0.2h-0.2l-0.3,0.1
	c-1.3,0.2-2.6,0.5-3.9,0.5H113h-0.2c-0.3,0.1-0.5,0.1-0.8,0.1c-0.8,0.1-1.4,0.1-2.1,0.1c-1.8,0-3.6-0.2-5.4-0.4
	c0.3,1.7,0.3,3.4,0.3,5.1c0,3.2-0.3,6.4-1.2,9.5c2.7,1.6,5.2,3.6,7.5,5.8c1.3,1.3,2.5,2.5,3.5,4c0.1-0.1,0.2-0.2,0.3-0.3
	c0.1-0.1,0.2-0.2,0.3-0.3c1.7-1.8,4.5-3.8,8.6-4.4C124.5,168.4,126.9,165.5,129,163.6z M111.3,183.1c-1.2-1.8-2.5-3.5-4.1-5.1
	c-1.7-1.7-3.5-3.1-5.5-4.4c-1.5,3.5-3.6,6.6-6,9.5c2.5,2.8,4.5,6,6,9.5c1.9-1.3,3.8-2.7,5.5-4.4C108.7,186.6,110.1,185,111.3,183.1z
	 M87.4,163.1c3.7,0.3,7.4,1.1,10.9,2.5c0.5-2.2,0.8-4.6,0.8-6.9c0-2.2-0.3-4.4-0.7-6.5c-4.5-0.9-9.1-0.9-13.5,0.1
	C86.3,155.7,87.2,159.4,87.4,163.1z M82.4,146.9c4.8-1.3,9.9-1.6,14.9-0.8c-0.3-1.6-0.3-3.3-0.3-5.1c0-3.2,0.3-6.4,1.2-9.5
	c-2.8-1.6-5.3-3.6-7.6-5.8c-1.4-1.4-2.7-3-3.9-4.6c-0.3,0.3-0.7,0.7-1,1.1c-1.7,1.8-4.5,3.8-8.6,4.4c-0.6,3.9-2.5,6.9-4.7,9.1
	c1.5,1.1,2.9,2.3,4.2,3.6C78.9,141.6,80.8,144.1,82.4,146.9z M74.5,121.2c3,0,5.4-0.9,7.3-2.9c0.4-0.4,0.7-0.9,1-1.2
	c0.1-0.2,0.2-0.3,0.3-0.4c-1-1.6-3.6-4.6-8.6-4.6c-1.6,0-2.9-1.3-2.9-2.9c0-5-2.9-7.5-4.6-8.6c-0.1,0.1-0.3,0.2-0.4,0.3
	c-0.4,0.3-0.8,0.6-1.2,1c-1.9,1.9-2.9,4.3-2.9,7.3c0,1.6-1.3,2.9-2.9,2.9c-3,0-5.4,0.9-7.3,2.9c-0.6,0.6-1,1.2-1.4,1.7
	c0.3,0.5,0.8,1.1,1.4,1.7c1.9,1.9,4.3,2.9,7.3,2.9c1.6,0,2.9,1.3,2.9,2.9c0,3,0.9,5.4,2.9,7.3c0.6,0.6,1.2,1,1.7,1.4
	c1.7-1,4.6-3.6,4.6-8.6C71.6,122.5,72.9,121.2,74.5,121.2z M61.3,135.4c-1.8-1.8-3.8-4.6-4.4-8.7c-4.1-0.7-6.9-2.7-8.7-4.4
	c-0.1-0.1-0.2-0.2-0.3-0.3c-0.1-0.1-0.2-0.2-0.3-0.3c-1.1,1.4-2.2,2.7-3.5,4c-2.3,2.3-4.8,4.2-7.5,5.8c0.8,3,1.2,6.3,1.2,9.5
	c0,1.7-0.1,3.4-0.3,5.1c4.9-0.7,10.1-0.4,14.9,0.8c1.6-2.7,3.6-5.2,5.8-7.5c1.2-1.2,2.5-2.3,3.8-3.3
	C61.8,135.9,61.5,135.7,61.3,135.4L61.3,135.4z M47.5,163.1c0.3-3.7,1.1-7.5,2.5-10.9c-4.5-1-9.1-1-13.5-0.1
	c-0.4,2.1-0.7,4.3-0.7,6.5c0,2.4,0.3,4.7,0.8,6.9C40,164.2,43.8,163.4,47.5,163.1z M33.2,192.6c1.5-3.5,3.6-6.6,6-9.5
	c-2.5-2.8-4.5-6-6-9.5c-1.9,1.3-3.8,2.7-5.5,4.4c-1.5,1.5-3,3.2-4.1,5.1c1.2,1.8,2.6,3.6,4.1,5.1C29.4,189.9,31.2,191.3,33.2,192.6z
	 M30.4,153.6c-1.8,0.3-3.6,0.4-5.4,0.4c-1,0-1.9-0.1-2.9-0.2l-0.2,0c-1.4-0.2-2.9-0.3-4.5-0.6h-0.2c-0.6-0.1-1.3-0.3-1.9-0.4
	c-1.6,2.7-3.6,5.2-5.8,7.5c-1.4,1.4-2.7,2.5-4.2,3.6c2.3,2.1,4.1,5.2,4.7,9.1c3.4,0.5,6.3,2,8.7,4.4c0.3,0.2,0.5,0.4,0.6,0.7
	c0.1,0.1,0.2,0.3,0.4,0.4c1.2-1.6,2.5-3.1,3.9-4.6c2.4-2.3,4.9-4.2,7.6-5.8c-0.8-3-1.2-6.3-1.2-9.5C30,157,30.1,155.3,30.4,153.6z
	 M4.6,140.8c2.4,2,5.1,3.7,8,5c1.2-3,1.9-6.1,2.2-9.3c-1.4-0.1-3-0.3-4.4-0.6l-2-0.5c-0.3,0.6-0.7,1.2-1.1,1.8
	c-0.6,0.8-1.2,1.7-1.8,2.5c-0.2,0.3-0.4,0.5-0.6,0.8C4.8,140.6,4.7,140.7,4.6,140.8z M14.8,362.8c-0.3-3.1-1-6.3-2.2-9.2
	c-3,1.3-5.7,3-8,5c0.2,0.2,0.3,0.4,0.5,0.6l0,0l0,0l0,0l0,0c0.1,0.2,0.3,0.4,0.5,0.6c0.5,0.7,1.1,1.5,1.7,2.4
	c0.2,0.3,0.4,0.6,0.6,0.9c0.2,0.3,0.4,0.6,0.6,0.9C10.5,363.3,12.6,362.9,14.8,362.8z M5.4,335.3c1.5,1.1,2.9,2.3,4.2,3.6
	c2.3,2.3,4.2,4.8,6,7.7c4.8-1.3,9.9-1.6,14.9-0.8c-0.3-1.7-0.3-3.4-0.3-5.1c0-3.2,0.3-6.4,1.2-9.5c-2.7-1.6-5.2-3.6-7.5-5.8
	c-1.4-1.4-2.7-3-3.9-4.6c-0.3,0.3-0.7,0.7-1,1.1c-2.4,2.4-5.3,3.9-8.7,4.4c-0.7,4.1-2.7,6.9-4.4,8.6c-0.1,0-0.1,0.1-0.2,0.2
	C5.6,335.2,5.5,335.3,5.4,335.3z M23.5,316.3c1.2,1.8,2.6,3.6,4.1,5.1c1.7,1.6,3.6,3,5.5,4.4c1.5-3.4,3.6-6.6,6-9.5
	c-2.5-2.9-4.5-6-6-9.5c-1.9,1.3-3.8,2.7-5.5,4.4C26.2,312.7,24.7,314.4,23.5,316.3z M47.4,336.2c-3.7-0.3-7.4-1.1-10.9-2.5
	c-0.5,2.3-0.8,4.6-0.8,6.9c0,2.2,0.3,4.4,0.7,6.5c2.1,0.4,4.3,0.7,6.5,0.7c2.4,0,4.7-0.3,6.9-0.8C48.5,343.6,47.7,339.9,47.4,336.2z
	 M52.4,352.3c-4.8,1.3-10,1.5-14.9,0.8c0.3,1.7,0.4,3.4,0.3,5.2c0,3.2-0.3,6.4-1.2,9.5c2.7,1.6,5.2,3.6,7.5,5.8
	c1.3,1.3,2.5,2.5,3.5,4c0.1-0.1,0.2-0.2,0.3-0.3c0.1-0.1,0.2-0.2,0.3-0.3c1.8-1.8,4.6-3.8,8.7-4.4c0.7-4.2,2.6-7,4.4-8.7l0.3-0.3
	l0.5-0.4c-1.4-1-2.6-2.1-3.8-3.3C56,357.6,54,355,52.4,352.3z M59.6,378.2c-3,0-5.4,0.9-7.3,2.9c-0.7,0.6-1.1,1.2-1.3,1.7
	c1,1.6,3.6,4.6,8.6,4.6c1.6,0,2.9,1.3,2.9,2.9c0,3,0.9,5.4,2.9,7.3c0.6,0.6,1.2,1,1.7,1.4c1.7-1,4.6-3.6,4.6-8.6
	c0-1.6,1.3-2.9,2.9-2.9c3,0,5.4-0.9,7.3-2.9c0.6-0.6,1-1.2,1.4-1.7c-0.3-0.5-0.8-1.1-1.4-1.7c-1.9-1.9-4.3-2.9-7.3-2.9
	c-1.6,0-2.9-1.3-2.9-2.9c0-4.9-2.6-7.5-4.5-8.6l-1.9,1.4c-1.9,1.9-2.8,4.3-2.8,7.2C62.5,376.9,61.2,378.2,59.6,378.2z M72.4,363.6
	c1.9,1.9,4.1,4.7,4.7,9.1c4.1,0.6,6.9,2.6,8.4,4.5c0.3,0.2,0.5,0.4,0.6,0.7c0.1,0.1,0.2,0.3,0.4,0.4c1.2-1.6,2.5-3.1,3.9-4.6
	c2.3-2.3,4.8-4.2,7.6-5.8c-0.8-3-1.2-6.3-1.2-9.5c0-1.7,0.1-3.4,0.3-5.1c-4.9,0.7-10.1,0.4-14.9-0.8c-0.8,1.4-1.8,2.8-2.8,4.1v0.1
	c-0.4,0.6-0.9,1.2-1.4,1.7l0,0c-0.2,0.2-0.3,0.4-0.5,0.5c-0.2,0.2-0.3,0.4-0.5,0.6c-0.2,0.2-0.3,0.4-0.5,0.5c0,0-0.1,0.1-0.1,0.1
	c0,0,0,0.1-0.1,0.1C75.2,361.4,73.8,362.5,72.4,363.6z M85,347.2c2.2,0.5,4.6,0.8,6.9,0.8c2.2,0,4.4-0.3,6.5-0.7
	c0.4-2.1,0.7-4.3,0.7-6.5c0-2.4-0.3-4.7-0.8-6.9c-3.5,1.4-7.2,2.2-10.9,2.5C87.2,340,86.3,343.7,85,347.2z M101.7,306.7
	c-1.5,3.5-3.6,6.6-6,9.5c2.5,2.9,4.5,6.1,6,9.6c2-1.3,3.8-2.7,5.5-4.4c1.5-1.5,3-3.2,4.1-5.1c-1.2-1.9-2.5-3.6-4.1-5.2
	C105.6,309.4,103.7,308,101.7,306.7z M104.8,340.7c0,1.7-0.1,3.4-0.3,5.1c5-0.8,10.2-0.4,14.9,0.8c1.6-2.7,3.6-5.2,5.8-7.5
	c1.2-1.2,2.5-2.3,3.8-3.3c-0.3-0.2-0.5-0.4-0.8-0.7c-1.8-1.7-3.8-4.5-4.4-8.6c-4.2-0.7-7-2.6-8.7-4.4c-0.1-0.1-0.2-0.2-0.3-0.3
	c-0.1-0.1-0.2-0.2-0.3-0.3c-1.1,1.4-2.2,2.7-3.5,4c-2.2,2.3-4.7,4.2-7.5,5.8C104.4,334.2,104.8,337.4,104.8,340.7z M130.4,358.5
	c-2.5-2-5.2-3.7-8.1-5c-1.2,3-1.9,6.1-2.2,9.2c2.2,0.2,4.4,0.5,6.5,1.1C127.7,362,129,360.2,130.4,358.5z M112.7,96.7
	c0.5-0.1,1.1-0.2,1.6-0.2c0.3-3.7,1.2-7.5,2.6-10.9c-4.4-0.9-9.1-1-13.5-0.1c-0.4,2.1-0.7,4.3-0.7,6.5c0,2.4,0.3,4.7,0.8,6.9
	c0.3-0.1,0.7-0.3,1.1-0.4c0.3-0.1,0.6-0.2,0.9-0.3c0.5-0.2,1-0.4,1.5-0.5c0.1,0,0.2-0.1,0.3-0.1c0.1,0,0.1,0,0.2,0
	c0.1,0,0.1,0,0.2,0c0.3-0.1,0.6-0.2,1-0.3c0.2,0,0.4-0.1,0.7-0.2h0.1c0.1-0.1,0.3-0.1,0.3-0.1C110.7,97,111.7,96.8,112.7,96.7z
	 M104.5,114.5l-1.3-1.8c-1.2-1.8-2.2-3.7-3-5.7c-0.1,0-0.2,0.1-0.3,0.2c-0.1,0.1-0.2,0.1-0.3,0.2c-0.3,0.2-0.6,0.4-0.9,0.6
	c-0.4,0.3-0.8,0.6-1.2,0.9c-0.6,0.5-1.3,1.1-1.9,1.7l0,0l0,0c-0.3,0.3-0.6,0.5-0.9,0.8c-1.5,1.5-3,3.2-4.1,5.1
	c1.2,1.8,2.6,3.6,4.1,5.1c1.7,1.7,3.6,3.1,5.5,4.4c0.8-2,1.9-3.9,3-5.7c0.2-0.3,0.4-0.6,0.6-0.8c0.2-0.3,0.4-0.6,0.7-0.9
	c0.3-0.3,0.6-0.7,0.8-1c0.3-0.3,0.6-0.7,0.8-1C105.6,115.9,105,115.2,104.5,114.5z M97,92.2c0-1.7,0.1-3.4,0.3-5.1
	c-5,0.7-10.1,0.4-15.1-0.7c-0.8,1.4-1.8,2.8-2.8,4.1c-0.1,0.1-0.3,0.3-0.3,0.4c-0.2,0.2-0.4,0.4-0.5,0.6c-0.3,0.4-0.6,0.7-0.9,1.1
	c0,0,0,0.1,0,0.1c0,0,0,0,0,0.1c-0.3,0.2-0.5,0.5-0.8,0.7c-0.1,0.1-0.2,0.2-0.3,0.4c0,0-0.1,0-0.1,0c0,0,0,0-0.1,0
	c-1.3,1.3-2.6,2.4-4.1,3.5c2.3,2.1,4.1,5.2,4.7,9.1c4.8,0.7,8,3.3,9.7,5.5c1.1-1.5,2.4-3,3.7-4.4l0.2-0.2l1-1l0.1-0.1
	c0.6-0.6,1.2-1.1,1.9-1.6l0.1-0.1l0.3-0.2c0.9-0.8,1.7-1.3,2.5-1.8h0.1c0.2-0.1,0.3-0.2,0.5-0.3c0.3-0.2,0.6-0.4,0.9-0.5
	c0,0,0.1-0.1,0.1-0.1c0,0,0.1,0,0.1-0.1C97.4,98.6,97,95.4,97,92.2z M71.4,74.3c2.5,2,5.2,3.7,8.1,5c1.2-3,1.9-6.1,2.1-9.2
	c-2.1-0.2-4.3-0.5-6.4-1.1C74.1,70.8,72.9,72.6,71.4,74.3z M73.5,88.8c0.6-0.6,1.2-1.3,1.7-1.9c0.4-0.5,0.8-1.1,1.2-1.7
	c0.2-0.3,0.4-0.6,0.6-0.9c-3.5-1.4-6.7-3.5-9.5-6.1c-2.9,2.5-6.1,4.5-9.5,6c1.3,1.9,2.7,3.8,4.4,5.5c1.5,1.5,3.2,3,5.1,4.1
	c1.8-1.2,3.5-2.5,5.1-4.1c0.1-0.1,0.2-0.2,0.3-0.3C73.1,89.2,73.3,89,73.5,88.8z M53.2,70.1c0.3,3.1,1,6.3,2.2,9.2
	c2.9-1.3,5.7-3,8-5c-1.4-1.7-2.7-3.5-3.8-5.3C57.5,69.6,55.4,69.9,53.2,70.1z M62,97.2c-1.3-1-2.5-2.1-3.7-3.3
	c-2.3-2.4-4.2-4.9-5.8-7.5c-4.8,1.3-9.9,1.6-14.9,0.8c0.3,1.7,0.3,3.4,0.3,5.1c0,3.2-0.3,6.3-1.2,9.5c0,0,0.1,0.1,0.2,0.1
	c0.3,0.2,0.5,0.3,0.8,0.5c0.3,0.1,0.5,0.3,0.8,0.5c1.2,0.8,2.4,1.7,3.6,2.7c0.7,0.6,1.4,1.2,2.2,2l0.2,0.2c1.2,1.3,2.3,2.5,3.3,3.9
	c0.1-0.1,0.2-0.2,0.3-0.3c0.1-0.1,0.2-0.2,0.3-0.3c1.7-1.8,4.5-3.8,8.6-4.4c0.7-4.2,2.6-7,4.4-8.7c0.1-0.1,0.3-0.2,0.4-0.3
	C61.8,97.4,61.9,97.3,62,97.2z M40.3,111.5c-0.7-0.7-1.3-1.3-1.9-1.8c-1-0.8-2-1.6-3-2.3c-0.1,0-0.2-0.1-0.3-0.2
	c-0.1-0.1-0.2-0.1-0.3-0.2c-1.5,3.4-3.6,6.6-6,9.5c2.5,2.9,4.5,6,6,9.5c1.9-1.3,3.8-2.7,5.5-4.4c1.5-1.5,3-3.2,4.1-5.1
	C43.3,114.8,41.9,113.1,40.3,111.5z M30.5,98.8L30.5,98.8c0.2,0,0.4,0.1,0.5,0.2c0.1,0.1,0.3,0.1,0.4,0.2c0.5-2.3,0.8-4.7,0.8-6.9
	c0-2.3-0.3-4.5-0.7-6.6c-2.1-0.4-4.3-0.7-6.5-0.7c-2.4,0-4.7,0.3-6.9,0.8c1.4,3.5,2.2,7.2,2.5,10.9c0.3,0,0.5,0.1,0.8,0.1
	c0.3,0,0.5,0,0.8,0.1c0.2,0,0.4,0.1,0.6,0.1c0.2,0,0.4,0,0.6,0.1c0.1,0,0.2,0,0.3,0.1c0.4,0.1,1,0.2,1.4,0.3c0,0,0.1,0,0.2,0
	c0.1,0,0.1,0,0.2,0h0.1c0.3,0.1,0.6,0.1,0.8,0.2s0.6,0.1,0.8,0.2l0.4,0.1c0.3,0.1,0.7,0.2,1,0.3c0.3,0.1,0.6,0.2,1,0.3
	c0.2,0,0.3,0.1,0.5,0.2S30.3,98.7,30.5,98.8z M21,402.7h-0.5c-0.3,3.7-1.1,7.5-2.5,10.9c4.5,0.9,9.1,1,13.5,0.1
	c0.4-2.1,0.7-4.3,0.7-6.5c0-2.4-0.3-4.7-0.8-6.9C28.1,401.6,24.5,402.4,21,402.7z M34.8,373.3c-1.5,3.4-3.6,6.6-6,9.5
	c2.5,2.9,4.5,6,6,9.5c1.9-1.3,3.8-2.7,5.5-4.4c1.5-1.5,3-3.2,4.1-5.1c-1.2-1.8-2.5-3.5-4.1-5.1C38.6,376,36.7,374.5,34.8,373.3z
	 M37.8,407.2c0,1.7-0.1,3.4-0.3,5.1c5-0.8,10.2-0.4,14.9,0.8c1.6-2.7,3.6-5.2,5.8-7.5c1.2-1.2,2.5-2.3,3.8-3.3
	c-0.3-0.2-0.5-0.4-0.8-0.7c-1.8-1.7-3.8-4.5-4.4-8.6c-4.4-0.7-7.4-2.9-9.2-5l0,0c-1.1,1.4-2.2,2.7-3.5,4c-2.3,2.3-4.8,4.2-7.5,5.8
	C37.4,400.8,37.8,404,37.8,407.2z M63.5,425.1c-2.5-2-5.2-3.7-8.1-5c-1.2,3-1.9,6.1-2.1,9.2c2.1,0.2,4.3,0.5,6.4,1.1
	C60.8,428.5,62,426.8,63.5,425.1z M62.4,409.5c-1.7,1.7-3.1,3.6-4.4,5.5c3.4,1.5,6.6,3.6,9.5,6c2.9-2.5,6-4.5,9.5-6
	c-1.3-2-2.7-3.8-4.4-5.5c-1.5-1.5-3.2-3-5.1-4.1C65.7,406.5,64,407.9,62.4,409.5z M81.8,429.3c-0.3-3.1-1-6.3-2.2-9.2
	c-3,1.2-5.7,3-8,5c1.4,1.7,2.7,3.5,3.8,5.3C77.4,429.8,79.6,429.5,81.8,429.3z M72.4,401.9c1.5,1.1,2.9,2.3,4.2,3.6
	c2.3,2.3,4.2,4.8,5.9,7.6c4.8-1.3,10-1.5,14.9-0.8c-0.3-1.7-0.3-3.4-0.3-5.1c0-3.2,0.3-6.4,1.2-9.5c-2.8-1.6-5.3-3.6-7.6-5.8
	c-1.4-1.4-2.7-3-3.9-4.6c-0.3,0.3-0.7,0.7-1,1.1c-1.7,1.8-4.5,3.8-8.6,4.4C76.5,396.7,74.7,399.8,72.4,401.9z M90.5,382.7
	c1.2,1.8,2.6,3.6,4.1,5.1c1.7,1.7,3.6,3.1,5.7,4.4c0.8-1.9,1.9-3.9,3-5.7v-0.1l0.1-0.2c0.1-0.1,0.1-0.2,0.2-0.3
	c0.1-0.1,0.1-0.2,0.2-0.3v-0.1c0-0.1,0.1-0.2,0.2-0.3c0.1-0.1,0.1-0.2,0.2-0.3c0-0.1,0.1-0.2,0.2-0.3l0.1-0.1
	c0.1-0.1,0.2-0.3,0.3-0.4c0.1-0.1,0.2-0.3,0.3-0.4c0.1-0.1,0.2-0.2,0.2-0.3c0.1-0.1,0.2-0.3,0.4-0.4l0.1-0.1c0-0.1,0.1-0.1,0.2-0.2
	c0.1-0.1,0.1-0.1,0.2-0.2c-0.6-0.7-1.2-1.4-1.7-2c-0.2-0.3-0.4-0.6-0.7-0.9c-0.2-0.3-0.4-0.5-0.6-0.8c-1.2-1.8-2.2-3.7-3-5.7
	c-1.9,1.3-3.8,2.7-5.5,4.4C93.1,379.2,91.7,380.9,90.5,382.7z M114.4,402.7c-3.7-0.3-7.4-1.1-10.9-2.5c-0.5,2.3-0.8,4.6-0.8,6.9
	c0,2.2,0.3,4.4,0.7,6.5c4.5,0.9,9.1,0.9,13.5-0.1C115.5,410.2,114.6,406.4,114.4,402.7z M128.2,68.8c-1.8-1.7-3.8-4.5-4.4-8.6
	c-4.4-0.7-7.4-2.9-9.1-5c-1.1,1.4-2.2,2.7-3.5,4c-2.4,2.3-4.9,4.2-7.6,5.8c0.8,3,1.2,6.3,1.2,9.5c0,1.7-0.1,3.4-0.3,5.1
	c4.9-0.7,10.1-0.4,14.9,0.8c1.6-2.7,3.6-5.2,5.8-7.5c1.1-1.2,2.4-2.3,3.7-3.3L128.2,68.8z M107.2,45c-1.7-1.7-3.6-3.1-5.5-4.4
	c-1.4,3.4-3.5,6.6-6,9.5c2.5,2.8,4.5,6,6,9.5c1.9-1.3,3.8-2.7,5.5-4.4c1.5-1.5,3-3.2,4.1-5.1C110.1,48.3,108.8,46.6,107.2,45z
	 M99.1,25.6c0-2.3-0.3-4.5-0.7-6.6c-4.4-0.9-9.1-0.8-13.5,0.2c1.4,3.5,2.2,7.2,2.5,10.9c3.7,0.3,7.4,1.1,10.9,2.5
	C98.9,30.3,99.1,28,99.1,25.6z M75.2,31.2c2.1-0.6,4.2-0.9,6.4-1.1c-0.3-3.2-0.9-6.3-2.1-9.2c-3,1.3-5.7,3-8.1,5
	C72.9,27.6,74.1,29.3,75.2,31.2z M67.4,6.1c-1.8,1.2-3.5,2.5-5.1,4.1c-1.6,1.7-3.1,3.6-4.4,5.5c3.4,1.5,6.6,3.6,9.5,6
	c2.9-2.5,6.1-4.5,9.5-6c-1.3-2-2.7-3.8-4.4-5.5C70.9,8.8,69.2,7.3,67.4,6.1z M63.5,25.9c-2.5-2-5.2-3.7-8.1-5
	c-1.2,2.9-1.9,6-2.1,9.2c2.1,0.2,4.3,0.5,6.4,1.1C60.8,29.3,62,27.6,63.5,25.9z M54.7,42.7c0.4,1.4-0.2,2.9-1.4,3.5
	c-2.1,1-4.1,2.4-5.9,3.9c1.8,1.5,3.8,2.8,5.9,3.9c1.3,0.7,1.9,2.1,1.4,3.5c-0.8,2.3-1.2,4.6-1.4,6.9c2.4-0.2,4.7-0.7,6.9-1.4
	c0.1,0,0.1,0,0.2,0c0.3-0.1,0.5-0.1,0.8-0.1c1,0,2,0.6,2.5,1.6c1.1,2.1,2.4,4.1,3.9,5.9c1.5-1.8,2.8-3.8,3.9-5.9
	c0.7-1.3,2.1-1.9,3.5-1.4c2.3,0.8,4.6,1.2,6.9,1.4c-0.2-2.4-0.7-4.7-1.4-6.9c-0.4-1.4,0.2-2.9,1.4-3.5c2.1-1.1,4.1-2.4,5.9-3.9
	c-1.8-1.5-3.8-2.8-5.9-3.9c-1.3-0.7-1.9-2.1-1.4-3.5c0.8-2.3,1.2-4.6,1.4-6.9c-2.4,0.2-4.7,0.7-6.9,1.4c-1.4,0.4-2.9-0.2-3.5-1.4
	c-1.1-2.1-2.4-4.1-3.9-5.9c-1.5,1.8-2.8,3.8-3.9,5.9c-0.7,1.3-2.1,1.9-3.5,1.4c-2.3-0.8-4.6-1.2-6.9-1.4
	C53.4,38.1,53.9,40.4,54.7,42.7z M49.9,19.1c-4.5-0.9-9.1-1-13.5-0.1c-0.4,2.1-0.7,4.3-0.6,6.5c0,2.4,0.3,4.7,0.8,6.9
	c3.5-1.4,7.2-2.2,10.9-2.5C47.7,26.3,48.6,22.6,49.9,19.1z M33.2,40.5c-1.9,1.3-3.8,2.7-5.5,4.4c-1.5,1.6-3,3.3-4.1,5
	c1.2,1.9,2.5,3.6,4.1,5.2c1.7,1.7,3.6,3.1,5.5,4.4c1.5-3.5,3.6-6.6,6-9.5C36.7,47.1,34.7,44,33.2,40.5z M19.8,54.7
	c-0.3,0.3-0.7,0.7-1,1.1c-2.4,2.4-5.3,3.9-8.5,4.5c-0.7,4.1-2.7,6.9-4.4,8.6c-0.1,0-0.1,0.1-0.2,0.2c-0.1,0.1-0.1,0.1-0.2,0.2
	c1.4,1.1,2.9,2.3,4.2,3.6c2.3,2.3,4.2,4.9,5.8,7.6c4.8-1.3,10-1.5,14.9-0.8c-0.3-1.7-0.3-3.4-0.3-5.1c0-3.2,0.3-6.4,1.2-9.5
	c-2.7-1.6-5.2-3.6-7.5-5.8C22.3,57.8,21,56.3,19.8,54.7z M5.4,430.1c2.3,2.1,4.1,5.2,4.7,9.1c4.8,0.8,7.9,3.3,9.6,5.6
	c1.1-1.6,2.4-3.1,3.8-4.6c2.4-2.3,4.9-4.2,7.6-5.8c-0.8-3-1.2-6.3-1.2-9.5c0-1.7,0.1-3.4,0.3-5.1c-4.9,0.7-10.1,0.4-14.9-0.8
	c-1.6,2.7-3.6,5.2-5.8,7.5C8.3,427.8,6.9,429,5.4,430.1z M27.7,454.4c1.7,1.7,3.6,3.1,5.5,4.4c1.5-3.5,3.6-6.7,6-9.5
	c-2.5-2.8-4.5-6-6-9.5c-1.9,1.3-3.8,2.7-5.5,4.4c-1.5,1.5-3,3.2-4.1,5.1C24.7,451.1,26.2,452.8,27.7,454.4z M36.4,480.3
	c2.1,0.4,4.3,0.7,6.5,0.7c2.4,0,4.7-0.3,6.9-0.8c-1.4-3.5-2.2-7.2-2.5-10.9c-3.7-0.3-7.4-1.1-10.9-2.5c-0.5,2.2-0.8,4.6-0.8,6.9
	C35.7,476,36,478.2,36.4,480.3z M59.6,468.1c-2.1,0.6-4.2,0.9-6.4,1.1c0.3,3.2,1,6.4,2.1,9.2c3-1.3,5.7-3,8.1-5
	C62,471.7,60.7,469.9,59.6,468.1z M73.5,488.1c0.6-0.6,1.2-1.3,1.7-1.9l0,0l0.2-0.3c0.5-0.7,1-1.5,1.6-2.3c-3.4-1.5-6.6-3.6-9.5-6
	c-2.9,2.5-6.1,4.5-9.5,6c1.3,1.9,2.7,3.8,4.4,5.5c1.5,1.6,3.2,3,5.1,4.1c1.8-1.2,3.5-2.5,5.1-4.1L73.5,488.1z M71.4,473.5
	c2.5,2,5.2,3.7,8.1,5c1.2-3,1.9-6.1,2.2-9.2c-2.2-0.2-4.4-0.5-6.5-1.1C74.1,470,72.9,471.8,71.4,473.5z M80.2,456.7
	c-0.4-1.4,0.2-2.9,1.4-3.5c2.1-1.1,4.1-2.4,5.8-3.8c-1.8-1.5-3.8-2.8-5.9-3.9c-1.3-0.6-1.9-2-1.4-3.4c0.8-2.3,1.2-4.6,1.4-6.9
	c-2.4,0.2-4.7,0.7-6.9,1.4c-1.3,0.4-2.8-0.2-3.4-1.4c-1.1-2.1-2.4-4.1-3.9-5.9c-1.5,1.8-2.8,3.8-3.9,5.9c-0.7,1.3-2.1,1.9-3.5,1.4
	c-2.3-0.8-4.6-1.2-6.9-1.4c0.2,2.4,0.7,4.7,1.4,6.9c0.4,1.4-0.2,2.9-1.4,3.5c-2.1,1.1-4.1,2.4-5.9,3.9c1.8,1.5,3.8,2.8,5.9,3.9
	c1.3,0.6,1.9,2,1.4,3.4c-0.8,2.3-1.2,4.6-1.4,6.9c2.4-0.2,4.7-0.7,6.9-1.4c0.3-0.1,0.7-0.2,0.9-0.2c1,0,2,0.5,2.5,1.5
	c1.1,2.1,2.4,4.1,3.9,5.9c1.5-1.8,2.8-3.8,3.9-5.9c0.7-1.3,2.1-1.9,3.5-1.4c2.3,0.8,4.6,1.2,6.9,1.4C81.5,461.2,81,458.9,80.2,456.7
	z M91.9,481c2.2,0,4.4-0.3,6.5-0.7c0.5-2.1,0.7-4.3,0.7-6.5c0-2.4-0.3-4.7-0.8-6.9c-3.5,1.4-7.2,2.2-10.9,2.5
	c-0.3,3.7-1.1,7.5-2.5,10.9C87.3,480.7,89.6,481,91.9,481z M101.7,458.8c2-1.3,3.8-2.7,5.5-4.4c1.6-1.5,3-3.2,4.1-5.1
	c-1.2-1.9-2.5-3.6-4.1-5.2c-1.7-1.6-3.6-3-5.5-4.3c-1.5,3.5-3.6,6.7-6,9.5C98.1,452.1,100.1,455.3,101.7,458.8z M111.2,440.1
	c1.3,1.3,2.5,2.5,3.5,4c0.1-0.1,0.2-0.2,0.3-0.3c0.1-0.1,0.2-0.2,0.3-0.3c1.7-1.7,4.5-3.7,8.6-4.4c0.7-4.6,3-7.5,5.2-9.4
	c-1.3-1-2.5-2.1-3.7-3.3c-2.3-2.2-4.2-4.7-5.8-7.5c-4.8,1.3-9.9,1.6-14.9,0.8c0.3,1.7,0.3,3.4,0.3,5.1c0,3.2-0.4,6.4-1.2,9.5
	C106.4,435.9,108.9,437.9,111.2,440.1z"/>
</svg>
