<svg width="149" height="147" viewBox="0 0 149 147" fill="none" xmlns="http://www.w3.org/2000/svg">
<path d="M105.404 47.148C106.703 65.228 107.403 75.3168 107.403 77.4145C107.403 79.712 107.303 81.8097 107.103 83.5078C106.903 84.8064 106.903 85.6055 107.003 86.005C107.103 86.4046 107.203 86.3047 107.603 85.8053C107.803 85.4057 108.103 84.9063 108.402 84.1071C110.002 80.2114 110.801 75.7164 110.801 70.622C110.801 68.9239 110.201 60.0337 109.002 43.9515C107.803 27.7694 107.203 19.6783 107.203 19.4786C107.203 18.8792 107.303 18.7793 107.503 19.079C109.402 21.1767 110.301 21.776 110.301 20.877C110.301 20.5774 110.201 20.0779 110.002 19.4786C109.802 18.6795 109.002 16.4819 107.603 12.9857C106.304 9.5895 105.504 7.59171 105.104 6.79259C104.804 6.19325 104.505 6.19325 104.205 6.79259C103.005 9.5895 102.306 11.3875 102.306 12.2865C103.005 13.685 103.305 15.3831 103.305 17.4808C103.405 19.1789 104.105 29.068 105.404 47.148Z" fill="#094A37"/>
<path d="M27.0484 75.7163C26.7486 78.5132 26.7486 80.2113 27.1484 80.9106C27.2483 81.1104 28.2477 81.3101 30.3466 81.6098C32.3454 81.9095 33.4448 82.0094 33.6447 81.9095C33.7447 81.8096 33.8446 81.7097 33.8446 81.41V77.6142C34.4443 77.814 35.5436 78.0138 37.2427 78.3134C38.9417 78.5132 39.8412 78.6131 40.0411 78.5132C40.141 78.4133 40.241 78.3134 40.241 78.0138V73.2191C40.241 73.0193 40.141 72.9194 40.0411 72.8195C37.9423 72.6197 35.8435 72.3201 33.8446 71.9205C33.6447 71.9205 33.4448 72.0204 33.4448 72.3201C33.3449 73.4189 33.3449 74.8173 33.3449 76.3157C31.1461 76.016 29.1472 75.7163 27.3483 75.4166C27.1484 75.2169 27.0484 75.3168 27.0484 75.7163Z" fill="#094A37"/>
<path d="M44.5386 117.27C44.6385 117.27 45.0383 117.071 45.638 116.671C47.1371 115.572 48.3365 114.374 49.3359 112.875C50.2354 111.477 50.7351 110.178 50.7351 109.079C50.7351 107.581 50.1354 106.782 48.9361 106.782C47.437 106.782 46.5375 107.681 46.1377 109.579C46.0378 109.978 46.0378 110.178 46.0378 110.278C46.1377 110.278 46.1377 110.278 46.2376 110.378C46.3376 110.378 46.4375 110.278 46.7374 110.078C47.1371 109.879 47.5369 109.679 47.9367 109.679C48.7362 109.679 49.136 110.078 49.136 110.977C49.136 111.876 47.8367 113.674 45.4381 116.371C44.8384 116.871 44.5386 117.171 44.5386 117.27Z" fill="#094A37"/>
<path d="M64.827 28.6684C64.9269 28.6684 65.3267 28.4686 65.9263 28.069C67.4255 26.9703 68.6248 25.7716 69.6243 24.2732C70.5238 22.8748 71.0235 21.5762 71.0235 20.4774C71.0235 18.9791 70.4238 18.18 69.2245 18.18C67.7253 18.18 66.8258 19.079 66.4261 20.9769C66.3261 21.3764 66.3261 21.5762 66.3261 21.6761C66.4261 21.6761 66.4261 21.6761 66.526 21.776C66.626 21.776 66.7259 21.6761 67.0257 21.4763C67.4255 21.2766 67.8253 21.0768 68.2251 21.0768C69.0246 21.0768 69.4244 21.4763 69.4244 22.3753C69.4244 23.2743 68.1251 25.0724 65.7265 27.7694C65.0269 28.2688 64.827 28.5685 64.827 28.6684Z" fill="#094A37"/>
<path d="M70.4239 120.866C70.3239 120.767 70.4239 120.767 70.4239 120.866C70.3239 120.866 70.0241 121.266 69.6243 121.865C68.7248 123.464 68.1252 125.062 67.8253 126.86C67.5255 128.558 67.6254 129.857 68.1252 130.955C68.7248 132.354 69.6243 132.753 70.7237 132.254C72.023 131.655 72.5227 130.456 72.1229 128.558C72.023 128.158 71.923 127.959 71.923 127.859C71.8231 127.859 71.8231 127.859 71.7231 127.859C71.7231 127.859 71.5232 128.059 71.4233 128.358C71.2234 128.758 70.9236 128.958 70.4239 129.157C69.7243 129.457 69.1246 129.257 68.8248 128.458C68.425 127.659 68.8248 125.461 70.0241 122.065C70.3239 121.266 70.4239 120.866 70.4239 120.866Z" fill="#094A37"/>
<path d="M80.0186 34.2622C80.0186 34.3621 80.0186 34.3621 80.0186 34.2622C80.1186 34.2622 80.5183 34.0624 81.118 33.6628C82.6171 32.5641 83.8165 31.3654 84.8159 29.867C85.7154 28.4686 86.2151 27.17 86.2151 26.0712C86.2151 24.5729 85.6155 23.7738 84.4161 23.7738C82.917 23.7738 82.0175 24.6728 81.6177 26.5707C81.5178 26.9702 81.5178 27.17 81.5178 27.2699C81.6177 27.2699 81.6177 27.2699 81.7177 27.3698C81.8176 27.3698 81.9175 27.2699 82.2174 27.0701C82.6171 26.8703 83.0169 26.6706 83.4167 26.6706C84.2163 26.6706 84.616 27.0701 84.616 27.9691C84.616 28.8681 83.3167 30.6662 80.9181 33.3632C80.3184 33.8626 80.0186 34.2622 80.0186 34.2622Z" fill="#094A37"/>
<path d="M7.05956 49.5453C7.85911 49.2456 8.15894 48.6463 7.95905 47.5475C7.95905 47.3477 7.85911 47.2478 7.85911 47.1479H7.75916C7.75916 47.1479 7.65922 47.2478 7.55928 47.3477C7.45933 47.5475 7.25944 47.6474 6.95961 47.7473C6.55984 47.8472 6.26001 47.7473 6.06012 47.3477C5.86023 46.8483 6.16006 45.7495 6.95961 43.8516C7.1595 43.452 7.1595 43.2522 7.1595 43.2522C7.05956 43.2522 6.95962 43.452 6.75973 43.7517C6.16007 44.5508 5.76029 45.4498 5.5604 46.4487C5.36052 47.3477 5.36052 48.1468 5.5604 48.6463C5.96018 49.5453 6.35995 49.845 7.05956 49.5453Z" fill="#094A37"/>
<path d="M11.0575 58.2356C11.1574 58.2356 11.4572 58.1357 11.857 57.7362C13.0563 56.9371 13.9558 55.9382 14.7554 54.7395C15.455 53.6407 15.8547 52.6418 15.8547 51.7428C15.8547 50.5441 15.355 49.9448 14.4555 49.9448C13.3562 49.9448 12.6566 50.644 12.2568 52.0425C12.2568 52.3421 12.1568 52.5419 12.1568 52.5419C12.2568 52.5419 12.2568 52.5419 12.2568 52.6418C12.2568 52.6418 12.4567 52.5419 12.6566 52.442C12.9564 52.2423 13.2562 52.1424 13.556 52.1424C14.1557 52.1424 14.4555 52.442 14.4555 53.1413C14.4555 53.8405 13.4561 55.2389 11.5572 57.3366C11.2573 57.936 11.0575 58.2356 11.0575 58.2356Z" fill="#094A37"/>
<path d="M36.543 114.773C36.643 114.673 36.643 114.573 36.643 114.474C36.643 114.374 36.543 114.374 36.4431 114.474C35.8434 114.873 35.1438 115.572 34.4442 116.571C33.6447 117.67 33.2449 118.669 33.2449 119.568C33.2449 120.467 33.6447 120.966 34.5442 120.966C34.9439 120.966 35.3437 120.767 35.6436 120.467C36.0433 120.067 36.2432 119.568 36.2432 119.068C36.2432 118.469 35.8434 118.07 35.1438 118.07C34.844 118.07 34.5442 118.169 34.3443 118.369C34.3443 117.97 34.6441 117.37 35.1438 116.671C35.5436 115.772 36.0433 115.173 36.543 114.773Z" fill="#094A37"/>
<path d="M23.1505 28.4686C24.6497 27.3699 25.849 26.1712 26.8484 24.6728C27.7479 23.2744 28.2476 21.9758 28.2476 20.877C28.2476 19.3787 27.648 18.5796 26.4486 18.5796C24.9495 18.5796 24.05 19.4786 23.6502 21.3765C23.5503 21.776 23.5503 21.9758 23.5503 22.0757C23.63 22.1756 23.6502 22.1756 23.7502 22.1756C23.8501 22.1756 23.95 22.0757 24.2499 21.8759C24.6496 21.6761 25.0494 21.4764 25.4492 21.4764C26.2487 21.4764 26.6485 21.8759 26.6485 22.7749C26.6485 23.6739 25.3493 25.472 22.9506 28.169C22.4509 28.6684 22.1511 29.068 22.1511 29.1679C22.251 29.068 22.5508 28.8682 23.1505 28.4686Z" fill="#094A37"/>
<path d="M42.8394 10.2887C43.7389 10.1888 44.5385 9.88916 45.2381 9.38971C45.9377 8.99015 46.4374 8.4907 46.6373 7.99125C46.9371 7.29203 46.8372 6.89247 46.3375 6.5928C45.7378 6.29313 45.1381 6.49291 44.5385 7.19214C44.4385 7.39192 44.3386 7.49181 44.3386 7.49181C44.3386 7.49181 44.3386 7.49181 44.4385 7.5917C44.4385 7.5917 44.5385 7.5917 44.7384 7.5917C44.9383 7.5917 45.1382 7.5917 45.338 7.69159C45.6379 7.89137 45.7378 8.09114 45.6379 8.4907C45.438 8.89026 44.5385 9.38971 42.8394 10.0889C42.5396 10.1888 42.3397 10.2887 42.3397 10.3886C42.2398 10.2887 42.4397 10.2887 42.8394 10.2887Z" fill="#094A37"/>
<path d="M57.931 4.99455C58.5307 5.29422 59.1304 5.09444 59.73 4.39522C59.83 4.19544 59.9299 4.19544 59.9299 4.09555C59.9299 4.09555 59.9299 4.09555 59.83 3.99566C59.83 3.99566 59.73 3.99566 59.5301 3.99566C59.3303 3.99566 59.1304 3.99566 58.9305 3.89577C58.5307 3.69599 58.5307 3.49621 58.6307 3.09665C58.8305 2.69709 59.73 2.19764 61.4291 1.49842C61.7289 1.39853 61.9288 1.29864 61.9288 1.19875C61.9288 1.19875 61.629 1.19875 61.3291 1.29864C60.4296 1.49842 59.6301 1.79809 58.9305 2.19764C58.2309 2.5972 57.7312 3.09665 57.5313 3.5961C57.2314 4.29533 57.3314 4.79477 57.931 4.99455Z" fill="#094A37"/>
<path d="M73.4223 76.116C73.5222 76.0161 73.6222 75.8163 73.5222 75.7164C73.5222 75.6165 73.4223 75.6165 73.2224 75.7164C72.5228 76.116 71.8232 76.9151 71.0236 78.0139C70.1241 79.3124 69.7244 80.3113 69.7244 81.3102C69.7244 82.3091 70.2241 82.8086 71.1236 82.8086C71.5233 82.8086 71.9231 82.6088 72.3229 82.2092C72.7227 81.8097 73.0225 81.3102 73.0225 80.611C73.0225 79.9118 72.6227 79.6121 71.8232 79.6121C71.5233 79.6121 71.1236 79.712 70.9237 79.9118C70.9237 79.5122 71.2235 78.9129 71.8232 78.0139C72.4228 77.2148 72.9226 76.6154 73.4223 76.116Z" fill="#094A37"/>
<path d="M23.95 86.1049C24.05 86.005 24.05 85.9051 24.05 85.8052C24.05 85.7053 23.95 85.7053 23.8501 85.8052C23.2504 86.2048 22.5508 86.904 21.8512 87.9029C21.0517 89.0017 20.6519 90.0006 20.6519 90.8996C20.6519 91.7986 21.0517 92.2981 21.9512 92.2981C22.3509 92.2981 22.7507 92.0983 23.0505 91.7986C23.4503 91.3991 23.6502 90.8996 23.6502 90.4002C23.6502 89.8008 23.2504 89.4013 22.5508 89.4013C22.251 89.4013 21.9512 89.5011 21.7513 89.7009C21.7513 89.3014 22.0511 88.702 22.5508 88.0028C22.9506 87.1038 23.4503 86.6044 23.95 86.1049Z" fill="#094A37"/>
<path d="M92.0117 89.2015C91.9118 89.2015 91.7119 89.5011 91.412 90.0006C90.2127 92.1982 89.6131 94.2958 89.6131 96.3935C89.6131 97.9918 90.1128 98.8908 91.1122 98.8908C92.0117 98.8908 92.7113 97.792 93.1111 95.5944C93.1111 95.4945 93.1111 95.3946 93.1111 95.3946C93.1111 95.3946 93.1111 95.3946 93.0111 95.3946C93.0111 95.4945 92.9112 95.4945 92.9112 95.5944C92.4115 96.5933 91.9118 96.9929 91.512 96.9929C90.8124 96.9929 90.5125 96.3935 90.5125 95.095C90.5125 94.196 90.9123 92.5977 91.6119 90.3003C91.9118 89.601 92.0117 89.3014 92.0117 89.2015Z" fill="#094A37"/>
<path d="M9.85793 95.7942C9.75798 95.7942 9.75798 95.8941 9.65804 96.0939C8.95843 97.3925 8.25883 98.0917 7.65916 98.1916C6.65973 98.2915 6.16001 97.2926 6.16001 95.3947C6.16001 95.095 6.16001 94.7953 6.25995 94.4957C6.55979 91.9984 7.45928 89.3014 8.75855 86.4046C8.95844 85.9052 9.05838 85.6055 9.05838 85.5056C8.95844 85.5056 8.75855 85.8053 8.35877 86.3047C7.75911 87.2037 7.0595 88.6022 6.25995 90.6999C5.36046 93.1971 4.86074 95.1949 4.7608 96.7931C4.66086 98.0917 4.86074 99.0906 5.26052 99.8897C5.66029 100.689 6.16001 100.988 6.95956 100.988C7.65916 100.988 8.25883 100.489 8.75855 99.4901C9.35821 98.4912 9.65804 97.3925 9.85793 96.0939C9.95787 95.994 9.95787 95.8941 9.85793 95.7942C9.95787 95.7942 9.95787 95.7942 9.85793 95.7942Z" fill="#094A37"/>
<path d="M11.557 37.159C12.0567 37.5585 12.3565 37.7583 12.6564 37.7583C12.8562 37.7583 13.0561 37.6584 13.1561 37.5585C13.1561 37.4586 13.356 37.3587 13.4559 37.3587C13.6558 37.3587 14.1555 38.4575 14.9551 40.6551C15.6547 42.7528 16.0544 44.0513 16.0544 44.6507C16.0544 44.9503 16.1544 45.1501 16.2543 45.1501C16.3543 45.1501 16.5542 44.9503 16.754 44.5508C17.0539 43.9514 17.3537 43.0524 17.5536 41.654C18.3531 37.3587 19.0528 35.2611 19.6524 35.2611C19.9522 35.2611 20.2521 35.4608 20.5519 35.7605C20.8517 36.1601 21.0516 36.26 21.0516 36.26C21.2515 36.26 21.4514 36.0602 21.5513 35.5607C21.6513 35.2611 21.7512 34.9614 21.7512 34.7616C21.7512 34.4619 21.5513 34.1623 21.2515 33.6628C20.8517 33.1634 20.452 32.8637 20.0522 32.8637C19.3526 32.8637 18.653 33.5629 17.9534 35.0613C17.2538 37.7583 16.854 39.856 16.6541 41.5541C16.5542 41.7539 16.5542 41.8538 16.5542 41.8538C16.5542 41.8538 16.5542 41.8538 16.4542 41.8538C16.4542 41.8538 16.4542 41.7539 16.4542 41.5541C16.1544 39.6562 15.5547 37.9581 14.7552 36.4597C13.8557 34.7616 12.9562 33.9625 12.1566 33.9625C12.0567 33.9625 11.8568 34.2622 11.457 34.8615C11.0573 35.4608 10.8574 35.8604 10.8574 35.9603C10.8574 36.4597 11.0573 36.7594 11.557 37.159Z" fill="#094A37"/>
<path d="M132.589 41.1546C132.589 40.6551 132.689 40.4553 132.889 40.755C134.788 42.9526 135.787 43.5519 135.787 42.553C135.787 42.2533 135.687 41.7539 135.487 41.1546C135.287 40.3555 134.488 38.1579 133.089 34.6617C131.789 31.2655 130.99 29.2677 130.59 28.4686C130.29 27.8692 129.99 27.8692 129.69 28.4686C128.391 31.2655 127.792 33.0635 127.792 33.9625C128.491 35.2611 128.791 37.0591 128.791 39.1568C128.791 40.9548 129.491 52.3422 130.99 73.319C132.489 94.1959 133.188 105.683 133.188 107.781C133.188 110.078 133.089 112.176 132.889 113.974C132.689 115.273 132.689 116.072 132.789 116.471C132.889 116.871 133.089 116.771 133.388 116.272C133.588 115.872 133.888 115.373 134.188 114.573C135.787 110.778 136.587 106.183 136.587 101.088C136.587 99.3902 135.887 89.1016 134.488 70.1226C133.288 50.8439 132.589 41.3543 132.589 41.1546Z" fill="#094A37"/>
<path d="M120.895 28.069C120.895 27.4697 120.995 27.3698 121.195 27.6695C123.094 29.867 123.994 30.3665 123.994 29.4675C123.994 29.1678 123.894 28.6684 123.794 28.069C123.494 27.2699 122.694 25.0723 121.395 21.5762C120.096 18.2798 119.196 16.1822 118.897 15.383C118.697 14.9835 118.597 14.8836 118.397 14.8836C118.297 14.8836 118.097 15.0834 117.997 15.383C116.698 18.2798 116.098 20.0779 116.098 20.877C116.898 22.2754 117.197 23.9735 117.197 26.0712C117.197 28.3687 118.197 43.0525 120.196 70.1226C122.195 97.1926 123.194 111.677 123.194 113.575C123.194 116.571 122.894 118.369 122.295 118.869C120.296 120.467 118.197 121.266 116.098 121.266C113.5 121.266 111.401 120.367 109.502 118.469C112.1 115.672 113.4 112.076 113.4 107.781C113.4 106.083 112.8 104.185 111.701 102.087C110.401 99.6899 109.102 98.4912 107.603 98.4912C106.004 98.4912 104.704 99.4901 103.705 101.488C102.706 103.486 102.206 106.183 102.206 109.479C102.206 111.677 102.606 113.774 103.405 115.872L98.0083 118.169C92.6113 120.467 88.7135 122.165 86.5147 123.364C82.7169 125.362 79.7186 127.659 77.4199 130.256C75.6209 132.354 73.8219 134.451 72.1229 136.549C69.3244 139.246 66.526 140.645 63.8275 140.645C62.3284 140.645 61.0291 140.045 60.2296 138.946C59.43 137.948 59.0302 136.549 59.0302 134.751C59.0302 132.454 59.7298 129.457 61.229 125.561C62.5283 122.065 63.2279 119.868 63.4278 118.969C65.2267 117.47 66.8258 116.072 68.1251 114.573C70.024 112.476 70.9235 109.379 70.9235 105.284C70.9235 103.186 70.2239 100.789 68.8247 97.8919C67.0257 94.3957 66.1262 92.4978 66.0263 92.0983C67.2256 92.4978 68.0252 92.5977 68.6248 92.5977C69.1245 92.5977 69.4244 92.4978 69.4244 92.0983C69.4244 91.7986 69.2245 91.4989 68.7248 90.9995C65.9264 88.3025 64.1274 86.5044 63.2279 85.5055C62.928 85.2059 62.7281 85.106 62.5283 85.106C62.3284 85.106 62.2284 85.4057 62.1285 85.9051C61.5288 88.8019 61.229 90.5 61.229 90.7997C61.229 91.1992 61.4289 91.5988 61.8287 91.8985C62.2284 92.298 62.6282 92.8974 62.928 93.8963C63.7276 96.893 64.9269 99.9895 66.626 103.086C68.0252 105.783 68.7248 107.182 68.7248 107.381C68.7248 108.48 67.0257 110.278 63.7276 112.875C60.0297 115.772 55.932 118.07 51.2346 119.967C45.5378 122.365 40.0409 123.563 34.9438 123.563C29.1471 123.563 24.6496 121.666 21.6513 117.97C19.3526 115.173 18.2532 112.076 18.2532 108.78C18.2532 107.781 18.4531 106.283 18.9528 104.285C19.1527 103.486 19.3526 102.786 19.4525 101.987C20.1521 102.187 20.8517 102.387 21.6513 102.387C24.2498 102.387 26.8484 100.889 29.4469 97.8919C33.8444 92.8974 37.1426 89.601 39.4413 87.803C40.6406 86.8041 42.9393 85.6054 46.3374 84.0072C48.0364 83.2081 50.535 82.1093 53.9331 80.7108C59.43 78.4134 62.928 76.6154 64.5271 75.2169C66.7259 73.319 67.8253 70.5221 67.8253 66.8262C67.8253 65.8273 67.3256 64.1292 66.3261 61.8317C66.0263 61.1325 65.9263 60.8328 66.0263 60.8328C66.1262 60.8328 66.3261 61.0326 66.7259 61.3323C69.5243 63.9294 72.3228 66.4266 75.1212 69.0238C76.0207 69.8229 76.9202 70.4222 77.9196 70.9217C78.2194 74.9172 78.5193 79.8118 78.919 85.4057C80.2183 103.486 80.9179 113.575 80.9179 115.672C80.9179 117.97 80.818 120.067 80.6181 121.765C80.4182 123.064 80.4182 123.863 80.5181 124.263C80.6181 124.662 80.718 124.562 81.1178 124.063C81.3177 123.663 81.6175 123.164 81.9173 122.365C83.5164 118.469 84.316 113.974 84.316 108.88C84.316 107.182 83.7163 98.2914 82.517 82.2092C82.2172 78.6132 82.0173 75.4167 81.8174 72.6198C82.7169 72.8196 83.5164 72.9195 84.4159 72.9195C85.3154 73.0193 86.2149 73.0193 87.2144 72.9195C89.8129 72.9195 92.1116 71.3212 94.1105 68.3245C96.4092 64.7285 97.6085 59.6341 97.6085 53.3411C97.6085 51.1435 97.2087 44.351 96.3092 32.9636C95.5097 21.5762 95.01 15.7826 95.01 15.6827C95.01 15.0834 95.1099 14.9835 95.3098 15.2832C97.2087 17.3808 98.1082 17.9802 98.1082 16.9813C98.1082 16.6816 98.0083 16.2821 97.9083 15.5828C97.6085 14.7837 96.809 12.686 95.5097 9.09C94.2104 5.69376 93.4109 3.69596 93.0111 2.89685C92.8112 2.49729 92.7113 2.29751 92.5114 2.29751C92.4114 2.29751 92.2115 2.49729 92.1116 2.79696C90.8123 5.69376 90.2127 7.49177 90.2127 8.29089C90.9123 9.68934 91.2121 11.3875 91.2121 13.4851C91.2121 15.7826 91.7118 23.4741 92.6113 36.4598C93.6108 49.4454 94.0105 56.8372 94.0105 58.7351C94.0105 61.7318 93.7107 63.5298 93.111 64.0293C91.1122 65.6275 89.0134 66.4266 86.9145 66.4266C86.015 66.6264 85.1155 66.6264 84.1161 66.4266C83.1167 66.4266 82.1172 66.2269 81.0178 65.9272C80.6181 60.633 80.4182 57.936 80.4182 57.8361C80.4182 57.2368 80.5181 57.1369 80.718 57.4366C82.617 59.5342 83.5164 60.1336 83.5164 59.1347C83.5164 58.835 83.4165 58.3356 83.2166 57.7362C83.0167 56.9371 82.2172 54.7396 80.818 51.2434C79.5187 47.8472 78.7191 45.8494 78.3194 45.0503C78.0195 44.4509 77.7197 44.4509 77.4199 45.0503C76.2206 47.8472 75.5209 49.6452 75.5209 50.5442C76.2206 51.9426 76.5204 53.6408 76.5204 55.7384C76.5204 56.6375 76.6203 59.3345 76.9202 63.9294C76.7203 63.8295 76.6203 63.7296 76.4204 63.6297C74.3216 61.8317 72.2228 59.9338 70.124 58.1358C63.1279 52.2423 55.1324 46.2489 46.1375 40.2556C42.3396 37.7583 38.5418 35.361 34.644 32.9636C34.2442 32.7638 34.2442 32.5641 34.544 32.3643C38.9415 28.8681 47.037 24.3731 58.9303 18.8792C70.8236 13.3853 78.3194 10.6882 81.5176 10.6882C83.5164 10.6882 84.5159 11.0878 84.5159 11.787C84.5159 11.8869 84.5159 12.0867 84.4159 12.1866C83.7163 13.4851 81.6175 16.0823 78.0195 20.0779C77.6198 20.5773 77.0201 21.5762 76.1206 23.0745C75.2211 24.7727 74.7214 25.8715 74.5215 26.5707C74.3216 27.7694 74.2217 28.3687 74.3216 28.3687C74.4216 28.3687 74.7214 27.8692 75.1212 26.9702C75.8208 25.5718 77.0201 23.8737 78.919 21.6761C80.1184 20.3775 81.3177 18.9791 82.517 17.6805C85.6153 13.7848 87.2144 10.5883 87.2144 7.89133C87.2144 6.79254 87.0145 5.99342 86.5147 5.49397C86.115 4.99453 85.2155 4.79475 84.0162 4.79475C80.0184 4.79475 71.7231 7.59166 59.1302 13.2854C46.7372 18.8792 38.6417 23.3742 34.8439 26.7705C34.2442 27.2699 33.8444 28.4686 33.4446 30.4664C33.0449 32.1645 32.9449 33.8626 32.9449 35.4609C32.9449 36.7594 33.0449 37.4586 33.3447 37.6584C40.0409 43.0525 46.8371 48.3466 53.5333 53.7407C60.5294 59.5343 64.5271 64.2291 65.5266 67.7252C65.7265 68.4244 65.5266 68.9239 65.0269 69.3234C63.2279 70.622 59.43 72.5199 53.6333 74.9172C48.2363 77.1148 44.4385 78.9128 42.2397 80.0116C38.4418 82.0094 35.4435 84.3069 33.1448 86.904C31.3458 89.0017 29.6468 91.0994 27.8478 93.197C25.0494 95.8941 22.2509 97.2925 19.5525 97.2925C18.0533 97.2925 16.754 96.6932 15.9545 95.5944C15.1549 94.5955 14.7552 93.1971 14.7552 91.399C14.7552 89.1016 15.4548 86.1049 16.9539 82.2092C17.5536 80.6109 18.0533 79.2125 18.4531 78.2136C20.9517 76.2158 23.3503 74.218 25.8489 72.2202C30.5463 68.6242 34.644 66.0271 38.2419 64.6286C38.9416 66.3267 40.0409 68.0249 41.5401 69.5232C43.539 71.521 45.5378 72.5199 47.6367 72.5199C49.1358 72.5199 50.4351 71.8207 51.3346 70.4222C52.2341 69.0238 52.7338 67.3256 52.7338 65.1281C52.7338 62.5309 52.1341 60.5331 51.0347 58.9349C49.9354 57.3367 48.4362 56.5376 46.5373 56.5376C44.6383 56.5376 42.4396 56.9371 39.841 57.8361L39.2414 58.1358C38.7417 56.3378 38.3419 54.6397 38.142 53.2412C39.3413 54.0403 40.1409 54.4399 40.6406 54.4399C40.9404 54.4399 41.0404 54.34 41.0404 54.0403C41.0404 53.6408 40.8405 53.0414 40.2408 52.2423L36.443 46.149C36.0432 45.5497 35.8433 45.25 35.6434 45.25C35.4435 45.25 35.2436 45.5497 35.0437 46.149L33.5446 49.7451C33.9444 50.3444 34.2442 50.8439 34.4441 51.3433C34.544 51.5431 34.544 51.8427 34.644 52.542C34.9438 54.9393 35.4435 57.2368 35.9432 59.6341C31.3458 61.8317 26.6485 64.8284 22.0511 68.7241C19.3526 71.0216 16.5542 73.4189 13.8557 75.7164C11.6569 77.3146 9.25827 78.1137 6.75968 78.1137C5.26052 78.1137 4.0612 77.5144 3.1617 76.4156C2.36215 75.3168 1.96238 74.0182 1.96238 72.2202C1.96238 69.9228 2.66199 66.9261 4.16114 62.9305C5.6603 59.0348 6.3599 56.7373 6.3599 56.138C6.3599 56.0381 6.3599 55.9382 6.25996 55.8383C6.06007 55.8383 5.76024 56.138 5.46041 56.8372C2.06232 63.3301 0.363281 68.6242 0.363281 72.7197C0.363281 75.7164 1.26277 78.1137 2.96182 80.2114C4.56092 82.2092 6.55979 83.1082 8.75855 83.1082C10.8574 83.1082 13.1561 82.2092 15.6547 80.3113L16.5542 79.6121C14.3554 84.5067 13.256 88.6021 13.256 91.7986C13.256 94.7953 14.1555 97.1926 15.8546 99.2903C16.6541 100.289 17.5536 100.988 18.553 101.488C18.0533 103.086 17.5536 104.884 17.2538 106.982C16.9539 108.68 16.854 110.278 16.854 111.876C16.854 114.374 17.1538 116.371 17.7535 117.97C20.9517 126.061 26.6485 130.056 35.0437 130.056C41.2403 130.056 47.9365 128.059 55.1324 124.163C57.8309 122.664 60.1296 121.166 62.2284 119.668C58.9303 126.061 57.3312 131.155 57.3312 135.151C57.3312 138.147 58.2307 140.545 59.9297 142.642C61.5288 144.64 63.5277 145.539 65.7265 145.539C68.325 145.539 70.9235 144.041 73.5221 141.044C77.9196 136.05 81.2177 132.753 83.5164 130.955C84.7158 129.956 87.0145 128.758 90.4126 127.16C92.1116 126.36 94.6102 125.262 98.1082 123.763L105.404 120.667C106.204 121.965 107.303 123.264 108.602 124.363C111.201 126.46 113.699 127.559 116.198 127.559C118.897 127.559 121.195 126.061 123.094 122.964C125.393 119.368 126.592 114.274 126.592 107.981C126.592 105.783 125.693 91.8985 123.794 66.3267C121.895 41.0547 120.895 28.1689 120.895 28.069ZM47.5368 63.3301C48.7361 63.8296 49.3357 64.4289 49.3357 65.1281C49.3357 65.6276 48.936 65.8273 48.0365 65.8273C45.8377 65.8273 44.1386 65.0282 43.0392 63.3301C45.1381 62.9305 46.6373 62.9305 47.5368 63.3301ZM106.304 114.474C105.904 113.974 105.504 113.075 104.804 111.677C104.105 110.078 103.705 108.98 103.705 108.38C103.705 107.581 104.005 106.882 104.704 105.983C105.404 105.184 106.004 104.684 106.703 104.684C107.603 104.684 108.702 105.483 109.902 107.082C111.001 108.58 111.601 109.679 111.601 110.478C111.601 110.878 110.901 111.577 109.402 112.576C108.302 113.475 107.303 114.074 106.304 114.474Z" fill="#094A37"/>
<path d="M52.8338 100.389C54.333 97.9918 55.0326 96.4934 55.0326 95.6943C55.0326 95.4946 54.233 94.7953 52.534 93.6965C50.8349 92.5978 49.8355 91.9984 49.6356 91.9984C49.5357 91.9984 49.3358 92.0983 49.2358 92.398L47.137 96.6932C47.0371 96.893 47.0371 96.9929 47.137 97.0928C48.936 98.1916 50.6351 99.3903 52.3341 100.589C52.534 100.789 52.7339 100.689 52.8338 100.389Z" fill="#094A37"/>
<path d="M107.903 88.9018L106.204 92.398C105.804 91.9984 104.804 91.2992 103.405 90.3003C102.006 89.4013 101.206 88.9018 101.007 88.9018C100.907 88.9018 100.707 89.0017 100.607 89.3014L98.508 93.5966C98.4081 93.7964 98.4081 93.8963 98.508 93.9962C100.307 95.095 102.006 96.2937 103.705 97.4923C103.905 97.5922 104.105 97.5922 104.305 97.2926C104.904 96.2937 105.504 95.095 106.104 93.7964C107.903 94.9951 109.602 96.0939 111.101 97.1927C111.301 97.2926 111.501 97.2926 111.701 96.9929C113.2 94.5955 113.899 93.0972 113.899 92.2981C113.899 92.0983 113.1 91.3991 111.401 90.3003C109.702 89.2015 108.802 88.6022 108.502 88.6022C108.203 88.5023 108.003 88.6022 107.903 88.9018Z" fill="#094A37"/>
<path d="M99.9074 76.915C98.5082 78.4133 96.3094 80.0116 93.3111 81.8096C90.8125 83.3079 88.4139 84.7064 85.9153 86.1048C85.3156 86.5044 85.0158 86.7042 85.0158 86.8041C85.0158 86.8041 85.0158 86.904 85.1157 86.904C85.3156 86.904 85.6155 86.8041 86.1152 86.6043C89.4133 85.4056 91.2123 84.7064 91.6121 84.5066C93.2112 83.8074 94.9102 82.8085 96.8092 81.41C98.5082 80.2113 99.8075 78.8129 100.907 77.4144C101.806 78.0138 102.406 78.4133 102.706 78.8129C103.605 77.6142 104.005 76.7152 104.005 76.2158C103.805 75.8162 103.106 75.3167 102.206 74.8173C102.706 73.4189 102.906 72.2202 102.906 71.1214C102.906 69.9227 102.606 69.2235 101.906 68.9238C101.107 68.6241 100.107 69.0237 98.808 70.1225C97.6087 71.2213 97.009 72.42 97.009 73.7185C97.009 74.9172 98.0085 75.9161 99.9074 76.915ZM99.4075 71.8207C99.8073 71.6209 100.107 71.521 100.307 71.521C100.807 71.521 101.107 71.8207 101.206 72.52C101.306 73.1193 101.306 73.7186 101.107 74.318C99.6074 73.6187 98.808 73.0193 98.808 72.5198C98.808 72.3201 99.0077 72.1204 99.4075 71.8207Z" fill="#094A37"/>
<path d="M91.9118 112.076C93.311 112.076 94.6102 111.377 95.7096 109.879C96.7091 108.58 97.2088 107.182 97.2088 105.683C97.2088 104.684 96.909 103.885 96.4092 103.286C95.9095 102.687 95.2099 102.387 94.5103 102.387C93.7107 102.387 92.6114 103.386 91.412 105.384C90.2127 107.381 89.6131 108.88 89.6131 109.979C89.713 111.377 90.4126 112.076 91.9118 112.076ZM91.8118 106.582C92.4115 105.783 92.9112 105.284 93.1111 105.284C95.01 105.284 95.9095 105.983 95.9095 107.282C95.9095 108.48 94.9101 108.98 92.9112 108.98C91.7119 108.98 91.0123 108.78 90.8124 108.28C90.9123 108.081 91.2122 107.481 91.8118 106.582Z" fill="#094A37"/>
<path d="M84.9157 37.3587C83.3166 38.1578 81.9173 38.7572 80.718 39.0568C78.7191 39.6562 76.6203 39.9558 74.5215 39.9558C72.5226 39.9558 70.6237 39.4564 68.9247 38.6573C68.325 38.3576 67.8253 37.9581 67.2256 37.5585C66.7259 37.1589 66.526 37.059 66.526 37.059C66.2262 37.059 65.9264 37.5585 65.8264 38.5574C66.8258 39.9558 67.3256 40.755 67.3256 40.8549C67.6254 41.5541 67.8253 42.3532 67.8253 43.3521C67.8253 43.8515 67.8253 44.1512 67.9252 44.1512C68.0252 44.1512 68.1251 43.9514 68.2251 43.452C68.6248 42.3532 68.7248 41.4542 68.5249 40.6551C70.2239 41.5541 72.1229 41.9536 74.1217 41.9536C77.9196 41.9536 81.8174 40.9547 85.9151 38.8571C86.3149 38.6573 86.7146 38.5574 86.9145 38.5574C87.3143 38.5574 87.6141 38.7572 87.814 39.2566C87.3143 39.7561 86.8146 40.2555 86.4148 40.755C85.6153 41.654 85.0156 42.553 84.7158 43.452C84.5159 43.8515 84.5159 44.0513 84.5159 44.1512C84.6158 44.1512 84.9157 43.7517 85.4154 43.1523C85.7152 42.7528 86.3149 41.9536 87.3143 40.9547C88.0139 40.1556 88.4137 39.6562 88.5136 39.2566C88.7135 38.7572 88.9134 38.2577 88.9134 37.8582C88.9134 36.9592 88.4137 36.5596 87.5142 36.5596C87.0145 36.4597 86.2149 36.7594 84.9157 37.3587Z" fill="#094A37"/>
<path d="M39.6414 105.983C40.6408 104.485 41.2405 103.586 41.2405 103.186C41.2405 102.187 39.0417 101.688 34.6442 101.688C33.245 101.688 32.3455 101.688 31.9457 101.788C30.8463 101.987 30.1467 102.387 29.7469 103.086L28.3477 105.284C28.1478 105.583 28.0479 105.783 28.0479 105.883C28.0479 105.983 28.3477 106.083 29.0473 105.983C30.5465 105.883 31.2461 105.883 31.2461 105.883C35.0439 105.883 37.0428 106.083 37.0428 106.682C37.0428 106.782 37.0428 106.782 36.9429 106.882C36.5431 107.182 35.3438 107.881 33.145 109.079C30.9463 110.278 29.547 110.977 29.0473 111.377C28.6475 111.677 28.3477 111.876 28.3477 111.976C28.3477 111.976 28.6475 111.976 29.3472 111.777C33.245 110.778 35.4437 109.979 36.1433 109.579C37.3427 108.78 38.442 107.581 39.6414 105.983Z" fill="#094A37"/>
<path d="M76.5204 0.39956C76.6203 0.199781 76.6203 0 76.5204 0C76.5204 0 76.3205 2.2848e-06 76.0207 0.0998919C62.3284 5.19426 48.836 10.2886 35.6434 15.1832C35.2436 15.9823 34.9438 16.6816 34.8439 17.3808C49.5356 11.5872 63.2279 6.39293 75.9207 1.69812C76.0207 1.49834 76.2206 1.09879 76.5204 0.39956Z" fill="#094A37"/>
<path d="M53.9333 29.2678C54.8328 28.9681 55.9322 28.7683 57.4313 28.6684C58.7306 28.5685 59.6301 28.6684 59.9299 28.7683C60.3297 29.2678 60.6295 29.6673 60.6295 29.8671C60.8294 29.967 61.2292 29.6673 61.8289 29.068C62.0287 28.8682 62.1287 28.6684 62.1287 28.3687C62.1287 28.0691 61.9288 27.7694 61.4291 27.4697C60.9294 27.1701 60.2298 27.0702 59.3303 27.0702C57.1315 27.0702 55.0327 27.6695 53.0338 28.9681C52.2343 29.4675 51.7345 29.967 51.7345 30.4664C51.7345 31.0658 52.3342 31.6651 53.6335 32.3643C55.6324 33.2633 57.1315 33.8627 58.2309 34.2622C59.83 35.1612 60.5296 36.0602 60.3297 36.7595C59.83 36.6596 58.4308 36.1601 56.1321 35.361C53.6335 34.462 52.0344 33.8627 51.4347 33.563C49.9356 32.7639 49.0361 31.9648 48.6363 31.2655C48.5363 31.4653 48.5363 31.765 48.5363 32.0647C48.5363 33.563 49.236 34.6618 50.6352 35.4609C52.3342 36.3599 55.1326 37.3588 59.2303 38.3577C59.5302 38.4576 59.9299 38.1579 60.6295 37.5586C61.3291 36.9593 61.8289 36.26 61.8289 35.6607C61.9288 34.6618 61.3291 33.6629 59.9299 32.8638C59.6301 32.7639 59.0304 32.4642 57.8311 32.0647C56.7317 31.6651 55.7323 31.2655 55.0327 30.866C54.1332 30.3665 53.6335 29.967 53.6335 29.6673C53.5335 29.4675 53.6335 29.3676 53.9333 29.2678Z" fill="#094A37"/>
<path d="M65.0269 81.1104C65.1268 80.9106 65.1268 80.7108 65.0269 80.7108C65.0269 80.7108 64.827 80.7108 64.5272 80.8107C56.032 83.9073 47.8366 86.904 39.941 89.9007C39.5413 90.6998 39.2414 91.399 39.1415 92.0983C40.041 91.5988 44.5384 89.8008 52.434 86.904C60.2296 84.0072 64.1274 82.5089 64.2274 82.409C64.5272 82.2092 64.7271 81.8096 65.0269 81.1104Z" fill="#094A37"/>
<path d="M26.1488 39.4565C25.3493 39.2567 24.6496 39.4565 24.2499 39.7561L22.6508 41.0547C22.3509 41.2545 22.251 41.3544 22.251 41.3544C22.251 41.4542 22.4509 41.5541 22.9506 41.7539C24.05 42.1535 24.5497 42.2534 24.5497 42.2534C27.3481 43.2523 28.6474 43.9515 28.5474 44.351L28.4475 44.4509C28.0477 44.5508 26.9483 44.7506 25.0494 45.0503C23.0505 45.3499 21.8512 45.4498 21.3515 45.6496C20.9517 45.7495 20.7518 45.8494 20.6519 45.8494C20.6519 45.8494 20.9517 45.9493 21.4514 45.9493C24.5497 46.2489 26.4486 46.3488 27.0483 46.1491C28.0477 45.8494 29.2471 45.3499 30.5463 44.4509C31.7456 43.6518 32.3453 43.1524 32.4453 42.8527C32.7451 42.1535 31.2459 41.1546 28.0477 39.9559C27.1482 39.6562 26.4486 39.4565 26.1488 39.4565Z" fill="#094A37"/>
<path d="M9.75809 69.9228C10.8575 69.3235 11.9569 68.7241 12.8563 67.925C16.0545 65.3279 18.853 62.2313 21.1517 58.5354C21.8513 58.5354 22.8507 58.935 23.9501 59.6342C24.7496 60.2335 25.6491 60.8329 26.4487 61.4322C26.5486 61.5321 26.9484 61.4322 27.748 61.2324C28.4476 61.0326 28.8473 60.9328 29.0472 60.733C29.447 60.2335 29.6469 59.3345 29.6469 57.9361C29.6469 56.5376 29.447 55.6386 29.0472 55.1392C28.2477 54.1403 26.7485 54.34 24.4498 55.8384C24.05 56.1381 23.9501 56.2379 23.9501 56.3378C23.9501 56.3378 24.3499 56.4377 25.0495 56.3378C25.7491 56.3378 26.1489 56.4377 26.2488 56.5376C26.5486 56.9372 26.6486 57.4366 26.5486 58.1359C25.4492 57.4366 24.6497 57.0371 24.05 56.8373C22.8507 56.6375 21.6514 57.0371 20.3521 58.036C19.9523 58.3356 18.6531 59.834 16.5543 62.4311C14.3555 65.0282 12.4566 67.1259 10.5576 68.6243C9.45826 69.5233 8.95854 70.0227 8.95854 70.1226C9.15842 70.2225 9.35832 70.1226 9.75809 69.9228Z" fill="#094A37"/>
<path d="M142.183 54.4399C143.283 52.7418 143.882 51.2434 143.882 49.845C143.882 48.047 143.183 47.148 141.684 47.148C139.885 47.148 138.785 48.2467 138.286 50.4443C138.186 50.8439 138.186 51.1435 138.086 51.2434C138.186 51.2434 138.186 51.3433 138.286 51.3433C138.386 51.3433 138.585 51.2434 138.885 50.9438C139.285 50.6441 139.785 50.5442 140.284 50.5442C141.284 50.5442 141.684 51.0437 141.684 52.0425C141.684 53.1413 140.185 55.239 137.186 58.5354C136.587 59.2346 136.287 59.5343 136.287 59.6342C136.387 59.6342 136.886 59.3345 137.586 58.835C139.585 57.8361 141.084 56.2379 142.183 54.4399Z" fill="#094A37"/>
<path d="M104.005 128.258C103.006 128.258 102.106 129.257 101.207 131.255C100.407 134.052 99.9072 136.15 99.7074 137.548C99.6074 137.748 99.6074 137.948 99.5075 137.948C99.5075 138.047 99.5075 138.047 99.4075 137.948C99.4075 137.948 99.4075 137.748 99.3076 137.548C98.9078 135.151 98.2082 133.253 97.2088 131.854C96.2093 130.356 95.11 129.657 93.9106 129.657C93.8107 129.657 93.4109 130.056 92.9112 130.955C92.4115 131.754 92.1116 132.254 92.1116 132.454C92.1116 132.753 92.4115 133.253 93.0111 133.752C93.6108 134.252 94.1105 134.551 94.5103 134.551C94.8101 134.551 95.01 134.451 95.11 134.352C95.2099 134.152 95.3098 134.152 95.6097 134.152C96.0095 134.152 96.5092 135.151 97.4087 137.248C98.2082 139.346 98.7079 140.744 98.7079 141.444C98.7079 141.943 98.8079 142.143 99.0078 142.143C99.2076 142.143 99.4075 141.843 99.7074 141.344C100.107 140.645 100.507 139.346 100.807 137.548C101.506 133.453 102.406 131.355 103.305 131.355C103.705 131.355 104.105 131.555 104.505 132.054C104.904 132.554 105.104 132.753 105.204 132.753C105.504 132.753 105.704 132.454 105.904 131.854C106.104 131.355 106.104 131.055 106.104 130.756C106.104 130.356 105.904 129.857 105.404 129.357C105.004 128.558 104.505 128.258 104.005 128.258Z" fill="#094A37"/>
<path d="M147.88 68.2247C147.481 67.7253 147.181 67.5255 146.781 67.5255C146.081 67.5255 145.382 68.2247 144.782 69.723C144.182 72.3202 143.683 74.318 143.483 75.9162C143.383 76.116 143.383 76.2159 143.383 76.2159H143.283C143.283 76.2159 143.283 76.116 143.283 75.9162C142.983 74.1182 142.483 72.4201 141.684 71.0216C140.884 69.4234 139.985 68.6243 139.185 68.6243C139.085 68.6243 138.885 68.9239 138.486 69.5233C138.086 70.1226 137.986 70.5222 137.986 70.622C137.986 70.8218 138.186 71.1215 138.686 71.521C139.085 71.9206 139.485 72.1204 139.785 72.1204C139.985 72.1204 140.185 72.0205 140.185 71.9206C140.285 71.8207 140.385 71.7208 140.485 71.7208C140.684 71.7208 141.184 72.7197 141.884 74.8174C142.583 76.8152 142.883 78.1138 142.883 78.7131C142.883 79.0128 142.983 79.2126 143.083 79.2126C143.183 79.2126 143.383 79.0128 143.583 78.7131C143.883 78.2137 144.182 77.2148 144.382 75.9162C145.082 71.8207 145.782 69.8229 146.381 69.8229C146.681 69.8229 146.981 70.0227 147.181 70.3224C147.481 70.622 147.581 70.8218 147.68 70.8218C147.88 70.8218 148.08 70.622 148.18 70.1226C148.28 69.8229 148.38 69.5233 148.38 69.3235C148.38 69.0238 148.18 68.6243 147.88 68.2247Z" fill="#094A37"/>
<path d="M145.782 84.3068C144.582 85.0061 143.383 86.3046 141.984 88.3024C140.484 90.5 139.685 92.3979 139.685 93.9961C139.685 95.7941 140.485 96.6931 142.084 96.6931C142.783 96.6931 143.583 96.3935 144.182 95.6942C144.982 94.995 145.382 93.9961 145.382 92.8974C145.382 91.6987 144.682 91.0993 143.283 91.0993C142.683 91.0993 142.084 91.2991 141.684 91.6987C141.684 90.9994 142.184 89.9007 143.183 88.4023C144.082 87.0039 144.982 85.9051 145.881 85.106C146.081 84.9062 146.181 84.7064 146.081 84.5066C146.181 84.2069 145.981 84.2069 145.782 84.3068Z" fill="#094A37"/>
<path d="M50.2353 130.456C48.7361 130.456 47.8366 131.355 47.4369 133.253C47.3369 133.652 47.3369 133.852 47.3369 133.952C47.4369 133.952 47.4369 133.952 47.5368 134.052C47.6367 134.052 47.7367 133.952 48.0365 133.752C48.4363 133.552 48.8361 133.353 49.2359 133.353C50.0354 133.353 50.4352 133.752 50.4352 134.651C50.4352 135.55 49.1359 137.348 46.7373 140.045C46.2375 140.545 45.9377 140.944 45.9377 141.044C46.0377 141.044 46.4374 140.844 47.0371 140.445C48.5362 139.346 49.7356 138.147 50.735 136.649C51.6345 135.251 52.1342 133.952 52.1342 132.853C52.0343 131.255 51.4346 130.456 50.2353 130.456Z" fill="#094A37"/>
<path d="M85.9151 135.35C86.015 135.051 86.115 134.851 86.115 134.751C86.015 134.751 85.9151 134.951 85.7152 135.251C85.2155 136.05 84.6158 137.248 84.0162 139.046C83.2166 141.044 82.8168 142.642 82.8168 143.641C82.8168 144.54 82.9168 145.14 83.1167 145.639C83.3166 146.139 83.7163 146.438 84.216 146.338C84.6158 146.338 85.0156 146.039 85.4154 145.339C85.8152 144.74 86.015 143.941 86.115 143.142C86.115 143.042 86.115 142.942 86.115 142.942C86.115 142.942 86.115 142.842 86.015 142.942C86.015 142.942 85.9151 143.042 85.9151 143.142C85.5153 143.941 85.0156 144.44 84.6158 144.54C84.4159 144.54 84.216 144.44 84.0162 144.241C83.8163 143.941 83.6164 143.441 83.6164 142.742C83.6164 142.243 83.7163 141.743 83.8163 141.144C84.1161 139.746 84.8157 137.748 85.9151 135.35Z" fill="#094A37"/>
</svg>
