<svg width="104" height="52" viewBox="0 0 104 52" fill="none" xmlns="http://www.w3.org/2000/svg">
<path d="M104 26C104 26.1733 103.913 26.3467 103.826 26.52C103.826 26.52 101.651 29.4667 101.999 34.2333C102.521 41.5133 100.259 45.8467 95.6488 46.28C94.1699 46.3667 93.9959 46.9733 93.6479 48.0133C92.952 50.0933 91.9081 52 86.4276 52L17.5942 52C12.1137 52 11.0698 50.0933 10.3738 48.0133C10.0259 46.8867 9.85187 46.3667 8.373 46.28C3.76241 45.9333 1.41362 41.5133 2.02257 34.2333C2.37054 29.4667 0.195731 26.52 0.195731 26.52C-0.0652453 26.1733 -0.0652453 25.8267 0.195731 25.48C0.195731 25.3933 2.37054 22.4467 2.02257 17.7667C1.50061 10.4867 3.76241 6.15333 8.373 5.72C9.85187 5.63333 10.0259 5.02666 10.3738 3.98666C11.0698 1.90666 12.1137 3.11699e-06 17.5942 2.87743e-06L86.4276 5.30327e-06C91.9081 5.06371e-06 92.952 1.90667 93.6479 3.98666C93.9959 5.11333 94.1699 5.63333 95.6488 5.72C100.259 6.06667 102.608 10.4867 101.999 17.7667C101.651 22.5333 103.826 25.48 103.826 25.48C103.913 25.6533 104 25.8267 104 26ZM100.172 33.1067C100.172 29.5533 101.39 26.9533 101.999 26C101.303 24.8733 99.8244 21.9267 100.172 17.5933C100.433 13.9533 100.172 7.8 95.3878 7.45333C92.691 7.28 92.2561 5.72 91.8211 4.50667C91.3861 3.12 90.9512 1.73334 86.2536 1.73334L17.5942 1.73334C12.9836 1.73334 12.5486 3.12 12.0267 4.50667C11.6787 5.72 11.1568 7.28 8.45999 7.45333C3.67542 7.88666 3.50144 13.9533 3.76241 17.5933C4.11038 21.84 2.63151 24.8733 1.93558 26C2.63151 27.1267 4.11038 30.16 3.76241 34.4067C3.50144 37.96 3.67542 44.1133 8.54699 44.5467C11.2437 44.72 11.6787 46.28 12.1137 47.4933C12.5486 48.88 12.9836 50.2667 17.6812 50.2667L86.5146 50.2667C91.0382 50.2667 91.4731 48.88 91.9081 47.4933C92.256 46.28 92.778 44.72 95.4748 44.5467C100.259 44.2 100.52 38.0467 100.259 34.4067C100.172 33.9733 100.172 33.54 100.172 33.1067Z" fill="#A99474"/>
<path d="M100.259 26L100.259 26.0867C99.5634 27.56 98.6935 29.9867 98.6935 33.1067C98.6935 33.54 98.6935 33.9733 98.7805 34.4067C98.8675 35.0133 98.8675 35.62 98.8675 36.2267C98.8675 40.4733 97.7366 42.7267 95.4748 42.9C91.7341 43.16 90.9512 45.76 90.5162 46.9733C90.1682 48.1 89.8203 48.62 86.5146 48.62L17.5942 48.62C14.2885 48.62 13.9405 48.0133 13.5925 46.9733C13.2446 45.76 12.3746 43.2467 8.63398 42.9C6.37218 42.8133 5.24128 40.56 5.24128 36.3133C5.24128 35.7067 5.24128 35.1 5.32827 34.4933C5.32827 34.06 5.41527 33.6267 5.41527 33.1933C5.41527 29.9867 4.54534 27.6467 3.84941 26.1733C3.84941 26.0867 3.84941 26 3.84941 26C4.54534 24.5267 5.41527 22.1 5.41527 18.98C5.41527 18.5467 5.41527 18.1133 5.32827 17.68C5.24128 16.9 5.24128 16.2933 5.24128 15.6867C5.24128 11.44 6.37218 9.18667 8.63398 9.01334C12.3746 8.75334 13.1576 6.15333 13.5925 4.94C13.9405 3.81333 14.2885 3.29333 17.5942 3.29333L86.4276 3.29333C89.7333 3.29333 90.0812 3.9 90.4292 4.94C90.7772 6.15334 91.6471 8.66667 95.3878 9.01334C97.6496 9.18667 98.7805 11.44 98.7805 15.6867C98.7805 16.2933 98.7805 16.9 98.6935 17.5067C98.6935 17.94 98.6065 18.3733 98.6065 18.8067C98.6065 22.0133 99.4764 24.3533 100.172 25.8267C100.259 25.9133 100.259 26 100.259 26ZM98.1715 33.1067C98.1715 29.9 99.0414 27.4733 99.7374 25.9133C99.0414 24.3533 98.1715 21.9267 98.1715 18.72C98.1715 18.2867 98.1715 17.7667 98.2585 17.3333C98.3455 16.7267 98.3455 16.12 98.3455 15.6C98.3455 11.6133 97.3016 9.53333 95.3878 9.36C91.4153 9.01586 90.5291 6.36575 90.0908 5.05535C90.0876 5.04571 90.0844 5.03615 90.0812 5.02666C89.8203 4.16 89.6463 3.64 86.5146 3.64L17.5942 3.64C14.3755 3.64 14.2885 4.16 14.0275 5.02667C13.5925 6.32667 12.7226 9.1 8.72097 9.36C6.72015 9.53333 5.76323 11.6133 5.76323 15.6C5.76323 16.2067 5.76323 16.7267 5.85023 17.3333C5.85023 17.7667 5.93722 18.2867 5.93722 18.72C5.93722 21.9267 5.0673 24.3533 4.37136 25.9133C5.0673 27.4733 5.93722 29.9 5.93722 33.1067C5.93722 33.54 5.93722 34.06 5.85023 34.4933C5.76324 35.1 5.76324 35.7067 5.76324 36.2267C5.76324 40.2133 6.80714 42.2933 8.72097 42.4667C12.6934 42.8108 13.5797 45.4609 14.0179 46.7713C14.0211 46.7809 14.0243 46.7905 14.0275 46.8C14.2885 47.6667 14.4625 48.1867 17.5942 48.1867L86.4276 48.1867C89.6463 48.1867 89.7333 47.6667 89.9943 46.8C90.0004 46.7816 90.0067 46.7629 90.013 46.7438C90.4545 45.4219 91.3558 42.723 95.3008 42.4667C97.3016 42.2933 98.2585 40.2133 98.2585 36.2267C98.2585 35.7067 98.2585 35.1 98.1715 34.4933C98.1715 34.06 98.1715 33.6267 98.1715 33.1067Z" fill="#A99474"/>
<path d="M98.1715 33.1067C98.1715 29.9 99.0414 27.4733 99.7374 25.9133C99.0414 24.3533 98.1715 21.9267 98.1715 18.72C98.1715 18.2867 98.1715 17.7667 98.2585 17.3333C98.3455 16.7267 98.3455 16.12 98.3455 15.6C98.3455 11.6133 97.3016 9.53333 95.3878 9.36C91.4153 9.01586 90.5291 6.36575 90.0908 5.05535L90.0812 5.02666C89.8203 4.16 89.6463 3.64 86.5146 3.64L17.5942 3.64C14.3755 3.64 14.2885 4.16 14.0275 5.02667C13.5925 6.32667 12.7226 9.1 8.72097 9.36C6.72015 9.53333 5.76323 11.6133 5.76323 15.6C5.76323 16.2067 5.76323 16.7267 5.85023 17.3333C5.85023 17.7667 5.93722 18.2867 5.93722 18.72C5.93722 21.9267 5.0673 24.3533 4.37136 25.9133C5.0673 27.4733 5.93722 29.9 5.93722 33.1067C5.93722 33.54 5.93722 34.06 5.85023 34.4933C5.76324 35.1 5.76324 35.7067 5.76324 36.2267C5.76324 40.2133 6.80714 42.2933 8.72097 42.4667C12.6934 42.8108 13.5797 45.4609 14.0179 46.7713L14.0275 46.8C14.2885 47.6667 14.4625 48.1867 17.5942 48.1867L86.4276 48.1867C89.6463 48.1867 89.7333 47.6667 89.9943 46.8L90.013 46.7438C90.4545 45.4219 91.3558 42.723 95.3008 42.4667C97.3016 42.2933 98.2585 40.2133 98.2585 36.2267C98.2585 35.7067 98.2585 35.1 98.1715 34.4933L98.1715 33.1067Z" fill="#A99474"/>
</svg>
