<svg width="40" height="40" viewBox="0 0 40 40" fill="none" xmlns="http://www.w3.org/2000/svg">
<path d="M20.5171 38.5431C20.3514 39.0733 19.6224 39.0401 19.4568 38.5431V38.51C19.4568 38.51 18.8272 37.2508 14.5195 35.7265C10.5763 34.368 9.6485 31.6508 9.41655 30.5573C8.32306 30.3254 5.57277 29.3976 4.21419 25.4544C2.72307 21.1136 1.43077 20.5171 1.39763 20.484C0.867456 20.3183 0.867456 19.5893 1.39763 19.4236H1.43077C1.43077 19.4236 1.89467 19.1917 2.59053 18.0982C3.15384 17.2035 3.68402 16.0106 4.21419 14.4864C5.57277 10.5763 8.32306 9.6485 9.41655 9.41655C9.6485 8.32306 10.5763 5.57277 14.4864 4.21419C18.8272 2.72307 19.4236 1.43077 19.4568 1.39763C19.6224 0.867456 20.3514 0.867456 20.5171 1.39763V1.43077C20.5171 1.43077 21.1467 2.72307 25.4544 4.21419C29.3976 5.57277 30.3254 8.32306 30.5573 9.41655C31.6508 9.6485 34.4011 10.5763 35.7597 14.4864C36.2898 15.9775 36.82 17.2035 37.3833 18.0982C38.0792 19.2248 38.5431 19.4568 38.5762 19.4568C39.1064 19.6224 39.0733 20.3514 38.5762 20.5171C38.4768 20.5834 37.2177 21.3124 35.7928 25.4544C34.4342 29.3976 31.6839 30.3254 30.5905 30.5242C30.3585 31.6177 29.4307 34.368 25.5206 35.7265C21.1136 37.2508 20.5171 38.5431 20.5171 38.5431ZM2.55739 19.9869C3.22011 20.6497 4.21419 22.0414 5.27455 25.0899C6.73253 29.265 9.91359 29.4638 9.94672 29.4638L10.4438 29.497L10.4769 29.994C10.4769 30.1266 10.742 33.2082 14.8509 34.6662C17.8994 35.7265 19.3242 36.7206 19.9538 37.3833C20.6165 36.7206 22.0082 35.7265 25.0567 34.6662C29.2319 33.2082 29.4307 30.0271 29.4307 29.994L29.4638 29.497L29.9609 29.4638C30.0934 29.4638 33.1751 29.1987 34.633 25.0899C35.6934 22.0414 36.6875 20.6165 37.3502 19.9869C37.0851 19.7218 36.7538 19.3242 36.3561 18.6946C35.7597 17.7337 35.1632 16.4414 34.633 14.8509C33.2082 10.7089 30.0934 10.4769 29.9609 10.4438H29.5301L29.497 9.94672C29.497 9.81418 29.2319 6.73253 25.123 5.27455C22.0745 4.21419 20.6497 3.22011 20.0201 2.55739C19.3573 3.22011 17.9656 4.21419 14.9171 5.27455C10.7751 6.69939 10.5432 9.81418 10.5432 9.94672L10.51 10.4438L10.013 10.4769C9.88045 10.4769 6.7988 10.742 5.34082 14.884C4.7775 16.4745 4.21419 17.7668 3.61774 18.7278C3.18698 19.3242 2.85562 19.7218 2.55739 19.9869Z" fill="#0A101A"/>
<path d="M2.55739 19.9869C3.22011 20.6497 4.21419 22.0414 5.27455 25.0899C6.73253 29.265 9.91359 29.4638 9.94672 29.4638L10.4438 29.497L10.4769 29.994C10.4769 30.1266 10.742 33.2082 14.8509 34.6662C17.8994 35.7265 19.3242 36.7206 19.9538 37.3833C20.6165 36.7206 22.0082 35.7265 25.0567 34.6662C29.2319 33.2082 29.4307 30.0271 29.4307 29.994L29.4638 29.497L29.9609 29.4638C30.0934 29.4638 33.1751 29.1987 34.633 25.0899C35.6934 22.0414 36.6875 20.6165 37.3502 19.9869C37.0851 19.7218 36.7538 19.3242 36.3561 18.6946C35.7597 17.7337 35.1632 16.4414 34.633 14.8509C33.2082 10.7089 30.0934 10.4769 29.9609 10.4438H29.5301L29.497 9.94672C29.497 9.81418 29.2319 6.73253 25.123 5.27455C22.0745 4.21419 20.6497 3.22011 20.0201 2.55739C19.3573 3.22011 17.9656 4.21419 14.9171 5.27455C10.7751 6.69939 10.5432 9.81418 10.5432 9.94672L10.51 10.4438L10.013 10.4769C9.88045 10.4769 6.7988 10.742 5.34082 14.884C4.7775 16.4745 4.21419 17.7668 3.61774 18.7278C3.18698 19.3242 2.85562 19.7218 2.55739 19.9869Z" fill="#0A101A"/>
<path d="M20.5171 38.5431C20.3514 39.0733 19.6224 39.0401 19.4568 38.5431V38.51C19.4568 38.51 18.8272 37.2508 14.5195 35.7265C10.5763 34.368 9.6485 31.6508 9.41655 30.5573C8.32306 30.3254 5.57277 29.3976 4.21419 25.4544C2.72307 21.1136 1.43077 20.5171 1.39763 20.484C0.867456 20.3183 0.867456 19.5893 1.39763 19.4236H1.43077C1.43077 19.4236 1.89467 19.1917 2.59053 18.0982C3.15384 17.2035 3.68402 16.0106 4.21419 14.4864C5.57277 10.5763 8.32306 9.6485 9.41655 9.41655C9.6485 8.32306 10.5763 5.57277 14.4864 4.21419C18.8272 2.72307 19.4236 1.43077 19.4568 1.39763C19.6224 0.867456 20.3514 0.867456 20.5171 1.39763V1.43077C20.5171 1.43077 21.1467 2.72307 25.4544 4.21419C29.3976 5.57277 30.3254 8.32306 30.5573 9.41655C31.6508 9.6485 34.4011 10.5763 35.7597 14.4864C36.2898 15.9775 36.82 17.2035 37.3833 18.0982C38.0792 19.2248 38.5431 19.4568 38.5762 19.4568C39.1064 19.6224 39.0733 20.3514 38.5762 20.5171C38.4768 20.5834 37.2177 21.3124 35.7928 25.4544C34.4342 29.3976 31.6839 30.3254 30.5905 30.5242C30.3585 31.6177 29.4307 34.368 25.5206 35.7265C21.1136 37.2508 20.5171 38.5431 20.5171 38.5431ZM2.55739 19.9869C3.22011 20.6497 4.21419 22.0414 5.27455 25.0899C6.73253 29.265 9.91359 29.4638 9.94672 29.4638L10.4438 29.497L10.4769 29.994C10.4769 30.1266 10.742 33.2082 14.8509 34.6662C17.8994 35.7265 19.3242 36.7206 19.9538 37.3833C20.6165 36.7206 22.0082 35.7265 25.0567 34.6662C29.2319 33.2082 29.4307 30.0271 29.4307 29.994L29.4638 29.497L29.9609 29.4638C30.0934 29.4638 33.1751 29.1987 34.633 25.0899C35.6934 22.0414 36.6875 20.6165 37.3502 19.9869C37.0851 19.7218 36.7538 19.3242 36.3561 18.6946C35.7597 17.7337 35.1632 16.4414 34.633 14.8509C33.2082 10.7089 30.0934 10.4769 29.9609 10.4438H29.5301L29.497 9.94672C29.497 9.81418 29.2319 6.73253 25.123 5.27455C22.0745 4.21419 20.6497 3.22011 20.0201 2.55739C19.3573 3.22011 17.9656 4.21419 14.9171 5.27455C10.7751 6.69939 10.5432 9.81418 10.5432 9.94672L10.51 10.4438L10.013 10.4769C9.88045 10.4769 6.7988 10.742 5.34082 14.884C4.7775 16.4745 4.21419 17.7668 3.61774 18.7278C3.18698 19.3242 2.85562 19.7218 2.55739 19.9869Z" stroke="#0A101A" stroke-width="2"/>
<path d="M2.55739 19.9869C3.22011 20.6497 4.21419 22.0414 5.27455 25.0899C6.73253 29.265 9.91359 29.4638 9.94672 29.4638L10.4438 29.497L10.4769 29.994C10.4769 30.1266 10.742 33.2082 14.8509 34.6662C17.8994 35.7265 19.3242 36.7206 19.9538 37.3833C20.6165 36.7206 22.0082 35.7265 25.0567 34.6662C29.2319 33.2082 29.4307 30.0271 29.4307 29.994L29.4638 29.497L29.9609 29.4638C30.0934 29.4638 33.1751 29.1987 34.633 25.0899C35.6934 22.0414 36.6875 20.6165 37.3502 19.9869C37.0851 19.7218 36.7538 19.3242 36.3561 18.6946C35.7597 17.7337 35.1632 16.4414 34.633 14.8509C33.2082 10.7089 30.0934 10.4769 29.9609 10.4438H29.5301L29.497 9.94672C29.497 9.81418 29.2319 6.73253 25.123 5.27455C22.0745 4.21419 20.6497 3.22011 20.0201 2.55739C19.3573 3.22011 17.9656 4.21419 14.9171 5.27455C10.7751 6.69939 10.5432 9.81418 10.5432 9.94672L10.51 10.4438L10.013 10.4769C9.88045 10.4769 6.7988 10.742 5.34082 14.884C4.7775 16.4745 4.21419 17.7668 3.61774 18.7278C3.18698 19.3242 2.85562 19.7218 2.55739 19.9869Z" stroke="#0A101A" stroke-width="2"/>
<path fill-rule="evenodd" clip-rule="evenodd" d="M20.4942 37.7904C20.3356 38.2985 19.6376 38.2667 19.479 37.7904V37.7586C19.479 37.7586 18.8762 36.552 14.7518 35.0913C10.9764 33.7894 10.0881 31.1856 9.86601 30.1378C8.81906 29.9155 6.1858 29.0264 4.88504 25.2477C3.45737 21.088 2.22005 20.5164 2.18833 20.4846C1.68071 20.3259 1.68071 19.6273 2.18833 19.4685H2.22005C2.22005 19.4685 2.66422 19.2462 3.33046 18.1984C3.8698 17.341 4.37742 16.1979 4.88504 14.7372C6.1858 10.9903 8.81906 10.1012 9.86601 9.87891C10.0881 8.83104 10.9764 6.19548 14.7201 4.89358C18.8762 3.46467 19.4473 2.22627 19.479 2.19452C19.6376 1.68646 20.3356 1.68646 20.4942 2.19452V2.22627C20.4942 2.22627 21.097 3.46467 25.2214 4.89358C28.9968 6.19548 29.8851 8.83104 30.1072 9.87891C31.1541 10.1012 33.7874 10.9903 35.0882 14.7372C35.5958 16.1661 36.1034 17.341 36.6427 18.1984C37.309 19.278 37.7531 19.5003 37.7849 19.5003C38.2925 19.659 38.2607 20.3576 37.7849 20.5164C37.6897 20.5799 36.4841 21.2785 35.1199 25.2477C33.8191 29.0264 31.1859 29.9155 30.1389 30.106C29.9168 31.1539 29.0285 33.7894 25.2848 35.0913C21.0653 36.552 20.4942 37.7904 20.4942 37.7904ZM5.90027 24.8984C4.88504 21.9771 3.93326 20.6434 3.29874 20.0083C3.58427 19.7543 3.90153 19.3733 4.31397 18.8017C4.88504 17.8808 5.42438 16.6424 5.96372 15.1183C7.35966 11.1491 10.3102 10.895 10.4371 10.895L10.913 10.8633L10.9447 10.387C10.9447 10.26 11.1668 7.27511 15.1325 5.9097C18.0513 4.89358 19.3838 3.94097 20.0183 3.3059C20.6211 3.94097 21.9853 4.89358 24.9041 5.9097C28.8381 7.30686 29.0919 10.26 29.0919 10.387L29.1237 10.8633H29.5361C29.663 10.895 32.6453 11.1173 34.0095 15.0865C34.5171 16.6107 35.0882 17.8491 35.6592 18.7699C36.0399 19.3733 36.3572 19.7543 36.611 20.0083C35.9765 20.6117 35.0247 21.9771 34.0095 24.8984C32.6135 28.8359 29.663 29.0899 29.5361 29.0899L29.0602 29.1216L29.0285 29.5979C29.0285 29.6297 28.8381 32.6781 24.8407 34.0752C21.9219 35.0913 20.5894 36.0439 19.9549 36.679C19.3521 36.0439 17.9879 35.0913 15.0691 34.0752C11.135 32.6781 10.8812 29.725 10.8812 29.5979L10.8495 29.1216L10.3736 29.0899C10.3419 29.0899 7.29621 28.8994 5.90027 24.8984Z" fill="#0C1F34" stroke="#0C1F34" stroke-width="0.8"/>
</svg>
