<svg width="97" height="42" viewBox="0 0 97 42" fill="none" xmlns="http://www.w3.org/2000/svg">
<path d="M96.3264 21C96.3264 21.14 96.2563 21.28 96.1863 21.42C96.1863 21.42 94.4345 23.8 94.7148 27.65C95.1352 33.53 93.3133 37.03 89.5995 37.38C88.4083 37.45 88.2681 37.94 87.9878 38.78C87.4272 40.46 86.5864 42 82.1719 42L15.1335 42C10.7189 42 9.87809 40.46 9.31751 38.78C9.03722 37.87 8.89708 37.45 7.70585 37.38C3.99204 37.1 2.10009 33.53 2.5906 27.65C2.87089 23.8 1.11909 21.42 1.11909 21.42C0.908871 21.14 0.908871 20.86 1.11909 20.58C1.11909 20.51 2.87089 18.13 2.5906 14.35C2.17017 8.46999 3.99204 4.96998 7.70585 4.61998C8.89708 4.54998 9.03722 4.05998 9.31751 3.21998C9.87808 1.53998 10.7189 -1.18706e-05 15.1335 -1.20636e-05L82.1719 1.1709e-05C86.5864 1.1516e-05 87.4272 1.54 87.9878 3.22001C88.2681 4.13 88.4083 4.55 89.5995 4.62C93.3133 4.9 95.2053 8.47001 94.7148 14.35C94.4345 18.2 96.1863 20.58 96.1863 20.58C96.2563 20.72 96.3264 20.86 96.3264 21ZM93.2432 26.74C93.2432 23.87 94.2243 21.77 94.7148 21C94.1542 20.09 92.963 17.71 93.2432 14.21C93.4535 11.27 93.2432 6.30001 89.3893 6.02001C87.217 5.88001 86.8667 4.62001 86.5163 3.64001C86.166 2.52001 85.8156 1.40001 82.0317 1.40001L15.1335 1.39999C11.4197 1.39999 11.0693 2.51998 10.6489 3.63998C10.3686 4.61998 9.94815 5.87999 7.77592 6.01998C3.92196 6.36998 3.78182 11.27 3.99204 14.21C4.27233 17.64 3.0811 20.09 2.52053 21C3.0811 21.91 4.27233 24.36 3.99204 27.79C3.78182 30.66 3.92197 35.63 7.846 35.98C10.0182 36.12 10.3686 37.38 10.7189 38.36C11.0693 39.48 11.4197 40.6 15.2036 40.6L82.2419 40.6C85.8857 40.6 86.236 39.48 86.5864 38.36C86.8667 37.38 87.2871 36.12 89.4593 35.98C93.3133 35.7 93.5235 30.73 93.3133 27.79C93.2433 27.44 93.2432 27.09 93.2432 26.74Z" fill="#0A101A"/>
<path d="M93.3133 21L93.3133 21.07C92.7527 22.26 92.052 24.22 92.052 26.74C92.052 27.09 92.052 27.44 92.1221 27.79C92.1922 28.28 92.1922 28.77 92.1922 29.26C92.1922 32.69 91.2812 34.51 89.4593 34.65C86.4462 34.86 85.8156 36.96 85.4652 37.94C85.185 38.85 84.9047 39.27 82.2419 39.27L15.1335 39.27C12.4707 39.27 12.1905 38.78 11.9102 37.94C11.6299 36.96 10.9292 34.93 7.91607 34.65C6.0942 34.58 5.18326 32.76 5.18326 29.33C5.18326 28.84 5.18326 28.35 5.25333 27.86C5.25333 27.51 5.32341 27.16 5.32341 26.81C5.32341 24.22 4.62269 22.33 4.06211 21.14C4.06211 21.07 4.06211 21 4.06211 21C4.62269 19.81 5.32341 17.85 5.32341 15.33C5.32341 14.98 5.32341 14.63 5.25333 14.28C5.18326 13.65 5.18326 13.16 5.18326 12.67C5.18326 9.23999 6.0942 7.41999 7.91607 7.27999C10.9292 7.06999 11.5598 4.96999 11.9102 3.98999C12.1905 3.07999 12.4707 2.65999 15.1335 2.65999L82.1719 2.66C84.8346 2.66 85.1149 3.15001 85.3952 3.99001C85.6755 4.97001 86.3762 7.00001 89.3893 7.28001C91.2111 7.42001 92.1221 9.24001 92.1221 12.67C92.1221 13.16 92.1221 13.65 92.052 14.14C92.052 14.49 91.9819 14.84 91.9819 15.19C91.9819 17.78 92.6827 19.67 93.2432 20.86C93.3133 20.93 93.3133 21 93.3133 21ZM91.6316 26.74C91.6316 24.15 92.3323 22.19 92.8929 20.93C92.3323 19.67 91.6316 17.71 91.6316 15.12C91.6316 14.77 91.6316 14.35 91.7017 14C91.7717 13.51 91.7717 13.02 91.7717 12.6C91.7717 9.38001 90.9309 7.7 89.3893 7.56001C86.1895 7.28205 85.4756 5.14157 85.1226 4.08317C85.12 4.07539 85.1174 4.06767 85.1149 4.06001C84.9047 3.36 84.7645 2.94001 82.2419 2.94001L15.1335 2.93998C12.5408 2.93998 12.4707 3.35998 12.2605 4.05999C11.9102 5.10998 11.2095 7.34999 7.98614 7.55999C6.37448 7.69999 5.60369 9.37999 5.60369 12.6C5.60369 13.09 5.60369 13.51 5.67377 14C5.67377 14.35 5.74384 14.77 5.74384 15.12C5.74384 17.71 5.04312 19.67 4.48254 20.93C5.04312 22.19 5.74384 24.15 5.74384 26.74C5.74384 27.09 5.74384 27.51 5.67377 27.86C5.60369 28.35 5.60369 28.84 5.60369 29.26C5.60369 32.48 6.44456 34.16 7.98614 34.3C11.1859 34.578 11.8998 36.7184 12.2528 37.7768C12.2554 37.7846 12.258 37.7923 12.2605 37.8C12.4707 38.5 12.6109 38.92 15.1335 38.92L82.1719 38.92C84.7645 38.92 84.8346 38.5 85.0448 37.8C85.0498 37.7851 85.0548 37.77 85.0599 37.7546C85.4155 36.6869 86.1416 34.507 89.3192 34.3C90.9309 34.16 91.7017 32.48 91.7017 29.26C91.7017 28.84 91.7017 28.35 91.6316 27.86C91.6316 27.51 91.6316 27.16 91.6316 26.74Z" fill="#0A101A"/>
<path d="M91.6316 26.74C91.6316 24.15 92.3323 22.19 92.8929 20.93C92.3323 19.67 91.6316 17.71 91.6316 15.12C91.6316 14.77 91.6316 14.35 91.7017 14C91.7717 13.51 91.7717 13.02 91.7717 12.6C91.7717 9.38001 90.9309 7.7 89.3893 7.56001C86.1895 7.28205 85.4756 5.14157 85.1226 4.08317L85.1149 4.06001C84.9047 3.36 84.7645 2.94001 82.2419 2.94001L15.1335 2.93998C12.5408 2.93998 12.4707 3.35998 12.2605 4.05999C11.9102 5.10998 11.2095 7.34999 7.98614 7.55999C6.37448 7.69999 5.60369 9.37999 5.60369 12.6C5.60369 13.09 5.60369 13.51 5.67377 14C5.67377 14.35 5.74384 14.77 5.74384 15.12C5.74384 17.71 5.04312 19.67 4.48254 20.93C5.04312 22.19 5.74384 24.15 5.74384 26.74C5.74384 27.09 5.74384 27.51 5.67377 27.86C5.60369 28.35 5.60369 28.84 5.60369 29.26C5.60369 32.48 6.44456 34.16 7.98614 34.3C11.1859 34.578 11.8998 36.7184 12.2528 37.7768L12.2605 37.8C12.4707 38.5 12.6109 38.92 15.1335 38.92L82.1719 38.92C84.7645 38.92 84.8346 38.5 85.0448 37.8L85.0599 37.7546C85.4155 36.6869 86.1416 34.507 89.3192 34.3C90.9309 34.16 91.7017 32.48 91.7017 29.26C91.7017 28.84 91.7017 28.35 91.6316 27.86L91.6316 26.74Z" fill="#0A101A"/>
</svg>
