<svg width="29" height="29" viewBox="0 0 29 29" fill="none" xmlns="http://www.w3.org/2000/svg">
    <mask id="path-1-inside-1_1051_238" fill="white">
        <path d="M15.3859 28.6929C15.2636 29.0843 14.7255 29.0598 14.6032 28.6929V28.6685C14.6032 28.6685 14.1385 27.739 10.959 26.614C8.04842 25.6112 7.36359 23.6056 7.19238 22.7985C6.38526 22.6273 4.35522 21.9424 3.35243 19.0319C2.25181 15.8279 1.29794 15.3876 1.27348 15.3632C0.882147 15.2409 0.882147 14.7028 1.27348 14.5805H1.29794C1.29794 14.5805 1.64035 14.4093 2.15398 13.6022C2.56977 12.9418 2.9611 12.0613 3.35243 10.9362C4.35522 8.05013 6.38526 7.3653 7.19238 7.19409C7.36359 6.38697 8.04842 4.35693 10.9345 3.35414C14.1385 2.25352 14.5788 1.29965 14.6032 1.27519C14.7255 0.883856 15.2636 0.883856 15.3859 1.27519V1.29965C15.3859 1.29965 15.8506 2.25352 19.0302 3.35414C21.9407 4.35693 22.6256 6.38697 22.7968 7.19409C23.6039 7.3653 25.6339 8.05013 26.6367 10.9362C27.028 12.0368 27.4194 12.9418 27.8352 13.6022C28.3488 14.4337 28.6912 14.605 28.7157 14.605C29.107 14.7272 29.0825 15.2653 28.7157 15.3876C28.6423 15.4365 27.7129 15.9746 26.6612 19.0319C25.6584 21.9424 23.6283 22.6273 22.8212 22.774C22.65 23.5811 21.9652 25.6112 19.0791 26.614C15.8262 27.739 15.3859 28.6929 15.3859 28.6929ZM2.12952 14.9963C2.61869 15.4855 3.35243 16.5127 4.1351 18.7629C5.21126 21.8446 7.55926 21.9914 7.58372 21.9914L7.95059 22.0158L7.97505 22.3827C7.97505 22.4805 8.17071 24.7551 11.2035 25.8313C13.4537 26.614 14.5054 27.3477 14.9701 27.8369C15.4593 27.3477 16.4865 26.614 18.7367 25.8313C21.8184 24.7551 21.9652 22.4071 21.9652 22.3827L21.9896 22.0158L22.3565 21.9914C22.4544 21.9914 24.729 21.7957 25.8051 18.7629C26.5878 16.5127 27.3215 15.461 27.8107 14.9963C27.615 14.8006 27.3705 14.5071 27.077 14.0424C26.6367 13.3331 26.1965 12.3792 25.8051 11.2053C24.7534 8.14797 22.4544 7.97676 22.3565 7.9523H22.0386L22.0141 7.58543C22.0141 7.48759 21.8184 5.21297 18.7856 4.13681C16.5354 3.35414 15.4837 2.62039 15.019 2.13123C14.5299 2.62039 13.5026 3.35414 11.2525 4.13681C8.19517 5.18851 8.02397 7.48759 8.02397 7.58543L7.99951 7.9523L7.63263 7.97676C7.5348 7.97676 5.26018 8.17242 4.18402 11.2297C3.76822 12.4037 3.35243 13.3576 2.91218 14.0669C2.59423 14.5071 2.34964 14.8006 2.12952 14.9963Z"/>
        <path d="M2.12952 14.9963C2.61869 15.4855 3.35243 16.5127 4.1351 18.7629C5.21126 21.8446 7.55926 21.9914 7.58372 21.9914L7.95059 22.0158L7.97505 22.3827C7.97505 22.4805 8.17071 24.7551 11.2035 25.8313C13.4537 26.614 14.5054 27.3477 14.9701 27.8369C15.4593 27.3477 16.4865 26.614 18.7367 25.8313C21.8184 24.7551 21.9652 22.4071 21.9652 22.3827L21.9896 22.0158L22.3565 21.9914C22.4544 21.9914 24.729 21.7957 25.8051 18.7629C26.5878 16.5127 27.3215 15.461 27.8107 14.9963C27.615 14.8006 27.3705 14.5071 27.077 14.0424C26.6367 13.3331 26.1965 12.3792 25.8051 11.2053C24.7534 8.14797 22.4544 7.97676 22.3565 7.9523H22.0386L22.0141 7.58543C22.0141 7.48759 21.8184 5.21297 18.7856 4.13681C16.5354 3.35414 15.4837 2.62039 15.019 2.13123C14.5299 2.62039 13.5026 3.35414 11.2525 4.13681C8.19517 5.18851 8.02397 7.48759 8.02397 7.58543L7.99951 7.9523L7.63263 7.97676C7.5348 7.97676 5.26018 8.17242 4.18402 11.2297C3.76822 12.4037 3.35243 13.3576 2.91218 14.0669C2.59423 14.5071 2.34964 14.8006 2.12952 14.9963Z"/>
        <path fill-rule="evenodd" clip-rule="evenodd"
              d="M15.3698 28.1375C15.2527 28.5125 14.7375 28.4891 14.6204 28.1375V28.1141C14.6204 28.1141 14.1755 27.2234 11.1312 26.1453C8.34456 25.1843 7.68887 23.2624 7.52495 22.489C6.75217 22.3249 4.80852 21.6686 3.8484 18.8795C2.79461 15.8091 1.88133 15.3873 1.85791 15.3638C1.48323 15.2466 1.48323 14.731 1.85791 14.6138H1.88133C1.88133 14.6138 2.20917 14.4497 2.70094 13.6763C3.09904 13.0435 3.47372 12.1997 3.8484 11.1215C4.80852 8.35587 6.75217 7.69961 7.52495 7.53554C7.68887 6.76209 8.34456 4.81674 11.1078 3.85578C14.1755 2.80107 14.597 1.88699 14.6204 1.86355C14.7375 1.48855 15.2527 1.48855 15.3698 1.86355V1.88699C15.3698 1.88699 15.8147 2.80107 18.859 3.85578C21.6457 4.81674 22.3014 6.76209 22.4653 7.53554C23.2381 7.69961 25.1817 8.35587 26.1419 11.1215C26.5165 12.1763 26.8912 13.0435 27.2893 13.6763C27.7811 14.4732 28.1089 14.6372 28.1323 14.6372C28.507 14.7544 28.4836 15.2701 28.1323 15.3873C28.0621 15.4341 27.1722 15.9498 26.1653 18.8795C25.2052 21.6686 23.2615 22.3249 22.4887 22.4655C22.3248 23.239 21.6691 25.1843 18.9059 26.1453C15.7913 27.2234 15.3698 28.1375 15.3698 28.1375ZM4.59776 18.6217C3.8484 16.4654 3.14587 15.481 2.67752 15.0122C2.88828 14.8247 3.12246 14.5435 3.42688 14.1216C3.8484 13.4419 4.2465 12.5278 4.64459 11.4028C5.67496 8.47306 7.85279 8.28555 7.94646 8.28555L8.29772 8.26212L8.32114 7.91055C8.32114 7.8168 8.48506 5.61363 11.4123 4.6058C13.5667 3.85578 14.5502 3.15264 15.0185 2.68388C15.4635 3.15264 16.4704 3.85578 18.6248 4.6058C21.5286 5.63707 21.716 7.8168 21.716 7.91055L21.7394 8.26212H22.0438C22.1375 8.28555 24.3387 8.44962 25.3457 11.3794C25.7203 12.5044 26.1419 13.4185 26.5634 14.0982C26.8444 14.5435 27.0786 14.8247 27.2659 15.0122C26.7975 15.4576 26.095 16.4654 25.3457 18.6217C24.3153 21.528 22.1375 21.7155 22.0438 21.7155L21.6925 21.7389L21.6691 22.0905C21.6691 22.114 21.5286 24.364 18.578 25.3953C16.4236 26.1453 15.4401 26.8484 14.9717 27.3172C14.5268 26.8484 13.5198 26.1453 11.3654 25.3953C8.46165 24.364 8.27431 22.1843 8.27431 22.0905L8.25089 21.7389L7.89963 21.7155C7.87621 21.7155 5.62813 21.5749 4.59776 18.6217Z"/>
    </mask>
    <path d="M15.3859 28.6929C15.2636 29.0843 14.7255 29.0598 14.6032 28.6929V28.6685C14.6032 28.6685 14.1385 27.739 10.959 26.614C8.04842 25.6112 7.36359 23.6056 7.19238 22.7985C6.38526 22.6273 4.35522 21.9424 3.35243 19.0319C2.25181 15.8279 1.29794 15.3876 1.27348 15.3632C0.882147 15.2409 0.882147 14.7028 1.27348 14.5805H1.29794C1.29794 14.5805 1.64035 14.4093 2.15398 13.6022C2.56977 12.9418 2.9611 12.0613 3.35243 10.9362C4.35522 8.05013 6.38526 7.3653 7.19238 7.19409C7.36359 6.38697 8.04842 4.35693 10.9345 3.35414C14.1385 2.25352 14.5788 1.29965 14.6032 1.27519C14.7255 0.883856 15.2636 0.883856 15.3859 1.27519V1.29965C15.3859 1.29965 15.8506 2.25352 19.0302 3.35414C21.9407 4.35693 22.6256 6.38697 22.7968 7.19409C23.6039 7.3653 25.6339 8.05013 26.6367 10.9362C27.028 12.0368 27.4194 12.9418 27.8352 13.6022C28.3488 14.4337 28.6912 14.605 28.7157 14.605C29.107 14.7272 29.0825 15.2653 28.7157 15.3876C28.6423 15.4365 27.7129 15.9746 26.6612 19.0319C25.6584 21.9424 23.6283 22.6273 22.8212 22.774C22.65 23.5811 21.9652 25.6112 19.0791 26.614C15.8262 27.739 15.3859 28.6929 15.3859 28.6929ZM2.12952 14.9963C2.61869 15.4855 3.35243 16.5127 4.1351 18.7629C5.21126 21.8446 7.55926 21.9914 7.58372 21.9914L7.95059 22.0158L7.97505 22.3827C7.97505 22.4805 8.17071 24.7551 11.2035 25.8313C13.4537 26.614 14.5054 27.3477 14.9701 27.8369C15.4593 27.3477 16.4865 26.614 18.7367 25.8313C21.8184 24.7551 21.9652 22.4071 21.9652 22.3827L21.9896 22.0158L22.3565 21.9914C22.4544 21.9914 24.729 21.7957 25.8051 18.7629C26.5878 16.5127 27.3215 15.461 27.8107 14.9963C27.615 14.8006 27.3705 14.5071 27.077 14.0424C26.6367 13.3331 26.1965 12.3792 25.8051 11.2053C24.7534 8.14797 22.4544 7.97676 22.3565 7.9523H22.0386L22.0141 7.58543C22.0141 7.48759 21.8184 5.21297 18.7856 4.13681C16.5354 3.35414 15.4837 2.62039 15.019 2.13123C14.5299 2.62039 13.5026 3.35414 11.2525 4.13681C8.19517 5.18851 8.02397 7.48759 8.02397 7.58543L7.99951 7.9523L7.63263 7.97676C7.5348 7.97676 5.26018 8.17242 4.18402 11.2297C3.76822 12.4037 3.35243 13.3576 2.91218 14.0669C2.59423 14.5071 2.34964 14.8006 2.12952 14.9963Z"
          fill="#364150"/>
    <path d="M2.12952 14.9963C2.61869 15.4855 3.35243 16.5127 4.1351 18.7629C5.21126 21.8446 7.55926 21.9914 7.58372 21.9914L7.95059 22.0158L7.97505 22.3827C7.97505 22.4805 8.17071 24.7551 11.2035 25.8313C13.4537 26.614 14.5054 27.3477 14.9701 27.8369C15.4593 27.3477 16.4865 26.614 18.7367 25.8313C21.8184 24.7551 21.9652 22.4071 21.9652 22.3827L21.9896 22.0158L22.3565 21.9914C22.4544 21.9914 24.729 21.7957 25.8051 18.7629C26.5878 16.5127 27.3215 15.461 27.8107 14.9963C27.615 14.8006 27.3705 14.5071 27.077 14.0424C26.6367 13.3331 26.1965 12.3792 25.8051 11.2053C24.7534 8.14797 22.4544 7.97676 22.3565 7.9523H22.0386L22.0141 7.58543C22.0141 7.48759 21.8184 5.21297 18.7856 4.13681C16.5354 3.35414 15.4837 2.62039 15.019 2.13123C14.5299 2.62039 13.5026 3.35414 11.2525 4.13681C8.19517 5.18851 8.02397 7.48759 8.02397 7.58543L7.99951 7.9523L7.63263 7.97676C7.5348 7.97676 5.26018 8.17242 4.18402 11.2297C3.76822 12.4037 3.35243 13.3576 2.91218 14.0669C2.59423 14.5071 2.34964 14.8006 2.12952 14.9963Z"
          fill="#364150"/>
    <path fill-rule="evenodd" clip-rule="evenodd"
          d="M15.3698 28.1375C15.2527 28.5125 14.7375 28.4891 14.6204 28.1375V28.1141C14.6204 28.1141 14.1755 27.2234 11.1312 26.1453C8.34456 25.1843 7.68887 23.2624 7.52495 22.489C6.75217 22.3249 4.80852 21.6686 3.8484 18.8795C2.79461 15.8091 1.88133 15.3873 1.85791 15.3638C1.48323 15.2466 1.48323 14.731 1.85791 14.6138H1.88133C1.88133 14.6138 2.20917 14.4497 2.70094 13.6763C3.09904 13.0435 3.47372 12.1997 3.8484 11.1215C4.80852 8.35587 6.75217 7.69961 7.52495 7.53554C7.68887 6.76209 8.34456 4.81674 11.1078 3.85578C14.1755 2.80107 14.597 1.88699 14.6204 1.86355C14.7375 1.48855 15.2527 1.48855 15.3698 1.86355V1.88699C15.3698 1.88699 15.8147 2.80107 18.859 3.85578C21.6457 4.81674 22.3014 6.76209 22.4653 7.53554C23.2381 7.69961 25.1817 8.35587 26.1419 11.1215C26.5165 12.1763 26.8912 13.0435 27.2893 13.6763C27.7811 14.4732 28.1089 14.6372 28.1323 14.6372C28.507 14.7544 28.4836 15.2701 28.1323 15.3873C28.0621 15.4341 27.1722 15.9498 26.1653 18.8795C25.2052 21.6686 23.2615 22.3249 22.4887 22.4655C22.3248 23.239 21.6691 25.1843 18.9059 26.1453C15.7913 27.2234 15.3698 28.1375 15.3698 28.1375ZM4.59776 18.6217C3.8484 16.4654 3.14587 15.481 2.67752 15.0122C2.88828 14.8247 3.12246 14.5435 3.42688 14.1216C3.8484 13.4419 4.2465 12.5278 4.64459 11.4028C5.67496 8.47306 7.85279 8.28555 7.94646 8.28555L8.29772 8.26212L8.32114 7.91055C8.32114 7.8168 8.48506 5.61363 11.4123 4.6058C13.5667 3.85578 14.5502 3.15264 15.0185 2.68388C15.4635 3.15264 16.4704 3.85578 18.6248 4.6058C21.5286 5.63707 21.716 7.8168 21.716 7.91055L21.7394 8.26212H22.0438C22.1375 8.28555 24.3387 8.44962 25.3457 11.3794C25.7203 12.5044 26.1419 13.4185 26.5634 14.0982C26.8444 14.5435 27.0786 14.8247 27.2659 15.0122C26.7975 15.4576 26.095 16.4654 25.3457 18.6217C24.3153 21.528 22.1375 21.7155 22.0438 21.7155L21.6925 21.7389L21.6691 22.0905C21.6691 22.114 21.5286 24.364 18.578 25.3953C16.4236 26.1453 15.4401 26.8484 14.9717 27.3172C14.5268 26.8484 13.5198 26.1453 11.3654 25.3953C8.46165 24.364 8.27431 22.1843 8.27431 22.0905L8.25089 21.7389L7.89963 21.7155C7.87621 21.7155 5.62813 21.5749 4.59776 18.6217Z"
          fill="#ffffff"/>
    <path d="M15.3859 28.6929C15.2636 29.0843 14.7255 29.0598 14.6032 28.6929V28.6685C14.6032 28.6685 14.1385 27.739 10.959 26.614C8.04842 25.6112 7.36359 23.6056 7.19238 22.7985C6.38526 22.6273 4.35522 21.9424 3.35243 19.0319C2.25181 15.8279 1.29794 15.3876 1.27348 15.3632C0.882147 15.2409 0.882147 14.7028 1.27348 14.5805H1.29794C1.29794 14.5805 1.64035 14.4093 2.15398 13.6022C2.56977 12.9418 2.9611 12.0613 3.35243 10.9362C4.35522 8.05013 6.38526 7.3653 7.19238 7.19409C7.36359 6.38697 8.04842 4.35693 10.9345 3.35414C14.1385 2.25352 14.5788 1.29965 14.6032 1.27519C14.7255 0.883856 15.2636 0.883856 15.3859 1.27519V1.29965C15.3859 1.29965 15.8506 2.25352 19.0302 3.35414C21.9407 4.35693 22.6256 6.38697 22.7968 7.19409C23.6039 7.3653 25.6339 8.05013 26.6367 10.9362C27.028 12.0368 27.4194 12.9418 27.8352 13.6022C28.3488 14.4337 28.6912 14.605 28.7157 14.605C29.107 14.7272 29.0825 15.2653 28.7157 15.3876C28.6423 15.4365 27.7129 15.9746 26.6612 19.0319C25.6584 21.9424 23.6283 22.6273 22.8212 22.774C22.65 23.5811 21.9652 25.6112 19.0791 26.614C15.8262 27.739 15.3859 28.6929 15.3859 28.6929ZM2.12952 14.9963C2.61869 15.4855 3.35243 16.5127 4.1351 18.7629C5.21126 21.8446 7.55926 21.9914 7.58372 21.9914L7.95059 22.0158L7.97505 22.3827C7.97505 22.4805 8.17071 24.7551 11.2035 25.8313C13.4537 26.614 14.5054 27.3477 14.9701 27.8369C15.4593 27.3477 16.4865 26.614 18.7367 25.8313C21.8184 24.7551 21.9652 22.4071 21.9652 22.3827L21.9896 22.0158L22.3565 21.9914C22.4544 21.9914 24.729 21.7957 25.8051 18.7629C26.5878 16.5127 27.3215 15.461 27.8107 14.9963C27.615 14.8006 27.3705 14.5071 27.077 14.0424C26.6367 13.3331 26.1965 12.3792 25.8051 11.2053C24.7534 8.14797 22.4544 7.97676 22.3565 7.9523H22.0386L22.0141 7.58543C22.0141 7.48759 21.8184 5.21297 18.7856 4.13681C16.5354 3.35414 15.4837 2.62039 15.019 2.13123C14.5299 2.62039 13.5026 3.35414 11.2525 4.13681C8.19517 5.18851 8.02397 7.48759 8.02397 7.58543L7.99951 7.9523L7.63263 7.97676C7.5348 7.97676 5.26018 8.17242 4.18402 11.2297C3.76822 12.4037 3.35243 13.3576 2.91218 14.0669C2.59423 14.5071 2.34964 14.8006 2.12952 14.9963Z"
          stroke="#364150" stroke-width="0.02" mask="url(#path-1-inside-1_1051_238)"/>
    <path d="M2.12952 14.9963C2.61869 15.4855 3.35243 16.5127 4.1351 18.7629C5.21126 21.8446 7.55926 21.9914 7.58372 21.9914L7.95059 22.0158L7.97505 22.3827C7.97505 22.4805 8.17071 24.7551 11.2035 25.8313C13.4537 26.614 14.5054 27.3477 14.9701 27.8369C15.4593 27.3477 16.4865 26.614 18.7367 25.8313C21.8184 24.7551 21.9652 22.4071 21.9652 22.3827L21.9896 22.0158L22.3565 21.9914C22.4544 21.9914 24.729 21.7957 25.8051 18.7629C26.5878 16.5127 27.3215 15.461 27.8107 14.9963C27.615 14.8006 27.3705 14.5071 27.077 14.0424C26.6367 13.3331 26.1965 12.3792 25.8051 11.2053C24.7534 8.14797 22.4544 7.97676 22.3565 7.9523H22.0386L22.0141 7.58543C22.0141 7.48759 21.8184 5.21297 18.7856 4.13681C16.5354 3.35414 15.4837 2.62039 15.019 2.13123C14.5299 2.62039 13.5026 3.35414 11.2525 4.13681C8.19517 5.18851 8.02397 7.48759 8.02397 7.58543L7.99951 7.9523L7.63263 7.97676C7.5348 7.97676 5.26018 8.17242 4.18402 11.2297C3.76822 12.4037 3.35243 13.3576 2.91218 14.0669C2.59423 14.5071 2.34964 14.8006 2.12952 14.9963Z"
          stroke="#364150" stroke-width="0.02" mask="url(#path-1-inside-1_1051_238)"/>
    <path fill-rule="evenodd" clip-rule="evenodd"
          d="M15.3698 28.1375C15.2527 28.5125 14.7375 28.4891 14.6204 28.1375V28.1141C14.6204 28.1141 14.1755 27.2234 11.1312 26.1453C8.34456 25.1843 7.68887 23.2624 7.52495 22.489C6.75217 22.3249 4.80852 21.6686 3.8484 18.8795C2.79461 15.8091 1.88133 15.3873 1.85791 15.3638C1.48323 15.2466 1.48323 14.731 1.85791 14.6138H1.88133C1.88133 14.6138 2.20917 14.4497 2.70094 13.6763C3.09904 13.0435 3.47372 12.1997 3.8484 11.1215C4.80852 8.35587 6.75217 7.69961 7.52495 7.53554C7.68887 6.76209 8.34456 4.81674 11.1078 3.85578C14.1755 2.80107 14.597 1.88699 14.6204 1.86355C14.7375 1.48855 15.2527 1.48855 15.3698 1.86355V1.88699C15.3698 1.88699 15.8147 2.80107 18.859 3.85578C21.6457 4.81674 22.3014 6.76209 22.4653 7.53554C23.2381 7.69961 25.1817 8.35587 26.1419 11.1215C26.5165 12.1763 26.8912 13.0435 27.2893 13.6763C27.7811 14.4732 28.1089 14.6372 28.1323 14.6372C28.507 14.7544 28.4836 15.2701 28.1323 15.3873C28.0621 15.4341 27.1722 15.9498 26.1653 18.8795C25.2052 21.6686 23.2615 22.3249 22.4887 22.4655C22.3248 23.239 21.6691 25.1843 18.9059 26.1453C15.7913 27.2234 15.3698 28.1375 15.3698 28.1375ZM4.59776 18.6217C3.8484 16.4654 3.14587 15.481 2.67752 15.0122C2.88828 14.8247 3.12246 14.5435 3.42688 14.1216C3.8484 13.4419 4.2465 12.5278 4.64459 11.4028C5.67496 8.47306 7.85279 8.28555 7.94646 8.28555L8.29772 8.26212L8.32114 7.91055C8.32114 7.8168 8.48506 5.61363 11.4123 4.6058C13.5667 3.85578 14.5502 3.15264 15.0185 2.68388C15.4635 3.15264 16.4704 3.85578 18.6248 4.6058C21.5286 5.63707 21.716 7.8168 21.716 7.91055L21.7394 8.26212H22.0438C22.1375 8.28555 24.3387 8.44962 25.3457 11.3794C25.7203 12.5044 26.1419 13.4185 26.5634 14.0982C26.8444 14.5435 27.0786 14.8247 27.2659 15.0122C26.7975 15.4576 26.095 16.4654 25.3457 18.6217C24.3153 21.528 22.1375 21.7155 22.0438 21.7155L21.6925 21.7389L21.6691 22.0905C21.6691 22.114 21.5286 24.364 18.578 25.3953C16.4236 26.1453 15.4401 26.8484 14.9717 27.3172C14.5268 26.8484 13.5198 26.1453 11.3654 25.3953C8.46165 24.364 8.27431 22.1843 8.27431 22.0905L8.25089 21.7389L7.89963 21.7155C7.87621 21.7155 5.62813 21.5749 4.59776 18.6217Z"
          stroke="#364150" stroke-width="0.02" mask="url(#path-1-inside-1_1051_238)"/>
</svg>
