<svg width="305" height="52" viewBox="0 0 305 52" fill="none" xmlns="http://www.w3.org/2000/svg">
<g opacity="0.1">
<path d="M304.025 26C304.025 26.1733 303.938 26.3467 303.851 26.52C303.851 26.52 301.682 29.4667 302.029 34.2333C302.55 41.5133 300.294 45.8467 295.696 46.28C294.221 46.3667 294.048 46.9733 293.701 48.0133C293.007 50.0933 291.966 52 286.5 52L18.5 51.9998C13.0344 51.9998 11.9933 50.0931 11.2992 48.0131C10.9522 46.8864 10.7787 46.3664 9.30386 46.2798C4.7058 45.9331 2.36339 41.5131 2.97068 34.2331C3.31771 29.4664 1.14881 26.5198 1.14881 26.5198C0.888545 26.1731 0.888545 25.8265 1.14881 25.4798C1.14881 25.3931 3.31771 22.4464 2.97068 17.7664C2.45015 10.4864 4.7058 6.15309 9.30385 5.71975C10.7787 5.63309 10.9522 5.02642 11.2992 3.98642C11.9933 1.90642 13.0344 -0.000240854 18.5 -0.000241093L286.5 6.59186e-06C291.966 6.35295e-06 293.007 1.90666 293.701 3.98666C294.048 5.11333 294.221 5.63333 295.696 5.72C300.294 6.06666 302.637 10.4867 302.029 17.7667C301.682 22.5333 303.851 25.48 303.851 25.48C303.938 25.6533 304.025 25.8267 304.025 26ZM300.207 33.1067C300.207 29.5533 301.422 26.9533 302.029 26C301.335 24.8733 299.86 21.9267 300.207 17.5933C300.468 13.9533 300.207 7.8 295.436 7.45333C292.746 7.28 292.313 5.72 291.879 4.50667C291.445 3.12 291.011 1.73334 286.326 1.73334L18.5 1.73309C13.9019 1.73309 13.4681 3.11975 12.9476 4.50642C12.6006 5.71975 12.08 7.27975 9.39061 7.45309C4.61904 7.88642 4.44553 13.9531 4.7058 17.5931C5.05282 21.8398 3.57797 24.8731 2.88393 25.9998C3.57797 27.1265 5.05282 30.1598 4.7058 34.4064C4.44553 37.9598 4.61904 44.1131 9.47737 44.5464C12.1668 44.7198 12.6006 46.2798 13.0344 47.4931C13.4681 48.8798 13.9019 50.2664 18.5867 50.2664L286.587 50.2667C291.098 50.2667 291.532 48.88 291.966 47.4933C292.313 46.28 292.833 44.72 295.523 44.5467C300.294 44.2 300.554 38.0467 300.294 34.4067C300.207 33.9733 300.207 33.54 300.207 33.1067Z" fill="white"/>
<path d="M300.294 26L300.294 26.0867C299.6 27.56 298.733 29.9867 298.733 33.1067C298.733 33.54 298.733 33.9733 298.819 34.4067C298.906 35.0133 298.906 35.62 298.906 36.2267C298.906 40.4733 297.778 42.7267 295.523 42.9C291.792 43.16 291.011 45.76 290.577 46.9733C290.23 48.1 289.883 48.62 286.587 48.62L18.5 48.6198C15.2032 48.6198 14.8562 48.0131 14.5092 46.9731C14.1622 45.7598 13.2946 43.2464 9.56412 42.8998C7.30847 42.8131 6.18065 40.5598 6.18065 36.3131C6.18065 35.7064 6.18065 35.0998 6.2674 34.4931C6.2674 34.0598 6.35416 33.6264 6.35416 33.1931C6.35416 29.9864 5.4866 27.6465 4.79256 26.1731C4.79256 26.0865 4.79256 25.9998 4.79256 25.9998C5.4866 24.5265 6.35416 22.0998 6.35416 18.9798C6.35416 18.5464 6.35416 18.1131 6.2674 17.6798C6.18065 16.8998 6.18065 16.2931 6.18065 15.6864C6.18065 11.4398 7.30847 9.18642 9.56412 9.01309C13.2946 8.75309 14.0754 6.15309 14.5092 4.93976C14.8562 3.81309 15.2032 3.29309 18.5 3.29309L286.5 3.29333C289.797 3.29333 290.144 3.9 290.491 4.94C290.838 6.15333 291.705 8.66667 295.436 9.01333C297.691 9.18667 298.819 11.44 298.819 15.6867C298.819 16.2933 298.819 16.9 298.733 17.5067C298.733 17.94 298.646 18.3733 298.646 18.8067C298.646 22.0133 299.513 24.3533 300.207 25.8267C300.294 25.9133 300.294 26 300.294 26ZM298.212 33.1067C298.212 29.9 299.08 27.4733 299.774 25.9133C299.08 24.3533 298.212 21.9267 298.212 18.72C298.212 18.2867 298.212 17.7667 298.299 17.3333C298.385 16.7267 298.385 16.12 298.385 15.6C298.385 11.6133 297.344 9.53333 295.436 9.36C291.474 9.01586 290.59 6.36575 290.153 5.05535C290.15 5.04571 290.147 5.03615 290.144 5.02666C289.883 4.16 289.71 3.64 286.587 3.64L18.5 3.63975C15.29 3.63975 15.2032 4.15976 14.943 5.02642C14.5092 6.32642 13.6416 9.09976 9.65088 9.35976C7.65549 9.53309 6.70118 11.6131 6.70118 15.5998C6.70118 16.2064 6.70118 16.7264 6.78794 17.3331C6.78794 17.7664 6.87469 18.2864 6.87469 18.7198C6.87469 21.9264 6.00714 24.3531 5.31309 25.9131C6.00714 27.4731 6.87469 29.8998 6.87469 33.1064C6.87469 33.5398 6.87469 34.0598 6.78794 34.4931C6.70118 35.0998 6.70118 35.7064 6.70118 36.2264C6.70118 40.2131 7.74225 42.2931 9.65088 42.4664C13.6125 42.8106 14.4964 45.4607 14.9334 46.7711C14.9366 46.7807 14.9398 46.7903 14.943 46.7998C15.2032 47.6664 15.3768 48.1864 18.5 48.1864L286.5 48.1867C289.71 48.1867 289.797 47.6667 290.057 46.8C290.063 46.7816 290.069 46.7628 290.076 46.7438C290.516 45.4219 291.415 42.723 295.349 42.4667C297.344 42.2933 298.299 40.2133 298.299 36.2267C298.299 35.7067 298.299 35.1 298.212 34.4933C298.212 34.06 298.212 33.6267 298.212 33.1067Z" fill="white"/>
<path d="M298.212 33.1067C298.212 29.9 299.08 27.4733 299.774 25.9133C299.08 24.3533 298.212 21.9267 298.212 18.72C298.212 18.2867 298.212 17.7667 298.299 17.3333C298.385 16.7267 298.385 16.12 298.385 15.6C298.385 11.6133 297.344 9.53333 295.436 9.36C291.474 9.01586 290.59 6.36575 290.153 5.05535L290.144 5.02666C289.883 4.16 289.71 3.64 286.587 3.64L18.5 3.63975C15.29 3.63975 15.2032 4.15976 14.943 5.02642C14.5092 6.32642 13.6416 9.09976 9.65088 9.35976C7.65549 9.53309 6.70118 11.6131 6.70118 15.5998C6.70118 16.2064 6.70118 16.7264 6.78794 17.3331C6.78794 17.7664 6.87469 18.2864 6.87469 18.7198C6.87469 21.9264 6.00714 24.3531 5.31309 25.9131C6.00714 27.4731 6.87469 29.8998 6.87469 33.1064C6.87469 33.5398 6.87469 34.0598 6.78794 34.4931C6.70118 35.0998 6.70118 35.7064 6.70118 36.2264C6.70118 40.2131 7.74225 42.2931 9.65088 42.4664C13.6125 42.8106 14.4964 45.4607 14.9334 46.7711L14.943 46.7998C15.2032 47.6664 15.3768 48.1864 18.5 48.1864L286.5 48.1867C289.71 48.1867 289.797 47.6667 290.057 46.8L290.076 46.7438C290.516 45.4219 291.415 42.723 295.349 42.4667C297.344 42.2933 298.299 40.2133 298.299 36.2267C298.299 35.7067 298.299 35.1 298.212 34.4933L298.212 33.1067Z" fill="white"/>
</g>
</svg>
