<svg viewBox="0 -400 1250 1625" xmlns="http://www.w3.org/2000/svg" xmlns:xlink="http://www.w3.org/1999/xlink">
 <defs>
  <linearGradient id="g" x1="0" x2="0" y1="0.15" y2="0.9">
   <stop stop-color="#dddda6" offset="0"/>
   <stop stop-color="#948a6a" offset="1"/>
  </linearGradient>
 </defs>
 <circle r="605" stroke="#000" cx="625" cy="421" stroke-width="30" fill="#67cdfa"/>
 <circle r="510" stroke="#000" cx="625" cy="421" stroke-width="30" fill="#ceddd6"/>
 <g id="header">
  <path stroke="#000" stroke-width="30" fill="url(#g)" d="m1006.2,46.902c96.075,45.999,160.74,23.972,201.66-30.111-83.3-13.413-157.3-96.153-229.57-148.02-157.22-112.81-249.67-57.8-353.51-236.32-103.83,178.49-196.28,123.48-353.5,236.29-72.29,51.864-146.26,134.6-229.5,148.02,40.928,54.082,105.59,76.11,201.66,30.11,107.34,116.17,142.73-192.06,381.34,10.364,238.62-202.39,274.01,105.84,381.38-10.33z"/>
  <circle r="69" cx="625" cy="-127" fill="#000"/>
  <path id="repu" d="M466.92-110.36c-75.47,27.435-114,46.932-165.42,83.529" stroke="#000" stroke-linecap="round" stroke-width="43"/>
  <use xlink:href="#repu" transform="translate(1248,0) scale(-1,1)"/>
 </g>
 <use xlink:href="#header" transform="translate(0,825) scale(1,-1)"/>
</svg>