<?xml version="1.0" encoding="utf-8"?>
<!-- Generator: Adobe Illustrator 25.2.0, SVG Export Plug-In . SVG Version: 6.00 Build 0)  -->
<svg version="1.2" baseProfile="tiny" id="Layer_1" xmlns="http://www.w3.org/2000/svg" xmlns:xlink="http://www.w3.org/1999/xlink"
	 x="0px" y="0px" viewBox="0 0 523.5 70.1" overflow="visible" xml:space="preserve">
<g>
	<path d="M139.8,0c1,0.2,2.1,0.4,3.1,0.8c0.9,0.3,1.8,0.8,2.6,1.3c-1.2,3.7-4.5,5.6-9.3,5.3c1.6-1.1,3.1-2,4.7-3.1
		c-2.6-1.1-4.9-0.7-7.2,0c0.4-2.1,1.8-3.6,3.8-4c0.3-0.1,0.6-0.2,0.9-0.3C138.8,0,139.3,0,139.8,0z" fill="#333333"/>
	<path d="M490.1,35.3c0,0.7,0,1.3-0.1,2c-0.3,1.3,0.1,2.2,1.4,2.7c3.6,1.6,8.1,0.1,10.2-3.4c0.3-0.5,0.6-0.9,0.9-1.5
		c1,0.5,0.7,1.4,0.7,2.1c0,2.2,0.8,2.8,2.7,1.6c0.9-0.6,1.6-1.7,2.2-2.7c0.5-0.8,0.9-1.7,1.4-2.5c0.2,0,0.4,0.1,0.5,0.1
		c0,0.7,0,1.4,0,2c-0.1,0.8,0.2,1.3,0.9,1.4c1.5,0.3,3,0.7,4.4,0.8c1.2,0.1,2-0.6,1.9-1.8c-0.1-1.2-0.4-2.4-0.9-3.5
		c-0.7-1.5-1.6-2.9-2.6-4.3c-0.2-0.3-0.7-0.6-1.1-0.7c-2-0.2-3.3-1.3-4-3.1c-1.2-2.9-0.7-6.4,1.2-8.4c0.7,0.5,1.5,1,2.1,1.6
		c4.9,4.7,8,10.3,8.1,17.2c0,1.2-0.3,2.5-0.7,3.7c-1.3,4-4.7,5.6-8.7,4c-0.9-0.4-1.7-0.8-2.6-1.2c-3,3.6-5.6,4.1-8.8,1.7
		c-2.2,2.4-5.1,2.9-8.2,2.7c-1.6-0.1-2.9-0.9-3.9-2c-0.5-0.5-0.9-0.5-1.5-0.3c-11.2,4.3-22.9,6.8-34.7,8.8
		c-10.3,1.7-20.6,3.3-30.9,4.5c-12.7,1.5-25.4,2.7-38.2,3.7c-18.1,1.4-36.3,1.7-54.5,1.4c-12-0.2-23.9-0.6-35.8-1.9
		c-11.3-1.2-22.5-2.7-33.6-5.2c-0.9-0.2-1.8-0.5-2.7-0.8c-0.9-0.3-1.7-0.7-2.6-1.1c-0.2,0.3-0.4,0.6-0.5,0.9c-1.1,2-1.8,2.4-4.1,1.9
		c-1.7-0.4-3.5-0.9-5.2-1.4c-0.6,0.9-1.2,1.9-1.8,2.8c-1.9,2.7-4.5,4.3-7.8,4.5c-2.4,0.2-4.9,0-7.4-0.2c1-0.5,2-0.9,3-1.4
		c3.1-1.6,6.1-3.2,9.2-4.9c1.1-0.6,1.8-1.3,1.1-2.8c-0.4-1-0.3-2.5,0-3.6c0.6-2.4,1.4-4.8,3.7-6.2c1.6-1,1.9-1,3.3,0.3
		c3.9,3.7,8.7,5.7,13.8,6.9c4.6,1.1,9.3,1.8,14,2.6c9.6,1.7,19.2,2.9,28.9,3.3c11.1,0.5,22.3,1,33.4,1c13.8,0,27.7-0.3,41.5-1
		c11.1-0.5,22.2-1.6,33.2-2.8c9.6-1,19.1-2.2,28.6-3.6c13.5-2,26.9-4.5,40-8.6c3.7-1.2,7.3-2.7,10.2-5.4
		C489.8,35.2,490,35.2,490.1,35.3z M243.6,46c-0.5,0.8-0.9,1.6-1.5,2.5c2,0.5,3.7,0.9,5.4,1.3c0-0.1,0.1-0.2,0.1-0.3
		C246.3,48.4,245,47.3,243.6,46z" fill="#333333"/>
	<path d="M23,51.7c-0.1,0.2-0.2,0.4-0.3,0.6c-0.9,1.6-1.7,2-3.5,1.6c-1.5-0.3-3-0.7-4.5-1.1c-3.3,7-8.9,6.6-14.6,6
		c1.3-0.6,2.4-1.1,3.5-1.6c2.5-1.3,4.9-2.7,7.3-4c0.7-0.4,1-0.9,0.6-1.9c-1.1-3.1,1.1-8,4-9.1c0.4-0.1,1.1-0.1,1.3,0.2
		c3.7,4.2,8.5,6.2,14,6.6c5.4,0.3,10.7,0.6,15.9-1.1c2.8-0.9,5.4-2.3,8.2-3.5c0,0.4-0.1,1.1-0.2,1.8c4.3,1.1,7.9-0.7,11.7-2.5
		c-4.3-3-9-3.8-14.2-2.9c1.1-2.4,2.3-4.4,4.5-5.5c1.3-0.7,2.7-0.5,4.1,0.1c1.6,0.7,3.3,1.5,4.9,2.3c4.6,2.3,9.5,3.3,14.7,3.6
		c0.5,0,1,0.1,1.4,0.1c0.1,0,0.1,0.1,0.3,0.2c-0.7,1.2-1.4,2.3-2.1,3.4c-0.2,0.3-0.7,0.4-1.1,0.4c-2.1,0-4.2-0.1-6.2,0
		c-1.1,0.1-2.3,0.2-3.4,0.6c-2.9,1.1-5.9,2.3-8.7,3.6c-2.4,1.1-4.8,1.1-7.2,0.2c-0.4-0.1-0.9-0.2-1.2,0c-3.7,1.7-7.6,2.3-11.6,2.8
		c-2,0.3-4.1,0.3-6.1,0.4c-0.3,0-0.7,0.1-1.4,0.1c1.2,0.9,2.1,1.6,3.1,2.2c5.3,3.3,11.2,5.4,17.2,7c7.6,2,15.2,3.4,23.1,3.2
		c13.5-0.3,26.5-3.3,39-8.4c2.5-1,4.8-2.5,6.9-4.2c2.6-2.1,2.6-4.4,0.2-6.9c-0.6-0.6-0.7-1.1-0.4-1.9c0.5-1.3,0.9-2.6,1.5-4.2
		c1,1.1,1.8,2,2.6,2.9c0.3,0.3,0.7,0.7,1.1,0.8c1.8,0.5,4.3-0.6,5.3-2.2c0.6-0.9,1.1-1.7,1.6-2.7c0.9-1.7,2.3-2.7,4-3.3
		c2.5-0.9,5.1-1.6,7.8-2.5c-3.9-1.2-7.7-1.9-11.8-0.7c-0.1-1.6,0.5-3,1.5-4.1c2.4-2.6,5.4-3.3,8.7-2c3.3,1.3,6.6,2.8,10,4.1
		c3.5,1.4,7.1,2.6,11,2.9c-0.7,1.2-1.2,2.4-1.9,3.4c-0.2,0.3-0.8,0.5-1.2,0.5c-1.7-0.1-3.3-0.3-5-0.5c-5.3-0.6-10.4,0-15.6,1.1
		c-0.2,0-0.4,0.1-0.5,0.2c1.8,2.7,2.3,5.4,0.5,8.3c-1,1.6-1.9,2.1-3.8,1.5c-1.9-0.6-3.7-1.5-5.5-2.2c-1.3,2.6-1.6,2.7-4.8,3.2
		c-0.2,0.8-0.3,1.7-0.6,2.5c-0.9,2.9-2.7,5.1-5.1,6.9c-5.8,4.2-12.3,6.6-19.1,8.5c-10.5,2.9-21.3,3.9-32.2,3.1
		C58.8,69,47.7,66,37.4,60c-3-1.7-5.6-3.8-7.9-6.4c-0.4-0.4-1-0.7-1.6-0.9C26.4,52.4,24.7,52.1,23,51.7z M13.8,47.9
		c1.7,0.4,3.1,0.7,4.5,1c0-0.1,0-0.2,0.1-0.3c-1-0.9-2-1.9-3.1-2.9C14.8,46.4,14.4,47,13.8,47.9z M135.8,41.1c0,0.2,0,0.4,0.1,0.7
		c1.3,0.4,2.5,0.8,4.1,1.3c-0.5-1.4-0.9-2.5-2.1-2.7C137.2,40.3,136.4,40.8,135.8,41.1z" fill="#333333"/>
	<path d="M202.5,32.8c0.4,2.9,0.7,5.9,1.1,8.8c0.2,1.3,0.5,2.6,0.9,3.8c0.4,1.3,1.4,1.9,2.7,2.1c2.9,0.4,5.9-2,5.6-4.9
		c-0.2-2.4-0.9-4.7-1.4-7.1c-0.1-0.8-0.2-1.7,0-2.5c0.3-1.4,0.8-2.7,1.3-4.2c0.9,3.2,1.6,6.1,2.4,9.1c0.2,0.8,0.4,1.7,0.7,2.5
		c1.1,3,3.7,4.5,7,3.9c-0.2-0.5-0.5-1-0.7-1.5c-1.5-3.2-3-6.4-4.4-9.7c-0.1-0.3-0.2-0.6-0.1-0.9c0.5-1.7,1.1-3.3,1.7-5.3
		c0.7,1.6,1.1,3,1.7,4.3c1.3,2.8,2.7,5.6,3.9,8.5c1.4,3.6,0.5,7-1.1,10.3c-0.1,0.3-0.7,0.5-1.1,0.5c-2.8,0.2-5.2-0.9-7.3-2.7
		c-0.3-0.3-0.6-0.5-1-0.9c-1.3,4.1-3.9,6.3-8.2,6.1c-2.3-0.1-3.1-1.1-5-5.4c-0.2,0.2-0.4,0.4-0.5,0.6c-2.1,2.7-5.9,4-9.2,3
		c-0.2,0-0.3-0.1-0.5-0.1c-2.2-0.5-2.4-0.8-1.6-2.9c0.8-2.3,2.1-4.3,4.2-5.7c2-1.2,4-2.3,6-3.4c0.6-0.3,1-0.6,0.7-1.3
		c-0.5-1.2,0-2.1,0.6-3.1c0.4-0.6,0.8-1.3,1.2-2C202.2,32.8,202.3,32.8,202.5,32.8z M194.4,46.2c0.1,0.2,0.1,0.3,0.2,0.5
		c1.5-0.2,3.1-0.3,4.5-0.7c2.1-0.6,2.4-1.8,1.3-3.8C198,43,196,44.2,194.4,46.2z" fill="#333333"/>
	<path d="M163.1,50.4c-2.9-2.5-2.6-4.9-0.8-7.4c1.4,2.6,3.7,2.6,6.1,1.8c2.1-0.6,2.5-1.3,2.1-3.4c-0.5-2.8-1.1-5.6-1.7-8.4
		c-0.8-4.2-1.7-8.4-2.6-12.6c-0.1-0.3-0.1-0.7-0.3-0.9c-1.5-2.1-1.2-4.4-0.2-6.5c0.4-0.9,1.1-1.6,2.3-1.7c0.1,0.7,0.1,1.3,0.2,2
		c0.2,1.7,1.1,2.9,2.6,3.8c0.5,0.3,1.3,0.9,1.2,1.3c-0.2,1.1-0.3,2.3-1.5,2.9c-0.1,0-0.2,0.1-0.4,0.2c0.9,4.7,1.8,9.4,2.7,14
		c0.6,2.9,1,5.9,0.3,8.9c-0.8,3.5-2.6,5.2-6.1,5.6c-0.7,0.1-0.9,0.5-1.1,1c-0.8,2.2-1.4,4.4-2.6,6.4c-4.1,7.1-12,8.1-18.1,4.3
		c-2.3-1.4-3.8-3.5-4-6.3c0-0.2,0-0.4,0-0.6c0-0.1,0.1-0.1,0.2-0.3c0.2,0.3,0.4,0.5,0.5,0.8c2.4,4.9,6.9,6.1,11.9,4.5
		C158.4,58.2,161.1,54.7,163.1,50.4z" fill="#333333"/>
	<path d="M21.2,36.7c1-2.4,2-4.5,4.3-5.5c16.6-6.9,33.1-13.8,50-19.9c2.3-0.8,4.6-1.9,7.2-3c-1.3,1.8-2.5,3.3-3.6,4.8
		c-0.2,0.3-0.6,0.4-0.9,0.5C59.6,21.1,41,28.7,22.4,36.3C22.1,36.4,21.8,36.5,21.2,36.7z" fill="#333333"/>
	<path d="M91.4,17.4c0.2,0.8,0.3,1.6,0.5,2.4c0.3,1.4,1.3,2.1,2.5,2.7c0.7,0.4,0.9,0.9,0.5,1.5c-0.4,0.8-0.8,1.5-1.3,2.2
		c-0.1,0-0.2-0.1-0.3-0.1c0.6,4.3,1.3,8.6,1.9,12.9c0.4,2.4,0,4.6-0.9,6.8c-0.7,1.9-2.4,2.6-4.3,2.8c-0.8,0.1-1.2,0.4-1.4,1.2
		c-1,3-2.6,5.5-5.1,7.5c-3.8,2.9-10.4,2.6-13.9-0.8c-0.1-0.1-0.2-0.3-0.4-0.6c7.3,1.8,12.9-0.6,16.8-6.3c-0.6-1.4-1.3-2.5-1.5-3.6
		c-0.1-1,0.4-2.1,0.8-3.2c1.5,2.3,3.5,2.1,5.6,1.5c1.6-0.5,1.9-1,1.7-2.6c-0.5-3.1-1-6.1-1.5-9.2c-0.4-2.2-0.7-4.3-1.1-6.5
		c-0.1-0.7-0.4-1.3-0.7-1.9C88.3,22,89,17.5,91.4,17.4z" fill="#333333"/>
	<path d="M182.3,47.8c-1.5-8.3-3.1-16.7-4.7-25.1c0-0.2-0.1-0.5,0-0.7c0.7-2.4,1.4-4.7,2.2-7c0.6,3.2,1.2,6.5,1.8,9.7
		c1,5.3,2,10.5,3,15.8C185.1,42.6,183.8,46.3,182.3,47.8z" fill="#333333"/>
	<path d="M231.4,47.8c-0.9-5-1.7-10-2.7-15c-0.6-3.2-1.3-6.5-1.9-9.7c-0.1-0.3-0.2-0.7-0.1-1.1c0.6-2.4,1.3-4.8,2.2-7.2
		c1.3,6.7,2.6,13.3,3.9,20c0.3,1.5,0.6,3,0.9,4.6c0.5,3-0.4,5.7-2.1,8.2C231.5,47.8,231.4,47.9,231.4,47.8z" fill="#333333"/>
	<path d="M100.3,20.6c1.4,7.2,2.7,14.2,4.1,21.2c0.5,2.4-0.2,4.7-1.4,6.7c-0.2,0.2-0.4,0.4-0.5,0.6c-1-5.5-2-11-3-16.5
		c0-0.2-0.1-0.5-0.1-0.7C98,28,98.6,24.3,100.3,20.6z" fill="#333333"/>
	<path d="M222.5,10.5c0.3-1.8,1.1-3.2,2.6-4.2c0.7-0.5,1.5-0.7,2.4-0.3c1,0.5,1.7,0.3,2.4-0.8c0.7-1,1.6-2,2.6-2.8
		c0.9-0.8,2.1-0.9,3.2-0.2c1.1,0.7,1.1,1.8,0.9,3c-0.9,3.8-5.8,5.9-9.2,3.8c-1.1-0.7-2-0.4-2.9,0.1C223.8,9.6,223.2,10.1,222.5,10.5
		z M231.1,6.4c0.1,0.2,0.2,0.3,0.3,0.5c0.8-0.3,1.7-0.4,2.5-0.8c0.3-0.1,0.3-0.6,0.5-1c-0.4-0.1-0.9-0.5-1.1-0.3
		C232.4,5.3,231.7,5.9,231.1,6.4z" fill="#333333"/>
	<path d="M173.7,10.3c0.7-2.2,1.7-3.9,3.7-4.7c0.4-0.2,1.1,0,1.6,0.1c1.1,0.4,1.7,0.2,2.4-0.8c0.7-1.1,1.7-2.1,2.8-2.9
		c0.9-0.7,2.1-0.7,3.1,0c1,0.7,1,1.8,0.8,2.9c-0.3,1.7-1.2,2.8-2.8,3.5c-2.3,1-4.5,1.7-7,0.1c-0.5-0.3-1.5,0-2.2,0.2
		C175.3,9.2,174.6,9.7,173.7,10.3z M182.5,6.2c0.1,0.1,0.1,0.3,0.2,0.4c0.8-0.2,1.6-0.4,2.3-0.7c0.3-0.1,0.5-0.7,0.8-1
		c-0.5-0.1-1.1-0.5-1.4-0.3C183.7,5,183.1,5.6,182.5,6.2z" fill="#333333"/>
	<path d="M487.2,11.5c0.4-2.3,2-3.9,4.2-4.2c2.4-0.3,4.6,0.2,6.7,1.3c0.8,0.5,1.1,0.9,0.5,1.9c-1.8,3-5,4.6-9,4.1
		c1.7-1.1,3.2-2,4.6-3C491.9,10.4,489.6,10.4,487.2,11.5z" fill="#333333"/>
	<path d="M213.2,16.8c1.9,1.7,2.1,3.6,1.2,5.8c-1,2.3-2.5,2.7-4.8,1.4c-1.6,2-3.3,2.6-4.6,1.5c-1.6-1.3-2-4.2-0.5-6
		c0.2,0.6,0.2,1,0.4,1.4c0.3,0.6,0.7,1.4,1.2,1.7c1.2,0.6,1.9,0.1,2.2-1.3c0.1-0.5,0-1.1,0.1-1.7c0.1-0.5,0.3-0.9,0.7-1.4
		c0.2,0.7,0.3,1.6,0.7,2.2c0.4,0.6,1,1.2,1.6,1.4c1.1,0.3,1.9-0.6,1.2-1.6C211.8,18.9,212.6,17.9,213.2,16.8z" fill="#333333"/>
	<path d="M154.4,14.1c0.4,1.1,0.6,1.8,0.9,2.4c0.3,0.5,0.7,1,1.1,1.3c0.4,0.2,1.2,0.1,1.5-0.1c0.2-0.2,0.3-1,0.1-1.4
		c-0.9-1.3,0-2.3,0.6-3.3c2.1,2,2.3,4.6,0.6,6.7c-1.1,1.4-2.3,1.5-4.2,0.4c-1.5,2.1-3.1,2.6-4.5,1.6c-1.6-1.2-2-4.2-0.6-6
		c0.2,0.6,0.3,1,0.4,1.4c0.2,1.2,0.7,1.6,1.9,1.7c1.2,0.1,1.6-0.6,1.7-1.6c0.1-0.5,0-1.1,0.1-1.7C153.9,15.1,154.2,14.8,154.4,14.1z
		" fill="#333333"/>
	<path d="M96.9,17.1c0.3-2.6,2.4-4.1,4.8-3.6c0.4,0.1,1-0.2,1.3-0.6c0.8-0.8,1.4-1.8,2.2-2.5c0.9-0.8,1.9-1,3-0.3
		c1.1,0.7,1,1.7,0.8,2.8c-0.2,1.1-0.8,2-1.8,2.5c-2.1,1.2-4.2,1.8-6.6,0.4c-0.4-0.3-1.3,0-1.9,0.2C98.1,16.2,97.5,16.7,96.9,17.1z
		 M104.3,13.5c0.1,0.2,0.1,0.3,0.2,0.5c0.7-0.2,1.5-0.4,2.2-0.7c0.2-0.1,0.3-0.5,0.4-0.7c-0.3-0.1-0.7-0.4-0.9-0.3
		C105.5,12.6,104.9,13.1,104.3,13.5z" fill="#333333"/>
	<path d="M146,10.6c1.4-2.1,2.9-3.5,5.1-4.3c3.8-1.5,7.6-3.4,11.3-5.1c0.1,0.1,0.2,0.2,0.3,0.2c-0.7,0.9-1.3,2.1-2.2,2.7
		c-4,2.7-8.3,5-13.1,6.2C147.1,10.5,146.6,10.5,146,10.6z" fill="#333333"/>
	<path d="M60.4,58.2c-1-0.7-1.9-1.3-2.9-2c-0.8,0.9-1.6,1.8-2.4,2.8c-1.3-1.1-2.5-2.1-3.7-3c0.9-0.9,1.7-1.8,2.6-2.8
		c0.7,0.5,1.4,1,2.1,1.3c0.3,0.1,0.9,0.1,1.2-0.1c0.8-0.6,1.4-1.3,2.2-2c1.3,0.8,2.6,1.6,4,2.5C62.4,56,61.5,57.1,60.4,58.2z" fill="#333333"/>
	<path d="M115.5,69.6c1.4-1.8,2.5-3.3,4.6-4.1c3.7-1.4,7.1-3.1,10.7-4.7c0.4-0.2,0.7-0.3,1.1-0.5c0.1,0.1,0.2,0.2,0.3,0.2
		c-0.7,0.9-1.2,2.1-2.2,2.7c-4,2.7-8.3,5-13,6.2c-0.3,0.1-0.5,0.1-0.8,0.2C116,69.6,115.8,69.6,115.5,69.6z" fill="#333333"/>
	<path d="M215.2,7.2c-0.7,0.9-1.2,2-2,2.6c-4.4,3.1-9.1,5.5-14.5,6.5c1.1-1.3,1.8-2.9,3.6-3.7c3.9-1.6,7.8-3.5,11.6-5.2
		c0.3-0.2,0.7-0.3,1-0.5C215,7.1,215.1,7.1,215.2,7.2z" fill="#333333"/>
	<path d="M183.2,64.9c1.5-1.8,2.7-3.2,4.7-4c4-1.6,7.9-3.5,11.9-5.4c-0.3,1.3-1,2.3-1.9,3c-4,2.7-8.3,5.1-13.1,6.2
		C184.4,64.8,183.9,64.8,183.2,64.9z" fill="#333333"/>
	<path d="M75.6,26.9c0.1,0.5,0.2,0.9,0.2,1.2c0.2,1.2,0.7,1.6,1.8,1.6c1.2,0,1.1-0.9,1.2-1.7c0.1-0.7,0.2-1.4,0.3-2.1
		c0.1,0,0.2,0,0.4,0c0.2,0.7,0.4,1.4,0.7,2c0.3,0.5,0.8,0.9,1.2,1.1c0.3,0.1,0.9,0,1.2-0.3c0.2-0.2,0.1-0.7,0-1.1
		c-0.5-1.4-0.5-1.5,0.4-2.9c2,1.4,1.8,3.9,0.6,5.6c-0.9,1.4-2,1.5-3.7,0.6c-1.6,1.7-3.1,2.1-4.2,1.1C74.5,30.9,74.3,28.4,75.6,26.9z
		" fill="#333333"/>
	<path d="M523.5,56c-0.7,1.5-1.4,2.6-2.7,3.4c-3.9,2.2-8,3.4-12.7,4.5c1.5-1.6,2.3-3.3,4.4-4C516.2,58.8,519.7,57.4,523.5,56z" fill="#333333"/>
	<path d="M255.6,60.4c-0.7,0.9-1.3,2.1-2.2,2.7c-4,2.4-8.3,3.7-13.1,4.9c1.5-1.8,2.4-3.4,4.7-4.1c3.5-1,6.9-2.4,10.3-3.7
		C255.4,60.2,255.5,60.3,255.6,60.4z" fill="#333333"/>
	<path d="M126.7,20.5c3.7,2.8,5.3,9.9,2.8,12.9c-0.2-0.5-0.3-0.9-0.4-1.4c-0.6-2.6-1.6-5-3.1-7.1c-0.6-0.8-0.7-1.5-0.1-2.4
		C126.1,21.9,126.3,21.2,126.7,20.5z" fill="#333333"/>
	<path d="M119.1,16.3c1.4-2,2.8-3.4,4.9-4.2c3.2-1.2,6.2-2.9,9.3-4.3c0.1,0.1,0.2,0.1,0.3,0.2c-0.7,0.9-1.2,2.1-2.1,2.7
		C127.9,13.3,123.7,15.1,119.1,16.3z" fill="#333333"/>
	<path d="M65.9,55.3c1.1-1.7,2.2-2.9,4.1-3.6c3.4-1.4,6.8-3,10.4-4.4c-0.6,0.8-1.1,1.9-1.8,2.4c-3.6,2.4-7.4,4.4-11.6,5.5
		C66.6,55.3,66.3,55.3,65.9,55.3z" fill="#333333"/>
	<path d="M26.9,56.4c-0.6,0.8-1.1,1.8-1.9,2.3c-3.7,2.5-7.6,4.6-12,5.5c-0.1,0-0.3,0-0.7,0.1c1.2-1.5,2.1-2.9,3.9-3.6
		c3.5-1.4,6.9-3.1,10.3-4.6C26.8,56.2,26.9,56.3,26.9,56.4z" fill="#333333"/>
	<path d="M517.9,51.4c-0.9,1.3-1.7,2.5-2.6,3.8c-1.3-0.9-2.6-1.8-3.9-2.7c0.8-1.3,1.6-2.6,2.5-3.9C515.2,49.5,516.5,50.4,517.9,51.4
		z" fill="#333333"/>
	<path d="M115.6,27.2c1.4,0.9,2.7,1.8,4.1,2.8c-0.8,1.3-1.7,2.5-2.5,3.8c-1.3-0.9-2.6-1.8-3.9-2.7C114,29.7,114.8,28.5,115.6,27.2z"
		 fill="#333333"/>
</g>
</svg>
