<svg width="33" height="34" viewBox="0 0 33 34" fill="none" xmlns="http://www.w3.org/2000/svg">
    <path d="M15.2718 32.06V33.06C15.537 33.06 15.7914 32.9546 15.9789 32.7671C16.1664 32.5796 16.2718 32.3252 16.2718 32.06L15.2718 32.06ZM4.95155 32.06L4.9494 33.06H4.95155V32.06ZM1.36426 28.4805H0.364249L0.364267 28.4848L1.36426 28.4805ZM1.36426 5.93397L0.364258 5.93182V5.93397H1.36426ZM4.95155 2.34668L4.95155 1.34668L4.9494 1.34668L4.95155 2.34668ZM27.0951 3.34668C27.6474 3.34668 28.0951 2.89896 28.0951 2.34668C28.0951 1.79439 27.6474 1.34668 27.0951 1.34668V3.34668ZM31.6825 5.93359C31.6825 5.38131 31.2347 4.93359 30.6825 4.93359C30.1302 4.93359 29.6825 5.38131 29.6825 5.93359H31.6825ZM30.6825 28.4646L29.6825 28.4646L29.6825 28.4646L30.6825 28.4646ZM27.0952 32.0596V33.0596L27.0973 33.0596L27.0952 32.0596ZM20.122 31.0596C19.5697 31.0596 19.122 31.5073 19.122 32.0596C19.122 32.6119 19.5697 33.0596 20.122 33.0596V31.0596ZM15.2718 22.383L16.2718 22.383C16.2718 21.8307 15.8241 21.383 15.2718 21.383V22.383ZM11.8627 22.383H10.8627C10.8627 22.9353 11.3104 23.383 11.8627 23.383V22.383ZM11.8627 17.7807V16.7807C11.3104 16.7807 10.8627 17.2284 10.8627 17.7807H11.8627ZM15.2718 17.7807V18.7807C15.8241 18.7807 16.2718 18.333 16.2718 17.7807H15.2718ZM19.9206 8.69238L19.9206 7.69238L19.9206 8.69238ZM24.7475 8.69238H25.7475C25.7475 8.1401 25.2998 7.69238 24.7475 7.69238V8.69238ZM24.7475 13.07V14.07C25.2998 14.07 25.7475 13.6222 25.7475 13.07H24.7475ZM21.2145 13.07L21.2141 14.07H21.2145V13.07ZM20.0755 14.2399H21.0755C21.0755 14.2308 21.0754 14.2218 21.0751 14.2127L20.0755 14.2399ZM20.0755 17.7575H19.0755C19.0755 18.3098 19.5232 18.7575 20.0755 18.7575V17.7575ZM24.7243 17.7575H25.7243C25.7243 17.2052 25.2766 16.7575 24.7243 16.7575V17.7575ZM24.7243 22.4062V23.4062C25.2766 23.4062 25.7243 22.9585 25.7243 22.4062H24.7243ZM20.0755 22.4062V21.4062C19.5232 21.4062 19.0755 21.8539 19.0755 22.4062H20.0755ZM19.0755 32.0602C19.0755 32.6124 19.5232 33.0602 20.0755 33.0602C20.6278 33.0602 21.0755 32.6124 21.0755 32.0602H19.0755ZM15.2718 31.06H4.95155V33.06H15.2718V31.06ZM4.9537 31.06C4.26835 31.0585 3.61142 30.786 3.12628 30.3019L1.7136 31.7177C2.57263 32.5748 3.73586 33.0574 4.9494 33.06L4.9537 31.06ZM3.12628 30.3019C2.64114 29.8178 2.3672 29.1615 2.36425 28.4762L0.364267 28.4848C0.369495 29.6983 0.854565 30.8605 1.7136 31.7177L3.12628 30.3019ZM2.36426 28.4805V5.93397H0.364258V28.4805H2.36426ZM2.36426 5.93613C2.36573 5.24982 2.63902 4.59204 3.12432 4.10674L1.71011 2.69253C0.850792 3.55184 0.366876 4.71657 0.36426 5.93182L2.36426 5.93613ZM3.12432 4.10674C3.60962 3.62145 4.26739 3.34815 4.9537 3.34668L4.9494 1.34668C3.73415 1.3493 2.56942 1.83321 1.71011 2.69253L3.12432 4.10674ZM4.95155 3.34668H27.0951V1.34668H4.95155V3.34668ZM29.6825 5.93359V28.4646H31.6825V5.93359H29.6825ZM29.6825 28.4646C29.6825 29.1519 29.4098 29.8111 28.9244 30.2976L30.3401 31.7103C31.1997 30.8488 31.6825 29.6815 31.6825 28.4646L29.6825 28.4646ZM28.9244 30.2976C28.4389 30.7841 27.7803 31.0581 27.093 31.0596L27.0973 33.0596C28.3143 33.057 29.4805 32.5717 30.3401 31.7103L28.9244 30.2976ZM27.0952 31.0596H20.122V33.0596H27.0952V31.0596ZM30.5001 4.5C31.6047 4.5 32.5001 3.60457 32.5001 2.5H30.5001V4.5ZM32.5001 2.5C32.5001 1.39543 31.6047 0.5 30.5001 0.5V2.5H32.5001ZM30.5001 0.5C29.3956 0.5 28.5001 1.39543 28.5001 2.5H30.5001V0.5ZM28.5001 2.5C28.5001 3.60457 29.3956 4.5 30.5001 4.5V2.5H28.5001ZM16.2718 32.06L16.2718 22.383L14.2718 22.383L14.2718 32.06L16.2718 32.06ZM15.2718 21.383H11.8627V23.383H15.2718V21.383ZM12.8627 22.383V17.7807H10.8627V22.383H12.8627ZM11.8627 18.7807H15.2718V16.7807H11.8627V18.7807ZM16.2718 17.7807V13.3411H14.2718V17.7807H16.2718ZM16.2718 13.3411C16.2718 12.3734 16.6562 11.4454 17.3405 10.7611L15.9263 9.34687C14.8669 10.4062 14.2718 11.843 14.2718 13.3411H16.2718ZM17.3405 10.7611C18.0248 10.0768 18.9528 9.69238 19.9206 9.69238L19.9206 7.69238C18.4224 7.69238 16.9856 8.28752 15.9263 9.34687L17.3405 10.7611ZM19.9206 9.69238H24.7475V7.69238H19.9206V9.69238ZM23.7475 8.69238V13.07H25.7475V8.69238H23.7475ZM24.7475 12.07H21.2145V14.07H24.7475V12.07ZM21.2148 12.07C20.929 12.0699 20.646 12.1271 20.3826 12.2382L21.16 14.0809C21.1771 14.0737 21.1955 14.07 21.2141 14.07L21.2148 12.07ZM20.3826 12.2382C20.1193 12.3493 19.8808 12.5121 19.6814 12.7169L21.1145 14.112C21.1274 14.0987 21.1429 14.0881 21.16 14.0809L20.3826 12.2382ZM19.6814 12.7169C19.482 12.9217 19.3257 13.1644 19.2217 13.4307L21.0846 14.1584C21.0914 14.1411 21.1015 14.1253 21.1145 14.112L19.6814 12.7169ZM19.2217 13.4307C19.1177 13.697 19.0681 13.9814 19.0759 14.2671L21.0751 14.2127C21.0746 14.1941 21.0779 14.1756 21.0846 14.1584L19.2217 13.4307ZM19.0755 14.2399V17.7575H21.0755V14.2399H19.0755ZM20.0755 18.7575H24.7243V16.7575H20.0755V18.7575ZM23.7243 17.7575V22.4062H25.7243V17.7575H23.7243ZM24.7243 21.4062H20.0755V23.4062H24.7243V21.4062ZM19.0755 22.4062V32.0602H21.0755V22.4062H19.0755Z"
          fill="#F3EFE5"/>
</svg>
