<svg width="24" height="21" viewBox="0 0 24 21" fill="none" xmlns="http://www.w3.org/2000/svg">
    <path d="M8.46094 5.85547L3.82031 20H0.0820312L6.42188 2.9375H8.80078L8.46094 5.85547ZM12.3164 20L7.66406 5.85547L7.28906 2.9375H9.69141L16.0664 20H12.3164ZM12.1055 13.6484V16.4023H3.09375V13.6484H12.1055Z"
          fill="#000"/>
    <path d="M18.5 1.9V1M18.5 9.1V10M15.9864 2.9864L15.35 2.35M21.0776 8.07756L21.714 8.71396M14.9 5.5H14M22.1 5.5H23M21.0775 2.9864L21.7139 2.35M15.9864 8.07756L15.35 8.71396M20.75 5.5C20.75 6.74264 19.7426 7.75 18.5 7.75C17.2574 7.75 16.25 6.74264 16.25 5.5C16.25 4.25736 17.2574 3.25 18.5 3.25C19.7426 3.25 20.75 4.25736 20.75 5.5Z"
          stroke="#000" fill="#000" stroke-width="1.1" stroke-linecap="round" stroke-linejoin="round"/>
</svg>
