<svg width="144" height="52" viewBox="0 0 144 52" fill="none" xmlns="http://www.w3.org/2000/svg">
<path d="M143.617 25.9999C143.617 26.1732 143.531 26.3466 143.444 26.5199C143.444 26.5199 141.275 29.4666 141.622 34.2332C142.143 41.5132 139.887 45.8466 135.289 46.2799C133.814 46.3666 133.64 46.9733 133.293 48.0133C132.599 50.0933 131.558 51.9999 126.093 51.9999L17.5464 52C12.0807 52 11.0397 50.0933 10.3456 48.0133C9.9986 46.8867 9.82509 46.3667 8.35024 46.28C3.75219 45.9333 1.40978 41.5133 2.01707 34.2333C2.36409 29.4667 0.195199 26.52 0.195199 26.52C-0.065068 26.1733 -0.065068 25.8267 0.195199 25.48C0.195199 25.3933 2.36409 22.4467 2.01707 17.7667C1.49654 10.4867 3.75218 6.15338 8.35024 5.72004C9.82509 5.63338 9.9986 5.02671 10.3456 3.98671C11.0397 1.90671 12.0807 4.9063e-05 17.5464 4.88241e-05L126.093 -8.9435e-05C131.558 -8.96739e-05 132.599 1.90657 133.293 3.98657C133.64 5.11323 133.814 5.63323 135.289 5.7199C139.887 6.06657 142.229 10.4866 141.622 17.7666C141.275 22.5332 143.444 25.4799 143.444 25.4799C143.531 25.6532 143.617 25.8266 143.617 25.9999ZM139.8 33.1066C139.8 29.5532 141.015 26.9532 141.622 25.9999C140.928 24.8732 139.453 21.9266 139.8 17.5932C140.06 13.9532 139.8 7.7999 135.029 7.45324C132.339 7.2799 131.905 5.7199 131.472 4.50657C131.038 3.1199 130.604 1.73324 125.919 1.73324L17.5464 1.73338C12.9483 1.73338 12.5145 3.12004 11.994 4.50671C11.647 5.72004 11.1264 7.28004 8.437 7.45338C3.66543 7.88671 3.49192 13.9534 3.75219 17.5934C4.09921 21.84 2.62436 24.8733 1.93032 26C2.62436 27.1267 4.09921 30.16 3.75219 34.4067C3.49192 37.96 3.66543 44.1133 8.52375 44.5467C11.2132 44.72 11.647 46.28 12.0807 47.4933C12.5145 48.88 12.9483 50.2667 17.6331 50.2667L126.179 50.2666C130.691 50.2666 131.124 48.8799 131.558 47.4933C131.905 46.2799 132.426 44.7199 135.115 44.5466C139.887 44.1999 140.147 38.0466 139.887 34.4066C139.8 33.9732 139.8 33.5399 139.8 33.1066Z" fill="#A28F76"/>
<path d="M139.887 25.9999L139.887 26.0866C139.193 27.5599 138.325 29.9866 138.325 33.1066C138.325 33.5399 138.325 33.9732 138.412 34.4066C138.499 35.0132 138.499 35.6199 138.499 36.2266C138.499 40.4732 137.371 42.7266 135.115 42.8999C131.385 43.1599 130.604 45.7599 130.17 46.9733C129.823 48.0999 129.476 48.6199 126.179 48.6199L17.5464 48.62C14.2496 48.62 13.9026 48.0133 13.5556 46.9733C13.2086 45.76 12.341 43.2467 8.61051 42.9C6.35486 42.8133 5.22704 40.56 5.22704 36.3133C5.22704 35.7067 5.22703 35.1 5.31379 34.4933C5.31379 34.06 5.40055 33.6267 5.40055 33.1933C5.40055 29.9867 4.53299 27.6467 3.83894 26.1733C3.83894 26.0867 3.83894 26 3.83894 26C4.53299 24.5267 5.40055 22.1001 5.40055 18.9801C5.40055 18.5467 5.40055 18.1134 5.31379 17.6801C5.22703 16.9001 5.22703 16.2934 5.22703 15.6867C5.22703 11.4401 6.35486 9.18671 8.61051 9.01338C12.341 8.75338 13.1218 6.15338 13.5556 4.94005C13.9026 3.81338 14.2496 3.29338 17.5464 3.29338L126.093 3.29323C129.389 3.29323 129.736 3.89991 130.083 4.93991C130.43 6.15324 131.298 8.66657 135.029 9.01324C137.284 9.18657 138.412 11.4399 138.412 15.6866C138.412 16.2932 138.412 16.8999 138.325 17.5066C138.325 17.9399 138.239 18.3732 138.239 18.8066C138.239 22.0132 139.106 24.3532 139.8 25.8266C139.887 25.9132 139.887 25.9999 139.887 25.9999ZM137.805 33.1066C137.805 29.8999 138.672 27.4732 139.366 25.9132C138.672 24.3532 137.805 21.9266 137.805 18.7199C137.805 18.2866 137.805 17.7666 137.892 17.3332C137.978 16.7266 137.978 16.1199 137.978 15.5999C137.978 11.6132 136.937 9.53324 135.029 9.3599C131.067 9.01577 130.183 6.36566 129.746 5.05525C129.743 5.04562 129.74 5.03606 129.736 5.02657C129.476 4.1599 129.303 3.6399 126.179 3.6399L17.5464 3.64004C14.3364 3.64004 14.2496 4.16005 13.9894 5.02671C13.5556 6.32671 12.688 9.10005 8.69726 9.36005C6.70188 9.53338 5.74757 11.6134 5.74757 15.6001C5.74757 16.2067 5.74757 16.7267 5.83433 17.3334C5.83433 17.7667 5.92108 18.2867 5.92108 18.7201C5.92108 21.9267 5.05352 24.3533 4.35948 25.9133C5.05352 27.4733 5.92108 29.9 5.92108 33.1067C5.92108 33.54 5.92108 34.06 5.83433 34.4933C5.74757 35.1 5.74757 35.7067 5.74757 36.2267C5.74757 40.2133 6.78864 42.2933 8.69726 42.4667C12.6589 42.8108 13.5428 45.4609 13.9798 46.7713C13.983 46.781 13.9862 46.7905 13.9894 46.8C14.2496 47.6667 14.4231 48.1867 17.5464 48.1867L126.093 48.1866C129.303 48.1866 129.389 47.6666 129.65 46.7999C129.656 46.7815 129.662 46.7628 129.668 46.7438C130.109 45.4218 131.008 42.7229 134.942 42.4666C136.937 42.2933 137.892 40.2132 137.892 36.2266C137.892 35.7066 137.892 35.0999 137.805 34.4932C137.805 34.0599 137.805 33.6266 137.805 33.1066Z" fill="#A28F76"/>
<path d="M137.805 33.1066C137.805 29.8999 138.672 27.4732 139.366 25.9132C138.672 24.3532 137.805 21.9266 137.805 18.7199C137.805 18.2866 137.805 17.7666 137.892 17.3332C137.978 16.7266 137.978 16.1199 137.978 15.5999C137.978 11.6132 136.937 9.53324 135.029 9.3599C131.067 9.01577 130.183 6.36566 129.746 5.05525L129.736 5.02657C129.476 4.1599 129.303 3.6399 126.179 3.6399L17.5464 3.64004C14.3364 3.64004 14.2496 4.16005 13.9894 5.02671C13.5556 6.32671 12.688 9.10005 8.69726 9.36005C6.70188 9.53338 5.74757 11.6134 5.74757 15.6001C5.74757 16.2067 5.74757 16.7267 5.83433 17.3334C5.83433 17.7667 5.92108 18.2867 5.92108 18.7201C5.92108 21.9267 5.05352 24.3533 4.35948 25.9133C5.05352 27.4733 5.92108 29.9 5.92108 33.1067C5.92108 33.54 5.92108 34.06 5.83433 34.4933C5.74757 35.1 5.74757 35.7067 5.74757 36.2267C5.74757 40.2133 6.78864 42.2933 8.69726 42.4667C12.6589 42.8108 13.5428 45.4609 13.9798 46.7713L13.9894 46.8C14.2496 47.6667 14.4231 48.1867 17.5464 48.1867L126.093 48.1866C129.303 48.1866 129.389 47.6666 129.65 46.7999L129.668 46.7438C130.109 45.4218 131.008 42.7229 134.942 42.4666C136.937 42.2933 137.892 40.2132 137.892 36.2266C137.892 35.7066 137.892 35.0999 137.805 34.4932L137.805 33.1066Z" fill="#A28F76"/>
</svg>
