<svg width="33" height="34" viewBox="0 0 33 34" fill="none" xmlns="http://www.w3.org/2000/svg">
    <path d="M31.8065 5.93397C31.8065 5.38169 31.3588 4.93397 30.8065 4.93397C30.2542 4.93397 29.8065 5.38169 29.8065 5.93397H31.8065ZM30.8065 28.465L31.8065 28.4671V28.465H30.8065ZM27.227 32.0523V33.0523L27.2313 33.0522L27.227 32.0523ZM5.07564 32.0523L5.07134 33.0523H5.07564V32.0523ZM1.49609 28.4727L0.496085 28.4727L0.496103 28.477L1.49609 28.4727ZM1.49609 5.93397L0.496094 5.93183V5.93397H1.49609ZM5.07564 2.34668L5.07564 1.34667L5.07133 1.34669L5.07564 2.34668ZM27.227 3.34668C27.7793 3.34668 28.227 2.89896 28.227 2.34668C28.227 1.79439 27.7793 1.34668 27.227 1.34668V3.34668ZM10.2562 9.14662C10.8069 9.10539 11.22 8.62549 11.1787 8.07475C11.1375 7.524 10.6576 7.11097 10.1068 7.15221L10.2562 9.14662ZM7.49298 11.0471L8.49298 11.0471L8.49298 11.047L7.49298 11.0471ZM7.49298 23.3509L6.49298 23.3509L6.49298 23.3535L7.49298 23.3509ZM10.4062 26.2641L10.4036 27.2641L10.4062 27.2641L10.4062 26.2641ZM22.71 26.2641L22.71 27.2641L22.7126 27.2641L22.71 26.2641ZM25.6232 23.3508L26.6232 23.3535V23.3508H25.6232ZM25.6232 11.0471L26.6232 11.0471L26.6232 11.0445L25.6232 11.0471ZM22.71 8.13389L22.7126 7.13389H22.71V8.13389ZM10.4062 8.13389L10.3004 9.12827C10.3356 9.13202 10.3709 9.13389 10.4062 9.13389V8.13389ZM10.0757 7.13951C9.52653 7.19796 9.12871 7.69055 9.18717 8.23973C9.24562 8.78891 9.73821 9.18673 10.2874 9.12827L10.0757 7.13951ZM17.753 14.0588C18.2694 14.2547 18.8468 13.9948 19.0427 13.4784C19.2385 12.962 18.9786 12.3846 18.4623 12.1888L17.753 14.0588ZM21.9279 17.1968C21.9266 16.6446 21.4778 16.1979 20.9255 16.1992C20.3732 16.2006 19.9266 16.6493 19.9279 17.2016L21.9279 17.1968ZM29.8065 5.93397V28.465H31.8065V5.93397H29.8065ZM29.8065 28.4628C29.8051 29.1482 29.5325 29.8051 29.0484 30.2902L30.4642 31.7029C31.3214 30.8439 31.8039 29.6806 31.8065 28.4671L29.8065 28.4628ZM29.0484 30.2902C28.5644 30.7754 27.908 31.0493 27.2227 31.0523L27.2313 33.0522C28.4448 33.047 29.607 32.562 30.4642 31.7029L29.0484 30.2902ZM27.227 31.0523H5.07564V33.0523H27.227V31.0523ZM5.07994 31.0523C4.39556 31.0493 3.74006 30.7761 3.25613 30.2922L1.84192 31.7064C2.69881 32.5633 3.85952 33.047 5.07134 33.0522L5.07994 31.0523ZM3.25613 30.2922C2.7722 29.8083 2.49903 29.1528 2.49608 28.4684L0.496103 28.477C0.501315 29.6888 0.985021 30.8495 1.84192 31.7064L3.25613 30.2922ZM2.49609 28.4727V5.93397H0.496094V28.4727H2.49609ZM2.49609 5.93612C2.49756 5.25077 2.77008 4.59384 3.25417 4.1087L1.83843 2.69602C0.981255 3.55505 0.4987 4.71829 0.496096 5.93183L2.49609 5.93612ZM3.25417 4.1087C3.73826 3.62356 4.39461 3.34962 5.07995 3.34667L5.07133 1.34669C3.8578 1.35192 2.69561 1.83699 1.83843 2.69602L3.25417 4.1087ZM5.07564 3.34668H27.227V1.34668H5.07564V3.34668ZM30.5002 4.5C31.6048 4.5 32.5002 3.60457 32.5002 2.5H30.5002V4.5ZM32.5002 2.5C32.5002 1.39543 31.6048 0.5 30.5002 0.5V2.5H32.5002ZM30.5002 0.5C29.3957 0.5 28.5002 1.39543 28.5002 2.5H30.5002V0.5ZM28.5002 2.5C28.5002 3.60457 29.3957 4.5 30.5002 4.5V2.5H28.5002ZM22.0048 13.5506C22.985 13.5506 23.7796 12.756 23.7796 11.7758H21.7796C21.7796 11.6514 21.8805 11.5506 22.0048 11.5506V13.5506ZM23.7796 11.7758C23.7796 10.7956 22.985 10.001 22.0048 10.001V12.001C21.8805 12.001 21.7796 11.9001 21.7796 11.7758H23.7796ZM22.0048 10.001C21.0246 10.001 20.23 10.7956 20.23 11.7758H22.23C22.23 11.9001 22.1292 12.001 22.0048 12.001V10.001ZM20.23 11.7758C20.23 12.756 21.0246 13.5506 22.0048 13.5506V11.5506C22.1292 11.5506 22.23 11.6514 22.23 11.7758H20.23ZM10.1068 7.15221C9.1242 7.22578 8.20568 7.6681 7.53546 8.39047L9.0016 9.75077C9.3286 9.39833 9.77675 9.18252 10.2562 9.14662L10.1068 7.15221ZM7.53546 8.39047C6.86524 9.11284 6.49286 10.0619 6.49298 11.0473L8.49298 11.047C8.49292 10.5662 8.6746 10.1032 9.0016 9.75077L7.53546 8.39047ZM6.49298 11.0471V23.3509H8.49298V11.0471H6.49298ZM6.49298 23.3535C6.49573 24.3898 6.90862 25.3829 7.6414 26.1157L9.05561 24.7015C8.69661 24.3424 8.49432 23.8559 8.49298 23.3482L6.49298 23.3535ZM7.6414 26.1157C8.37418 26.8484 9.36725 27.2613 10.4036 27.2641L10.4089 25.2641C9.90114 25.2627 9.41462 25.0605 9.05561 24.7015L7.6414 26.1157ZM22.7126 27.2641C23.7489 27.2613 24.742 26.8484 25.4748 26.1156L24.0606 24.7014C23.7015 25.0604 23.215 25.2627 22.7073 25.2641L22.7126 27.2641ZM25.4748 26.1156C26.2075 25.3829 26.6204 24.3898 26.6232 23.3535L24.6232 23.3482C24.6218 23.8559 24.4196 24.3424 24.0606 24.7014L25.4748 26.1156ZM26.6232 23.3508V11.0471H24.6232V23.3508H26.6232ZM26.6232 11.0445C26.6204 10.0082 26.2075 9.01509 25.4748 8.28231L24.0606 9.69652C24.4196 10.0555 24.6218 10.5421 24.6232 11.0498L26.6232 11.0445ZM25.4748 8.28231C24.742 7.54953 23.7489 7.13664 22.7126 7.1339L22.7073 9.13389C23.215 9.13523 23.7015 9.33752 24.0606 9.69652L25.4748 8.28231ZM22.71 7.13389H10.4062V9.13389H22.71V7.13389ZM10.5121 7.13951C10.367 7.12407 10.2208 7.12407 10.0757 7.13951L10.2874 9.12827C10.2917 9.12781 10.2961 9.12781 10.3004 9.12827L10.5121 7.13951ZM18.4623 12.1888C17.3911 11.7826 16.218 11.7295 15.1146 12.0375L15.6522 13.9639C16.3447 13.7706 17.0808 13.8039 17.753 14.0588L18.4623 12.1888ZM15.1146 12.0375C14.0111 12.3455 13.035 12.9983 12.3291 13.9005L13.9042 15.133C14.3472 14.5668 14.9597 14.1571 15.6522 13.9639L15.1146 12.0375ZM12.3291 13.9005C11.6231 14.8028 11.2241 15.9072 11.1905 17.0523L13.1897 17.1109C13.2108 16.3923 13.4611 15.6992 13.9042 15.133L12.3291 13.9005ZM11.1905 17.0523C11.157 18.1974 11.4905 19.3233 12.1424 20.2654L13.787 19.1273C13.3779 18.5361 13.1686 17.8295 13.1897 17.1109L11.1905 17.0523ZM12.1424 20.2654C12.7943 21.2074 13.7305 21.9163 14.814 22.2884L15.4636 20.3968C14.7836 20.1633 14.1961 19.7185 13.787 19.1273L12.1424 20.2654ZM14.814 22.2884C15.8975 22.6605 17.0716 22.6763 18.1648 22.3335L17.5664 20.4251C16.8804 20.6402 16.1435 20.6303 15.4636 20.3968L14.814 22.2884ZM18.1648 22.3335C19.2579 21.9907 20.2128 21.3073 20.8899 20.3831L19.2765 19.2012C18.8516 19.7811 18.2524 20.21 17.5664 20.4251L18.1648 22.3335ZM20.8899 20.3831C21.5669 19.459 21.9306 18.3425 21.9279 17.1968L19.9279 17.2016C19.9296 17.9206 19.7014 18.6212 19.2765 19.2012L20.8899 20.3831ZM10.4062 27.2641L22.71 27.2641L22.71 25.2641L10.4062 25.2641L10.4062 27.2641Z"
          fill="#F3EFE5"/>
</svg>
