<svg width="38" height="38" viewBox="0 0 38 38" fill="none" xmlns="http://www.w3.org/2000/svg">
<path d="M19.5171 37.5431C19.3514 38.0733 18.6224 38.0401 18.4568 37.5431V37.51C18.4568 37.51 17.8272 36.2508 13.5195 34.7265C9.57631 33.368 8.6485 30.6508 8.41655 29.5573C7.32306 29.3254 4.57277 28.3976 3.21419 24.4544C1.72307 20.1136 0.430768 19.5171 0.397632 19.484C-0.132544 19.3183 -0.132544 18.5893 0.397632 18.4236H0.430768C0.430768 18.4236 0.894672 18.1917 1.59053 17.0982C2.15384 16.2035 2.68402 15.0106 3.21419 13.4864C4.57277 9.57631 7.32306 8.6485 8.41655 8.41655C8.6485 7.32306 9.5763 4.57277 13.4864 3.21419C17.8272 1.72307 18.4236 0.430768 18.4568 0.397632C18.6224 -0.132544 19.3514 -0.132544 19.5171 0.397632V0.430768C19.5171 0.430768 20.1467 1.72307 24.4544 3.21419C28.3976 4.57277 29.3254 7.32306 29.5573 8.41655C30.6508 8.6485 33.4011 9.57631 34.7597 13.4864C35.2898 14.9775 35.82 16.2035 36.3833 17.0982C37.0792 18.2248 37.5431 18.4568 37.5762 18.4568C38.1064 18.6224 38.0733 19.3514 37.5762 19.5171C37.4768 19.5834 36.2177 20.3124 34.7928 24.4544C33.4342 28.3976 30.6839 29.3254 29.5905 29.5242C29.3585 30.6177 28.4307 33.368 24.5206 34.7265C20.1136 36.2508 19.5171 37.5431 19.5171 37.5431ZM1.55739 18.9869C2.22011 19.6497 3.21419 21.0414 4.27455 24.0899C5.73253 28.265 8.91359 28.4638 8.94672 28.4638L9.44376 28.497L9.4769 28.994C9.4769 29.1266 9.74199 32.2082 13.8509 33.6662C16.8994 34.7265 18.3242 35.7206 18.9538 36.3833C19.6165 35.7206 21.0082 34.7265 24.0567 33.6662C28.2319 32.2082 28.4307 29.0271 28.4307 28.994L28.4638 28.497L28.9609 28.4638C29.0934 28.4638 32.1751 28.1987 33.633 24.0899C34.6934 21.0414 35.6875 19.6165 36.3502 18.9869C36.0851 18.7218 35.7538 18.3242 35.3561 17.6946C34.7597 16.7337 34.1632 15.4414 33.633 13.8509C32.2082 9.70885 29.0934 9.4769 28.9609 9.44376H28.5301L28.497 8.94672C28.497 8.81418 28.2319 5.73253 24.123 4.27455C21.0745 3.21419 19.6497 2.22011 19.0201 1.55739C18.3573 2.22011 16.9656 3.21419 13.9171 4.27455C9.77512 5.69939 9.54317 8.81418 9.54317 8.94672L9.51003 9.44376L9.01299 9.4769C8.88045 9.4769 5.7988 9.74199 4.34082 13.884C3.7775 15.4745 3.21419 16.7668 2.61774 17.7278C2.18698 18.3242 1.85562 18.7218 1.55739 18.9869Z" fill="#D0D0D0"/>
<path d="M1.55739 18.9869C2.22011 19.6497 3.21419 21.0414 4.27455 24.0899C5.73253 28.265 8.91359 28.4638 8.94672 28.4638L9.44376 28.497L9.4769 28.994C9.4769 29.1266 9.74199 32.2082 13.8509 33.6662C16.8994 34.7265 18.3242 35.7206 18.9538 36.3833C19.6165 35.7206 21.0082 34.7265 24.0567 33.6662C28.2319 32.2082 28.4307 29.0271 28.4307 28.994L28.4638 28.497L28.9609 28.4638C29.0934 28.4638 32.1751 28.1987 33.633 24.0899C34.6934 21.0414 35.6875 19.6165 36.3502 18.9869C36.0851 18.7218 35.7538 18.3242 35.3561 17.6946C34.7597 16.7337 34.1632 15.4414 33.633 13.8509C32.2082 9.70885 29.0934 9.4769 28.9609 9.44376H28.5301L28.497 8.94672C28.497 8.81418 28.2319 5.73253 24.123 4.27455C21.0745 3.21419 19.6497 2.22011 19.0201 1.55739C18.3573 2.22011 16.9656 3.21419 13.9171 4.27455C9.77512 5.69939 9.54317 8.81418 9.54317 8.94672L9.51003 9.44376L9.01299 9.4769C8.88045 9.4769 5.7988 9.74199 4.34082 13.884C3.7775 15.4745 3.21419 16.7668 2.61774 17.7278C2.18698 18.3242 1.85562 18.7218 1.55739 18.9869Z" fill="#D0D0D0"/>
<path fill-rule="evenodd" clip-rule="evenodd" d="M19.4942 36.7904C19.3356 37.2985 18.6376 37.2667 18.479 36.7904V36.7586C18.479 36.7586 17.8762 35.552 13.7518 34.0913C9.97642 32.7894 9.08809 30.1856 8.86601 29.1378C7.81906 28.9155 5.1858 28.0264 3.88504 24.2477C2.45737 20.088 1.22005 19.5164 1.18833 19.4846C0.680713 19.3259 0.680713 18.6273 1.18833 18.4685H1.22005C1.22005 18.4685 1.66422 18.2462 2.33046 17.1984C2.8698 16.341 3.37742 15.1979 3.88504 13.7372C5.1858 9.99029 7.81906 9.10119 8.86601 8.87891C9.08809 7.83104 9.97642 5.19548 13.7201 3.89358C17.8762 2.46467 18.4473 1.22627 18.479 1.19452C18.6376 0.686462 19.3356 0.686462 19.4942 1.19452V1.22627C19.4942 1.22627 20.097 2.46467 24.2214 3.89358C27.9968 5.19548 28.8851 7.83104 29.1072 8.87891C30.1541 9.10119 32.7874 9.99029 34.0882 13.7372C34.5958 15.1661 35.1034 16.341 35.6427 17.1984C36.309 18.278 36.7531 18.5003 36.7849 18.5003C37.2925 18.659 37.2607 19.3576 36.7849 19.5164C36.6897 19.5799 35.4841 20.2785 34.1199 24.2477C32.8191 28.0264 30.1859 28.9155 29.1389 29.106C28.9168 30.1539 28.0285 32.7894 24.2848 34.0913C20.0653 35.552 19.4942 36.7904 19.4942 36.7904ZM4.90027 23.8984C3.88504 20.9771 2.93326 19.6434 2.29874 19.0083C2.58427 18.7543 2.90153 18.3733 3.31397 17.8017C3.88504 16.8808 4.42438 15.6424 4.96372 14.1183C6.35966 10.1491 9.31018 9.89503 9.43708 9.89503L9.91297 9.86328L9.94469 9.38697C9.94469 9.25996 10.1668 6.27511 14.1325 4.9097C17.0513 3.89358 18.3838 2.94097 19.0183 2.3059C19.6211 2.94097 20.9853 3.89358 23.9041 4.9097C27.8381 6.30686 28.0919 9.25996 28.0919 9.38697L28.1237 9.86328H28.5361C28.663 9.89503 31.6453 10.1173 33.0095 14.0865C33.5171 15.6107 34.0882 16.8491 34.6592 17.7699C35.0399 18.3733 35.3572 18.7543 35.611 19.0083C34.9765 19.6117 34.0247 20.9771 33.0095 23.8984C31.6135 27.8359 28.663 28.0899 28.5361 28.0899L28.0602 28.1216L28.0285 28.5979C28.0285 28.6297 27.8381 31.6781 23.8407 33.0752C20.9219 34.0913 19.5894 35.0439 18.9549 35.679C18.3521 35.0439 16.9879 34.0913 14.0691 33.0752C10.135 31.6781 9.88124 28.725 9.88124 28.5979L9.84952 28.1216L9.37363 28.0899C9.3419 28.0899 6.29621 27.8994 4.90027 23.8984Z" fill="#FBFBFB" stroke="#D0D0D0" stroke-width="0.8"/>
</svg>
