<svg width="47" height="48" viewBox="0 0 47 48" fill="none" xmlns="http://www.w3.org/2000/svg">
<path d="M24.164 47.4749C23.9589 48.1313 23.0563 48.0902 22.8512 47.4749V47.4338C22.8512 47.4338 22.0717 45.8749 16.7384 43.9877C11.8564 42.3056 10.7077 38.9415 10.4205 37.5877C9.06664 37.3005 5.66152 36.1518 3.97948 31.2698C2.13333 25.8954 0.533332 25.157 0.492306 25.1159C-0.164102 24.9108 -0.164102 24.0082 0.492306 23.8031H0.533332C0.533332 23.8031 1.10769 23.5159 1.96923 22.1621C2.66666 21.0544 3.32307 19.5775 3.97948 17.6903C5.66152 12.8493 9.06664 11.7006 10.4205 11.4134C10.7077 10.0596 11.8564 6.65444 16.6974 4.9724C22.0717 3.12625 22.8102 1.52625 22.8512 1.48523C23.0563 0.828818 23.9589 0.828818 24.164 1.48523V1.52625C24.164 1.52625 24.9435 3.12625 30.2768 4.9724C35.1589 6.65444 36.3076 10.0596 36.5948 11.4134C37.9486 11.7006 41.3537 12.8493 43.0358 17.6903C43.6922 19.5365 44.3486 21.0544 45.046 22.1621C45.9076 23.557 46.4819 23.8441 46.523 23.8441C47.1794 24.0493 47.1383 24.9518 46.523 25.157C46.3999 25.239 44.8409 26.1416 43.0768 31.2698C41.3948 36.1518 37.9896 37.3005 36.6358 37.5467C36.3486 38.9005 35.1999 42.3056 30.3589 43.9877C24.9025 45.8749 24.164 47.4749 24.164 47.4749ZM1.9282 24.5006C2.74871 25.3211 3.97948 27.0441 5.29229 30.8185C7.09742 35.9877 11.0359 36.2339 11.0769 36.2339L11.6923 36.2749L11.7333 36.8903C11.7333 37.0544 12.0615 40.8697 17.1487 42.6749C20.923 43.9877 22.6871 45.2184 23.4666 46.039C24.2871 45.2184 26.0102 43.9877 29.7845 42.6749C34.9538 40.8697 35.1999 36.9313 35.1999 36.8903L35.2409 36.2749L35.8563 36.2339C36.0204 36.2339 39.8358 35.9057 41.6409 30.8185C42.9537 27.0441 44.1845 25.28 45.005 24.5006C44.6768 24.1723 44.2665 23.68 43.7742 22.9006C43.0358 21.7108 42.2973 20.1108 41.6409 18.1416C39.8768 13.0134 36.0204 12.7262 35.8563 12.6852H35.323L35.282 12.0698C35.282 11.9057 34.9538 8.09034 29.8666 6.28521C26.0922 4.9724 24.3281 3.74163 23.5487 2.92112C22.7281 3.74163 21.0051 4.9724 17.2307 6.28521C12.1025 8.04931 11.8154 11.9057 11.8154 12.0698L11.7743 12.6852L11.1589 12.7262C10.9948 12.7262 7.17947 13.0544 5.37434 18.1826C4.67691 20.1518 3.97948 21.7518 3.24102 22.9416C2.70769 23.68 2.29743 24.1723 1.9282 24.5006Z" fill="#308E9B"/>
<path d="M1.9282 24.5006C2.74871 25.3211 3.97948 27.0441 5.29229 30.8185C7.09742 35.9877 11.0359 36.2339 11.0769 36.2339L11.6923 36.2749L11.7333 36.8903C11.7333 37.0544 12.0615 40.8697 17.1487 42.6749C20.923 43.9877 22.6871 45.2184 23.4666 46.039C24.2871 45.2184 26.0102 43.9877 29.7845 42.6749C34.9538 40.8697 35.1999 36.9313 35.1999 36.8903L35.2409 36.2749L35.8563 36.2339C36.0204 36.2339 39.8358 35.9057 41.6409 30.8185C42.9537 27.0441 44.1845 25.28 45.005 24.5006C44.6768 24.1723 44.2665 23.68 43.7742 22.9006C43.0358 21.7108 42.2973 20.1108 41.6409 18.1416C39.8768 13.0134 36.0204 12.7262 35.8563 12.6852H35.323L35.282 12.0698C35.282 11.9057 34.9538 8.09034 29.8666 6.28521C26.0922 4.9724 24.3281 3.74163 23.5487 2.92112C22.7281 3.74163 21.0051 4.9724 17.2307 6.28521C12.1025 8.04931 11.8154 11.9057 11.8154 12.0698L11.7743 12.6852L11.1589 12.7262C10.9948 12.7262 7.17947 13.0544 5.37434 18.1826C4.67691 20.1518 3.97948 21.7518 3.24102 22.9416C2.70769 23.68 2.29743 24.1723 1.9282 24.5006Z" fill="#308E9B"/>
<path fill-rule="evenodd" clip-rule="evenodd" d="M24.1358 46.5429C23.9394 47.1719 23.0752 47.1326 22.8788 46.5429V46.5035C22.8788 46.5035 22.1325 45.0096 17.0261 43.2012C12.3519 41.5893 11.252 38.3655 10.9771 37.0682C9.68083 36.793 6.42061 35.6922 4.81014 31.0138C3.04255 25.8636 1.51064 25.156 1.47136 25.1167C0.842881 24.9201 0.842881 24.0552 1.47136 23.8586H1.51064C1.51064 23.8586 2.06055 23.5834 2.88543 22.2861C3.55318 21.2246 4.18166 19.8093 4.81014 18.0008C6.42061 13.3618 9.68083 12.261 10.9771 11.9858C11.252 10.6884 12.3518 7.42534 16.9869 5.81347C22.1325 4.04433 22.8395 2.51108 22.8788 2.47177C23.0752 1.84274 23.9394 1.84274 24.1358 2.47177V2.51108C24.1358 2.51108 24.8821 4.04433 29.9885 5.81347C34.6628 7.42534 35.7626 10.6884 36.0375 11.9858C37.3338 12.261 40.594 13.3618 42.2045 18.0008C42.8329 19.77 43.4614 21.2246 44.1292 22.2861C44.9541 23.6227 45.504 23.8979 45.5433 23.8979C46.1717 24.0945 46.1325 24.9594 45.5433 25.156C45.4254 25.2346 43.9328 26.0995 42.2438 31.0138C40.6333 35.6922 37.3731 36.793 36.0768 37.0288C35.8019 38.3262 34.702 41.5893 30.067 43.2012C24.8428 45.0096 24.1358 46.5429 24.1358 46.5429ZM6.06709 30.5813C4.81014 26.9644 3.63174 25.3132 2.84615 24.527C3.19967 24.2125 3.59246 23.7407 4.1031 23.033C4.81014 21.8929 5.47789 20.3597 6.14565 18.4726C7.87396 13.5583 11.527 13.2438 11.6841 13.2438L12.2733 13.2045L12.3126 12.6148C12.3126 12.4575 12.5875 8.76202 17.4975 7.07152C21.1112 5.81347 22.761 4.63404 23.5466 3.84776C24.2929 4.63404 25.9819 5.81347 29.5957 7.07152C34.4664 8.80134 34.7806 12.4575 34.7806 12.6148L34.8199 13.2045H35.3305C35.4876 13.2438 39.1799 13.519 40.869 18.4333C41.4974 20.3204 42.2045 21.8536 42.9115 22.9937C43.3829 23.7407 43.7757 24.2125 44.0899 24.527C43.3043 25.2739 42.1259 26.9644 40.869 30.5813C39.1407 35.4563 35.4876 35.7708 35.3305 35.7708L34.7413 35.8101L34.702 36.3998C34.702 36.4391 34.4664 40.2133 29.5171 41.9431C25.9034 43.2012 24.2536 44.3806 23.468 45.1669C22.7217 44.3806 21.0327 43.2012 17.4189 41.9431C12.5483 40.2133 12.234 36.5571 12.234 36.3998L12.1947 35.8101L11.6055 35.7708C11.5663 35.7708 7.7954 35.5349 6.06709 30.5813Z" fill="#FFFDF3"/>
<path d="M29.9554 19.0631C30.2268 22.8398 30.3729 24.9472 30.3729 25.3854C30.3729 25.8653 30.352 26.3035 30.3103 26.6582C30.2685 26.9295 30.2685 27.0964 30.2894 27.1799C30.3103 27.2633 30.3311 27.2425 30.4147 27.1381C30.4564 27.0547 30.519 26.9503 30.5817 26.7834C30.9157 25.9696 31.0827 25.0307 31.0827 23.9665C31.0827 23.6118 30.9575 21.7547 30.7069 18.3953C30.4564 15.0151 30.3311 13.3249 30.3311 13.2832C30.3311 13.158 30.352 13.1372 30.3938 13.1998C30.7904 13.6379 30.9783 13.7631 30.9783 13.5753C30.9783 13.5127 30.9575 13.4084 30.9157 13.2832C30.8739 13.1163 30.7069 12.6572 30.4147 11.9269C30.1432 11.2175 29.9762 10.8002 29.8927 10.6333C29.8301 10.5081 29.7675 10.5081 29.7048 10.6333C29.4543 11.2175 29.3082 11.5931 29.3082 11.7809C29.4543 12.073 29.5169 12.4277 29.5169 12.8659C29.5378 13.2206 29.684 15.2863 29.9554 19.0631Z" fill="#FDFDFD"/>
<path d="M13.5877 25.0307C13.5251 25.6149 13.5251 25.9696 13.6086 26.1157C13.6295 26.1574 13.8382 26.1991 14.2767 26.2617C14.6942 26.3243 14.9239 26.3452 14.9656 26.3243C14.9865 26.3035 15.0074 26.2826 15.0074 26.22V25.4271C15.1326 25.4688 15.3623 25.5106 15.7172 25.5732C16.0721 25.6149 16.26 25.6358 16.3017 25.6149C16.3226 25.594 16.3435 25.5732 16.3435 25.5106V24.509C16.3435 24.4673 16.3226 24.4464 16.3017 24.4255C15.8633 24.3838 15.4249 24.3212 15.0074 24.2378C14.9656 24.2378 14.9239 24.2586 14.9239 24.3212C14.903 24.5507 14.903 24.8429 14.903 25.1559C14.4437 25.0933 14.0261 25.0307 13.6504 24.9681C13.6086 24.9263 13.5877 24.9472 13.5877 25.0307Z" fill="#FDFDFD"/>
<path d="M17.2412 33.7108C17.2621 33.7108 17.3456 33.6691 17.4709 33.5857C17.784 33.3561 18.0346 33.1057 18.2433 32.7928C18.4312 32.5006 18.5356 32.2294 18.5356 31.9999C18.5356 31.6869 18.4103 31.5199 18.1598 31.5199C17.8467 31.5199 17.6588 31.7077 17.5753 32.1042C17.5544 32.1876 17.5544 32.2294 17.5544 32.2502C17.5753 32.2502 17.5753 32.2502 17.5961 32.2711C17.617 32.2711 17.6379 32.2502 17.7005 32.2085C17.784 32.1668 17.8675 32.125 17.951 32.125C18.1181 32.125 18.2016 32.2085 18.2016 32.3963C18.2016 32.5841 17.9302 32.9597 17.4291 33.5231C17.3039 33.6274 17.2412 33.69 17.2412 33.7108Z" fill="#FDFDFD"/>
<path d="M21.4792 15.2029C21.5001 15.2029 21.5836 15.1611 21.7089 15.0777C22.022 14.8481 22.2726 14.5978 22.4813 14.2848C22.6692 13.9927 22.7736 13.7214 22.7736 13.4919C22.7736 13.1789 22.6484 13.012 22.3978 13.012C22.0847 13.012 21.8968 13.1997 21.8133 13.5962C21.7924 13.6797 21.7924 13.7214 21.7924 13.7423C21.8133 13.7423 21.8133 13.7423 21.8342 13.7631C21.855 13.7631 21.8759 13.7423 21.9385 13.7005C22.022 13.6588 22.1056 13.6171 22.1891 13.6171C22.3561 13.6171 22.4396 13.7005 22.4396 13.8883C22.4396 14.0761 22.1682 14.4517 21.6671 15.0151C21.521 15.1194 21.4792 15.182 21.4792 15.2029Z" fill="#FDFDFD"/>
<path d="M22.6484 34.462C22.6484 34.4412 22.6275 34.4412 22.6484 34.462C22.6275 34.462 22.5649 34.5455 22.4814 34.6707C22.2935 35.0045 22.1682 35.3384 22.1056 35.714C22.0429 36.0687 22.0638 36.3399 22.1682 36.5695C22.2935 36.8616 22.4814 36.9451 22.711 36.8407C22.9824 36.7155 23.0868 36.4651 23.0033 36.0687C22.9824 35.9852 22.9615 35.9435 22.9615 35.9226C22.9406 35.9226 22.9406 35.9226 22.9198 35.9226C22.9198 35.9226 22.878 35.9644 22.8571 36.027C22.8154 36.1104 22.7528 36.1521 22.6484 36.1939C22.5022 36.2565 22.377 36.2147 22.3143 36.0478C22.2308 35.8809 22.3143 35.4218 22.5649 34.7124C22.6275 34.5455 22.6484 34.462 22.6484 34.462Z" fill="#FDFDFD"/>
<path d="M24.6526 16.3713C24.6526 16.3922 24.6526 16.3922 24.6526 16.3713C24.6735 16.3713 24.757 16.3296 24.8823 16.2462C25.1954 16.0166 25.4459 15.7662 25.6547 15.4533C25.8426 15.1611 25.947 14.8899 25.947 14.6604C25.947 14.3474 25.8217 14.1804 25.5712 14.1804C25.258 14.1804 25.0701 14.3682 24.9866 14.7647C24.9658 14.8481 24.9658 14.8899 24.9658 14.9107C24.9866 14.9107 24.9866 14.9107 25.0075 14.9316C25.0284 14.9316 25.0493 14.9107 25.1119 14.869C25.1954 14.8273 25.2789 14.7855 25.3624 14.7855C25.5294 14.7855 25.613 14.869 25.613 15.0568C25.613 15.2446 25.3416 15.6202 24.8405 16.1836C24.7152 16.2879 24.6526 16.3713 24.6526 16.3713Z" fill="#FDFDFD"/>
<path d="M9.41227 19.5638C9.57929 19.5012 9.64192 19.376 9.60016 19.1465C9.60016 19.1048 9.57929 19.0839 9.57929 19.063H9.55841C9.55841 19.063 9.53753 19.0839 9.51666 19.1048C9.49578 19.1465 9.45402 19.1674 9.39139 19.1882C9.30788 19.2091 9.24525 19.1882 9.2035 19.1048C9.16174 19.0004 9.22438 18.7709 9.39139 18.3745C9.43315 18.291 9.43315 18.2493 9.43315 18.2493C9.41227 18.2493 9.39139 18.291 9.34964 18.3536C9.22438 18.5205 9.14087 18.7083 9.09911 18.917C9.05736 19.1048 9.05736 19.2717 9.09911 19.376C9.18262 19.5638 9.26613 19.6264 9.41227 19.5638Z" fill="#FDFDFD"/>
<path d="M10.2474 21.3791C10.2683 21.3791 10.3309 21.3583 10.4144 21.2748C10.6649 21.1079 10.8528 20.8992 11.0198 20.6488C11.166 20.4193 11.2495 20.2107 11.2495 20.0229C11.2495 19.7725 11.1451 19.6473 10.9572 19.6473C10.7276 19.6473 10.5814 19.7933 10.4979 20.0855C10.4979 20.1481 10.477 20.1898 10.477 20.1898C10.4979 20.1898 10.4979 20.1898 10.4979 20.2107C10.4979 20.2107 10.5397 20.1898 10.5814 20.1689C10.6441 20.1272 10.7067 20.1063 10.7693 20.1063C10.8946 20.1063 10.9572 20.1689 10.9572 20.315C10.9572 20.461 10.7484 20.7532 10.3518 21.1913C10.2891 21.3165 10.2474 21.3791 10.2474 21.3791Z" fill="#FDFDFD"/>
<path d="M15.571 33.1892C15.5919 33.1683 15.5919 33.1475 15.5919 33.1266C15.5919 33.1057 15.571 33.1057 15.5502 33.1266C15.4249 33.2101 15.2788 33.3561 15.1326 33.5648C14.9656 33.7943 14.8821 34.003 14.8821 34.1908C14.8821 34.3786 14.9656 34.4829 15.1535 34.4829C15.237 34.4829 15.3205 34.4411 15.3832 34.3786C15.4667 34.2951 15.5084 34.1908 15.5084 34.0864C15.5084 33.9612 15.4249 33.8778 15.2788 33.8778C15.2161 33.8778 15.1535 33.8986 15.1117 33.9404C15.1117 33.8569 15.1744 33.7317 15.2788 33.5857C15.3623 33.3979 15.4667 33.2727 15.571 33.1892Z" fill="#FDFDFD"/>
<path d="M12.7735 15.1611C13.0866 14.9316 13.3372 14.6812 13.5459 14.3682C13.7338 14.0761 13.8382 13.8049 13.8382 13.5753C13.8382 13.2624 13.713 13.0954 13.4624 13.0954C13.1493 13.0954 12.9614 13.2832 12.8779 13.6797C12.857 13.7631 12.857 13.8049 12.857 13.8257C12.8736 13.8466 12.8779 13.8466 12.8988 13.8466C12.9196 13.8466 12.9405 13.8257 13.0031 13.784C13.0866 13.7423 13.1702 13.7005 13.2537 13.7005C13.4207 13.7005 13.5042 13.784 13.5042 13.9718C13.5042 14.1596 13.2328 14.5352 12.7317 15.0985C12.6273 15.2029 12.5647 15.2863 12.5647 15.3072C12.5856 15.2863 12.6482 15.2446 12.7735 15.1611Z" fill="#FDFDFD"/>
<path d="M16.8863 11.3636C17.0742 11.3427 17.2412 11.2801 17.3873 11.1758C17.5335 11.0923 17.6379 10.988 17.6796 10.8836C17.7423 10.7376 17.7214 10.6541 17.617 10.5915C17.4917 10.5289 17.3665 10.5707 17.2412 10.7167C17.2203 10.7584 17.1994 10.7793 17.1994 10.7793C17.1994 10.7793 17.1994 10.7793 17.2203 10.8002C17.2203 10.8002 17.2412 10.8002 17.283 10.8002C17.3247 10.8002 17.3665 10.8002 17.4082 10.821C17.4708 10.8628 17.4917 10.9045 17.4709 10.988C17.4291 11.0714 17.2412 11.1758 16.8863 11.3218C16.8237 11.3427 16.7819 11.3636 16.7819 11.3844C16.761 11.3636 16.8028 11.3636 16.8863 11.3636Z" fill="#FDFDFD"/>
<path d="M20.0388 10.2577C20.164 10.3203 20.2893 10.2785 20.4145 10.1325C20.4354 10.0907 20.4563 10.0907 20.4563 10.0699C20.4563 10.0699 20.4563 10.0699 20.4354 10.049C20.4354 10.049 20.4145 10.049 20.3728 10.049C20.331 10.049 20.2893 10.049 20.2475 10.0281C20.164 9.98641 20.164 9.94468 20.1849 9.86122C20.2267 9.77775 20.4145 9.67342 20.7695 9.52736C20.8321 9.5065 20.8738 9.48563 20.8738 9.46477C20.8738 9.46477 20.8112 9.46477 20.7486 9.48563C20.5607 9.52736 20.3937 9.58996 20.2475 9.67342C20.1014 9.75689 19.997 9.86122 19.9552 9.96555C19.8926 10.1116 19.9135 10.2159 20.0388 10.2577Z" fill="#FDFDFD"/>
<path d="M23.2747 25.1141C23.2956 25.0933 23.3165 25.0515 23.2956 25.0307C23.2956 25.0098 23.2747 25.0098 23.233 25.0307C23.0868 25.1141 22.9407 25.2811 22.7737 25.5106C22.5858 25.7818 22.5023 25.9905 22.5023 26.1992C22.5023 26.4078 22.6066 26.5122 22.7945 26.5122C22.878 26.5122 22.9615 26.4704 23.0451 26.387C23.1286 26.3035 23.1912 26.1992 23.1912 26.0531C23.1912 25.907 23.1077 25.8444 22.9407 25.8444C22.878 25.8444 22.7945 25.8653 22.7528 25.907C22.7528 25.8236 22.8154 25.6984 22.9407 25.5106C23.0659 25.3437 23.1703 25.2185 23.2747 25.1141Z" fill="#FDFDFD"/>
<path d="M12.9405 27.2007C12.9614 27.1799 12.9614 27.159 12.9614 27.1381C12.9614 27.1173 12.9405 27.1173 12.9196 27.1381C12.7944 27.2216 12.6482 27.3676 12.5021 27.5763C12.3351 27.8058 12.2516 28.0145 12.2516 28.2023C12.2516 28.3901 12.3351 28.4944 12.523 28.4944C12.6065 28.4944 12.69 28.4527 12.7526 28.3901C12.8361 28.3066 12.8779 28.2023 12.8779 28.098C12.8779 27.9728 12.7944 27.8893 12.6482 27.8893C12.5856 27.8893 12.523 27.9102 12.4812 27.9519C12.4812 27.8684 12.5438 27.7432 12.6482 27.5972C12.7317 27.4094 12.8361 27.305 12.9405 27.2007Z" fill="#FDFDFD"/>
<path d="M27.1578 27.8476C27.137 27.8476 27.0952 27.9102 27.0326 28.0145C26.782 28.4735 26.6568 28.9117 26.6568 29.3499C26.6568 29.6838 26.7612 29.8715 26.9699 29.8715C27.1578 29.8715 27.304 29.642 27.3875 29.183C27.3875 29.1621 27.3875 29.1412 27.3875 29.1412C27.3875 29.1412 27.3875 29.1412 27.3666 29.1412C27.3666 29.1621 27.3457 29.1621 27.3457 29.183C27.2413 29.3916 27.137 29.4751 27.0534 29.4751C26.9073 29.4751 26.8447 29.3499 26.8447 29.0786C26.8447 28.8908 26.9282 28.557 27.0743 28.0771C27.137 27.931 27.1578 27.8684 27.1578 27.8476Z" fill="#FDFDFD"/>
<path d="M9.99682 29.2247C9.97594 29.2247 9.97594 29.2456 9.95506 29.2873C9.80892 29.5586 9.66278 29.7046 9.53752 29.7255C9.32875 29.7464 9.22436 29.5377 9.22436 29.1412C9.22436 29.0787 9.22436 29.0161 9.24524 28.9535C9.30787 28.4318 9.49577 27.8684 9.76717 27.2633C9.80893 27.159 9.8298 27.0964 9.8298 27.0755C9.80892 27.0755 9.76717 27.1381 9.68366 27.2425C9.5584 27.4303 9.41226 27.7224 9.24524 28.1606C9.05735 28.6822 8.95296 29.0995 8.93209 29.4334C8.91121 29.7046 8.95296 29.9133 9.03647 30.0802C9.11998 30.2471 9.22436 30.3097 9.39138 30.3097C9.53752 30.3097 9.66279 30.2054 9.76717 29.9967C9.89243 29.7881 9.95506 29.5586 9.99682 29.2873C10.0177 29.2664 10.0177 29.2456 9.99682 29.2247C10.0177 29.2247 10.0177 29.2247 9.99682 29.2247Z" fill="#FDFDFD"/>
<path d="M10.3517 16.9765C10.4561 17.0599 10.5187 17.1016 10.5814 17.1016C10.6231 17.1016 10.6649 17.0808 10.6858 17.0599C10.6858 17.039 10.7275 17.0182 10.7484 17.0182C10.7902 17.0182 10.8945 17.2477 11.0616 17.7068C11.2077 18.1449 11.2912 18.4162 11.2912 18.5414C11.2912 18.604 11.3121 18.6457 11.333 18.6457C11.3538 18.6457 11.3956 18.604 11.4373 18.5205C11.5 18.3953 11.5626 18.2075 11.6044 17.9154C11.7714 17.0182 11.9175 16.58 12.0428 16.58C12.1054 16.58 12.168 16.6217 12.2307 16.6843C12.2933 16.7678 12.3351 16.7887 12.3351 16.7887C12.3768 16.7887 12.4186 16.7469 12.4394 16.6426C12.4603 16.58 12.4812 16.5174 12.4812 16.4757C12.4812 16.4131 12.4394 16.3505 12.3768 16.2462C12.2933 16.1418 12.2098 16.0792 12.1263 16.0792C11.9801 16.0792 11.834 16.2253 11.6879 16.5383C11.5417 17.1016 11.4582 17.5398 11.4165 17.8946C11.3956 17.9363 11.3956 17.9571 11.3956 17.9571C11.3956 17.9571 11.3956 17.9571 11.3747 17.9571C11.3747 17.9571 11.3747 17.9363 11.3747 17.8946C11.3121 17.4981 11.1868 17.1434 11.0198 16.8304C10.8319 16.4757 10.644 16.3087 10.477 16.3087C10.4561 16.3087 10.4144 16.3713 10.3309 16.4965C10.2473 16.6217 10.2056 16.7052 10.2056 16.7261C10.2056 16.8304 10.2473 16.893 10.3517 16.9765Z" fill="#FDFDFD"/>
<path d="M35.6339 17.8111C35.6339 17.7068 35.6548 17.665 35.6966 17.7276C36.0932 18.1867 36.302 18.3119 36.302 18.1032C36.302 18.0406 36.2811 17.9363 36.2394 17.8111C36.1976 17.6442 36.0306 17.1851 35.7383 16.4548C35.4669 15.7454 35.2999 15.3281 35.2164 15.1611C35.1538 15.0359 35.0911 15.0359 35.0285 15.1611C34.7571 15.7454 34.6318 16.121 34.6318 16.3088C34.778 16.58 34.8406 16.9556 34.8406 17.3938C34.8406 17.7694 34.9867 20.1481 35.2999 24.5299C35.6131 28.8908 35.7592 31.2904 35.7592 31.7286C35.7592 32.2085 35.7383 32.6467 35.6966 33.0223C35.6548 33.2935 35.6548 33.4605 35.6757 33.5439C35.6966 33.6274 35.7383 33.6065 35.801 33.5022C35.8427 33.4187 35.9053 33.3144 35.968 33.1475C36.302 32.3546 36.469 31.3947 36.469 30.3306C36.469 29.9759 36.3229 27.8267 36.0306 23.8622C35.7801 19.8351 35.6339 17.8528 35.6339 17.8111Z" fill="#FDFDFD"/>
<path d="M33.1913 15.0777C33.1913 14.9525 33.2122 14.9316 33.2539 14.9942C33.6506 15.4533 33.8385 15.5576 33.8385 15.3698C33.8385 15.3072 33.8176 15.2029 33.7967 15.0777C33.7341 14.9107 33.5671 14.4517 33.2957 13.7214C33.0243 13.0328 32.8364 12.5946 32.7738 12.4277C32.732 12.3442 32.7111 12.3234 32.6694 12.3234C32.6485 12.3234 32.6068 12.3651 32.5859 12.4277C32.3145 13.0328 32.1892 13.4084 32.1892 13.5753C32.3562 13.8675 32.4189 14.2222 32.4189 14.6604C32.4189 15.1403 32.6276 18.2075 33.0452 23.8622C33.4627 29.5168 33.6715 32.5424 33.6715 32.9388C33.6715 33.5648 33.6089 33.9404 33.4836 34.0447C33.066 34.3786 32.6276 34.5455 32.1892 34.5455C31.6464 34.5455 31.208 34.3577 30.8113 33.9612C31.3541 33.377 31.6255 32.6258 31.6255 31.7286C31.6255 31.3739 31.5003 30.9774 31.2706 30.5392C30.9992 30.0385 30.7278 29.7881 30.4147 29.7881C30.0806 29.7881 29.8092 29.9967 29.6004 30.4141C29.3917 30.8314 29.2873 31.3947 29.2873 32.0833C29.2873 32.5424 29.3708 32.9806 29.5378 33.4187L28.4104 33.8986C27.2831 34.3786 26.4689 34.7333 26.0096 34.9837C25.2162 35.401 24.5899 35.8809 24.1098 36.4234C23.734 36.8616 23.3582 37.2998 23.0033 37.738C22.4187 38.3013 21.8342 38.5935 21.2705 38.5935C20.9573 38.5935 20.6859 38.4683 20.5189 38.2387C20.3519 38.0301 20.2684 37.738 20.2684 37.3624C20.2684 36.8825 20.4145 36.2565 20.7277 35.4427C20.9991 34.7124 21.1452 34.2534 21.187 34.0656C21.5627 33.7526 21.8968 33.4605 22.1682 33.1475C22.5649 32.7093 22.7527 32.0625 22.7527 31.207C22.7527 30.7688 22.6066 30.268 22.3143 29.6629C21.9385 28.9326 21.7506 28.5361 21.7298 28.4527C21.9803 28.5361 22.1473 28.557 22.2726 28.557C22.377 28.557 22.4396 28.5361 22.4396 28.4527C22.4396 28.3901 22.3978 28.3275 22.2934 28.2231C21.7089 27.6598 21.3331 27.2842 21.1452 27.0755C21.0826 27.0129 21.0408 26.9921 20.9991 26.9921C20.9573 26.9921 20.9364 27.0547 20.9156 27.159C20.7903 27.7641 20.7277 28.1188 20.7277 28.1814C20.7277 28.2649 20.7694 28.3483 20.8529 28.4109C20.9364 28.4944 21.0199 28.6196 21.0826 28.8283C21.2496 29.4542 21.5001 30.1011 21.855 30.7479C22.1473 31.3113 22.2934 31.6034 22.2934 31.6451C22.2934 31.8747 21.9385 32.2502 21.2496 32.7928C20.4771 33.3979 19.6212 33.8778 18.64 34.2742C17.45 34.775 16.3017 35.0254 15.237 35.0254C14.0261 35.0254 13.0866 34.6289 12.4603 33.8569C11.9801 33.2727 11.7505 32.6258 11.7505 31.9373C11.7505 31.7286 11.7923 31.4156 11.8966 30.9983C11.9384 30.8314 11.9801 30.6853 12.001 30.5184C12.1472 30.5601 12.2933 30.6018 12.4603 30.6018C13.0031 30.6018 13.5459 30.2889 14.0887 29.6629C15.0073 28.6196 15.6963 27.931 16.1764 27.5554C16.427 27.3468 16.9071 27.0964 17.617 26.7625C17.9719 26.5956 18.4938 26.3661 19.2036 26.074C20.3519 25.594 21.0826 25.2185 21.4166 24.9263C21.8759 24.5299 22.1056 23.9456 22.1056 23.1736C22.1056 22.965 22.0012 22.6102 21.7924 22.1303C21.7298 21.9843 21.7089 21.9217 21.7298 21.9217C21.7506 21.9217 21.7924 21.9634 21.8759 22.026C22.4605 22.5685 23.045 23.0901 23.6296 23.6327C23.8175 23.7996 24.0054 23.9248 24.2141 24.0291C24.2768 24.8637 24.3394 25.8862 24.4229 27.0547C24.6943 30.8314 24.8405 32.9388 24.8405 33.377C24.8405 33.8569 24.8196 34.2951 24.7778 34.6498C24.7361 34.9211 24.7361 35.088 24.7569 35.1715C24.7778 35.2549 24.7987 35.2341 24.8822 35.1297C24.924 35.0463 24.9866 34.9419 25.0492 34.775C25.3833 33.9612 25.5503 33.0223 25.5503 31.9581C25.5503 31.6034 25.425 29.7463 25.1745 26.3869C25.1119 25.6358 25.0701 24.9681 25.0284 24.3838C25.2162 24.4256 25.3833 24.4464 25.5712 24.4464C25.7591 24.4673 25.9469 24.4673 26.1557 24.4464C26.6985 24.4464 27.1787 24.1126 27.5962 23.4866C28.0764 22.7354 28.3269 21.6713 28.3269 20.3567C28.3269 19.8977 28.2434 18.4788 28.0555 16.1001C27.8885 13.7214 27.7841 12.5112 27.7841 12.4903C27.7841 12.3651 27.805 12.3442 27.8468 12.4068C28.2434 12.845 28.4313 12.9702 28.4313 12.7616C28.4313 12.699 28.4104 12.6155 28.3896 12.4694C28.3269 12.3025 28.1599 11.8643 27.8885 11.1132C27.6171 10.4037 27.4501 9.98641 27.3666 9.81948C27.3248 9.73602 27.304 9.69428 27.2622 9.69428C27.2413 9.69428 27.1996 9.73602 27.1787 9.79861C26.9073 10.4037 26.782 10.7793 26.782 10.9462C26.9282 11.2384 26.9908 11.5931 26.9908 12.0313C26.9908 12.5112 27.0952 14.1178 27.2831 16.8304C27.4919 19.543 27.5754 21.087 27.5754 21.4835C27.5754 22.1095 27.5127 22.485 27.3875 22.5894C26.9699 22.9232 26.5315 23.0901 26.0931 23.0901C25.9052 23.1319 25.7173 23.1319 25.5085 23.0901C25.2998 23.0901 25.091 23.0484 24.8613 22.9858C24.7778 21.8799 24.7361 21.3166 24.7361 21.2957C24.7361 21.1705 24.757 21.1496 24.7987 21.2122C25.1954 21.6504 25.3833 21.7756 25.3833 21.5669C25.3833 21.5043 25.3624 21.4 25.3206 21.2748C25.2789 21.1079 25.1119 20.6488 24.8196 19.9185C24.5482 19.2091 24.3812 18.7918 24.2977 18.6249C24.235 18.4997 24.1724 18.4997 24.1098 18.6249C23.8592 19.2091 23.7131 19.5847 23.7131 19.7725C23.8592 20.0646 23.9219 20.4193 23.9219 20.8575C23.9219 21.0453 23.9427 21.6087 24.0054 22.5685C23.9636 22.5476 23.9427 22.5268 23.901 22.5059C23.4626 22.1303 23.0241 21.7339 22.5857 21.3583C21.1243 20.1272 19.4542 18.8752 17.5752 17.6233C16.7819 17.1017 15.9886 16.6009 15.1743 16.1001C15.0908 16.0584 15.0908 16.0166 15.1535 15.9749C16.0721 15.2446 17.7631 14.3056 20.2475 13.158C22.7319 12.0104 24.2977 11.447 24.9657 11.447C25.3833 11.447 25.592 11.5305 25.592 11.6765C25.592 11.6974 25.592 11.7391 25.5712 11.76C25.425 12.0313 24.9866 12.5738 24.235 13.4084C24.1515 13.5127 24.0262 13.7214 23.8384 14.0344C23.6505 14.3891 23.5461 14.6186 23.5043 14.7647C23.4626 15.0151 23.4417 15.1403 23.4626 15.1403C23.4834 15.1403 23.5461 15.0359 23.6296 14.8481C23.7757 14.556 24.0263 14.2013 24.4229 13.7423C24.6734 13.471 24.924 13.1789 25.1745 12.9076C25.8217 12.0939 26.1557 11.4261 26.1557 10.8628C26.1557 10.6332 26.114 10.4663 26.0096 10.362C25.9261 10.2577 25.7382 10.2159 25.4876 10.2159C24.6526 10.2159 22.9198 10.8002 20.2892 11.9895C17.7005 13.158 16.0094 14.097 15.2161 14.8064C15.0908 14.9107 15.0073 15.1611 14.9238 15.5784C14.8403 15.9332 14.8194 16.2879 14.8194 16.6217C14.8194 16.893 14.8403 17.0391 14.9029 17.0808C16.3017 18.2075 17.7214 19.3134 19.1201 20.4402C20.5815 21.6504 21.4166 22.6311 21.6254 23.3614C21.6671 23.5075 21.6254 23.6118 21.521 23.6953C21.1452 23.9665 20.3519 24.363 19.141 24.8637C18.0136 25.3228 17.2203 25.6984 16.761 25.9279C15.9677 26.3452 15.3414 26.8251 14.8612 27.3676C14.4854 27.8058 14.1305 28.244 13.7547 28.6822C13.1701 29.2456 12.5856 29.5377 12.0219 29.5377C11.7087 29.5377 11.4373 29.4125 11.2703 29.183C11.1033 28.9743 11.0198 28.6822 11.0198 28.3066C11.0198 27.8267 11.1659 27.2007 11.4791 26.3869C11.6044 26.0531 11.7087 25.761 11.7923 25.5523C12.3142 25.135 12.8152 24.7177 13.3372 24.3004C14.3184 23.5492 15.1743 23.0067 15.9259 22.7146C16.0721 23.0693 16.3017 23.424 16.6149 23.737C17.0324 24.1543 17.45 24.363 17.8884 24.363C18.2015 24.363 18.4729 24.2169 18.6608 23.9248C18.8487 23.6327 18.9531 23.2779 18.9531 22.8189C18.9531 22.2764 18.8278 21.8591 18.5982 21.5252C18.3685 21.1914 18.0554 21.0244 17.6587 21.0244C17.2621 21.0244 16.8028 21.1079 16.26 21.2957L16.1347 21.3583C16.0303 20.9827 15.9468 20.628 15.905 20.3359C16.1556 20.5028 16.3226 20.5862 16.427 20.5862C16.4896 20.5862 16.5105 20.5654 16.5105 20.5028C16.5105 20.4193 16.4687 20.2941 16.3435 20.1272L15.5501 18.8544C15.4666 18.7292 15.4249 18.6666 15.3831 18.6666C15.3414 18.6666 15.2996 18.7292 15.2579 18.8544L14.9447 19.6056C15.0282 19.7307 15.0908 19.8351 15.1326 19.9394C15.1535 19.9811 15.1535 20.0437 15.1743 20.1898C15.237 20.6906 15.3414 21.1705 15.4458 21.6713C14.4854 22.1303 13.5042 22.7563 12.5438 23.5701C11.9801 24.05 11.3956 24.5508 10.8319 25.0307C10.3726 25.3645 9.87156 25.5314 9.34963 25.5314C9.03647 25.5314 8.78595 25.4063 8.59805 25.1767C8.43104 24.9472 8.34753 24.6759 8.34753 24.3004C8.34753 23.8204 8.49367 23.1945 8.80682 22.3598C9.11998 21.5461 9.26612 21.0662 9.26612 20.941C9.26612 20.9201 9.26612 20.8992 9.24524 20.8784C9.20349 20.8784 9.14086 20.941 9.07823 21.087C8.3684 22.4433 8.01349 23.5492 8.01349 24.4047C8.01349 25.0307 8.20139 25.5314 8.5563 25.9696C8.89033 26.3869 9.30788 26.5747 9.76717 26.5747C10.2056 26.5747 10.6858 26.3869 11.2077 25.9905L11.3956 25.8444C10.9363 26.8669 10.7066 27.7224 10.7066 28.3901C10.7066 29.016 10.8945 29.5168 11.2494 29.955C11.4165 30.1637 11.6044 30.3097 11.8131 30.4141C11.7087 30.7479 11.6044 31.1235 11.5417 31.5617C11.4791 31.9164 11.4582 32.2502 11.4582 32.5841C11.4582 33.1057 11.5209 33.5231 11.6461 33.8569C12.3142 35.547 13.5042 36.3817 15.2579 36.3817C16.5522 36.3817 17.951 35.9644 19.4542 35.1506C20.0178 34.8376 20.498 34.5246 20.9364 34.2116C20.2475 35.547 19.9135 36.6112 19.9135 37.4458C19.9135 38.0718 20.1013 38.5726 20.4563 39.0108C20.7903 39.4281 21.2078 39.6159 21.6671 39.6159C22.2099 39.6159 22.7527 39.3029 23.2955 38.6769C24.2141 37.6336 24.9031 36.9451 25.3833 36.5695C25.6338 36.3608 26.114 36.1104 26.8238 35.7766C27.1787 35.6096 27.7006 35.3801 28.4313 35.0671L29.9554 34.4203C30.1224 34.6915 30.352 34.9628 30.6234 35.1923C31.1662 35.6305 31.6882 35.86 32.2101 35.86C32.7738 35.86 33.2539 35.547 33.6506 34.9002C34.1308 34.149 34.3813 33.0849 34.3813 31.7703C34.3813 31.3113 34.1934 28.4109 33.7967 23.0693C33.4001 17.7902 33.1913 15.0985 33.1913 15.0777ZM17.8675 22.4433C18.118 22.5476 18.2433 22.6728 18.2433 22.8189C18.2433 22.9232 18.1598 22.965 17.9719 22.965C17.5126 22.965 17.1577 22.798 16.928 22.4433C17.3664 22.3598 17.6796 22.3599 17.8675 22.4433ZM30.1432 33.1266C30.0597 33.0223 29.9762 32.8345 29.8301 32.5424C29.684 32.2085 29.6004 31.979 29.6004 31.8538C29.6004 31.6869 29.6631 31.5408 29.8092 31.353C29.9554 31.1861 30.0806 31.0818 30.2268 31.0818C30.4146 31.0818 30.6443 31.2487 30.8948 31.5825C31.1245 31.8955 31.2497 32.125 31.2497 32.292C31.2497 32.3754 31.1036 32.5215 30.7904 32.7302C30.5608 32.918 30.352 33.0431 30.1432 33.1266Z" fill="#FDFDFD"/>
<path d="M18.974 30.1845C19.2872 29.6838 19.4333 29.3708 19.4333 29.2038C19.4333 29.1621 19.2663 29.0161 18.9114 28.7865C18.5565 28.557 18.3477 28.4318 18.3059 28.4318C18.2851 28.4318 18.2433 28.4527 18.2224 28.5153L17.784 29.4125C17.7631 29.4542 17.7631 29.4751 17.784 29.496C18.1598 29.7255 18.5147 29.9759 18.8696 30.2263C18.9114 30.268 18.9531 30.2471 18.974 30.1845Z" fill="#FDFDFD"/>
<path d="M30.4773 27.785L30.1224 28.5153C30.0389 28.4318 29.8301 28.2857 29.5378 28.0771C29.2455 27.8893 29.0785 27.785 29.0368 27.785C29.0159 27.785 28.9741 27.8058 28.9533 27.8684L28.5148 28.7657C28.494 28.8074 28.494 28.8283 28.5148 28.8491C28.8906 29.0786 29.2455 29.329 29.6004 29.5794C29.6422 29.6003 29.684 29.6003 29.7257 29.5377C29.851 29.329 29.9762 29.0786 30.1015 28.8074C30.4773 29.0578 30.8322 29.2873 31.1454 29.5168C31.1871 29.5377 31.2289 29.5377 31.2706 29.4751C31.5838 28.9743 31.7299 28.6613 31.7299 28.4944C31.7299 28.4527 31.5629 28.3066 31.208 28.0771C30.8531 27.8476 30.6652 27.7224 30.6025 27.7224C30.5399 27.7015 30.4982 27.7224 30.4773 27.785Z" fill="#FDFDFD"/>
<path d="M28.8072 25.281C28.5149 25.594 28.0556 25.9279 27.4293 26.3035C26.9073 26.6165 26.4063 26.9086 25.8844 27.2007C25.7591 27.2842 25.6965 27.3259 25.6965 27.3468C25.6965 27.3468 25.6965 27.3676 25.7173 27.3676C25.7591 27.3676 25.8217 27.3468 25.9261 27.305C26.6151 27.0546 26.9908 26.9086 27.0744 26.8668C27.4084 26.7208 27.7633 26.5121 28.16 26.22C28.5149 25.9696 28.7863 25.6775 29.0159 25.3854C29.2038 25.5106 29.3291 25.594 29.3917 25.6775C29.5796 25.4271 29.6631 25.2393 29.6631 25.135C29.6214 25.0515 29.4752 24.9472 29.2873 24.8429C29.3917 24.5507 29.4335 24.3004 29.4335 24.0708C29.4335 23.8204 29.3708 23.6744 29.2247 23.6118C29.0577 23.5492 28.8489 23.6326 28.5775 23.8622C28.327 24.0917 28.2017 24.3421 28.2017 24.6133C28.2017 24.8637 28.4105 25.0724 28.8072 25.281ZM28.7027 24.2169C28.7862 24.1752 28.8489 24.1543 28.8906 24.1543C28.995 24.1543 29.0576 24.2169 29.0785 24.363C29.0994 24.4882 29.0994 24.6134 29.0576 24.7386C28.7445 24.5925 28.5775 24.4673 28.5775 24.3629C28.5775 24.3212 28.6192 24.2795 28.7027 24.2169Z" fill="#FDFDFD"/>
<path d="M27.137 32.6258C27.4292 32.6258 27.7006 32.4798 27.9303 32.1668C28.1391 31.8955 28.2434 31.6034 28.2434 31.2904C28.2434 31.0818 28.1808 30.9148 28.0764 30.7897C27.972 30.6645 27.8259 30.6019 27.6798 30.6019C27.5127 30.6019 27.2831 30.8105 27.0326 31.2278C26.782 31.6452 26.6568 31.9581 26.6568 32.1877C26.6777 32.4798 26.8238 32.6258 27.137 32.6258ZM27.1161 31.4782C27.2413 31.3113 27.3457 31.207 27.3875 31.207C27.7841 31.207 27.972 31.353 27.972 31.6243C27.972 31.8747 27.7633 31.979 27.3457 31.979C27.0952 31.979 26.9491 31.9373 26.9073 31.8329C26.9282 31.7912 26.9908 31.666 27.1161 31.4782Z" fill="#FDFDFD"/>
<path d="M25.6755 17.0182C25.3415 17.1851 25.0492 17.3103 24.7987 17.3729C24.3812 17.4981 23.9427 17.5607 23.5043 17.5607C23.0868 17.5607 22.6901 17.4564 22.3352 17.2894C22.2099 17.2268 22.1056 17.1434 21.9803 17.0599C21.8759 16.9765 21.8342 16.9556 21.8342 16.9556C21.7715 16.9556 21.7089 17.0599 21.688 17.2686C21.8968 17.5607 22.0012 17.7276 22.0012 17.7485C22.0638 17.8945 22.1056 18.0615 22.1056 18.2701C22.1056 18.3745 22.1056 18.4371 22.1264 18.4371C22.1473 18.4371 22.1682 18.3953 22.1891 18.291C22.2726 18.0615 22.2934 17.8737 22.2517 17.7068C22.6066 17.8945 23.0033 17.978 23.4208 17.978C24.2141 17.978 25.0284 17.7694 25.8843 17.3312C25.9678 17.2894 26.0513 17.2686 26.0931 17.2686C26.1766 17.2686 26.2392 17.3103 26.281 17.4146C26.1766 17.519 26.0722 17.6233 25.9887 17.7276C25.8217 17.9154 25.6964 18.1032 25.6338 18.291C25.592 18.3745 25.592 18.4162 25.592 18.4371C25.6129 18.4371 25.6755 18.3536 25.7799 18.2284C25.8426 18.1449 25.9678 17.978 26.1766 17.7694C26.3227 17.6024 26.4062 17.4981 26.4271 17.4146C26.4689 17.3103 26.5106 17.206 26.5106 17.1225C26.5106 16.9347 26.4062 16.8513 26.2183 16.8513C26.114 16.8304 25.9469 16.893 25.6755 17.0182Z" fill="#FDFDFD"/>
<path d="M16.2182 31.353C16.427 31.04 16.5523 30.8522 16.5523 30.7688C16.5523 30.5601 16.093 30.4558 15.1744 30.4558C14.8821 30.4558 14.6942 30.4558 14.6107 30.4767C14.3811 30.5184 14.2349 30.6018 14.1514 30.7479L13.8591 31.207C13.8174 31.2696 13.7965 31.3113 13.7965 31.3322C13.7965 31.353 13.8591 31.3739 14.0053 31.353C14.3184 31.3321 14.4646 31.3322 14.4646 31.3322C15.2579 31.3322 15.6754 31.3739 15.6754 31.4991C15.6754 31.5199 15.6754 31.5199 15.6546 31.5408C15.5711 31.6034 15.3205 31.7495 14.8612 31.9999C14.4019 32.2502 14.1097 32.3963 14.0053 32.4798C13.9218 32.5424 13.8591 32.5841 13.8591 32.605C13.8591 32.605 13.9218 32.605 14.0679 32.5632C14.8821 32.3546 15.3414 32.1876 15.4875 32.1042C15.7381 31.9373 15.9677 31.6869 16.2182 31.353Z" fill="#FDFDFD"/>
<path d="M23.9219 9.29782C23.9427 9.25609 23.9427 9.21436 23.9219 9.21436C23.9219 9.21436 23.8801 9.21436 23.8175 9.23523C20.9573 10.2994 18.1389 11.3635 15.3831 12.386C15.2996 12.5529 15.237 12.699 15.2161 12.845C18.285 11.6348 21.1452 10.5498 23.7966 9.56908C23.8175 9.52735 23.8592 9.44388 23.9219 9.29782Z" fill="#FDFDFD"/>
<path d="M19.2037 15.3281C19.3916 15.2655 19.6212 15.2237 19.9344 15.2029C20.2058 15.182 20.3937 15.2029 20.4563 15.2237C20.5398 15.3281 20.6024 15.4115 20.6024 15.4533C20.6442 15.4741 20.7277 15.4115 20.853 15.2863C20.8947 15.2446 20.9156 15.2029 20.9156 15.1403C20.9156 15.0777 20.8738 15.0151 20.7695 14.9525C20.6651 14.8899 20.5189 14.869 20.331 14.869C19.8717 14.869 19.4333 14.9942 19.0158 15.2655C18.8488 15.3698 18.7444 15.4741 18.7444 15.5785C18.7444 15.7037 18.8696 15.8288 19.141 15.9749C19.5586 16.1627 19.8717 16.2879 20.1014 16.3714C20.4354 16.5592 20.5816 16.7469 20.5398 16.893C20.4354 16.8721 20.1431 16.7678 19.663 16.6009C19.141 16.4131 18.807 16.2879 18.6817 16.2253C18.3686 16.0584 18.1807 15.8914 18.0972 15.7454C18.0763 15.7871 18.0763 15.8497 18.0763 15.9123C18.0763 16.2253 18.2225 16.4548 18.5147 16.6217C18.8696 16.8095 19.4542 17.0182 20.3102 17.2269C20.3728 17.2477 20.4563 17.1851 20.6024 17.0599C20.7486 16.9347 20.853 16.7887 20.853 16.6635C20.8738 16.4548 20.7486 16.2462 20.4563 16.0792C20.3937 16.0584 20.2684 15.9958 20.0179 15.9123C19.7882 15.8288 19.5795 15.7454 19.4333 15.6619C19.2454 15.5576 19.141 15.4741 19.141 15.4115C19.1202 15.3698 19.141 15.3489 19.2037 15.3281Z" fill="#FDFDFD"/>
<path d="M21.521 26.1574C21.5419 26.1157 21.5419 26.074 21.521 26.074C21.521 26.074 21.4792 26.074 21.4166 26.0948C19.6421 26.7417 17.9301 27.3676 16.2808 27.9936C16.1973 28.1605 16.1347 28.3066 16.1138 28.4527C16.3017 28.3483 17.2412 27.9728 18.8905 27.3676C20.5189 26.7625 21.3331 26.4495 21.354 26.4287C21.4166 26.3869 21.4584 26.3035 21.521 26.1574Z" fill="#FDFDFD"/>
<path d="M13.3998 17.4564C13.2328 17.4146 13.0866 17.4564 13.0031 17.519L12.6691 17.7902C12.6065 17.832 12.5856 17.8528 12.5856 17.8528C12.5856 17.8737 12.6273 17.8946 12.7317 17.9363C12.9614 18.0198 13.0658 18.0406 13.0658 18.0406C13.6503 18.2493 13.9217 18.3953 13.9009 18.4788L13.88 18.4997C13.7965 18.5205 13.5668 18.5623 13.1702 18.6249C12.7526 18.6875 12.5021 18.7083 12.3977 18.7501C12.3142 18.7709 12.2724 18.7918 12.2516 18.7918C12.2516 18.7918 12.3142 18.8127 12.4186 18.8127C13.0658 18.8753 13.4624 18.8961 13.5877 18.8544C13.7965 18.7918 14.047 18.6875 14.3184 18.4997C14.5689 18.3327 14.6942 18.2284 14.7151 18.1658C14.7777 18.0198 14.4645 17.8111 13.7965 17.5607C13.6086 17.4981 13.4624 17.4564 13.3998 17.4564Z" fill="#FDFDFD"/>
<path d="M9.97596 23.8205C10.2056 23.6953 10.4353 23.5701 10.6232 23.4031C11.2912 22.8606 11.8758 22.2138 12.356 21.4418C12.5021 21.4418 12.7109 21.5252 12.9405 21.6713C13.1075 21.7965 13.2954 21.9217 13.4624 22.0469C13.4833 22.0677 13.5668 22.0469 13.7338 22.0051C13.88 21.9634 13.9635 21.9425 14.0052 21.9008C14.0888 21.7965 14.1305 21.6087 14.1305 21.3166C14.1305 21.0244 14.0888 20.8366 14.0052 20.7323C13.8382 20.5237 13.5251 20.5654 13.0449 20.8784C12.9614 20.941 12.9405 20.9618 12.9405 20.9827C12.9405 20.9827 13.024 21.0036 13.1702 20.9827C13.3163 20.9827 13.3998 21.0036 13.4207 21.0244C13.4833 21.1079 13.5042 21.2122 13.4833 21.3583C13.2537 21.2122 13.0867 21.1288 12.9614 21.087C12.7109 21.0453 12.4603 21.1288 12.1889 21.3374C12.1054 21.4 11.834 21.713 11.3956 22.2555C10.9363 22.798 10.5396 23.2362 10.143 23.5492C9.91333 23.737 9.80895 23.8413 9.80895 23.8622C9.8507 23.8831 9.89246 23.8622 9.97596 23.8205Z" fill="#FDFDFD"/>
<path d="M37.6381 20.5863C37.8678 20.2315 37.993 19.9185 37.993 19.6264C37.993 19.2508 37.8469 19.063 37.5338 19.063C37.158 19.063 36.9283 19.2926 36.8239 19.7516C36.8031 19.8351 36.8031 19.8977 36.7822 19.9185C36.8031 19.9185 36.8031 19.9394 36.8239 19.9394C36.8448 19.9394 36.8866 19.9185 36.9492 19.8559C37.0327 19.7934 37.1371 19.7725 37.2415 19.7725C37.4502 19.7725 37.5338 19.8768 37.5338 20.0855C37.5338 20.315 37.2206 20.7532 36.5943 21.4417C36.469 21.5878 36.4064 21.6504 36.4064 21.6713C36.4273 21.6713 36.5317 21.6087 36.6778 21.5043C37.0953 21.2957 37.4085 20.9618 37.6381 20.5863Z" fill="#FDFDFD"/>
<path d="M29.6631 36.0061C29.4543 36.0061 29.2664 36.2147 29.0785 36.6321C28.9115 37.2163 28.8071 37.6545 28.7654 37.9466C28.7445 37.9883 28.7445 38.0301 28.7236 38.0301C28.7236 38.0509 28.7236 38.0509 28.7027 38.0301C28.7027 38.0301 28.7027 37.9883 28.6819 37.9466C28.5984 37.4458 28.4522 37.0494 28.2434 36.7573C28.0347 36.4443 27.805 36.2982 27.5545 36.2982C27.5336 36.2982 27.4501 36.3817 27.3457 36.5695C27.2413 36.7364 27.1787 36.8407 27.1787 36.8825C27.1787 36.9451 27.2413 37.0494 27.3666 37.1537C27.4919 37.258 27.5962 37.3206 27.6798 37.3206C27.7424 37.3206 27.7841 37.2998 27.805 37.2789C27.8259 37.2372 27.8468 37.2372 27.9094 37.2372C27.9929 37.2372 28.0973 37.4458 28.2852 37.884C28.4522 38.3222 28.5566 38.6143 28.5566 38.7604C28.5566 38.8647 28.5775 38.9064 28.6192 38.9064C28.661 38.9064 28.7027 38.8438 28.7654 38.7395C28.8489 38.5935 28.9324 38.3222 28.995 37.9466C29.1412 37.0911 29.3291 36.6529 29.5169 36.6529C29.6005 36.6529 29.684 36.6947 29.7675 36.799C29.851 36.9033 29.8927 36.945 29.9136 36.945C29.9762 36.945 30.018 36.8825 30.0598 36.7573C30.1015 36.6529 30.1015 36.5903 30.1015 36.5277C30.1015 36.4443 30.0598 36.3399 29.9554 36.2356C29.8719 36.0687 29.7675 36.0061 29.6631 36.0061Z" fill="#FDFDFD"/>
<path d="M38.8282 23.4657C38.7447 23.3614 38.682 23.3197 38.5985 23.3197C38.4524 23.3197 38.3062 23.4657 38.181 23.7787C38.0557 24.3212 37.9513 24.7386 37.9096 25.0724C37.8887 25.1141 37.8887 25.135 37.8887 25.135H37.8678C37.8678 25.135 37.8678 25.1141 37.8678 25.0724C37.8052 24.6968 37.7008 24.3421 37.5338 24.05C37.3668 23.7161 37.1789 23.5492 37.0119 23.5492C36.991 23.5492 36.9492 23.6118 36.8657 23.737C36.7822 23.8622 36.7613 23.9457 36.7613 23.9665C36.7613 24.0083 36.8031 24.0709 36.9075 24.1543C36.991 24.2378 37.0745 24.2795 37.1371 24.2795C37.1789 24.2795 37.2206 24.2586 37.2206 24.2378C37.2415 24.2169 37.2624 24.196 37.2833 24.196C37.325 24.196 37.4294 24.4047 37.5756 24.8429C37.7217 25.2602 37.7843 25.5315 37.7843 25.6567C37.7843 25.7193 37.8052 25.761 37.8261 25.761C37.847 25.761 37.8887 25.7193 37.9305 25.6567C37.9931 25.5523 38.0557 25.3437 38.0975 25.0724C38.2436 24.2169 38.3898 23.7996 38.515 23.7996C38.5777 23.7996 38.6403 23.8413 38.682 23.9039C38.7447 23.9665 38.7655 24.0083 38.7864 24.0083C38.8282 24.0083 38.8699 23.9665 38.8908 23.8622C38.9117 23.7996 38.9326 23.737 38.9326 23.6953C38.9326 23.6327 38.8908 23.5492 38.8282 23.4657Z" fill="#FDFDFD"/>
<path d="M38.3897 26.8251C38.1392 26.9712 37.8887 27.2424 37.5964 27.6598C37.2833 28.1188 37.1162 28.5153 37.1162 28.8491C37.1162 29.2247 37.2833 29.4125 37.6173 29.4125C37.7634 29.4125 37.9304 29.3499 38.0557 29.2038C38.2227 29.0578 38.3062 28.8491 38.3062 28.6196C38.3062 28.3692 38.1601 28.244 37.8678 28.244C37.7426 28.244 37.6173 28.2857 37.5338 28.3692C37.5338 28.2231 37.6382 27.9936 37.8469 27.6806C38.0348 27.3885 38.2227 27.159 38.4106 26.9921C38.4524 26.9503 38.4733 26.9086 38.4524 26.8669C38.4733 26.8043 38.4315 26.8043 38.3897 26.8251Z" fill="#FDFDFD"/>
<path d="M18.4312 36.4652C18.118 36.4652 17.9301 36.6529 17.8466 37.0494C17.8258 37.1329 17.8258 37.1746 17.8258 37.1955C17.8466 37.1955 17.8466 37.1955 17.8675 37.2163C17.8884 37.2163 17.9093 37.1955 17.9719 37.1537C18.0554 37.112 18.1389 37.0703 18.2224 37.0703C18.3894 37.0703 18.473 37.1537 18.473 37.3415C18.473 37.5293 18.2016 37.9049 17.7005 38.4683C17.5961 38.5726 17.5335 38.6561 17.5335 38.6769C17.5544 38.6769 17.6379 38.6352 17.7631 38.5517C18.0763 38.3222 18.3268 38.0718 18.5356 37.7588C18.7235 37.4667 18.8279 37.1955 18.8279 36.9659C18.807 36.6321 18.6817 36.4652 18.4312 36.4652Z" fill="#FDFDFD"/>
<path d="M25.8843 37.4876C25.9052 37.425 25.9261 37.3832 25.9261 37.3624C25.9052 37.3624 25.8843 37.4041 25.8426 37.4667C25.7382 37.6336 25.6129 37.884 25.4876 38.2596C25.3206 38.6769 25.2371 39.0108 25.2371 39.2194C25.2371 39.4072 25.258 39.5324 25.2998 39.6367C25.3415 39.7411 25.425 39.8037 25.5294 39.7828C25.6129 39.7828 25.6964 39.7202 25.7799 39.5741C25.8634 39.449 25.9052 39.282 25.9261 39.1151C25.9261 39.0942 25.9261 39.0734 25.9261 39.0734C25.9261 39.0734 25.9261 39.0525 25.9052 39.0734C25.9052 39.0734 25.8843 39.0942 25.8843 39.1151C25.8008 39.282 25.6964 39.3864 25.6129 39.4072C25.5712 39.4072 25.5294 39.3864 25.4876 39.3446C25.4459 39.282 25.4041 39.1777 25.4041 39.0316C25.4041 38.9273 25.425 38.823 25.4459 38.6978C25.5085 38.4057 25.6547 37.9883 25.8843 37.4876Z" fill="#FDFDFD"/>
</svg>
