<?xml version="1.0" encoding="utf-8"?>
<!-- Generator: Adobe Illustrator 25.2.0, SVG Export Plug-In . SVG Version: 6.00 Build 0)  -->
<svg version="1.2" baseProfile="tiny" id="Layer_1" xmlns="http://www.w3.org/2000/svg" xmlns:xlink="http://www.w3.org/1999/xlink"
	 x="0px" y="0px" viewBox="0 0 2724.3 595.3" overflow="visible" xml:space="preserve">
<g>
	<path fill="white" d="M2172.2,149.5c-47,25.4-94.8,46.7-136.7,77.9c16.2,13.2,31.7,25.8,47.1,38.6c12.3,10.2,24.4,20.6,36.4,31.3
		c14.3,12.7,28.2,25.7,42.3,38.6c3.1,2.8,6.8,5.2,9.6,8.3c8.2,9.2,16,18.8,24.2,28.1c9.1,10.3,17.9,21,27.9,30.4
		c5.4,5.1,12.4,9.4,20.6,10c3.9,0.3,7.7,1.3,11.6,1.5c20,1.1,34-8.5,44.5-24.8c5.3-8.2,11.4-15.9,17.9-23.1
		c2.9-3.2,6.7-7.8,13.7-3.6c-1.2,2.7-2,6-3.8,8.6c-2.8,4.1-7.6,7.6-6,13.2c1.9,6.7,5.1,13.4,11.5,16.9c10.3,5.6,20.7,11.3,33.1,11.4
		c6.2,0,12.5,1.9,18.6,1.3c16.7-1.5,33.1-3.8,49.2-9.5c25.6-9,49.3-21.9,73.5-33.6c6-2.9,12.3-5.1,18.6-7.4c1.4-0.5,3.2-0.1,6.1-0.1
		c-1.2,4.4-1.9,8.3-3.4,12c-6.7,16.7,0.7,27,16.2,31.3c13.9,3.8,24.9-0.7,34.8-9c4.4-3.7,6.6-10.1,10-15.1
		c4.9-7.3,9.9-14.6,15.3-21.5c1.4-1.8,4.4-2.2,7-3.4c2,6.7-1.1,10.7-3.5,14.9c-0.5,0.8-1.4,1.5-1.8,2.3c-3.6,6.4-2.9,10.1,4.1,16
		c7.7,6.5,16.4,10,26.7,6.4c4.5-1.6,7.2-5.8,4.6-9.5c-6.1-8.4-3.3-16.3-0.2-24.4c1-2.5,1.6-5.2,2.7-7.7c0.5-1.2,1.6-2.9,2.6-3
		c1-0.1,2.5,1.3,3.2,2.3c7.6,11.7,8,24,3.5,36.9c-1.9,5.4-3.1,11.2-4.8,16.7c-3.4,10.8-18.6,21.3-28.9,19.3
		c-12.5-2.4-22.2-9-27.3-21.2c-0.3-0.7-0.6-1.4-1.4-3c-2,2.6-3.5,4.6-4.9,6.6c-3.6,5-6.6,10.5-10.9,14.8
		c-5.4,5.4-12.4,8.3-19.8,10.7c-11,3.6-20.5,0.6-29.3-4.9c-8-5-13-12.9-13.7-22.6c-0.3-4.6-0.1-9.2-0.1-15.4c-6,2.5-11.4,4.4-16.3,7
		c-9,4.6-17.8,9.6-26.6,14.4c-3.7,2-7.2,4.5-11.1,6.1c-15.3,6.3-30.6,12.6-46.2,18.1c-6.5,2.3-13.7,2.5-20.6,3.6
		c-4,0.6-8.6-0.1-12,1.7c-3,1.6-5.6,5.4-6.7,8.8c-1.4,4.4-2.3,9.6-1.4,14c0.5,2.6,4.5,5.4,7.5,6.5c3.4,1.2,6.3-0.6,6.6-5.1
		c0.1-1,2-1.9,3.3-3c3.6,7.1-3.4,18.5-9,21.5c-4.6,2.5-13-2.3-15-7.9c-4.1-11.6,0.6-21.7,5.3-31.8c0.4-0.8,0.7-1.7,1.4-3.2
		c-31.4-0.7-55.2-11.4-62-46.2c-3.5,5.7-6.6,10.2-9.1,15c-7.3,13.9-17.9,24.3-32.7,29.8c-8.3,3.1-16.7,3.6-25.8,1.6
		c-7.5-1.6-13.9-4.4-20-8.5c-3-2-5.5-4.6-9.3-7.9c-7.6,14-15.6,27.5-22.3,41.5c-3.5,7.3-4,15.7,2.1,22.4c2,2.3,5.8,4.8,8.3,4.4
		c3.3-0.5,8.1-0.7,9.1-6.1c0.6-3.1,2.3-5.9,4.1-10.2c1.5,2.2,3,3.4,3.2,4.8c1.4,11.1-3.2,17.9-12.3,23.8c-6.3,4.1-15.9,1.6-19.8-4.7
		c-4.5-7.2-5.3-15.7-4.8-23.7c0.4-6.5,3.7-13,6.7-19.1c4.4-8.9,9.5-17.5,14.5-26.1c1.7-2.9,4.2-5.4,5.8-8.4c0.7-1.2,0.6-3.6-0.3-4.6
		c-8.8-11.2-17.9-22.2-26.9-33.3c-1.3-1.6-2.6-3.3-3.9-5c-0.5,0.3-1,0.6-1.5,0.9c1.1,2.5,2.9,5,3.3,7.6c1.4,7.6,3.3,15.3,3,22.9
		c-0.4,11-3.2,21-13.7,28.4c-8.5,6-17.6,10.4-27.1,13.2c-10.8,3.2-22.4,6.3-33.8,2.4c-9-3.1-16.7-8.5-22-16.8
		c-3.4-5.2-6.6-10.5-10.3-15.5c-5.7-7.8-16.4-8.1-25-2.2c-13.8,9.5-20.8,23.3-26.2,38.3c-3.3,9.1-6,18.5-10.3,27.1
		c-3,6.2-6.3,13.1-13.2,16.2c-2.3,1.1-5.6,1.5-8,0.8c-6.8-2.3-12.1-7-16.3-12.9c-9.8-13.8-15.7-29.4-20.6-45.3
		c-2.2-7.1-2.6-14.7-3.6-22.2c-0.9-7.1-1.5-14.2-2.2-21.8c-12.1,4.3-22.7,10.4-32.8,18.1c-16.5,12.7-30.9,27.5-45.4,42.2
		c-10.2,10.3-19,21.9-29.1,32.4c-5.7,5.9-12.6,10.5-18.9,15.8c-5.5,4.7-12.4,6.2-19.1,7.5c-4.1,0.8-9.1-0.9-13.2-2.5
		c-14.7-5.6-25.8-15.2-31.7-30.1c-0.5-1.3-1-2.8-1.2-4.2c-0.9-6.3-2-12.5-2.3-18.8c-0.2-3.8,1.1-7.7,1.6-11.5c0.5-3.7-0.8-5-4.8-5.4
		c-12.9-1.4-21.8-8.9-28.1-19.9c-4.8-8.4-7.4-17.5-8-27.2c-0.4-6.8-1.4-13.6-3-20.8c-1.4,3-2.8,6-4.1,9.1c-5.6,14-17.3,23-27.5,33.2
		c-6.8,6.8-13.7,13.7-21.4,19.5c-15.5,11.7-31.5,23-49.4,30.9c-12.1,5.3-25.2,7.7-37.4,1.1c-5.6-3-11.1-8.6-13.5-14.4
		c-4.1-9.8-8-20.2-6.6-31.2c1.4-11.1,3.2-22.2,5.8-33c1.9-8.1,5.3-15.8,8-23.7c1.6-4.5-2.8-5.4-4.9-6.5
		c-9.7-5.4-14.2-14.6-18.2-23.9c-2.5-5.7-3.7-12-6-19.6c-1.6,4-3.1,6.8-3.8,9.7c-1.7,7.8-5.2,14.5-10,20.9
		c-6.5,8.5-14.5,14.9-24.1,18.9c-12.8,5.3-26.2,9.1-39.2,1.1c-8.5-5.2-15.5-12-17.7-22.6c-0.9-4.4-1.4-8.1,0.1-12.3
		c0.7-1.9,0.1-4.2,0.1-8c-7.1,5.5-16.9,4.8-20.7,12.1c-4.7,9.1-7.8,19.2-10.5,29.2c-2,7.3-2.5,15.1-3.2,22.7
		c-0.5,5.4,2.6,9.8,6.5,12.6c2.6,1.9,7.1,2.6,10.2,1.8c4.4-1.1,4.2-6.1,5.2-9.8c0.6-2.3,1.2-4.7,1.8-7c0.7,0,1.5-0.1,2.2-0.1
		c0.8,1.9,2,3.7,2.2,5.6c0.6,7.6-0.4,14.9-4.6,21.7c-7,11.3-20,8.3-26.3-1.6c-6.4-10.1-6.1-21.3-3.9-32.4
		c2.1-10.4,5.4-20.6,8.3-30.9c0.9-3.2,2.1-6.3,3.5-10.4c-15.5,7.2-30,13.8-44.4,20.5c-15.5,7.2-31.1,14-48,16.8
		c-9,1.5-18,2.8-26.9,4.6c-2.5,0.5-5.8,1.8-6.9,3.7c-5.3,9.1-10.3,18.4-14.6,28c-2.1,4.6-4.5,10.1-0.8,15c1.4,2,4.1,4,6.3,4.2
		c2,0.1,4.6-1.9,6.2-3.6c1.8-2,2.9-4.7,4.7-7.7c5.3,11.7-3.4,25.6-13,24.3c-5.4-0.7-11.7-6.4-12-12.3c-0.4-8.6,0.5-16.8,4.7-24.6
		c4.3-8,7.8-16.5,11.9-25.2c-2.9,0-5.8,0.1-8.7,0c-21.6-0.7-39.9-9.3-54.1-25.2c-9.1-10.2-14.4-22.9-18-36.2
		c-0.6-2.2-1.3-4.4-1.9-6.6c-2.9-10.5-10.3-9.6-17.3-5.3c-9.8,6.1-16.8,14.9-23.3,24.5c-8.4,12.4-3.1,25.4,4.3,39.5
		c5.4-2.2,10.8-4.6,16.3-6.6c9.7-3.5,20-4.7,29.5-0.6c8.5,3.7,15.1,9.7,17.6,20.1c3.8,15.8-1.4,29.8-7,43.5
		c-5.1,12.6-19,15.7-32.7,8.4c-12.1-6.5-21.8-16.1-29.2-27.6c-1.8-2.9-3.2-2.1-5.1-0.9c-10.7,6.6-21.3,13.5-32.2,19.8
		c-11.5,6.6-24.2,8-36.6,4.1c-12.8-4-21.4-13.4-24.8-26.4c-1.6-6.2-1.4-12.9-2.1-20c-2.8,2.6-5.8,5.1-8.5,8
		c-9.5,9.8-18.4,20.4-28.6,29.5c-14.9,13.2-32.7,18.9-52.5,13.7c-10.8-2.8-20.1-9.3-27-18c-6.3-7.9-11.8-16.5-17.2-25
		c-4.1-6.5-13.8-9.5-20.8-6.7c-12,4.8-17.6,14.9-23.6,24.8c-9.7,15.8-15,33.5-20.7,51c-2.8,8.6-8.3,14.9-17.7,15.4
		c-5.6,0.3-9.7-3.9-13.5-7.9c-9.4-10-15.2-22-20-34.6c-2.7-7.3-5.1-14.7-7.2-22.1c-1.3-4.7-1.8-9.6-2.5-14.4
		c-1.1-7.9-2.6-15.8-2.9-23.8c-0.2-5.3,1-10.7,2.1-16c0.3-1.3,2.5-2.2,4.6-3.9c0.9,9.1,2.1,16.8,2.2,24.4c0.2,15.1,3.6,29.4,9,43.3
		c3.3,8.4,7.3,16.7,11.9,24.5c2.3,3.8,6.3,7.4,10.3,9.3c6.2,2.9,11.2-0.6,14.5-8.9c4.8-12.5,9.2-25.1,14.1-37.5
		c8.2-20.5,20.7-37.7,39.2-50.4c9.9-6.8,23.9-5.3,31,6.4c4.8,7.9,9.6,15.9,15.3,23.1c5.4,6.8,12.3,12.4,21.1,14.8
		c5.6,1.5,11.2,4.2,16.8,4.4c13.5,0.3,25.5-5.4,35.5-13.7c11.9-9.8,22.4-21.3,33.9-31.7c5-4.6,10.9-8.3,16.6-12
		c1.3-0.9,4.8-0.7,5.4,0.2c1,1.5,1.1,4.3,0.4,6.1c-2.4,6.3-5.8,12.3-7.9,18.7c-0.8,2.3,0.8,5.6,1.8,8.2
		c4.6,11.8,18.1,20.9,30.6,19.6c11.9-1.2,23.1-4.8,32.8-12.2c0.8-0.6,1.6-1.1,2.4-1.6c9.1-4.7,8.7-6.1,6.7-16.1
		c-1.7-8.4-0.7-17.4-0.4-26.1c0.2-4.3,1.3-8.7,2.5-13c3.5-13.4,9.2-25.7,18.2-36.3c6.8-8,14.2-15,23.3-20.2
		c6.7-3.8,13.4-4.3,16.7,0.1c2.5,3.3,4.3,7.4,5.8,11.3c3.4,8.9,5.6,18.4,9.8,26.9c3.1,6.3,8.4,11.7,13.3,17
		c9.9,10.7,22.9,15.2,36.9,16.1c13.4,0.9,27,0.2,40.5,0c2.5,0,5-1.4,8.8-2.6c-1-7.2-1.7-15-3.4-22.6c-4.3-19.7-13.3-37.7-20.6-56.3
		c-2.9-7.4-5.8-15.1-5.5-23.7c0.4-10.2,3.9-17.7,13.2-22.3c1.2-0.6,2.3-1.3,3.3-2.1c0.3-0.2,0.5-0.8,0.7-1.3
		c-6.5-3.2-9.6,2.7-14.5,5.6c-2.2-6.8,1-11.7,4.7-15.8c2.5-2.8,3-4.7,0.8-7.5c-4.1-5.3-8.1-10.6-12.4-15.8c-1.7-2.1-3.7-1.7-6-0.1
		c-4.5,3.1-12.8,2.3-16.8-1.1c-5-4.4-7.6-12.8-5.6-17.9c1.9-4.6,9.1-7,14.4-5c11.6,4.4,19.6,12.8,26.4,22.8c2.4,3.5,4.8,7,7.5,10.8
		c0.7-0.8,1.7-1.4,1.8-2.1c0.6-5.6,0.6-11.2,1.7-16.7c2.1-11.1,2.9-22.8,11.1-31.7c5.5-5.9,11.9-5,15.6,2.4
		c1.6,3.3,2.3,7.2,2.8,10.8c0.2,1.4-1.2,3.7-2.4,4.2c-1.2,0.5-3.6-0.3-4.7-1.4c-4.7-4.3-7-4.4-9,1.8c-2.6,7.8-4.1,15.9-5.7,24
		c-1.2,6.1-1.7,12.3-2.6,19.1c6.1,4.4,12.7,9.2,19.3,13.9c5.3,3.8,6.4,6.9,4.1,11.5c-3,6-2.8,5.4-9.4,3.4c-9.8-3.1-19.8-3-27.8,4.4
		c-2,1.8-2.8,6.8-1.9,9.5c5.5,16,11.8,31.6,17.5,47.5c5.2,14.6,10.2,29.2,8.6,45.1c-0.2,1.9-0.6,3.7-1,6c4.9-1.1,10.1-1.6,14.9-3.4
		c24-9.3,48-18.7,71.8-28.5c9.5-3.9,18.6-9,28.1-13.1c7.5-3.2,15.3-5.8,23-8.6c0.5,0.5,1,1,1.4,1.5c-0.5,2-0.9,4.1-1.4,6.1
		c-1.6,6.6-3.6,13.1-4.9,19.8c-1.6,8.3,6.2,14.7,13,16.8c11.8,3.7,23.5,3.1,34.6-2.7c6.2-3.2,12.7-6.1,18-10.4
		c8.7-6.9,6.9-16.9,5.9-26.4c-0.2-1.9-0.8-3.8-1-5.7c-1.5-11.8-3-23.6-4.5-35.4c-0.6-4.9-1.1-9.7-1.6-14.6c-1-9.1-1.7-18.2-3.2-27.2
		c-2.4-14.6-5.2-29-7.9-43.6c-1-5.7-1.9-11.5-3.1-17.2c-1.3-6.4-3.1-12.8-4.5-19.3c-0.7-3-0.9-6.1-1.5-9.2
		c-1.8-10.3-4.2-20.5,0.4-30.8c1.5-3.3,1.6-7.3,2.6-10.8c0.4-1.3,1.4-2.4,2.2-3.5c1.2,0.9,3.1,1.5,3.5,2.7
		c2.3,6.3,4.4,12.8,6.3,19.3c3.3,11.6,6.4,23.3,9.5,35.1c0.9,3.3,1.1,6.8,1.5,10.2c1.6,12.2,3.2,24.5,4.9,36.7
		c1.9,13.4,4.2,26.7,6.2,40c1.2,8.4,2.1,16.9,3.2,25.3c1.5,11.1,3.4,22.2,4.5,33.4c1.1,11.4,4,22.1,9.5,32.2
		c5.8,10.6,13.3,18.9,25.6,21.4c2.9,0.6,6,0.9,8.9,0.4c8.2-1.4,16.7-1.7,23.7-7.6c5.8-4.9,9.6-13.6,7.7-20.9
		c-1.2-4.7-1.9-9.5-2.9-14.3c-1.9-9.2-3.9-18.3-5.9-27.5c-2.1-9.7-4.3-19.5-6.6-29.2c-2.2-9.2-4.7-18.3-7.1-27.5
		c-2.9-11.2-6-22.4-8.5-33.8c-2.4-10.7-4.3-21.6-6.2-32.4c-1.7-9.2-3.1-18.5-4.9-27.7c-0.5-2.4-2.4-4.5-3.5-6.8
		c-0.6-1.4-1.5-3.2-1.1-4.5c2.4-7.8,5.1-15.6,8-23.2c0.2-0.6,3.7-0.9,4.2-0.2c4.6,6.5,9,13.1,13.1,19.8c4.5,7.4,8.9,14.8,13.1,22.4
		c2.7,4.9,4.2,10.1,3.8,15.9c-0.2,3.1-1.4,4.4-4.1,5.9c-3.1,1.6-4.2-0.3-5.8-1.9c-1.8-1.9-3.5-3.8-6.2-6.9c0.8,3.4,1.3,5.6,1.8,7.9
		c3.5,13.7,7.1,27.5,10.5,41.2c2.8,11.2,5.5,22.3,8.3,33.5c2.1,8.3,4.5,16.5,6.2,24.9c1.9,9.1,2.8,18.4,4.9,27.4
		c2.7,11.3,3.7,22.8,3,34.3c-1,15.6-5.6,30-14.4,43.1c-5.5,8.3-12.5,14.3-22.1,16.8c-4.1,1.1-8.6,0.6-12.8,0.6
		c-10.2,0.1-11.6,1-14.9,10.6c-4.4,12.6-7.1,25.4-6.3,39c1,18.9,14.5,28,32.1,23.8c7.7-1.8,15.4-3.9,22.5-7.2
		c7.5-3.5,14.3-8.7,21.4-13.1c16-9.9,30.9-21,44.2-34.4c7-7,14.3-13.7,21.1-21c1.5-1.6,2-5.1,1.5-7.3c-1.9-8.7-4.3-17.3-6.8-25.8
		c-2.7-9.3-5.5-18.5-8.7-27.7c-3.1-8.8-6.6-17.5-10-26.3c-5.4-13.8-11.2-27.6-16.3-41.5c-2.7-7.4-1-15,0.6-22.5
		c0.8-3.9,1.4-7.9,2.1-11.8c0.5-0.3,1-0.6,1.5-0.8c1.9,1.7,4,3.2,5.6,5.1c9.8,11.8,17.5,25,23.4,39c5.3,12.4,9.1,25.5,13.3,38.4
		c4,12.2,6.9,24.6,7.9,37.5c0.6,7.9,2.1,15.8,3,23.8c0.7,5.7,0.8,11.4,1.7,17.1c1.9,13.1,3,26.4,10.7,37.9
		c4.9,7.3,12,10.8,20.1,12.6c13.6,2.9,25.4-2.7,36.9-8.7c5.2-2.7,10.3-5.6,15-9c2.1-1.5,3.7-4.1,4.8-6.5c0.5-1.1-0.4-3.9-1.5-4.5
		c-8.2-5.1-16.6-9.4-27-5.8c-2.7,0.9-6.2,0.1-9.2-0.6c-5-1.2-10.2-0.2-15-3.5c-5.4-3.7-8.7-8.6-9.5-14.6c-1.3-9.4-0.8-19.1,3-28
		c5.4-12.5,13.2-22.3,27.7-26c7.1-1.8,13.2,0,18.2,2.5c7.3,3.6,14.1,8.8,18.5,16.8c5.2,9.5,7.4,19.3,7.4,29.9c0,4,1.4,8.1,1.4,12.1
		c0,4.4-0.6,8.8-1.5,13.1c-1.8,8.5-3.6,17.1-6.1,25.5c-3.3,11.4-12.5,18-21.7,24.2c-5.6,3.8-11.7,6.8-17.6,10.2
		c-1.1,0.6-2.3,1.2-3.6,1.6c-2.9,1.1-7.3,1.2-8.4,3.2c-2.2,4-2.9,8.9-3.6,13.5c-1.1,7.3,0.3,14.6,3.2,21.2
		c2.8,6.2,7.8,10.6,14.7,12.5c14.7,4.2,26.8-0.4,37.4-10.6c8.9-8.5,18.4-16.6,27.1-25.3c13.9-13.8,27.2-28.3,41.3-41.9
		c7.1-6.9,15.3-12.7,23.2-18.6c7.8-5.8,15.6-11.6,24-16.5c14.9-8.7,31-13.7,48.4-10.9c16.5,2.7,30.4,14.8,20.5,34.9
		c-1.7,3.4-3.6,6.8-6.1,11.6c-9.6-15.8-22.5-20.4-39.8-16.7c0.6,7.7,1.9,15.6,1.8,23.6c-0.1,10.8,4.5,20.2,8.2,29.8
		c2.5,6.4,6.3,12.3,9.9,18.3c4.3,7,14.2,10.9,21.8,8.1c2.9-1.1,5.8-4.2,7.2-7c3.7-7.3,6.7-15,9.8-22.6c5.9-14.5,11.2-29.5,22.5-41
		c5.9-6,12-11.9,18.8-16.8c10.6-7.6,22-3.9,28,7.9c2.8,5.6,5.9,11.3,10,16c5.1,5.9,11.6,9.9,19.9,11.1c13.3,2,25.7-0.8,37.7-6
		c5.9-2.5,11.6-5.3,17.3-8.2c2.5-1.3,3.3-3.3,1.8-6.2c-5.3-10.1-10.3-20.3-18.1-29c-8.6-9.6-16.4-19.9-25.2-29.3
		c-11.7-12.6-23.6-25-36-36.9c-20.6-19.9-41.8-39.1-62.3-59.1c-2.6-2.5-2.3-8.1-2.8-12.3c-0.3-2.3,0.6-4.8,0.9-7.2
		c1-8.6,3.2-17.2,2.7-25.7c-0.7-12,8-15.5,15.4-20.6c9.6-6.6,19.3-13,29.3-19.1c7.5-4.5,15.4-8.3,23.2-12.4
		c9.9-5.1,19.7-10.5,29.7-15.3c17.6-8.4,35.3-16.5,53-24.7c14.2-6.6,28.2-13.6,42.6-20c16.9-7.5,34.1-14.5,51.2-21.6
		c11.3-4.6,22.5-9.8,34.2-13.2c11.6-3.4,23.5-6.9,35.8-5c8.9,1.4,17.8,6.3,15.2,18c-1.3,6-3.2,11.8-5.4,17.6
		c-5.3,14.2-13.5,26.5-24.8,36.8c-9.6,8.8-18.8,18.1-27.8,27.5c-7.4,7.7-14.2,15.9-21.2,24c-0.4,0.4-0.3,1.1-0.5,1.7
		c79-38.8,159.7-73,243.6-100.1c1,11.5-4.3,18.3-12.6,19.4c-4.5,0.6-8.9,2.7-13.3,4.3c-21.9,8.2-43.9,16-65.5,24.9
		c-20.7,8.4-40.9,18-61.3,27c-19.3,8.5-38.9,16.5-57.8,25.7c-17.3,8.4-34,18.2-50.9,27.3c-9.4,5.1-18.8,9.9-28,15.3
		c-8.3,4.8-16.3,10-24.5,15.1c-10.6,6.6-21.4,12.9-31.9,19.7c-5.6,3.6-10.9,7.7-15.8,12.1c-3.2,2.9-6.2,3.9-10.7,2.6
		c0.3-8.6,1.8-16.1,10.3-21.3c13.2-8,25.6-17.1,38.6-25.4c9-5.7,18.5-10.8,27.8-16.1c11.3-6.4,22.9-12.3,33.9-19
		c3.4-2.1,6.1-5.9,8.1-9.5c12.6-23.1,29.8-42.4,48.9-60.2c6.7-6.3,13.3-12.7,19.4-19.5c2.6-2.9,4.2-6.8,5.5-10.6
		c0.4-1.3-1.1-4.4-2.4-4.9c-4.5-1.5-8.7-4.6-14.3-2.4c-3.5,1.4-7.8,1-11.6,2c-7.5,1.9-14.9,4.1-22.3,6.4c-6.7,2.1-13.4,4.5-20,7
		c-7.4,2.8-14.8,5.8-22.1,8.8c-12.9,5.4-25.8,10.7-38.5,16.5c-10.3,4.8-20.3,10.2-30.4,15.5c-1.2,0.7-2.2,2.3-2.8,3.7
		c-4.6,10-11.6,19.7-6.5,31.6c1.8,4.1,4.8,7.4,10.2,6.8c4.9-0.5,8.3-2.4,8.9-7.8c0.1-1.1,0.7-2.2,1.4-3c0.7-1,1.7-1.7,2.6-2.5
		c0.6,1.2,1.7,2.3,1.8,3.5c0.8,10.1-3.2,21.2-16,24.2c-3,0.7-8.3-1.3-10.1-3.8c-3.2-4.4-4.9-10-6.6-15.4
		C2162.5,170.7,2168.7,161.2,2172.2,149.5z M1211.8,413c-0.6-1.8-0.9-3.9-2-5.7c-5.1-8.7-19.9-12.4-31.6-8
		C1184.8,408.8,1204,417.7,1211.8,413z M1796.9,353c0.2-0.8,0.5-1.5,0.7-2.3c-2.5-2.3-5-4.7-7.7-6.9c-6.9-5.6-15.3-5.3-21.6,0.6
		c-3.2,3.1-3.2,5.3,1.1,6C1778.5,351.9,1787.7,352.2,1796.9,353z"/>
	<path fill="white" d="M536.1,480.3c6.3,4.3,5,9.7,3.4,14.2c-2.4,7-8.1,14.8-16.7,14c-5.1-0.5-10.5-4.4-12.6-9.5c-4.8-11.8-2.1-22.7,3.5-33.4
		c2.6-4.9,5.5-9.5,8.2-14.4c1.3-2.4,1.3-4.3-2.2-4.9c-22.3-4-34.7-25.4-37.9-43.8c-5.4-30.8-4-61.8-4.6-92.7
		c-0.3-14.7-1.8-29.3-2.8-44c-0.2-2.8-0.2-5.7-0.3-8.5c-0.6-14-0.7-28.1-1.8-42.1c-0.8-10-3-19.9-4.4-29.9c-0.8-6-0.6-12.2-1.7-18.2
		c-2.6-13.4-5.6-26.7-8.7-39.9c-1.5-6.2-4.1-12.1-5.4-18.3c-0.6-2.9,0.7-6.3,1.6-9.4c1.4-5.3,3.1-10.6,4.8-15.8
		c0.4-1,1.7-2.6,2.4-2.5c1.2,0.2,2.9,1.2,3.3,2.3c2.8,6.9,5.9,13.7,7.9,20.8c4,14.3,7.9,28.7,10.8,43.3c2,10.1,2.6,20.4,3.3,30.7
		c1.2,17.3,2.1,34.6,3.1,51.9c0,0.5,0.1,1,0.1,1.5c0.6,21,1.9,42.1,1.5,63.1c-0.3,18.8,0.6,37.6,0.5,56.4
		c-0.1,12.1,0.8,24.4,3.1,36.3c3.4,17,14.4,27.6,33.8,27.9c7.2,0.1,14.5-0.8,21.7-1.4c3.6-0.3,4.9-2.3,3.5-5.8
		c-3.3-8.7-3.2-17.5-1.6-26.6c2.1-11.6,6.9-22.2,13.6-31.5c7.4-10.3,16.5-19.3,29.3-22.9c2.3-0.7,5.9,0.2,7.9,1.7
		c8.8,6.7,13.9,15.3,15.5,26.7c2.1,14.6-2.6,27.6-7.2,40.8c-1.3,3.6-3.6,6.9-5.2,10.4c-1,2.3-0.7,4.6,2.6,4.3
		c17.1-1.6,33.6-4.5,44.1-20.4c5.9-9,11.8-18,18.2-26.5c3-4,7.2-7.1,11.1-10.4c1-0.8,2.9-0.3,4.5-0.4c0.1,1.6,0.7,3.3,0.3,4.6
		c-1.8,5.3-4.1,10.5-5.8,15.9c-2.3,7.4,2.9,17.3,9.4,21.8c16.3,11.4,45.1,5.6,58.7-6.8c1.5-1.3,2.4-4.1,2.4-6.1
		c-0.2-10.1-0.3-20.2-1.3-30.2c-1.1-11-3-22-4.8-32.9c-1.9-11.9-4.1-23.7-6.2-35.5c-2.1-12.2-4.4-24.3-6.3-36.5
		c-1.7-11-3.2-22-4.6-33c-1.2-9.6-1.7-19.3-3.3-28.8c-2.6-15.9-4.9-31.8-4.9-48c0-5.6-0.9-11.2-1.5-16.7c-0.1-1.2-0.5-2.8-1.3-3.5
		c-3.7-3.3-3-6.6-1.1-10.6c2.6-5.4,4.8-11.1,7.2-16.6c1.9-4.2,4-4.6,6.2-0.7c8,14.6,15.8,29.3,23.5,44c1.3,2.6,2.2,5.4,3.1,8.2
		c1.8,5.6,0.5,9.9-3.4,11.8c-5,2.5-7.5-0.9-9.9-4.4c-0.4-0.5-1-0.9-2.6-2.3c0,3.1-0.3,5.1,0,7.1c1.4,9.5,3.1,19,4.6,28.5
		c1.2,8.1,2.1,16.2,3.3,24.2c1.5,10,3.1,20,4.6,29.9c0.6,3.7,0.9,7.5,1.3,11.3c0.6,5.7,1.1,11.5,2,17.2c1.3,8.9,2.9,17.8,4.2,26.6
		c0.8,5,1.3,10.1,1.9,15.1c1.6,14,3.6,28,4.5,42.1c0.5,8.3-0.8,16.7-1.4,25.1c-0.8,12-5.5,22.7-11.6,32.7c-2.6,4.2-6.9,7.3-9.8,11.4
		c-3.7,5.2-7.1,10.8-9.8,16.5c-3.9,8-7.8,16.2-10.3,24.7c-1.8,6.1-5.4,12.5-2.3,19.5c2.2,5,6.3,7.5,12.3,6.5c4.8-0.9,6.7-4.2,6.7-9
		c0-1.5,0.9-3.1,1.7-4.5c1.5-2.7,3.7-2.6,4.5,0.1c1,3.4,1.9,7.4,1,10.5c-1.9,6.7-5.1,13.3-11.5,16.6c-3.1,1.6-8.3,1.8-11.4,0.3
		c-9.5-4.7-11.2-13.6-11.2-23.4c0-14.9,7.7-27.1,13.3-40c1-2.3,1.7-4.7,2.8-7.6c-5.7,1.1-10.8,1.8-15.7,3.1c-11.2,3-20.9-0.1-30.3-6
		c-11.4-7.3-15.6-18-15.6-30.9c0-1,0-2-1-3.5c-1.5,2.4-3,4.8-4.4,7.3c-5.5,10.1-10.3,20.6-19.3,28.6c-7.3,6.6-15.9,9.6-25,11.8
		c-3.3,0.8-6.8,1.2-10.2,1.6c-8.9,1-17.1-2.1-25.4-4.8c-2.9-0.9-6.8-0.7-9.6,0.6c-9.4,4.5-18.8,8.8-29.3,10.3
		c-4,0.5-7.9,1.2-11.9,1.8c-0.6,0.1-1.5,0.3-1.7,0.7c-6.2,11.4-14.8,21.9-14.2,35.9c0.3,6.3,5.6,10.1,11.6,8.4
		c1.7-0.5,3.2-2.3,4.2-3.9C533.6,486.6,534.6,483.7,536.1,480.3z M605.7,381.7c-3.5-6.9-6.2-14.2-10.6-20.4
		c-3.9-5.4-7.5-5.5-12.9-1.7c-6.6,4.5-12.1,10.2-16.6,17c-3.4,5.2-2.1,9,1.4,12.6c3.5,3.6,7.7,6.5,11.3,10.1c3.3,3.2,6.9,3.2,10.4,1
		c4-2.5,8.1-5.2,11.3-8.5C602.3,389.3,603.4,385.7,605.7,381.7z"/>
	<path fill="white" d="M125.6,93.1c0.4,2.4,1.7,5,1.2,7.2c-2.7,11.9-5.9,23.6-9,35.4c-2.3,8.7-4.8,17.3-7.1,25.9c-2.8,10.4-5.5,20.8-8.4,32
		c37.1-19.6,73.6-38.8,110.4-58.2c-8.8-9.2-5.2-17.8-1.4-26.3c1.2-2.6,2.6-4.6,1.4-8c-1.7-4.7,3.4-13.7,8.3-14.7
		c2.9-0.6,6.6,0.4,9.3,1.8c10.8,5.5,18.5,14.3,23.4,25.1c4,8.8,3,18.2-3.3,25.9c-4,4.9-8.8,5.9-17,3.2c-1.4-0.5-2.8-0.9-4.1-1.5
		c-3.8-1.9-6.6-0.7-10.2,1.7c-11.3,7.5-23,14.7-35,21c-15.5,8.2-31.4,15.7-47.5,23c-10.4,4.7-21.1,8.5-31.9,12.2
		c-5.9,2-5.9,7-7,11.3c-2.2,8.1-3.6,16.5-5.3,24.7c-3,14-5.9,27.9-8.9,41.9c-1.4,6.7-4,13.2-4.4,19.9c-0.8,12-3.5,24.2,1.4,36.1
		c3.4,8.3,13.6,12.2,20.6,7.2c2.1-1.5,3.8-4.1,4.5-6.6c1.9-6.4,3.2-13,4.8-19.4c0.3-1.2,0.8-3,1.7-3.4c1.3-0.5,3.2-0.4,4.4,0.3
		c0.9,0.5,1.3,2.3,1.4,3.5c1.1,18.1-0.9,35.6-10.9,51.5c-2.9,4.5-6,8.3-12.5,8.4c0,4.6-0.5,9.1,0.1,13.5c1.8,12.3,2.9,24.9,6.3,36.8
		c3.7,12.7,7,26,15.9,36.6c6.1,7.4,16.1,8.9,20.5-1.3c5.4-12.8,10.5-25.8,15.3-38.9c5.6-15.3,13.6-29.1,25.6-40.1
		c5.6-5.1,12.4-9.1,19.3-12.5c4.9-2.4,9.9,0.4,13.1,4.4c3.6,4.5,6.9,9.5,9.4,14.8c5,10.4,12,18.9,22.4,24
		c11.9,5.8,24.1,5.2,36.8,2.2c19.9-4.7,32-19.7,46.1-32.3c6.4-5.8,13.6-10.8,20.7-15.7c1.5-1,4.4-0.1,6.6-0.1
		c-0.3,1.8-0.2,3.7-0.9,5.4c-1.9,4.8-4.2,9.5-6,14.3c-1.6,4.4,0.1,8.4,2.6,12c4.7,6.5,10.3,11.3,18.8,12.8
		c19.9,3.5,36.7-4.1,53.3-13.2c2.3-1.3,4.5-2.8,6.4-4.5c4.4-4.1,3.2-11.2-2.5-13.1c-4.1-1.4-8.7-2.2-13.1-2.1
		c-9.6,0.1-19.1-0.3-28.4-2.9c-14-3.8-18.8-16.7-16.6-29.3c1.6-8.9,5.5-16.8,10.3-24.5c6.2-9.9,14.9-15.5,25.8-17
		c9.2-1.3,16.9,3.4,23,10.2c7.2,8,11.5,17.5,14.2,28c2.5,9.9,5.6,19.7,4.5,29.9c-1.6,13.6-3.3,27.4-11.2,39.2
		c-5.9,8.8-14.4,14.9-23.8,20c-11.4,6.1-23.3,10.1-36.1,11.1c-15.9,1.3-32.6-9.4-37.6-24.5c-2-5.9-1.3-12.6-1.9-19.5
		c-4.2,0.8-7.1,4.1-10.2,7.7c-11.9,14.3-23.5,29-41.7,36.1c-9.2,3.6-18.9,6.9-28.7,5.1c-7.7-1.4-15.3-4.8-22.1-8.7
		c-10.4-6-16.2-16.2-21.8-26.6c-2.1-3.9-5.2-7.4-8.4-10.5c-4-3.8-8.9-2.9-13.2-0.4c-9.2,5.3-16.6,12.6-20.8,22.3
		c-6.1,14-11.5,28.4-17.2,42.6c-1.7,4.2-3.5,8.3-4.8,12.6c-2,6.4-6.8,9.9-12.6,12c-5.3,1.9-10.8,0.1-13.9-3.8
		c-5.7-7.1-11.2-14.7-15-22.9c-3.9-8.4-6.1-17.7-8.3-26.7c-2.5-10.2-4.7-20.6-6.1-31c-1.3-9.3-1.3-18.7-1.9-28
		c-0.1-2.2-0.4-3.7-2.6-5.5c-9.5-7.9-16.6-17.4-16.6-30.6c0.1-11-0.4-22.1,0.5-33.1c0.6-7.7,3-15.2,4.5-22.9
		c1.1-5.6,2-11.2,3.2-16.7c1.8-8.1,3.7-16.1,5.5-24.1c1.8-8.1,3.5-16.3,5.5-24.3c2.3-9.1,5-18.1,7.4-27.2c2.4-9.3,4.1-18.8,6.7-28.1
		c6.1-21.5,12.5-43,18.9-64.4c0.7-2.5,2.5-4.6,3.8-7C124.2,93,124.9,93,125.6,93.1z M416.3,346.4c-5.4-12.3-17.2-14.2-26.3-10.9
		c-1.7,0.6-2.9,3.5-3.5,5.6c-0.2,0.8,1.7,3.2,2.9,3.3C398,345.2,406.7,345.7,416.3,346.4z M237.3,109.7c-0.4,0.3-0.8,0.7-1.2,1
		c-0.6,5-1.3,10-1.8,15.1c-0.1,0.8,0.7,2.5,1.1,2.6c3.8,0.1,8.2,1.1,11.3-0.4c4.3-2,0.7-5.5-0.8-7.8
		C243.4,116.4,240.2,113.1,237.3,109.7z M215.9,116.6c0.8,3.9,5.5,7.9,8.7,7.4c1.1-0.2,3.1-2.6,2.8-3c-1.6-2.9-1.4-7.7-5.8-7.8
		C219.7,113.1,217.8,115.4,215.9,116.6z"/>
	<path fill="white" d="M2219,340.4c0.9-7.1,1.4-12.9,2.3-18.6c0.5-3.3,2.5-6.5,2.5-9.8c0-5.5,3.7-8,7.4-10.2c17.7-10.9,35.5-21.7,53.5-32.1
		c12.8-7.4,25.8-14.4,39-21.1c30.3-15.4,60.8-30.6,91.3-45.6c16.2-8,32.8-15.3,49.2-22.9c16.1-7.5,32.1-15.2,48.4-22.2
		c12.5-5.4,25.5-9.9,38.2-15c9.6-3.9,19-8.3,28.5-12.1c9.6-3.8,19.4-7.2,29-10.9c8.3-3.1,16.5-6.3,24.8-9.5c4.9-1.9,9.8-4,16-6.5
		c-0.7,3.7-0.7,7-1.9,9.9c-2.3,5.9-4.5,12.1-8.2,17.2c-2.3,3.3-6.9,5.3-10.8,6.9c-6.1,2.6-12.6,4.3-18.8,6.5c-6,2-7.5,7.8-9.9,12.5
		c-5.4,10.5-10.7,21.1-10.1,33.5c0.4,7.7,5.4,13.2,11.9,13c6.1-0.3,6.9-5,8.5-9.3c0.6-1.5,1-3,1.7-4.4c0.6-1,1.6-1.8,2.4-2.7
		c0.7,1.2,1.9,2.3,2,3.6c0.7,8.4-7.3,22.1-14.4,26.1c-4.5,2.6-8,0.8-10.9-2c-4.7-4.7-7.1-10.3-7.4-17.5
		c-0.8-17.8,6.5-32.8,15.4-48.2c-3.4,1.1-6.5,1.8-9.4,3c-12,4.9-24,9.9-36,15c-18.3,7.8-36.7,15.7-54.9,23.7
		c-5.5,2.4-10.6,5.4-16.1,7.8c-14.5,6.6-29.1,12.7-43.5,19.5c-18.2,8.6-36.1,17.8-54.1,26.7c-14.7,7.3-29.4,14.4-44,21.9
		c-12.5,6.4-24.8,13.2-36.9,20.2c-11.7,6.8-23,14.1-34.6,21.1c-7.9,4.8-16.1,9.2-23.8,14.2c-7.6,4.9-14.7,10.5-22.1,15.7
		C2222.4,338.6,2221.4,339.1,2219,340.4z"/>
	<path fill="white" d="M817.3,145.7c2.8,18.3,5.6,35.9,8.4,54.4C865,179,904.2,157.8,943,136.9c-1.9-4.9-4-8.3-4.5-12c-0.9-7.4,2.7-13.5,6.9-19.3
		c1-1.3,1.3-3.7,0.9-5.3c-1-4.4,1-12.9,4.6-15c4.4-2.5,9.5-2.3,13.6,0.7c9.5,6.8,18.9,14.4,22.5,25.8c3.2,9.9,2.6,25.4-9.4,29.3
		c-4,1.3-9.2,0.3-13.6-0.7c-5.9-1.4-10.5-0.8-15.5,3.3c-6.7,5.4-14.3,9.8-21.9,14c-16.5,8.9-33,17.7-49.9,25.9
		c-13.1,6.4-26.6,11.8-40,17.6c-0.6,0.3-1.3,0.3-1.9,0.5c-8.4,1.9-8.8,2.9-7.1,11c1.5,7.3,2.2,14.8,3.5,22.2
		c1.5,9.1,3.2,18.2,4.7,27.3c0.6,3.9,1.1,7.8,1.6,11.7c1.6,14.3,3.1,28.6,4.7,43c1.5,12.7,3.8,25.3,4.5,38c0.8,12.9,1.3,26-0.1,38.9
		c-1.4,13-2.6,26.4-10.2,37.8c-0.7,1.1-2,2.5-2.9,2.4c-0.9,0-2-1.6-2.6-2.8c-0.5-0.9-0.6-2.2-0.6-3.3c-0.1-15.1,0.4-30.3-0.5-45.4
		c-0.7-12.2-3-24.3-4.5-36.5c-0.6-4.6-1.2-9.1-1.6-13.7c-0.6-6.9-0.8-13.8-1.7-20.6c-1.2-8.8-3.3-17.5-4.6-26.4
		c-1.3-8.4-2-16.9-3.3-25.3c-1.2-8.1-2.8-16.1-4.2-24.1c-0.6-3.5-1.3-7.1-1.8-10.7c-1.2-8.8-2-17.6-3.3-26.3
		c-1.9-12.7-4.3-25.4-6.2-38.2c-0.8-5.4-1-10.8-1.6-16.2c-1-8.5-2-16.9-3.2-25.3c-0.2-1.4-1.4-2.6-1.7-3.9c-0.4-1.6-1-3.4-0.6-4.8
		c2.2-6.4,4.6-12.8,7.2-19.1c0.7-1.6,2.3-3.8,3.7-3.9c1.3-0.2,3.3,1.8,4.2,3.3c8.8,16,17.7,32,25.9,48.3c1.4,2.7,0,7.4-1.4,10.5
		c-0.6,1.4-4.7,2.5-6.7,1.9C822.1,150.9,820.2,148.2,817.3,145.7z M965.4,126.9c4.9,0.2,9.7,0.6,14.4,0.2c0.8-0.1,1.9-3.2,1.9-5
		c0.1-1.2-1.3-2.6-2.2-3.7c-3.2-4.1-6.5-8.1-10.6-13.1C967.7,113.3,966.6,119.5,965.4,126.9z M954.7,109.3c-3.7,4-6.5,7.1-10,11
		c4,1.5,6.7,2.9,9.6,3.6c1.5,0.3,3.8-0.1,4.8-1.1c0.9-0.8,1.2-3.2,0.7-4.5C958.7,115.4,956.8,112.9,954.7,109.3z"/>
	<path fill="white" d="M1442.7,61.1c-3.4,6.6-6.3,11.9-9,17.4c-3.8,7.6-11.8,7.7-18.3,9.9c-16.3,5.4-32.9,9.9-49.3,15.1
		c-14.7,4.6-29.4,9.2-43.8,14.7c-22.6,8.6-45.1,17.8-67.4,27.1c-21.9,9.2-43.8,18.5-65.3,28.4c-20.5,9.4-40.6,19.7-60.9,29.7
		c-9,4.4-18.2,8.5-27,13.3c-17.4,9.5-34.6,19.5-52,29.2c-9.3,5.2-18.9,9.9-28,15.4c-10.4,6.3-20.3,13.4-30.5,20.1
		c-1.3,0.9-2.9,2.2-4.3,2.1c-1.6-0.2-4.4-2-4.2-2.7c0.9-5.4,1.7-11.1,3.9-16c1.8-4,4.8-8.1,8.4-10.3c21.8-13.2,43.8-26.2,66.1-38.6
		c18.2-10.2,36.7-19.8,55.4-29c20.8-10.3,41.9-19.9,63-29.7c19.6-9.1,39.1-18.3,58.9-26.9c14.9-6.5,30.3-12.2,45.4-18.1
		c12.6-4.9,25.2-9.9,37.9-14.5c15.9-5.7,31.9-11.1,47.9-16.5c12-4,24.2-7.8,36.3-11.5c9.8-3,19.7-5.7,29.6-8.4
		C1436.9,60.7,1438.9,61.1,1442.7,61.1z"/>
	<path fill="white" d="M1865.8,422.3c1.2-6.5,2.5-13,3.7-19.5c0.3-1.5,0.3-3,0.4-4.4c0-12.3,0.4-24.6-0.1-36.9c-0.3-8.3-1.9-16.5-2.8-24.8
		c-0.2-1.8,0-3.7-0.2-5.5c-1-8.1-2.1-16.1-3-24.2c-0.6-5.4-1.1-10.8-1.6-16.1c-1.1-11.1-1.7-22.2-3.3-33.2
		c-2.1-14-5.2-27.8-7.5-41.7c-1.3-7.8-2-15.8-3.3-23.6c-1.3-8.1-3.3-16.1-4.6-24.3c-1-6.3-1.1-12.7-1.9-19.1
		c-1-8.2-2.1-16.5-3.2-24.7c0-0.3,0-0.7-0.2-0.9c-7.1-8.2-0.6-15.4,1.8-22.8c0.9-2.9,2.1-5.8,3.3-8.6c1.6-3.9,3.2-4.1,6-1
		c1.4,1.5,2.6,3.3,3.6,5.1c8.6,15.6,17.3,31.3,25.8,47c2,3.7,0.3,8.3-3.4,10.7c-3.6,2.4-6.5,1.3-9.1-1.8c-1.6-1.9-3.3-3.8-5.5-6.3
		c-0.1,2.1-0.5,3.9-0.2,5.5c2,10.6,4.3,21.2,6.2,31.8c1.3,7.2,2,14.5,3.3,21.8c1.2,7.2,2.9,14.3,4.2,21.4c0.8,4.5,1.4,9,1.9,13.6
		c1.1,9.1,2.1,18.2,3.1,27.3c1.1,9.4,2.1,18.8,3.1,28.2c1.1,9.6,2.1,19.1,3.2,28.7c0.2,1.5,0.9,3,1.6,5.2c5.1-3.3,9.6-6.1,14.1-9
		c9.3-5.9,18.7-11.7,27.9-17.7c10.1-6.7,20-13.6,29.9-20.4c2.1-1.4,4.2-2.9,6.3-4.4c0.7-0.5,1.2-1.2,1.8-1.7c-0.7-0.5-1.4-1-2-1.6
		c-4-3-9.1-5.2-11.7-9.1c-4.3-6.4-2.6-13.9,0.8-20.4c4.2-8,10.1-14.7,18.8-18.6c6-2.7,10.4-1.4,13.3,4.5c3.4,7.1,3.6,14.3,1.5,21.9
		c-1.4,4.8-1.9,9.8-3,15.7c-0.3-0.2,0.3,0.1,0.9,0.4c5.9,3.9,7.1,8.7,2.9,14.4c-1.1,1.5-4.5,2.2-6.4,1.8c-2.8-0.6-5.3-2.7-6.9-3.6
		c-12.2,8.3-23.6,16.6-35.5,24.1c-15.6,9.8-31.7,18.8-47.4,28.4c-2.7,1.7-5.5,3.3-4,8.9c1.7,6.5-0.3,14-0.7,21
		c-0.1,1.5-0.4,3-0.4,4.4c-0.2,12.4-2.7,24.2-7.5,35.6c-2.5,5.9-5.2,11.8-8.1,17.6c-0.5,1.1-2.2,1.6-3.4,2.3
		C1867.1,423.3,1866.4,422.8,1865.8,422.3z M1976.6,264.7c0.4-0.4,0.9-0.8,1.3-1.2c0-6,0.4-12.1-0.3-18.1c-0.2-1.7-4.3-4.8-5.5-4.3
		c-3.9,1.6-7.6,4.1-10.6,7.1c-1.1,1.1-1,5.5,0.1,6.4C1966.3,258.4,1971.6,261.4,1976.6,264.7z"/>
	<path fill="white" d="M325.5,137.2c15.1-5.8,29.9-11.6,44.8-17.4c13.2-5.1,26.4-10.1,39.6-15.2c4.4-1.7,8.7-3.4,13.2-4.7c2.5-0.7,4.2,0.7,3,3.3
		c-2.9,6.2-4.8,13.6-14,13.5c-1.1,0-2.7,1.4-3.4,2.6c-5.8,9.8-11.7,19.6-17,29.7c-3,5.7-5.2,11.8-7.2,18c-1.6,4.7,4.7,13.2,9.5,12.9
		c3.2-0.2,5.9-1.8,6.4-5.6c0.6-3.9,1.2-8,6.3-9.2c2.7,2.5,2.9,5.2,2.1,8.8c-1.1,5.1-2.5,9.8-5.3,14.3c-6,9.6-14.5,9-20.2,2.3
		c-5.6-6.6-7.6-13.7-5.7-22.6c3.7-17.4,12.9-31.9,23-47.2c-7,2.6-13.1,4.6-19.1,7c-21.3,8.6-42.7,16.8-63.6,26.2
		c-25.9,11.7-51.6,24-76.8,37.2c-24.9,13.1-49.3,27.2-73.5,41.6c-14.8,8.9-28.6,19.3-42.9,29.1c-0.8,0.6-1.6,1.3-2.5,1.6
		c-1.6,0.5-3.2,0.8-4.9,1.2c-0.3-1.7-1.1-3.6-0.8-5.1c1.4-5.6,4.4-9.9,9.7-13c7.8-4.6,14.8-10.5,22.4-15.4
		c11.6-7.3,23.3-14.4,35.1-21.3c13.7-8,27.4-16,41.5-23.3c21.3-11.1,42.9-21.8,64.5-32.5c6.6-3.3,13.5-5.9,20-9.3
		c2.3-1.2,4.5-3.4,5.6-5.7c3.4-7.1,6.4-14.4,9.3-21.7c1.1-2.7-2.9-9.9-5.6-11.7c-4.5-3-7.9-0.4-11.3,2c-1.6,1.1-2.4,3.2-4,4.4
		c-0.9,0.7-2.8,0.8-3.9,0.3c-0.7-0.3-1.5-2.4-1.2-3.1c2.6-5,5.3-9.9,8.3-14.6c3.2-5,8.5-6.4,13.8-5.4c6.8,1.3,9.8,6.6,11.6,13.1
		c3.2,11.8-1.4,21.8-6.2,31.9C326.1,135.4,325.8,136.4,325.5,137.2z"/>
	<path fill="white" d="M2134,80.8c1.3,8.4-3.1,14.7-10.4,17.2c-9.2,3.1-18.4,6.6-27.3,10.7c-19.8,9.1-39.6,18.5-59.1,28.2
		c-17.1,8.5-34.2,17.1-50.8,26.5c-15.6,8.8-30.8,18.1-45.7,28.1c-12.9,8.6-25.1,18.3-37.6,27.5c-1.2,0.9-2.9,1.3-4.6,2
		c-1.2-9.4,2.1-15.5,9-19.8c7.3-4.6,14.1-9.9,21.2-14.8c2.8-1.9,5.5-4.3,8.7-5.4c5.5-1.9,5.3-6.5,6-10.6c1.3-7.9,0.9-15.6-1.3-23.4
		c-2.7-9.4-6.9-17.9-12.2-26c-6.4-9.7-15.9-15.5-25.9-20.7c-4.5-2.3-5.9-10-2.4-13.6c0.7-0.7,2.6-0.8,3.6-0.3
		c14.5,6.9,26.1,16.7,33.9,31.2c4.9,9.1,8.3,18.8,10.1,28.6c1.3,7.3-0.6,15.2-1.1,22.9c-0.1,1.5,0,3,0,4.8c7.6-4.5,14.9-9,22.4-13.3
		c5.7-3.3,12-5.8,17.2-9.8c5.6-4.2,10.8-9.2,15.1-14.8c6.7-8.8,9-19.1,8.4-30.2c-0.3-5.4-3.3-8.7-6.8-11.9
		c-2.4-2.1-8.7,0.2-10.6,3.6c-1.1,2-1.9,4.2-3.2,6c-0.8,1.2-2.2,2-3.8,3.3c-2-9.7,4.6-23.2,12.2-26.9c4.9-2.4,13.4,1.4,16.6,7.3
		c5.2,9.6,4.4,19.6,0.7,29.3c-2.9,7.7-6.6,15.2-9.7,23.5C2048,118.7,2089.8,97.7,2134,80.8z"/>
	<path fill="white" d="M878.3,252.7c-1-1.8-2.7-3.5-2.6-5c0.7-8.1,6-13.4,12.1-18.2c19.8-15.3,41-28.5,62.9-40.4c21.6-11.8,43.4-23.3,65.5-34.1
		c18.3-9,37.1-16.9,55.7-25.2c4.3-1.9,8.5-3.9,12.9-5.6c1.2-0.5,3.4-0.7,3.8-0.2c0.8,1.1,1,2.9,0.8,4.4
		c-1.5,10.1-9.2,13.9-17.5,17.4c-15.8,6.6-31.6,13.5-47.2,20.6c-12.8,5.8-25.7,11.4-37.9,18.2c-20.3,11.3-40.4,23.2-60.1,35.5
		c-15.5,9.7-30.4,20.5-45.6,30.8C880.4,251.4,879.7,251.8,878.3,252.7z"/>
	<path fill="white" d="M543,129.2c44.1-21.4,90.1-41.1,138.4-55.2c2.1,6-2.1,14.4-7.8,16.1c-10.5,3.2-21.1,6.1-31.4,10c-16,6.1-32,12.5-47.6,19.7
		c-22.2,10.3-44.1,21.3-66.1,32.2c-3.9,1.9-7.3,5-11.2,7c-1.6,0.8-3.8,0.4-5.8,0.5c-0.1-1.6-0.2-3.2-0.2-4.8c0-8.2,7-10.8,12.2-14.7
		c0.9-0.7,2.1-1.1,3-1.7c3.4-2.2,9-4.1,9.5-6.9c1.1-5.3,0.2-11.6-1.6-16.8c-4.2-12.2-13.1-20.8-24-27.2c-4.6-2.7-5.6-6.3-4.7-10.8
		c0.6-3.1,2.6-4.4,5.9-2.5c14.3,8.1,24.3,19.9,29.2,35.4C542.7,115.6,542.3,122.5,543,129.2z"/>
	<path fill="white" d="M1528.5,411.2c2.1,5.8,0.3,10.9-3.1,14.5c-2.6,2.7-7,4.3-10.9,4.9c-6.3,1.1-9.4,5.1-12.8,9.7c-7.1,9.7-13.1,19.9-17.4,31.1
		c-2.2,5.8,3,15.2,9.1,15.2c2.1,0,4.6-2.9,6.3-5c1.7-2.2,2.6-5,4.3-8.6c5,11.8-2.8,23.2-10.2,27.5c-3.5,2-10.3-1.5-12.9-5.6
		c-7-11.1-3.6-21.6,1.6-31.9c4.4-8.8,9.6-17.1,14.4-25.5c-0.2,0-1.1-0.1-1.9,0.3c-28.9,13.6-58.1,26.8-85.2,43.8
		c-8.8,5.5-17.9,10.7-26.9,16c-1.2,0.7-3.5,1.5-4.2,0.9c-1-0.8-1.6-3-1.3-4.4c1.3-5.8,3.1-11.5,8.7-14.7
		c17.4-9.9,34.5-20.4,52.3-29.5c18.4-9.3,37.5-17.5,56.5-25.7C1505.8,419.5,1517,415.6,1528.5,411.2z"/>
	<path fill="white" d="M2577.2,462c1.2,4,1.1,8.2,3.2,10.1c2.3,2.1,6.5,2,9.8,2.8c1.6-6.4,1.7-12.5,7.3-15.9c4.4,8.6,2,16-2,23.3
		c-2.7,4.8-8.8,7.1-13.9,5.3c-3.2-1.1-6.3-2.4-9.6-3.1c-1.4-0.3-3.3,0.6-4.6,1.6c-10.4,7.9-20.9,7.4-29.9-1.9
		c-5.5-5.7-12.6-6.3-19.2-4.8c-13.3,3.2-26.3,7.6-39.4,11.6c-13.8,4.3-27.5,9.1-41.4,13.2c-11,3.3-22.1,6.2-33.3,8.8
		c-8.8,2-17.8,3.3-26.7,4.9c-1.4,0.2-2.8-0.2-4.2-0.3c-0.2-0.5-0.5-1-0.7-1.5c2.1-1.4,4-3.3,6.3-4.1c14.9-5.3,29.9-10.4,44.9-15.4
		c25.2-8.4,50.4-16.9,75.8-24.9c9.1-2.9,18.5-4.9,28-6.1c5.6-0.7,12,0.5,16.2,5.2c5.1,5.9,11.2,7.6,18.5,6.8c3-0.3,4.7-1,5.5-4.3
		c0.8-3.1,2.7-6.2,4.7-8.8C2573.5,463.2,2575.8,462.7,2577.2,462z"/>
	<path fill="white" d="M1360.7,460c-5.2-2.5-10.3-5-15.6-7.3c-1.1-0.5-3.5-0.4-3.7,0.1c-4.8,9.9-14.6,13.3-23.3,17.9c-8.4,4.4-17.2,7.9-25.9,11.7
		c-8.3,3.6-16.5,7.6-25,10.6c-10.1,3.5-20.3,6.6-30.7,9.1c-10.9,2.6-22,4.2-33,6.4c-4.6,0.9-9.2,2.4-13.8,3.5
		c-1,0.2-2.1-0.1-3.2-0.1c0.6-1.1,0.9-2.9,1.8-3.3c4.4-2.2,9-4.3,13.6-6.1c11-4.2,22.1-8.1,33.1-12.3c11.6-4.5,23-9.2,34.5-13.8
		c10.7-4.2,21.5-8.2,32.1-12.6c10.5-4.4,20.8-9.2,31.1-13.7c4.3-1.9,5.8-5.4,7-9.8c2-6.9,4.4-14.1,11.3-18.1c6-3.5,11.3-1.8,14,4.2
		c3.8,8.2,5.4,16.4,4.1,25.3C1368.6,456,1365.6,459,1360.7,460z M1359.4,443.3c0.4-0.3,0.7-0.7,1.1-1c-1.7-2.4-3.1-5.4-5.3-7.1
		c-1.1-0.8-3.9,0.5-5.9,0.8c0.7,1.4,1.1,3.4,2.2,4.1C1354,441.5,1356.8,442.3,1359.4,443.3z"/>
	<path fill="white" d="M2554.7,294.3c8.6,5,16.2,9,23.3,13.6c4,2.6,5.8,1.6,7.7-2.4c2.6-5.5,5.9-10.6,8.9-15.9c1.8-3,4.4-4.5,7.6-2.5
		c9,5.6,17.9,11.3,26.7,17.2c0.8,0.5,1.1,2.8,0.7,3.8c-3.3,7.3-6.9,14.5-10.4,21.8c-1.7,3.6-3.6,4.6-7.2,2.1
		c-6.7-4.5-13.8-8.4-20.5-12.9c-2.6-1.7-4.2-2.3-5.6,1.3c-2.3,5.8-5,11.5-7.5,17.3c-1,2.3-1.7,3.9-4.9,2.1
		c-10.1-5.6-20.4-10.7-30.5-16.2c-1.6-0.9-2.5-2-1-4.7C2546.6,311.2,2550.4,302.8,2554.7,294.3z"/>
	<path fill="white" d="M150.3,319.7c2.1-5.7,3.6-10.5,5.7-15.1c6.6-14.4,4.1-10.7,17.9-6.2c5.2,1.7,10.2,4.1,15.2,6.5c3.1,1.5,4.6,0.5,5.7-2.3
		c2-4.8,3.9-9.7,6.3-14.3c2.8-5.7,4.7-6.5,10.1-4c7.6,3.4,15,7.3,22.3,11.2c4,2.1,4.6,5.9,2.9,10.1c-1.6,4-2.5,8.2-4,12.3
		c-0.9,2.4-2,4.8-3.4,6.9c-1.5,2.3-3,3-6.1,1.2c-7.1-4.3-14.7-7.8-22-11.7c-3.7-1.9-5.1-0.4-6.2,3.3c-1.7,5.4-3.9,10.6-6.4,15.7
		c-1.4,2.9-3.9,3.9-7.5,2.2c-8.6-4-17.5-7.5-26.1-11.5C152.8,323.2,151.7,321.1,150.3,319.7z"/>
	<path fill="white" d="M312.3,493.5c-3.4,6.8-6.2,12.5-9.2,18.1c-2.8,5.2-5.4,6.4-10.7,3.9c-7.8-3.6-15.5-7.6-23-12c-3.2-1.9-5.1-4.7-2.4-9
		c3.4-5.5,6.1-11.5,9.3-17.2c2.1-3.8,4.4-4.4,8.6-1.6c6.4,4.3,13.6,7.5,20.7,10.8c0.9,0.4,3.3-0.8,4-2c3.2-5.3,6.3-10.7,9.1-16.2
		c1.9-3.7,4.7-4.2,7.7-2.6c8.4,4.4,16.6,9.1,24.7,13.9c2.8,1.7,4,3.9,2.5,7.9c-2.6,7.4-5,14.8-10.5,20.6c-0.8,0.9-3.3,1.2-4.3,0.6
		C330.1,504.1,321.4,498.9,312.3,493.5z"/>
	<path fill="white" d="M1158.8,119c-8.1-0.4-16.3-1.3-24.4-0.9c-7.3,0.3-14.6,2.2-21.9,3.1c-1.4,0.2-3.2-0.3-4.2-1.2c-0.5-0.4-0.1-2.7,0.6-3.7
		c4.1-6.3,8.4-12.3,12.5-18.6c4.6-7.1,12.2-8.5,19.4-8.7c10.7-0.4,21.5,0.6,32.2,1.3c2.7,0.2,5.4,1.1,8,2.2
		c4.1,1.6,5.3,5.9,2.5,11.3c-5.6,10.7-11.8,21.4-21.3,28.8c-6.7,5.2-15.4,8-23.3,11.6c-3.8,1.7-7.9,3.2-12,4
		c-1.9,0.4-4.2-0.8-6.3-1.2c1-1.5,1.7-3.5,3.1-4.3c11.7-7.3,23.5-14.4,35.3-21.6C1158.9,120.4,1158.8,119.7,1158.8,119z"/>
	<path fill="white" d="M1997.6,312.1c9.1,4.6,17.4,8.9,25.8,12.9c1,0.5,3.7-0.6,4.3-1.6c3-5.1,5.7-10.4,8.2-15.8c1.8-3.9,4.6-4.2,7.6-2.5
		c8.5,4.9,16.9,10.1,25.2,15.4c1.1,0.7,2,3.1,1.6,4.3c-2,6-3.8,12.4-7.1,17.8c-5.1,8.4-7.2,8.2-15.3,2.2c-5-3.8-10.1-7.4-15.4-10.7
		c-1.7-1.1-3.8-1.2-5,1.9c-2.1,5.5-4.9,10.8-7.5,16c-2.6,5.1-3.9,5.5-8.7,2.8c-7.2-3.9-14.5-7.7-21.5-12c-6.6-4-6.7-4.4-3.6-10.9
		c2.8-6.1,6.2-12,9.4-17.9C1996,313,1997.2,312.4,1997.6,312.1z"/>
	<path fill="white" d="M913.6,300.8c3.3-6.3,6.6-12.3,9.7-18.4c1.9-3.8,5.3-3.8,7.9-2.4c8.7,4.6,17.2,9.6,25.6,14.7c1,0.6,1.8,3.1,1.4,4.3
		c-2.5,6.8-5,13.7-8.3,20.1c-2.5,5-4.9,5.1-10.1,2.1c-6.3-3.7-12.7-7.3-19.1-11c-4.1-2.4-5.2-0.2-6.4,3.4c-1.7,5-3.9,9.9-6.4,14.6
		c-1.7,3.2-4.6,2.8-7.7,1.2c-8-4.1-16.2-7.8-24.1-11.8c-2.3-1.2-4.2-2.7-2.4-6.2c3.2-6.4,6-13,8.7-19.6c1.7-4.1,4.2-3.6,7.5-2.1
		C897.7,293.3,905.6,297,913.6,300.8z"/>
	<path fill="white" d="M1062.6,504.2c-9.3-6-18.3-11.8-27.5-17.8c-3.6,6.4-6.6,11.8-9.5,17.2c-2.4,4.4-5.8,5.7-9.9,3.1
		c-7.4-4.5-14.7-9.2-21.9-13.9c-3.3-2.2-4.6-5.1-2.3-8.8c3.6-6,7.2-11.9,10.6-17.9c1.6-2.8,2.9-2.6,5.4-1c7,4.5,14.4,8.3,21.4,12.8
		c3.7,2.4,4.7,0.5,6.2-2.3c3-5.3,6.2-10.5,9.4-15.7c1.4-2.2,2.7-3.1,5.5-1.1c7.9,5.5,16.3,10.5,24.3,15.9c1,0.7,1.8,3,1.4,4.1
		C1072.9,488,1068.6,496.4,1062.6,504.2z"/>
	<path fill="white" d="M662,294.2c-2.7,6.3-4.6,11.5-7.1,16.3c-2.4,4.7-6.4,5.8-11.1,3.3c-7.8-4.2-15.6-8.4-23-13.2c-1.4-0.9-2.6-4.5-1.9-6.1
		c2.9-6.8,6.7-13.3,9.9-20c1.6-3.3,3.4-3.3,6.3-1.7c7.6,4.3,15.4,8.5,23.2,12.8c3.1-6.2,6.1-12.3,9.2-18.3c2.2-4.2,5-4.9,9.3-2.3
		c6.5,3.9,12.7,8.2,19.2,12c4.2,2.5,4.6,6.2,3.4,9.8c-2.1,6-4.7,11.8-7.6,17.4c-1.7,3.4-4.1,5.6-8.4,1.9c-4.4-3.8-9.7-6.7-14.8-9.7
		C666.5,295.3,663.9,294.8,662,294.2z"/>
	<path fill="white" d="M1392.4,256.4c2.8-6.2,5.1-11.8,7.8-17.1c4.5-9,4.6-9,13.6-4.2c5.5,2.9,11,6,16.4,9.1c2.8,1.6,4.2,1.3,5.6-1.8
		c2.7-5.8,5.8-11.4,9-17c0.5-0.9,3-1.8,3.9-1.4c8,4.4,15.8,8.9,23.5,13.6c2.7,1.6,4.2,3.7,2.3,7.6c-2.8,5.8-4.1,12.3-6.6,18.2
		c-2.5,5.8-4.7,5.6-9.7,2c-6.1-4.5-12.8-8.4-19.4-12.2c-0.6-0.3-3.1,1.5-3.7,2.8c-2.3,4.6-3.7,9.6-6.2,14.1
		c-2.8,5.1-6.8,5.6-11.8,2.5c-7-4.2-14.1-8.2-21.1-12.5C1394.7,259.5,1393.7,257.8,1392.4,256.4z"/>
	<path fill="white" d="M527.6,229.6c2.8,1.5,5,2.5,7.1,3.8c4.7,2.9,9.4,6,14,9c7.5,4.8,8,6.1,4.6,14.2c-2,4.6-4.6,8.9-6.5,13.5
		c-0.4,1.1,0.6,3.7,1.6,4.3c6.6,4.1,13.5,7.9,20.3,11.8c3.2,1.8,5.1,3.6,2.7,7.8c-3.6,6.4-6.4,13.3-9.5,20c-1.2,2.5-2.6,2.9-5.1,1.4
		c-8.5-5-17.2-9.8-25.7-14.8c-3.5-2.1-2.6-5.6-1.4-8.4c2.2-5.1,4.8-9.9,7.5-14.8c1.5-2.7,1.9-4.3-1.5-6.3
		c-6.3-3.5-12.1-7.9-18.2-11.8c-3.3-2.1-4.5-4.6-2.6-8.3c3.1-6,6.2-12,9.5-17.9C525.1,231.7,526.6,230.6,527.6,229.6z"/>
	<path fill="white" d="M1652.8,148.9c11.6-11.7,27-18.8,39-29.9c-0.2-0.6-0.3-1.2-0.5-1.9c-9.9,0.8-19.8,1.6-29.7,2.4c-6.8,0.5-13.6,1-22,1.6
		c4.1-6.9,7.6-12.4,10.7-18.1c4.7-8.8,12.7-10.8,21.7-11.2c3.4-0.1,6.8-1.7,10.1-1.5c11,0.6,21.9,1.7,34.1,2.6
		c-0.7,4.1-0.6,7.8-2,10.8c-4.2,9.4-8.7,19-17.1,25.2c-8,5.9-17.1,10.3-25.8,15.2c-3.1,1.7-6.3,3.3-9.5,4.6c-2.6,1-5.4,1.6-8.1,2.3
		C1653.5,150.4,1653.2,149.7,1652.8,148.9z"/>
	<path fill="white" d="M647.7,178.9c-3.5,7.7-8.2,12.3-15.4,15.5c-10,4.4-19.9-4.6-22-12.8c-2.2-8.8,1-16.6,2.5-24.8c0.3-1.5,0.5-3,0.8-5.3
		c-2.3,1-3.7,1.6-5.1,2.3c-1.8-5.2,1.8-13.4,6.6-15.1c3.2-1.2,6.2,0.9,6,5.1c-0.2,5-1.6,10-2.2,15c-0.6,5.3-4.1,10.4-0.8,16.1
		c1.9,3.2,4.1,5.1,7.7,5.3c2.2,0.1,4.3,0.1,6.5,0c6.6-0.3,11.7-5.2,11-11.7c-0.7-6.1-2.3-12.1-3.9-18.1c-1-3.6,0.7-10.6,4.5-13.8
		c1.9,4.3,4.1,8.3,5.3,12.5c1.6,5.4,2.3,11.1,3.6,16.7c1.3,6,7.9,11.3,13.8,11.3c7.9,0,10.6-4.7,6.9-11.6
		c-2.9-5.3-5.2-10.9-8.1-16.2c-2.9-5.2-1.8-10,1.2-15.8c1.4,1.5,2.8,2.5,3.5,3.9c3.4,6.5,6.6,13.1,9.9,19.6
		c4.3,8.5,2.5,21.1-2.9,27.8c-8.1,9.9-18.8,6.8-25.7-1.2C650.3,182.2,649.3,180.8,647.7,178.9z"/>
	<path fill="white" d="M327.8,282.6c6,11.1,11.9,20.6,16.3,30.8c4.2,9.5-0.5,25.7-13.5,28.8c-4.4,1-12.2-3.5-15.8-9.3c-0.8-1.4-1.8-2.7-2.5-3.8
		c-2.9,4.1-5.2,8.5-8.5,11.9c-4,4.2-9.2,7.8-15.3,5.7c-7.5-2.6-13.3-7.8-13.7-16.3c-0.3-5.9,0.6-11.9,1.5-17.7
		c0.7-4.8-2.1-5.7-5.7-6.1c-1.6-4.4-0.1-8.1,2.8-11c1.5-1.4,4.4-1.9,6.6-1.7c0.9,0.1,2.3,3,2.3,4.7c-0.2,6.6-0.6,13.1-1.3,19.6
		c-0.6,5.9,2.8,11.5,8.6,13.3c6.1,1.9,14-1.4,16.7-6.6c2.8-5.6,1.1-10.9-0.7-16.1c-1.2-3.5-3.3-6.9-3.8-10.5c-0.4-2.8,1.1-5.9,2-8.8
		c0-0.1,3.8,0.2,4.1,1c2.3,5.3,4.6,10.7,6,16.3c2,7.9,3.9,15.4,12,19.7c4.3,2.2,8.2,1.1,10.8-1.3c1.3-1.2,0.4-6-0.8-8.5
		c-2.2-4.7-5.1-9.1-8.1-13.3c-3.5-4.9-2.6-10.4-2.5-15.7C325.4,286.3,326.6,285,327.8,282.6z"/>
	<path fill="white" d="M2392.6,355.5c0.8-9.6,1.5-19.1,2.5-28.7c1.1-11,2.4-21.9,7.7-31.8c2.2-4.2,6.9-7.1,10.8-6.3c4.8,1.1,7.6,4.3,8.1,9.2
		c0.4,4.8,0.5,9.7-3.4,14.4c-1.1-2-1.6-3.7-2.7-5c-1.5-1.8-3.4-4.6-5.1-4.5c-2.1,0.1-4.6,2.2-5.9,4.2c-1.6,2.5-2.8,5.6-3.1,8.5
		c-0.9,8.3-0.9,16.7-2,24.9c-1.3,9.1-3.3,18-5.4,26.9c-0.3,1.3-2.4,3.1-3.5,2.9c-1.5-0.2-3.4-1.6-4.2-3c-3-5.3-5.4-11-8.4-16.3
		c-2.9-5-6.3-9.7-9.4-14.5c-8.9,4.9-17.8,4-24.8-2c-4.3-3.7-5.9-9.2-4.2-14.6c0.6-2,0.6-4.3,1.5-6c1.8-3.4,7.8-4.8,12.5-2.9
		c7.4,3,14.1,7.3,18.8,13.7c5.4,7.5,10.1,15.4,14.9,23.3c1.5,2.4,2.2,5.2,3.3,7.8C2391.2,355.6,2391.9,355.6,2392.6,355.5z"/>
	<path fill="white" d="M1438,133.8c1.3,5,2.3,9.4,3.6,13.7c0.6,1.8,1.6,3.6,2.7,5.1c6.8,8.7,6.5,25.9-3.1,33.1c-4.3,3.3-11.7,3.5-15.6-0.4
		c-2.5-2.5-4.7-5.4-7.3-8.4c-1.9,11-8.9,16.9-18.8,19.8c-7.2,2.1-17.5-6.5-17.3-15c0.1-7.5,0.9-15.1,1.8-22.5
		c0.4-3.1,0.5-4.3-3.1-2.8c-0.7,0.3-3.5-2.1-3.3-2.7c1.1-3.5,2.4-7.1,4.3-10.2c1.9-3.1,6.4-3,7.5,0.4c1.1,3.4,1.4,7.4,1.2,11
		c-0.4,5.3-2.1,10.5-2.4,15.8c-0.4,7.8,4,12,11.9,11.1c6.1-0.7,11.8-3,14.3-9.5c0.5-1.3,0.8-2.9,0.5-4.2c-1.5-6.3-3.4-12.5-4.9-18.8
		c-1-4.2,0.8-8.9,4.1-10.8c3.9,5.6,6.2,11.8,7.2,18.6c0.6,3.8,1.6,7.6,3.2,11.1c2.3,5.1,9.4,7.6,14.4,5.7c4.5-1.7,5.1-6.3,1.7-12.6
		c-2.5-4.7-5.1-9.4-7.5-14.2C1431.4,143.7,1433.9,136.6,1438,133.8z"/>
	<path fill="white" d="M1767.1,196.5c2-12.4,3.2-23.4,5.6-34.2c1.7-7.7,3.1-16,9.4-21.9c2.9-2.7,6.3-4.8,10.3-3.2c4.7,2,7.8,8.7,7,13.2
		c-0.4,1.9-0.1,4-0.4,5.9c-0.2,1.6-0.9,3.1-1.7,5.9c-1.9-2.9-2.8-4.9-4.3-6.3c-1.9-2-4.7-5.3-6.3-4.9c-2.5,0.6-5,3.6-6.3,6.1
		c-3.3,6.7-4.2,14.1-4.9,21.6c-0.9,9.7-2.9,19.3-4.7,28.9c-0.2,1.2-2.1,2.9-3.2,2.9c-1.4,0-3.4-1.2-4.2-2.4
		c-3.3-5.4-6-11.2-9.4-16.6c-2.3-3.6-5.4-6.6-8.1-9.8c-8.8,6.5-24.9,2.2-28.7-7.7c-2.1-5.5-2.2-11.5,1.2-16.8
		c1.3-2.1,9.5-3.2,12.6-1.5c10.5,5.7,19.8,12.7,25.9,23.3C1760,184.5,1763.3,190,1767.1,196.5z"/>
	<path fill="white" d="M301.5,245.9c0.7-7.3,1.3-13.4,1.7-19.5c0.7-10.8,2.8-21.3,6.6-31.4c2.1-5.6,7.7-8.3,13.1-7.1c3.7,0.8,6.7,5.5,6.5,11
		c-0.1,3.7-0.9,7.4-1.4,11.1c-0.5,0.2-1,0.4-1.6,0.6c-1.1-1.3-2-2.7-3.2-3.9c-1.8-1.7-3.9-4.7-5.6-4.6c-1.9,0.2-4.4,3.1-5.1,5.2
		c-1.6,5.5-2.5,11.1-3.3,16.8c-1.2,9.4-1.8,19-3.4,28.3c-0.5,2.9-3.1,5.4-4.8,8.1c-0.6,0.1-1.3,0.2-1.9,0.3
		c-1.9-3.6-3.6-7.2-5.6-10.7c-3.9-6.6-7.9-13.1-12.1-19.5c-0.5-0.7-2.8-1.1-3.7-0.6c-11.3,5.7-21.6,1.8-24.3-10.4
		c-0.8-3.5,1.7-8.4,4-11.8c1.9-2.7,5.3-3.9,9.7-2.1c10.1,4.1,17.2,11.3,22.9,20.1C294.1,232.1,297.3,238.5,301.5,245.9z"/>
	<path fill="white" d="M1087.9,318.5c0.9-8.4,1.7-15.4,2.4-22.4c1-10.1,4.2-19.5,9.2-28.3c2-3.5,4.9-6.3,9.2-5.2c4.9,1.2,8.9,4.5,9.5,9.7
		c0.4,3.6-0.5,7.5-1.5,11c-0.7,2.5-2.7,3.3-4.4,0.2c-0.9-1.6-2-3-3.2-4.3c-2.2-2.6-6.4-2.4-7.7,0.7c-2,4.5-3.9,9.2-4.8,14.1
		c-1.1,5.6-0.9,11.5-1.6,17.2c-0.8,5.9-1.8,11.9-3.1,17.7c-0.4,1.7-2.2,3-3.3,4.5c-1.4-1.1-3.2-1.8-4-3.2
		c-3.6-6.1-6.8-12.4-10.2-18.5c-2.5-4.4-5.1-6.9-11.4-5.1c-7,2-14.7,1.3-18.6-6.8c-3.5-7.2-0.7-16.3,6.6-19.1
		c5.5-2.1,9.3,1.6,12.9,4.6c9.3,7.7,15.9,17.4,20.9,28.3C1085.3,314.9,1086.4,316.2,1087.9,318.5z"/>
	<path fill="white" d="M610.3,486.9c-3.3,0.5-6.5,0.3-8.9,1.5c-4.7,2.4-9.2,1.5-13.2-0.5c-2.9-1.4-5.6-4.3-7.1-7.1c-0.6-1.2,1.8-4.5,3.5-6.3
		c6.5-7.1,14.6-10.8,24.2-12.5c10.6-1.9,20.9-5.2,31.5-7.5c5.9-1.3,11.9-2.1,17.8-3c0.6-0.1,1.3,0.5,2,0.8c0.1,0.6,0.2,1.2,0.3,1.7
		c-6.7,2.1-13.3,4.3-20,6.2c-9,2.6-18.2,4.5-27.1,7.4c-7.4,2.4-14.5,5.6-21.7,8.6c-1.7,0.7-3,2.3-4.3,4.2
		c12.4,3.6,23.6,2.2,33.1-8.1c0.3,0.5,0.6,0.9,1,1.4c-0.4,1.4-0.6,3-1.4,4.2c-1.8,2.5-5.3,5.7-2.6,8c2.1,1.7,6.8,0.4,10.3,0.2
		c1.2-0.1,2.3-0.9,3.9-1.5c-1.6-0.9-3.6-1.4-3.9-2.4c-0.6-2-1.1-5.2,0-6.3c2.9-3,6.6-5.1,10.1-7.5c2.6-1.8,4.5-2,6.3,1.4
		c0.7,1.2,3.2,1.5,3.7,1.7c2.5-2.6,4.1-4.3,5.6-6c1.2,1.2,2.5,2.4,4.1,4.1c6.6-2.3,13.8-4.9,22.1-7.8c-0.5,2.4-0.6,3.6-1.1,4.8
		c-1.7,4-3.4,8.1-5.3,12c-0.5,1-1.9,1.6-2.9,2.4c-0.6-1-1.6-2-1.6-3.1c0-2,0.5-4,0.7-5.8c-8.3,2-16.8,3.9-24.5,5.8
		c-0.6,2-0.7,3.8-1.6,5c-7.4,8.8-17,12.3-28.4,11.8C609.8,494.2,610.6,490.3,610.3,486.9z"/>
	<path fill="white" d="M238.5,473c-0.5,3.9-1.6,7.9-6.9,10.3c-15.1,6.7-30.2,13.5-44.8,21.1c-13.7,7.1-26.8,15.3-40.2,23
		c-0.9,0.5-3.1,0.7-3.5,0.2c-0.8-1.1-1.4-2.9-1.2-4.2c1.3-7.1,5.9-11.7,12-14.9c21-10.8,42.1-21.6,63.2-32.4
		c5.1-2.6,10.2-5.4,15.4-7.8C237.2,466,238.5,466.9,238.5,473z"/>
	<path fill="white" d="M393.7,228.6c0.9,0.4,1.5,0.6,2.1,1c9,5.1,17.9,10.2,26.9,15.3c2.8,1.6,3.3,3.5,1.8,6.6c-3.5,6.7-6.8,13.4-9.8,20.3
		c-1.6,3.6-3.4,3.3-6.2,1.7c-8.2-4.9-16.3-10-24.7-14.4c-4-2.1-4.6-5.2-3.2-8.2c3-6.8,6.8-13.3,10.4-19.8
		C391.4,230,392.7,229.4,393.7,228.6z"/>
	<path fill="white" d="M1783.1,286.2c-2.9-1.2-5-1.9-6.9-2.9c-7.1-3.7-14-8.1-21.3-11.3c-5-2.1-5.1-5.8-3.7-9.1c2.9-6.6,6.6-12.9,10.4-19.2
		c0.5-0.8,3.2-1.3,4.3-0.7c8.8,4.1,17.3,8.8,26.2,12.7c4.2,1.9,4.5,4.7,3.2,7.9c-2.5,6.5-5.5,12.8-8.5,19.1
		C1786.1,284.2,1784.4,285,1783.1,286.2z"/>
	<path fill="white" d="M2276.6,483.3c1.6-3.4,2.6-6.1,4-8.5c2.8-4.9,5.9-9.6,8.9-14.4c1.5-2.4,3.7-2.1,5.8-0.9c8,4.7,16.1,9.3,24,14.2
		c2.7,1.6,4.2,3.7,2.1,7.3c-2,3.4-3,7.4-4.7,11c-1.7,3.5-3.4,7-5.7,10.1c-2.2,2.9-5.1,0.3-7.1-0.8c-7.9-4.3-15.7-8.9-23.3-13.7
		C2279.1,486.6,2278,484.8,2276.6,483.3z"/>
	<path fill="white" d="M381.3,511.8c-2.7-6-1.2-13,3.5-15.9c10.3-6.4,20.5-13.2,31.3-18.8c15.6-8.1,31.6-15.4,47.5-23c2.2-1,4.6-1.5,7-2.2
		c-0.4,3,0.2,6.7-1.3,9c-2,3-5.3,5.6-8.6,7.1c-24,10.9-47.4,22.8-69.5,37.3C387.8,507.5,384.6,509.6,381.3,511.8z"/>
	<path fill="white" d="M1211,233.8c-0.8,8-3.8,15.1-8.8,21.4c-1.8,2.2-3.9,3-6.9,1.2c-7.7-4.7-15.7-8.9-23.5-13.4c-3.1-1.8-4-4.7-2.6-7.7
		c3.2-6.6,6.6-13,10.2-19.4c1.5-2.8,3.7-3.9,7-1.8c6.7,4.4,13.6,8.5,20.5,12.6C1211,229.1,1211.1,229,1211,233.8z"/>
	<path fill="white" d="M940.6,448.2c1.7,7.4-0.5,12.1-6.3,15c-18.2,9-36.5,17.8-54.4,27.2c-8.8,4.6-16.8,10.7-25.3,16c-1.2,0.7-2.9,0.6-4.3,0.8
		c-0.2-1.3-0.6-2.7-0.6-4c0.7-10.1,9.1-13.6,16.1-17.6c14.9-8.6,30.3-16.3,45.7-24.1C921,456.9,930.8,452.7,940.6,448.2z"/>
	<path fill="white" d="M2591.8,268.7c-3.7,8.2-7,16.3-10.9,24.2c-1.3,2.6-4,2.1-6.5,0.4c-7.8-5.4-15.8-10.5-23.5-16c-1.3-0.9-2.4-4-1.8-5.2
		c3.3-6.8,6.9-13.5,10.8-20c1.7-2.9,4.7-3.1,7.3-1.3c7.2,4.7,14.2,9.7,21.2,14.6C2589.6,265.9,2590.4,267.1,2591.8,268.7z"/>
	<path fill="white" d="M652.9,275.5c-2.7-1.5-5-2.7-7.2-4c-6-3.5-11.9-7.1-17.9-10.6c-3-1.8-4.2-3.4-2.1-7.1c3.6-6.3,6.4-13.1,9.9-19.6
		c0.6-1.1,3.3-2.1,4.2-1.7c7.6,3.8,14.9,8,22.4,12c4.2,2.3,4.4,5.3,3,9.6c-2.1,6.6-3.6,13.4-8.4,18.7
		C655.9,274,654.4,274.6,652.9,275.5z"/>
	<path fill="white" d="M1626.2,515.2c-1.8-6.3-0.1-13.1,7.6-17.2c10.4-5.5,20.4-11.7,31.1-16.6c14.7-6.8,29.8-12.7,44.8-19.1c2.3-1,4.6-2.2,7-3.3
		c2.3,9.3,0.1,12.4-8.3,15.5c-9.6,3.6-18.9,7.9-28.2,12.3c-11.7,5.5-23.2,11.2-34.7,17.2C1639,507.4,1632.7,511.4,1626.2,515.2z"/>
	<path fill="white" d="M2499.2,222.1c-5.5,12.5-11.4,24.9-16.2,37.7c-4,10.7-6.7,21.8-9.5,32.9c-1.3,5-1.9,10.3-1.6,15.4c0.3,4,1.9,8.3,4.2,11.5
		c1.6,2.2,5.6,3.6,8.5,3.5c4.8-0.1,7.3-3.6,7.8-8.4c0.3-3,1-5.9,1.5-8.9c0.6-0.2,1.2-0.4,1.8-0.5c0.9,1.6,2.4,3,2.7,4.7
		c1.2,7.9-1.3,15.2-5.4,21.8c-5,8-16.9,7.8-22-0.3c-4.4-7-6.5-15-6.7-23c-0.2-6.2,1.4-12.6,3.3-18.5c4.3-13.5,9-26.9,14-40.2
		c3.5-9,7.8-17.7,12-26.4c0.6-1.3,2.5-2,3.8-3C2498,220.8,2498.6,221.4,2499.2,222.1z"/>
	<path fill="white" d="M1105.9,502c-3.1-5.7-1.3-11.9,4.8-14.9c10.9-5.4,21.9-10.7,33.1-15.6c13.7-5.9,27.6-11.3,41.3-16.9
		c4.7,6.1,2,12.9-4.9,15.4c-13.3,4.9-26.5,10.1-39.6,15.7C1128.9,490.8,1117.5,496.6,1105.9,502z"/>
	<path fill="white" d="M2086.7,509.1c-1.4,8.8-2.7,16.8-4.2,24.8c-0.3,1.5-1.9,2.7-2.9,4c-0.4-1.7-1.3-3.5-1.2-5.2c0.2-3.7,1.4-7.4,1.5-11.1
		c0.4-21.4-7.8-39-23.8-53c-2.3-2-4.9-3.9-7.3-5.7c-2.4-1.7-2.9-12.4-0.4-13.5c1.6-0.7,4.5,0,6,1.1c14.3,10.3,23.7,24.1,28.4,41.1
		C2084.3,497.5,2085.4,503.5,2086.7,509.1z"/>
	<path fill="white" d="M1000.2,354c3.4,9.8-2,23.9-10.4,28c-4.4,2.1-8.1,1.1-11.3-1.9c-4.4-4.3-6.7-9.7-7.2-15.8c-1.4-15,4.2-28.1,11.7-40.6
		c2.7-4.6,5.7-9,8.9-13.4c0.8-1.1,2.6-1.4,3.9-2.1c0.2,1.5,1,3.3,0.4,4.4c-3.6,6.9-7.2,13.9-11.3,20.5c-5.2,8.2-6.6,17-5.7,26.4
		c0.4,4.5,4.5,8,8.9,8.2c5,0.2,5.9-2.3,8.3-8.7c0.7-1.9,1.5-3.7,2.3-5.6C999.1,353.6,999.6,353.8,1000.2,354z"/>
	<path fill="white" d="M1928.9,490.2c5.8,10.9,0.3,25.6-9.8,28.7c-6.5,2-12.1-1.8-14.9-10.9c-3.1-10.1-1.9-20.2,2.1-30.3
		c5.1-12.8,12.9-23.9,20.4-35.3c1.2-1.8,2.5-3.6,4.5-5c1.2,5.7-2.5,9.5-4.5,13.9c-5.1,10.9-10.7,21.6-15.4,32.6
		c-2.7,6.5-3.1,13.3,3.1,18.8c4.5,4,7.7,3.7,10.3-1.7C1926.2,497.8,1927.3,494.5,1928.9,490.2z"/>
	<path fill="white" d="M888,73.6c-0.2,1.8,0,3.8-0.8,5.4c-4.2,9.5-8.7,18.9-12.9,28.4c-2.3,5.1-0.9,9.4,3.6,12.4c4.7,3.1,9.3,1,10.4-4.5
		c0.3-1.7,1.5-3.4,2.6-4.9c0.3-0.3,2.7,0.2,3,0.9c3,6.1-3.4,21.2-9.9,23.6c-4.8,1.7-9.7,0-13.3-4.4c-6.5-7.9-5.9-16.8-2.3-25.2
		c4.4-10.3,10.1-20.1,15.3-30c0.6-1.1,2.1-1.6,3.2-2.4C887.2,73.1,887.6,73.4,888,73.6z"/>
	<path fill="white" d="M563.5,149.6c-0.6,2.8-0.7,5.5-1.8,7.7c-3.7,7.7-8.3,15.1-11.5,23c-1.8,4.4-2.8,9.7,1.4,13.8c3.6,3.6,8.7,2.3,10.4-2.5
		c0.4-1.2,0.9-2.5,1.7-3.5c0.5-0.7,1.9-1.4,2.4-1.2c0.8,0.4,1.7,1.5,1.9,2.4c1.6,8.1-7.2,18.6-15.3,18.5
		c-5.6-0.1-11.2-5.2-11.1-11.1c0.1-5.7,0.4-11.6,2.1-17c3.5-11.2,9.9-21.1,17.6-30.1C561.4,149.5,561.9,149.6,563.5,149.6z"/>
	<path fill="white" d="M652.6,483.2c0.5,6.5-4.3,9.9-8.8,12.8c-12.9,8.3-27.4,12.4-42.2,15.7c-10.4,2.3-20.8,4.9-31.2,7.1
		c-1.5,0.3-3.2-0.7-4.8-1.1c1.3-0.9,2.4-2.2,3.8-2.7c7.1-2.1,14.3-4,21.3-6.1c10.5-3.1,21.1-6.1,31.4-9.7c6.7-2.3,13.1-5.4,19.4-8.5
		c1.6-0.8,2.3-3.1,3.7-4.4c1.8-1.8,3.8-3.3,5.7-4.9C651.5,482.1,652.1,482.6,652.6,483.2z"/>
	<path fill="white" d="M1042.1,85.1c-1.3,2.5-2.5,5.2-4.1,7.6c-3.4,5.3-8.7,10.1-7.3,17.1c0.6,2.8,3.2,6.3,5.9,7.4c2.5,1.1,4.6-1.7,5.5-5
		c0.4-1.6,2.8-2.6,4.8-4.3c2,9.2-1.8,17.4-8.4,20.1c-1.6,0.6-3.7,0.9-5.2,0.3c-7.8-2.9-12.7-12.1-9.9-19.7c3.3-9,8.1-17.3,15.3-24
		c0.4-0.4,1.2-0.4,1.8-0.6C1041,84.4,1041.6,84.8,1042.1,85.1z"/>
	<path fill="white" d="M1774.9,75c0,1.3,0.5,2.9-0.1,4c-2.7,5.5-6.1,10.8-8.3,16.5c-1.4,3.5-2.1,7.7-1.7,11.4c0.5,4.4,4.2,5.8,8.5,5
		c2.1-2.4,0.7-7.9,6.3-7.6c0.1,11.7-4.2,20.5-13,19.9c-4.5-0.3-7.1-3.1-8.2-7.1c-2.8-10.6,1.9-19.5,7-28.2c2.7-4.7,5.4-9.4,8-14.2
		C1773.8,74.7,1774.4,74.9,1774.9,75z"/>
	<path fill="white" d="M642.1,443.7c3.5,4.6,2.3,8-3,9.1c-1.4,0.3-2.8,1.2-4.2,1.2c-1.8-0.1-3.5-0.9-5.3-1.4c0.7-1.8,0.9-4.5,2.2-5.2
		C635,445.5,638.7,444.8,642.1,443.7z"/>
	<path fill="white" d="M656.1,486.6c-0.1-5.1,1.6-7.6,5.1-7.1c1.6,0.2,3.9,2.5,4.2,4.1c0.6,3.3-1.8,5.9-4.9,6
		C658.9,489.8,657.1,487.4,656.1,486.6z"/>
</g>
</svg>
