<svg width="32" height="33" viewBox="0 0 32 33" fill="none" xmlns="http://www.w3.org/2000/svg">
    <path d="M30.81 5.40619V27.9405C30.808 28.8901 30.4304 29.8003 29.7598 30.4725C29.0892 31.1447 28.1799 31.5243 27.2305 31.5284H5.07949C4.13141 31.5243 3.22332 31.1458 2.55291 30.4753C1.88251 29.8048 1.50408 28.8965 1.5 27.9483V5.40619C1.50204 4.4566 1.87957 3.54638 2.55019 2.8742C3.22082 2.20201 4.13007 1.82245 5.07949 1.81836H27.2305"
          stroke="#F3EFE5" stroke-width="2" stroke-linecap="round" stroke-linejoin="round"/>
    <path d="M29.5335 2.93307C30.0673 2.93307 30.5 2.50033 30.5 1.96653C30.5 1.43273 30.0673 1 29.5335 1C28.9997 1 28.567 1.43273 28.567 1.96653C28.567 2.50033 28.9997 2.93307 29.5335 2.93307Z"
          fill="#F3EFE5"/>
    <path d="M19.4113 6C18.8515 6 18.3814 6 17.844 6C16.5 6 16.4559 6 16.4559 6.18365C16.4559 10.6371 16.4559 15.1135 16.4559 19.5669C16.4559 19.7965 16.4335 20.026 16.3887 20.2556C16.2096 21.0361 15.7842 21.6329 15.1125 22.0691C14.4856 22.4593 13.7915 22.5741 13.075 22.4364C12.8511 22.3905 12.6496 22.2986 12.5601 22.2527C12.4481 22.2068 12.2018 22.0461 12.1347 21.9773C11.2838 21.3804 10.8584 20.577 10.8808 19.5898C10.9032 18.3732 11.6869 17.3172 12.784 16.904C13.075 16.7892 13.2094 16.8122 13.2541 16.8122C13.2989 16.8122 13.5452 16.7892 13.7467 16.8352C13.8139 16.8581 13.8587 16.8352 13.8587 16.7433C13.8587 16.7204 13.8587 16.6974 13.8587 16.6515C13.8587 15.8481 13.8363 14.1034 13.8363 14.1034C13.8363 13.8738 13.8363 13.6443 13.8363 13.4147C13.8363 13.3459 13.8139 13.3459 13.7467 13.3229C13.3661 13.254 12.6272 13.3918 12.5601 13.4147C12.4929 13.4147 12.269 13.4606 11.7764 13.6213C11.2391 13.782 10.7241 14.0345 10.2539 14.3559C9.24639 15.0446 8.50753 15.9628 8.01496 17.0418C7.70151 17.7304 7.54478 18.465 7.5 19.1996C7.5 19.5669 7.5 19.8883 7.52239 20.2097C7.56717 20.6688 7.65673 21.1049 7.79107 21.5411C8.17169 22.7807 8.86577 23.8137 9.8733 24.6172C9.98525 24.709 10.6793 25.214 10.8584 25.3059C12.0451 25.9027 13.2765 26.1323 14.5975 25.9257C16.1648 25.6731 17.5753 24.8238 18.5605 23.5383C19.4337 22.4134 19.8591 21.082 19.8591 19.6358C19.8815 17.409 19.8591 15.1823 19.8591 12.9786C19.8591 12.9327 19.8367 12.8408 19.8815 12.8179C19.9262 12.7949 19.971 12.8638 20.0158 12.8867C20.8218 13.4377 21.695 13.8279 22.6354 14.0345C23.1951 14.1723 23.7549 14.2411 24.3146 14.2411C24.4042 14.2411 24.4937 14.1493 24.4937 14.0575C24.5161 13.254 24.4713 11.0962 24.4713 10.8896C24.4713 10.7978 24.4713 10.7978 24.3818 10.7978C24.1579 10.7978 23.934 10.7748 23.7325 10.7289C23.1069 10.6398 21.4291 9.79006 20.5 8.3514"
          stroke="#F3EFE5" stroke-width="1.5" stroke-linecap="round"/>
</svg>