<svg width="33" height="34" viewBox="0 0 33 34" fill="none" xmlns="http://www.w3.org/2000/svg">
    <path d="M31.4267 5.92622C31.4267 5.37394 30.979 4.92622 30.4267 4.92622C29.8744 4.92622 29.4267 5.37394 29.4267 5.92622H31.4267ZM30.4267 28.4572L31.4267 28.4594V28.4572H30.4267ZM26.8472 32.0445V33.0445L26.8515 33.0445L26.8472 32.0445ZM4.70357 32.0445L4.69927 33.0445H4.70357V32.0445ZM1.12402 28.465L0.124014 28.465L0.124033 28.4693L1.12402 28.465ZM1.12402 5.92622L0.124023 5.92192V5.92622H1.12402ZM4.70357 2.34668L4.70357 1.34667L4.69927 1.34669L4.70357 2.34668ZM26.8472 3.34668C27.3994 3.34668 27.8472 2.89896 27.8472 2.34668C27.8472 1.79439 27.3994 1.34668 26.8472 1.34668V3.34668ZM10.7333 18.9305C11.2528 19.1178 11.8258 18.8485 12.0131 18.3289C12.2004 17.8093 11.931 17.2363 11.4115 17.049L10.7333 18.9305ZM8.46906 16.5564L7.80743 17.3063C7.82302 17.32 7.83903 17.3333 7.85544 17.346L8.46906 16.5564ZM7.05893 13.6354H6.05893C6.05893 13.6527 6.05938 13.6699 6.06027 13.6871L7.05893 13.6354ZM7.66327 10.9779L7.59202 11.9754C7.61574 11.9771 7.6395 11.9779 7.66327 11.9779L7.66327 10.9779ZM7.97319 11.1871L7.20497 11.8273L7.20555 11.828L7.97319 11.1871ZM8.60077 11.8612L9.29583 11.1422L9.29478 11.1412L8.60077 11.8612ZM15.4887 14.4645L15.5345 15.4634C15.8208 15.4503 16.0877 15.315 16.2675 15.0918C16.4473 14.8685 16.5226 14.5789 16.4745 14.2964L15.4887 14.4645ZM21.0904 10.4588L21.6615 9.63786C21.6315 9.61699 21.6003 9.59778 21.5682 9.58032L21.0904 10.4588ZM22.3146 11.0709L22.0005 12.0203C22.0515 12.0371 22.1038 12.0499 22.1569 12.0584L22.3146 11.0709ZM23.2676 11.0709L23.155 10.0772C23.1399 10.0789 23.1249 10.081 23.1099 10.0834L23.2676 11.0709ZM25.592 10.8074L26.3519 11.4575C26.619 11.1453 26.6679 10.7015 26.4753 10.3386C26.2826 9.97569 25.8876 9.76754 25.4794 9.81381L25.592 10.8074ZM23.6085 13.8524L22.7068 13.4201C22.6909 13.4533 22.6768 13.4873 22.6646 13.5221L23.6085 13.8524ZM22.888 17.0678L23.8696 17.2586C23.8752 17.2299 23.8795 17.201 23.8825 17.1719L22.888 17.0678ZM18.89 23.1034L18.3314 22.274L18.3311 22.2742L18.89 23.1034ZM17.9758 23.6303L17.5385 22.7309C17.521 22.7395 17.5036 22.7485 17.4866 22.7581L17.9758 23.6303ZM16.6431 24.2346L16.9697 25.1798L16.9769 25.1773L16.6431 24.2346ZM16.217 24.3818L16.4854 25.3451C16.505 25.3397 16.5243 25.3336 16.5435 25.327L16.217 24.3818ZM15.7444 24.5135L15.9634 25.4893C15.98 25.4855 15.9965 25.4814 16.0128 25.4768L15.7444 24.5135ZM9.0734 24.4051L9.32406 23.437C9.31549 23.4348 9.30688 23.4327 9.29826 23.4307L9.0734 24.4051ZM8.16689 24.1959L7.89961 25.1595C7.91367 25.1634 7.92781 25.167 7.94203 25.1703L8.16689 24.1959ZM7.10542 23.9015L7.04767 22.9031C6.55928 22.9314 6.16303 23.3088 6.11108 23.7953C6.05912 24.2817 6.36673 24.7343 6.83814 24.8651L7.10542 23.9015ZM10.7934 22.7703L10.2877 21.9075L10.2815 21.9112L10.7934 22.7703ZM11.2196 22.2047L12.2119 22.0806C12.2097 22.0634 12.2071 22.0463 12.2041 22.0293L11.2196 22.2047ZM10.9252 21.7708L10.2657 22.5225C10.3072 22.5589 10.3516 22.5918 10.3985 22.6208L10.9252 21.7708ZM9.70772 18.7977C9.41792 18.3276 8.80187 18.1814 8.33172 18.4712C7.86158 18.761 7.71538 19.377 8.00518 19.8472L9.70772 18.7977ZM29.4267 5.92622V28.4572H31.4267V5.92622H29.4267ZM29.4267 28.4551C29.4252 29.1404 29.1527 29.7974 28.6686 30.2825L30.0844 31.6952C30.9415 30.8361 31.4241 29.6729 31.4267 28.4594L29.4267 28.4551ZM28.6686 30.2825C28.1845 30.7676 27.5282 31.0416 26.8429 31.0445L26.8515 33.0445C28.065 33.0393 29.2272 32.5542 30.0844 31.6952L28.6686 30.2825ZM26.8472 31.0445H4.70357V33.0445H26.8472V31.0445ZM4.70787 31.0445C4.0235 31.0416 3.36799 30.7684 2.88406 30.2845L1.46985 31.6987C2.32674 32.5556 3.48745 33.0393 4.69927 33.0445L4.70787 31.0445ZM2.88406 30.2845C2.40013 29.8005 2.12696 29.145 2.12401 28.4607L0.124033 28.4693C0.129245 29.6811 0.612952 30.8418 1.46985 31.6987L2.88406 30.2845ZM2.12402 28.465V5.92622H0.124023V28.465H2.12402ZM2.12401 5.93053C2.12696 5.24615 2.40013 4.59065 2.88406 4.10672L1.46985 2.6925C0.612951 3.5494 0.129245 4.7101 0.124033 5.92192L2.12401 5.93053ZM2.88406 4.10672C3.36799 3.62279 4.0235 3.34961 4.70787 3.34667L4.69927 1.34669C3.48745 1.3519 2.32674 1.83561 1.46985 2.6925L2.88406 4.10672ZM4.70357 3.34668H26.8472V1.34668H4.70357V3.34668ZM30.5 4.5C31.6046 4.5 32.5 3.60457 32.5 2.5H30.5V4.5ZM32.5 2.5C32.5 1.39543 31.6046 0.5 30.5 0.5V2.5H32.5ZM30.5 0.5C29.3955 0.5 28.5 1.39543 28.5 2.5H30.5V0.5ZM28.5 2.5C28.5 3.60457 29.3955 4.5 30.5 4.5V2.5H28.5ZM11.4115 17.049C10.5726 16.7467 9.78673 16.3139 9.08267 15.7668L7.85544 17.346C8.72548 18.0221 9.69668 18.5569 10.7333 18.9305L11.4115 17.049ZM9.13068 15.8066C8.81287 15.5262 8.55424 15.1851 8.36997 14.8034L6.56887 15.6729C6.86889 16.2944 7.28997 16.8497 7.80743 17.3063L9.13068 15.8066ZM8.36997 14.8034C8.1857 14.4217 8.0795 14.007 8.0576 13.5838L6.06027 13.6871C6.09594 14.3763 6.26885 15.0514 6.56887 15.6729L8.36997 14.8034ZM8.05893 13.6354C8.05893 13.3227 8.02145 12.7646 8.07222 12.2088C8.09779 11.9288 8.13873 11.7674 8.16512 11.7069C8.17687 11.6799 8.15538 11.7457 8.06294 11.8234C7.94537 11.9223 7.77305 11.9883 7.59202 11.9754L7.73452 9.98044C6.89803 9.9207 6.48159 10.5641 6.33191 10.9073C6.1738 11.2698 6.11111 11.6918 6.08051 12.0269C6.01894 12.701 6.05893 13.4988 6.05893 13.6354H8.05893ZM7.66327 11.9779C7.4095 11.9779 7.25331 11.8616 7.22172 11.837C7.18462 11.8081 7.17442 11.7906 7.20497 11.8273L8.74141 10.5469C8.69448 10.4906 8.5913 10.3685 8.44961 10.2583C8.31342 10.1524 8.04102 9.9779 7.66327 9.9779V11.9779ZM7.20555 11.828C7.42554 12.0915 7.65962 12.3429 7.90676 12.5811L9.29478 11.1412C9.09954 10.953 8.91462 10.7544 8.74083 10.5462L7.20555 11.828ZM7.90571 12.5801C8.91395 13.5549 10.1107 14.3134 11.4225 14.8092L12.1296 12.9383C11.0725 12.5388 10.1083 11.9276 9.29583 11.1422L7.90571 12.5801ZM11.4225 14.8092C12.7343 15.305 14.1335 15.5276 15.5345 15.4634L15.4429 13.4655C14.3141 13.5172 13.1866 13.3379 12.1296 12.9383L11.4225 14.8092ZM16.4745 14.2964C16.3852 13.7732 16.4451 13.2354 16.6472 12.7447L14.7978 11.9832C14.4528 12.8212 14.3506 13.7393 14.5029 14.6326L16.4745 14.2964ZM16.6472 12.7447C16.8492 12.2539 17.1853 11.8299 17.6171 11.5212L16.4537 9.89432C15.7166 10.4214 15.1428 11.1453 14.7978 11.9832L16.6472 12.7447ZM17.6171 11.5212C18.0488 11.2125 18.5587 11.0315 19.0884 10.999L18.9659 9.00273C18.0614 9.05826 17.1908 9.36724 16.4537 9.89432L17.6171 11.5212ZM19.0884 10.999C19.6182 10.9664 20.1464 11.0837 20.6126 11.3373L21.5682 9.58032C20.7722 9.14736 19.8703 8.9472 18.9659 9.00273L19.0884 10.999ZM20.5194 11.2797C20.9749 11.5966 21.4737 11.846 22.0005 12.0203L22.6287 10.1215C22.2847 10.0077 21.9589 9.84478 21.6615 9.63786L20.5194 11.2797ZM22.1569 12.0584C22.5771 12.1255 23.0052 12.1255 23.4253 12.0584L23.1099 10.0834C22.8987 10.1171 22.6835 10.1171 22.4723 10.0834L22.1569 12.0584ZM23.3802 12.0645L25.7046 11.8011L25.4794 9.81381L23.155 10.0772L23.3802 12.0645ZM24.8321 10.1574C23.9848 11.1479 23.2703 12.2447 22.7068 13.4201L24.5102 14.2847C24.9985 13.2662 25.6176 12.3158 26.3519 11.4575L24.8321 10.1574ZM22.6646 13.5221C22.275 14.6355 22.0162 15.7905 21.8934 16.9637L23.8825 17.1719C23.9892 16.1529 24.214 15.1497 24.5524 14.1827L22.6646 13.5221ZM21.9063 16.8769C21.6943 17.9673 21.2695 19.0052 20.656 19.9313L22.3234 21.0357C23.082 19.8905 23.6074 18.607 23.8696 17.2586L21.9063 16.8769ZM20.656 19.9313C20.0426 20.8574 19.2527 21.6535 18.3314 22.274L19.4487 23.9328C20.588 23.1654 21.5649 22.1809 22.3234 21.0357L20.656 19.9313ZM18.3311 22.2742C18.078 22.4448 17.8131 22.5974 17.5385 22.7309L18.413 24.5296C18.7719 24.3552 19.118 24.1557 19.4489 23.9327L18.3311 22.2742ZM17.4866 22.7581C17.1101 22.9693 16.7162 23.1479 16.3093 23.292L16.9769 25.1773C17.4913 24.9951 17.9891 24.7694 18.465 24.5025L17.4866 22.7581ZM16.3166 23.2894L15.8905 23.4366L16.5435 25.327L16.9697 25.1798L16.3166 23.2894ZM15.9485 23.4185L15.4759 23.5503L16.0128 25.4768L16.4854 25.3451L15.9485 23.4185ZM15.5253 23.5378C13.4795 23.9971 11.3538 23.9626 9.32406 23.437L8.82273 25.3731C11.16 25.9783 13.6077 26.0181 15.9634 25.4893L15.5253 23.5378ZM9.29826 23.4307L8.39175 23.2215L7.94203 25.1703L8.84854 25.3795L9.29826 23.4307ZM8.43417 23.2323L7.3727 22.9378L6.83814 24.8651L7.89961 25.1595L8.43417 23.2323ZM7.16317 24.8998C8.62592 24.8152 10.0467 24.3794 11.3054 23.6293L10.2815 21.9112C9.29888 22.4968 8.18964 22.8371 7.04767 22.9031L7.16317 24.8998ZM11.2992 23.633C11.4437 23.5482 11.6668 23.4043 11.8545 23.1901C12.0522 22.9645 12.2745 22.5817 12.2119 22.0806L10.2273 22.3287C10.213 22.2147 10.2308 22.107 10.2645 22.0196C10.2957 21.9387 10.3343 21.8902 10.3503 21.872C10.3663 21.8537 10.3723 21.8513 10.3577 21.8623C10.3441 21.8725 10.3216 21.8877 10.2877 21.9076L11.2992 23.633ZM12.2041 22.0293C12.1636 21.802 12.0757 21.5858 11.9461 21.3948L10.2911 22.5178C10.263 22.4764 10.2439 22.4294 10.2351 22.38L12.2041 22.0293ZM11.9461 21.3948C11.8165 21.2038 11.6481 21.0423 11.4518 20.9207L10.3985 22.6208C10.3558 22.5944 10.3193 22.5593 10.2911 22.5178L11.9461 21.3948ZM11.5846 21.019C10.8518 20.3762 10.2192 19.6275 9.70772 18.7977L8.00518 19.8472C8.62122 20.8466 9.38314 21.7483 10.2657 22.5225L11.5846 21.019Z"
          fill="#F3EFE5"/>
</svg>
