<?xml version="1.0" encoding="UTF-8"?>
<svg width="40" height="41" viewBox="0 0 40 41" fill="none" xmlns="http://www.w3.org/2000/svg">
    <path d="M38.4676 5.66025V34.4726C38.465 35.6868 37.9823 36.8506 37.1248 37.71C36.2673 38.5695 35.1046 39.0548 33.8906 39.06H5.57695C4.36468 39.0548 3.20354 38.5709 2.34632 37.7136C1.4891 36.8562 1.00521 35.695 1 34.4825V5.66025C1.00521 4.44783 1.4891 3.28656 2.34632 2.42924C3.20354 1.57192 4.36468 1.08798 5.57695 1.08276H33.8906"
          stroke="#F3EFE5" stroke-width="2" stroke-linecap="round" stroke-linejoin="round"/>
    <path d="M32.5351 14.8819C32.5351 14.8819 32.7899 16.9553 32.7899 19.0237V20.9621C32.7899 22.9597 32.5534 24.9527 32.5361 25.0957C32.5354 25.1017 32.5348 25.1059 32.5339 25.1119C32.5146 25.2413 32.255 26.898 31.5159 27.6419C30.5417 28.6611 29.4526 28.6661 28.9529 28.726C25.4149 28.978 20.1175 28.9906 20.0019 28.9908C19.9983 28.9908 19.9983 28.9908 19.9946 28.9908C19.9721 28.9906 19.8797 28.9897 19.7301 28.9881C18.4644 28.9744 13.1035 28.9074 11.3019 28.736C10.7323 28.6261 9.45332 28.6611 8.47908 27.6419C7.74503 26.8982 7.48553 25.2424 7.46608 25.1121C7.46517 25.106 7.46461 25.1017 7.46387 25.0956C7.44649 24.9514 7.21008 22.9545 7.21008 20.9621V19.0237C7.21008 17.022 7.45338 15.0157 7.46908 14.8883C7.46963 14.884 7.47012 14.8802 7.47076 14.8758C7.48733 14.7619 7.74113 13.0917 8.48408 12.3439C9.45831 11.3247 10.5475 11.3197 11.0471 11.2598C14.0362 11.0427 18.2778 11.007 19.5915 11.0012M28.9529 11.2598C25.3758 11 20.005 11 20.005 11C20.005 11 20.005 11 20.005 11H19.995M19.995 11C19.995 11 19.8499 11 19.5915 11.0012M19.995 11L19.5915 11.0012M17.3571 17.7761V21.6705C17.3571 22.4202 18.1517 22.9033 18.8173 22.5582L22.5602 20.6178C23.2787 20.2453 23.2801 19.2181 22.5627 18.8436L18.8199 16.8896C18.1541 16.542 17.3571 17.025 17.3571 17.7761Z"
          stroke="#F3EFE5" stroke-width="2" stroke-linecap="round"/>
    <path d="M38.5614 2.55758C39.2675 2.55758 39.84 1.98505 39.84 1.27879C39.84 0.572533 39.2675 0 38.5614 0C37.8552 0 37.2827 0.572533 37.2827 1.27879C37.2827 1.98505 37.8552 2.55758 38.5614 2.55758Z"
          fill="#F3EFE5"/>
</svg>